M48
; DRILL file {KiCad 5.1.6-1} date Sat Sep 26 18:39:18 2020
; FORMAT={-:-/ absolute / inch / decimal}
; #@! TF.CreationDate,2020-09-26T18:39:18+00:00
; #@! TF.GenerationSoftware,Kicad,Pcbnew,5.1.6-1
; #@! TF.FileFunction,Plated,1,2,PTH
FMAT,2
INCH
T1C0.0157
T2C0.0236
T3C0.0256
T4C0.0394
T5C0.0591
T6C0.1535
T7C0.1890
%
G90
G05
T1
X3.0807Y-4.9409
X3.189Y-5.2303
X3.2203Y-4.2219
X3.3602Y-3.6417
X3.374Y-4.1909
X3.435Y-3.3858
X3.5175Y-3.7189
X3.5177Y-3.6752
X3.5345Y-3.7512
X3.6043Y-3.8425
X3.6339Y-3.7579
X3.6791Y-3.8701
X3.8543Y-3.9528
X3.874Y-3.7874
X3.9122Y-3.8142
X3.9606Y-3.7036
X4.128Y-5.2972
X4.185Y-3.7441
X4.4941Y-3.2717
T3
X5.068Y-3.629
X5.068Y-3.679
X5.068Y-3.729
X5.068Y-3.779
X5.068Y-3.829
X5.118Y-3.629
X5.118Y-3.679
X5.118Y-3.729
X5.118Y-3.779
X5.118Y-3.829
T4
X3.535Y-3.337
X3.7319Y-3.337
T5
X3.923Y-4.608
X4.173Y-4.708
T6
X3.5339Y-4.561
T7
X4.5339Y-4.9504
T2
G00X3.1384Y-3.9126
M15
G01X3.0912Y-3.9126
M16
G05
G00X3.1384Y-4.3551
M15
G01X3.0912Y-4.3551
M16
G05
G00X3.2951Y-3.9126
M15
G01X3.2636Y-3.9126
M16
G05
G00X3.2951Y-4.3551
M15
G01X3.2636Y-4.3551
M16
G05
T0
M30
