M48
; DRILL file {KiCad 5.99.0-912657dd23-1} date Sat Apr 24 23:07:25 2021
; FORMAT={-:-/ absolute / inch / decimal}
; #@! TF.CreationDate,2021-04-24T23:07:25+00:00
; #@! TF.GenerationSoftware,Kicad,Pcbnew,5.99.0-912657dd23-1
FMAT,2
INCH
T1C0.0157
T2C0.0236
T3C0.0256
T4C0.0315
T5C0.0472
T6C0.0591
T7C0.0630
T8C0.0256
T9C0.0669
T10C0.1575
T11C0.5354
%
G90
G05
T1
X3.0433Y-4.5394
X3.155Y-3.146
X3.162Y-4.047
X3.189Y-5.2303
X3.232Y-3.878
X3.286Y-3.031
X3.3572Y-4.2622
X3.378Y-4.3346
X3.378Y-3.78
X3.4143Y-4.298
X3.435Y-3.3858
X3.4685Y-4.4567
X3.502Y-3.685
X3.518Y-4.3561
X3.524Y-4.139
X3.5322Y-3.7512
X3.6043Y-3.8425
X3.608Y-3.9943
X3.6335Y-3.7039
X3.6535Y-5.2598
X3.6614Y-4.8583
X3.6674Y-3.8644
X3.6883Y-3.737
X3.702Y-3.876
X3.755Y-4.08
X3.798Y-4.1326
X3.8268Y-4.3189
X3.874Y-3.7874
X3.9122Y-3.8142
X3.9412Y-3.6631
X4.128Y-5.2972
X4.1457Y-3.8386
X4.185Y-3.7441
X4.341Y-4.535
X4.4941Y-3.2717
X4.71Y-4.455
X4.71Y-4.797
T3
X5.068Y-3.629
X5.068Y-3.679
X5.068Y-3.729
X5.068Y-3.779
X5.068Y-3.829
X5.118Y-3.629
X5.118Y-3.679
X5.118Y-3.729
X5.118Y-3.779
X5.118Y-3.829
T4
X3.535Y-3.2953
X3.7319Y-3.2953
T6
X3.923Y-4.608
X4.173Y-4.708
T8
X3.2446Y-4.3372
X3.2446Y-4.5648
T9
X3.823Y-4.808
X4.223Y-4.808
T10
X4.023Y-4.808
T11
X4.1339Y-4.1339
T2
G00X3.1166Y-4.2809
M15
G01X3.0851Y-4.2809
M16
G05
G00X3.1166Y-4.6211
M15
G01X3.0851Y-4.6211
M16
G05
G00X3.2859Y-4.2809
M15
G01X3.2426Y-4.2809
M16
G05
G00X3.2859Y-4.6211
M15
G01X3.2426Y-4.6211
M16
G05
T5
G00X4.463Y-4.9504
M15
G01X4.6047Y-4.9504
M16
G05
T7
G00X3.4866Y-4.561
M15
G01X3.5811Y-4.561
M16
G05
T0
M30
