%TF.GenerationSoftware,KiCad,Pcbnew,5.1.6-1*%
%TF.CreationDate,2020-09-26T18:39:16+00:00*%
%TF.ProjectId,bigbutton,62696762-7574-4746-9f6e-2e6b69636164,rev?*%
%TF.SameCoordinates,Original*%
%TF.FileFunction,Legend,Bot*%
%TF.FilePolarity,Positive*%
%FSLAX46Y46*%
G04 Gerber Fmt 4.6, Leading zero omitted, Abs format (unit mm)*
G04 Created by KiCad (PCBNEW 5.1.6-1) date 2020-09-26 18:39:16*
%MOMM*%
%LPD*%
G01*
G04 APERTURE LIST*
%ADD10C,0.120000*%
%ADD11C,0.150000*%
G04 APERTURE END LIST*
D10*
%TO.C,SW3*%
X77100000Y-73900000D02*
X77100000Y-136100000D01*
X132900000Y-73900000D02*
X77100000Y-73900000D01*
X132900000Y-136100000D02*
X132900000Y-73900000D01*
X77100000Y-136100000D02*
X132900000Y-136100000D01*
%TO.C,SW2*%
X109169200Y-129108200D02*
X109169200Y-115138200D01*
X95199200Y-129108200D02*
X109169200Y-129108200D01*
X95199200Y-115138200D02*
X95199200Y-129108200D01*
X109169200Y-115138200D02*
X95199200Y-115138200D01*
%TO.C,U4*%
X106562800Y-83656600D02*
X106562800Y-85456600D01*
X103342800Y-85456600D02*
X103342800Y-83006600D01*
%TO.C,D8*%
X125350000Y-79750000D02*
X132650000Y-79750000D01*
X125350000Y-74250000D02*
X132650000Y-74250000D01*
X132650000Y-74250000D02*
X132650000Y-75400000D01*
%TO.C,D7*%
X125350000Y-107750000D02*
X132650000Y-107750000D01*
X125350000Y-102250000D02*
X132650000Y-102250000D01*
X132650000Y-102250000D02*
X132650000Y-103400000D01*
%TO.C,D6*%
X125350000Y-135750000D02*
X132650000Y-135750000D01*
X125350000Y-130250000D02*
X132650000Y-130250000D01*
X132650000Y-130250000D02*
X132650000Y-131400000D01*
%TO.C,D5*%
X101350000Y-135750000D02*
X108650000Y-135750000D01*
X101350000Y-130250000D02*
X108650000Y-130250000D01*
X108650000Y-130250000D02*
X108650000Y-131400000D01*
%TO.C,D4*%
X77350000Y-135750000D02*
X84650000Y-135750000D01*
X77350000Y-130250000D02*
X84650000Y-130250000D01*
X84650000Y-130250000D02*
X84650000Y-131400000D01*
%TO.C,D3*%
X77350000Y-107750000D02*
X84650000Y-107750000D01*
X77350000Y-102250000D02*
X84650000Y-102250000D01*
X84650000Y-102250000D02*
X84650000Y-103400000D01*
%TO.C,D2*%
X77350000Y-79750000D02*
X84650000Y-79750000D01*
X77350000Y-74250000D02*
X84650000Y-74250000D01*
X84650000Y-74250000D02*
X84650000Y-75400000D01*
%TO.C,D1*%
X101350000Y-79750000D02*
X108650000Y-79750000D01*
X101350000Y-74250000D02*
X108650000Y-74250000D01*
X108650000Y-74250000D02*
X108650000Y-75400000D01*
%TO.C,C19*%
X126032800Y-81783133D02*
X126032800Y-82125667D01*
X127052800Y-81783133D02*
X127052800Y-82125667D01*
%TO.C,C18*%
X124106400Y-105505067D02*
X124106400Y-105162533D01*
X123086400Y-105505067D02*
X123086400Y-105162533D01*
%TO.C,C17*%
X122980267Y-133906800D02*
X122637733Y-133906800D01*
X122980267Y-134926800D02*
X122637733Y-134926800D01*
%TO.C,C16*%
X98545467Y-133729000D02*
X98202933Y-133729000D01*
X98545467Y-134749000D02*
X98202933Y-134749000D01*
%TO.C,C15*%
X80727733Y-129745200D02*
X81070267Y-129745200D01*
X80727733Y-128725200D02*
X81070267Y-128725200D01*
%TO.C,C14*%
X79254533Y-101348000D02*
X79597067Y-101348000D01*
X79254533Y-100328000D02*
X79597067Y-100328000D01*
%TO.C,C13*%
X79305333Y-82196400D02*
X79647867Y-82196400D01*
X79305333Y-81176400D02*
X79647867Y-81176400D01*
%TO.C,C12*%
X109294200Y-76169733D02*
X109294200Y-76512267D01*
X110314200Y-76169733D02*
X110314200Y-76512267D01*
%TO.C,SW3*%
D11*
X106333333Y-113278761D02*
X106190476Y-113326380D01*
X105952380Y-113326380D01*
X105857142Y-113278761D01*
X105809523Y-113231142D01*
X105761904Y-113135904D01*
X105761904Y-113040666D01*
X105809523Y-112945428D01*
X105857142Y-112897809D01*
X105952380Y-112850190D01*
X106142857Y-112802571D01*
X106238095Y-112754952D01*
X106285714Y-112707333D01*
X106333333Y-112612095D01*
X106333333Y-112516857D01*
X106285714Y-112421619D01*
X106238095Y-112374000D01*
X106142857Y-112326380D01*
X105904761Y-112326380D01*
X105761904Y-112374000D01*
X105428571Y-112326380D02*
X105190476Y-113326380D01*
X105000000Y-112612095D01*
X104809523Y-113326380D01*
X104571428Y-112326380D01*
X104285714Y-112326380D02*
X103666666Y-112326380D01*
X104000000Y-112707333D01*
X103857142Y-112707333D01*
X103761904Y-112754952D01*
X103714285Y-112802571D01*
X103666666Y-112897809D01*
X103666666Y-113135904D01*
X103714285Y-113231142D01*
X103761904Y-113278761D01*
X103857142Y-113326380D01*
X104142857Y-113326380D01*
X104238095Y-113278761D01*
X104285714Y-113231142D01*
%TO.C,SW2*%
X103517533Y-114653961D02*
X103374676Y-114701580D01*
X103136580Y-114701580D01*
X103041342Y-114653961D01*
X102993723Y-114606342D01*
X102946104Y-114511104D01*
X102946104Y-114415866D01*
X102993723Y-114320628D01*
X103041342Y-114273009D01*
X103136580Y-114225390D01*
X103327057Y-114177771D01*
X103422295Y-114130152D01*
X103469914Y-114082533D01*
X103517533Y-113987295D01*
X103517533Y-113892057D01*
X103469914Y-113796819D01*
X103422295Y-113749200D01*
X103327057Y-113701580D01*
X103088961Y-113701580D01*
X102946104Y-113749200D01*
X102612771Y-113701580D02*
X102374676Y-114701580D01*
X102184200Y-113987295D01*
X101993723Y-114701580D01*
X101755628Y-113701580D01*
X101422295Y-113796819D02*
X101374676Y-113749200D01*
X101279438Y-113701580D01*
X101041342Y-113701580D01*
X100946104Y-113749200D01*
X100898485Y-113796819D01*
X100850866Y-113892057D01*
X100850866Y-113987295D01*
X100898485Y-114130152D01*
X101469914Y-114701580D01*
X100850866Y-114701580D01*
%TO.C,U4*%
X101505180Y-83794695D02*
X102314704Y-83794695D01*
X102409942Y-83842314D01*
X102457561Y-83889933D01*
X102505180Y-83985171D01*
X102505180Y-84175647D01*
X102457561Y-84270885D01*
X102409942Y-84318504D01*
X102314704Y-84366123D01*
X101505180Y-84366123D01*
X101838514Y-85270885D02*
X102505180Y-85270885D01*
X101457561Y-85032790D02*
X102171847Y-84794695D01*
X102171847Y-85413742D01*
%TO.C,D8*%
X129738095Y-80952380D02*
X129738095Y-79952380D01*
X129500000Y-79952380D01*
X129357142Y-80000000D01*
X129261904Y-80095238D01*
X129214285Y-80190476D01*
X129166666Y-80380952D01*
X129166666Y-80523809D01*
X129214285Y-80714285D01*
X129261904Y-80809523D01*
X129357142Y-80904761D01*
X129500000Y-80952380D01*
X129738095Y-80952380D01*
X128595238Y-80380952D02*
X128690476Y-80333333D01*
X128738095Y-80285714D01*
X128785714Y-80190476D01*
X128785714Y-80142857D01*
X128738095Y-80047619D01*
X128690476Y-80000000D01*
X128595238Y-79952380D01*
X128404761Y-79952380D01*
X128309523Y-80000000D01*
X128261904Y-80047619D01*
X128214285Y-80142857D01*
X128214285Y-80190476D01*
X128261904Y-80285714D01*
X128309523Y-80333333D01*
X128404761Y-80380952D01*
X128595238Y-80380952D01*
X128690476Y-80428571D01*
X128738095Y-80476190D01*
X128785714Y-80571428D01*
X128785714Y-80761904D01*
X128738095Y-80857142D01*
X128690476Y-80904761D01*
X128595238Y-80952380D01*
X128404761Y-80952380D01*
X128309523Y-80904761D01*
X128261904Y-80857142D01*
X128214285Y-80761904D01*
X128214285Y-80571428D01*
X128261904Y-80476190D01*
X128309523Y-80428571D01*
X128404761Y-80380952D01*
X124564285Y-79052380D02*
X125135714Y-79052380D01*
X124850000Y-79052380D02*
X124850000Y-78052380D01*
X124945238Y-78195238D01*
X125040476Y-78290476D01*
X125135714Y-78338095D01*
%TO.C,D7*%
X129738095Y-108952380D02*
X129738095Y-107952380D01*
X129500000Y-107952380D01*
X129357142Y-108000000D01*
X129261904Y-108095238D01*
X129214285Y-108190476D01*
X129166666Y-108380952D01*
X129166666Y-108523809D01*
X129214285Y-108714285D01*
X129261904Y-108809523D01*
X129357142Y-108904761D01*
X129500000Y-108952380D01*
X129738095Y-108952380D01*
X128833333Y-107952380D02*
X128166666Y-107952380D01*
X128595238Y-108952380D01*
X124564285Y-107052380D02*
X125135714Y-107052380D01*
X124850000Y-107052380D02*
X124850000Y-106052380D01*
X124945238Y-106195238D01*
X125040476Y-106290476D01*
X125135714Y-106338095D01*
%TO.C,D6*%
X129770095Y-129712980D02*
X129770095Y-128712980D01*
X129532000Y-128712980D01*
X129389142Y-128760600D01*
X129293904Y-128855838D01*
X129246285Y-128951076D01*
X129198666Y-129141552D01*
X129198666Y-129284409D01*
X129246285Y-129474885D01*
X129293904Y-129570123D01*
X129389142Y-129665361D01*
X129532000Y-129712980D01*
X129770095Y-129712980D01*
X128341523Y-128712980D02*
X128532000Y-128712980D01*
X128627238Y-128760600D01*
X128674857Y-128808219D01*
X128770095Y-128951076D01*
X128817714Y-129141552D01*
X128817714Y-129522504D01*
X128770095Y-129617742D01*
X128722476Y-129665361D01*
X128627238Y-129712980D01*
X128436761Y-129712980D01*
X128341523Y-129665361D01*
X128293904Y-129617742D01*
X128246285Y-129522504D01*
X128246285Y-129284409D01*
X128293904Y-129189171D01*
X128341523Y-129141552D01*
X128436761Y-129093933D01*
X128627238Y-129093933D01*
X128722476Y-129141552D01*
X128770095Y-129189171D01*
X128817714Y-129284409D01*
X124564285Y-135052380D02*
X125135714Y-135052380D01*
X124850000Y-135052380D02*
X124850000Y-134052380D01*
X124945238Y-134195238D01*
X125040476Y-134290476D01*
X125135714Y-134338095D01*
%TO.C,D5*%
X110438095Y-133452380D02*
X110438095Y-132452380D01*
X110200000Y-132452380D01*
X110057142Y-132500000D01*
X109961904Y-132595238D01*
X109914285Y-132690476D01*
X109866666Y-132880952D01*
X109866666Y-133023809D01*
X109914285Y-133214285D01*
X109961904Y-133309523D01*
X110057142Y-133404761D01*
X110200000Y-133452380D01*
X110438095Y-133452380D01*
X108961904Y-132452380D02*
X109438095Y-132452380D01*
X109485714Y-132928571D01*
X109438095Y-132880952D01*
X109342857Y-132833333D01*
X109104761Y-132833333D01*
X109009523Y-132880952D01*
X108961904Y-132928571D01*
X108914285Y-133023809D01*
X108914285Y-133261904D01*
X108961904Y-133357142D01*
X109009523Y-133404761D01*
X109104761Y-133452380D01*
X109342857Y-133452380D01*
X109438095Y-133404761D01*
X109485714Y-133357142D01*
X100564285Y-135052380D02*
X101135714Y-135052380D01*
X100850000Y-135052380D02*
X100850000Y-134052380D01*
X100945238Y-134195238D01*
X101040476Y-134290476D01*
X101135714Y-134338095D01*
%TO.C,D4*%
X86338095Y-133452380D02*
X86338095Y-132452380D01*
X86100000Y-132452380D01*
X85957142Y-132500000D01*
X85861904Y-132595238D01*
X85814285Y-132690476D01*
X85766666Y-132880952D01*
X85766666Y-133023809D01*
X85814285Y-133214285D01*
X85861904Y-133309523D01*
X85957142Y-133404761D01*
X86100000Y-133452380D01*
X86338095Y-133452380D01*
X84909523Y-132785714D02*
X84909523Y-133452380D01*
X85147619Y-132404761D02*
X85385714Y-133119047D01*
X84766666Y-133119047D01*
X76564285Y-135052380D02*
X77135714Y-135052380D01*
X76850000Y-135052380D02*
X76850000Y-134052380D01*
X76945238Y-134195238D01*
X77040476Y-134290476D01*
X77135714Y-134338095D01*
%TO.C,D3*%
X81738095Y-108952380D02*
X81738095Y-107952380D01*
X81500000Y-107952380D01*
X81357142Y-108000000D01*
X81261904Y-108095238D01*
X81214285Y-108190476D01*
X81166666Y-108380952D01*
X81166666Y-108523809D01*
X81214285Y-108714285D01*
X81261904Y-108809523D01*
X81357142Y-108904761D01*
X81500000Y-108952380D01*
X81738095Y-108952380D01*
X80833333Y-107952380D02*
X80214285Y-107952380D01*
X80547619Y-108333333D01*
X80404761Y-108333333D01*
X80309523Y-108380952D01*
X80261904Y-108428571D01*
X80214285Y-108523809D01*
X80214285Y-108761904D01*
X80261904Y-108857142D01*
X80309523Y-108904761D01*
X80404761Y-108952380D01*
X80690476Y-108952380D01*
X80785714Y-108904761D01*
X80833333Y-108857142D01*
X76564285Y-107052380D02*
X77135714Y-107052380D01*
X76850000Y-107052380D02*
X76850000Y-106052380D01*
X76945238Y-106195238D01*
X77040476Y-106290476D01*
X77135714Y-106338095D01*
%TO.C,D2*%
X81738095Y-80952380D02*
X81738095Y-79952380D01*
X81500000Y-79952380D01*
X81357142Y-80000000D01*
X81261904Y-80095238D01*
X81214285Y-80190476D01*
X81166666Y-80380952D01*
X81166666Y-80523809D01*
X81214285Y-80714285D01*
X81261904Y-80809523D01*
X81357142Y-80904761D01*
X81500000Y-80952380D01*
X81738095Y-80952380D01*
X80785714Y-80047619D02*
X80738095Y-80000000D01*
X80642857Y-79952380D01*
X80404761Y-79952380D01*
X80309523Y-80000000D01*
X80261904Y-80047619D01*
X80214285Y-80142857D01*
X80214285Y-80238095D01*
X80261904Y-80380952D01*
X80833333Y-80952380D01*
X80214285Y-80952380D01*
X76564285Y-79052380D02*
X77135714Y-79052380D01*
X76850000Y-79052380D02*
X76850000Y-78052380D01*
X76945238Y-78195238D01*
X77040476Y-78290476D01*
X77135714Y-78338095D01*
%TO.C,D1*%
X105738095Y-80952380D02*
X105738095Y-79952380D01*
X105500000Y-79952380D01*
X105357142Y-80000000D01*
X105261904Y-80095238D01*
X105214285Y-80190476D01*
X105166666Y-80380952D01*
X105166666Y-80523809D01*
X105214285Y-80714285D01*
X105261904Y-80809523D01*
X105357142Y-80904761D01*
X105500000Y-80952380D01*
X105738095Y-80952380D01*
X104214285Y-80952380D02*
X104785714Y-80952380D01*
X104500000Y-80952380D02*
X104500000Y-79952380D01*
X104595238Y-80095238D01*
X104690476Y-80190476D01*
X104785714Y-80238095D01*
X100564285Y-79052380D02*
X101135714Y-79052380D01*
X100850000Y-79052380D02*
X100850000Y-78052380D01*
X100945238Y-78195238D01*
X101040476Y-78290476D01*
X101135714Y-78338095D01*
%TO.C,C19*%
X125469942Y-81311542D02*
X125517561Y-81263923D01*
X125565180Y-81121066D01*
X125565180Y-81025828D01*
X125517561Y-80882971D01*
X125422323Y-80787733D01*
X125327085Y-80740114D01*
X125136609Y-80692495D01*
X124993752Y-80692495D01*
X124803276Y-80740114D01*
X124708038Y-80787733D01*
X124612800Y-80882971D01*
X124565180Y-81025828D01*
X124565180Y-81121066D01*
X124612800Y-81263923D01*
X124660419Y-81311542D01*
X125565180Y-82263923D02*
X125565180Y-81692495D01*
X125565180Y-81978209D02*
X124565180Y-81978209D01*
X124708038Y-81882971D01*
X124803276Y-81787733D01*
X124850895Y-81692495D01*
X125565180Y-82740114D02*
X125565180Y-82930590D01*
X125517561Y-83025828D01*
X125469942Y-83073447D01*
X125327085Y-83168685D01*
X125136609Y-83216304D01*
X124755657Y-83216304D01*
X124660419Y-83168685D01*
X124612800Y-83121066D01*
X124565180Y-83025828D01*
X124565180Y-82835352D01*
X124612800Y-82740114D01*
X124660419Y-82692495D01*
X124755657Y-82644876D01*
X124993752Y-82644876D01*
X125088990Y-82692495D01*
X125136609Y-82740114D01*
X125184228Y-82835352D01*
X125184228Y-83025828D01*
X125136609Y-83121066D01*
X125088990Y-83168685D01*
X124993752Y-83216304D01*
%TO.C,C18*%
X122353342Y-104690942D02*
X122400961Y-104643323D01*
X122448580Y-104500466D01*
X122448580Y-104405228D01*
X122400961Y-104262371D01*
X122305723Y-104167133D01*
X122210485Y-104119514D01*
X122020009Y-104071895D01*
X121877152Y-104071895D01*
X121686676Y-104119514D01*
X121591438Y-104167133D01*
X121496200Y-104262371D01*
X121448580Y-104405228D01*
X121448580Y-104500466D01*
X121496200Y-104643323D01*
X121543819Y-104690942D01*
X122448580Y-105643323D02*
X122448580Y-105071895D01*
X122448580Y-105357609D02*
X121448580Y-105357609D01*
X121591438Y-105262371D01*
X121686676Y-105167133D01*
X121734295Y-105071895D01*
X121877152Y-106214752D02*
X121829533Y-106119514D01*
X121781914Y-106071895D01*
X121686676Y-106024276D01*
X121639057Y-106024276D01*
X121543819Y-106071895D01*
X121496200Y-106119514D01*
X121448580Y-106214752D01*
X121448580Y-106405228D01*
X121496200Y-106500466D01*
X121543819Y-106548085D01*
X121639057Y-106595704D01*
X121686676Y-106595704D01*
X121781914Y-106548085D01*
X121829533Y-106500466D01*
X121877152Y-106405228D01*
X121877152Y-106214752D01*
X121924771Y-106119514D01*
X121972390Y-106071895D01*
X122067628Y-106024276D01*
X122258104Y-106024276D01*
X122353342Y-106071895D01*
X122400961Y-106119514D01*
X122448580Y-106214752D01*
X122448580Y-106405228D01*
X122400961Y-106500466D01*
X122353342Y-106548085D01*
X122258104Y-106595704D01*
X122067628Y-106595704D01*
X121972390Y-106548085D01*
X121924771Y-106500466D01*
X121877152Y-106405228D01*
%TO.C,C17*%
X123451857Y-133343942D02*
X123499476Y-133391561D01*
X123642333Y-133439180D01*
X123737571Y-133439180D01*
X123880428Y-133391561D01*
X123975666Y-133296323D01*
X124023285Y-133201085D01*
X124070904Y-133010609D01*
X124070904Y-132867752D01*
X124023285Y-132677276D01*
X123975666Y-132582038D01*
X123880428Y-132486800D01*
X123737571Y-132439180D01*
X123642333Y-132439180D01*
X123499476Y-132486800D01*
X123451857Y-132534419D01*
X122499476Y-133439180D02*
X123070904Y-133439180D01*
X122785190Y-133439180D02*
X122785190Y-132439180D01*
X122880428Y-132582038D01*
X122975666Y-132677276D01*
X123070904Y-132724895D01*
X122166142Y-132439180D02*
X121499476Y-132439180D01*
X121928047Y-133439180D01*
%TO.C,C16*%
X99017057Y-133166142D02*
X99064676Y-133213761D01*
X99207533Y-133261380D01*
X99302771Y-133261380D01*
X99445628Y-133213761D01*
X99540866Y-133118523D01*
X99588485Y-133023285D01*
X99636104Y-132832809D01*
X99636104Y-132689952D01*
X99588485Y-132499476D01*
X99540866Y-132404238D01*
X99445628Y-132309000D01*
X99302771Y-132261380D01*
X99207533Y-132261380D01*
X99064676Y-132309000D01*
X99017057Y-132356619D01*
X98064676Y-133261380D02*
X98636104Y-133261380D01*
X98350390Y-133261380D02*
X98350390Y-132261380D01*
X98445628Y-132404238D01*
X98540866Y-132499476D01*
X98636104Y-132547095D01*
X97207533Y-132261380D02*
X97398009Y-132261380D01*
X97493247Y-132309000D01*
X97540866Y-132356619D01*
X97636104Y-132499476D01*
X97683723Y-132689952D01*
X97683723Y-133070904D01*
X97636104Y-133166142D01*
X97588485Y-133213761D01*
X97493247Y-133261380D01*
X97302771Y-133261380D01*
X97207533Y-133213761D01*
X97159914Y-133166142D01*
X97112295Y-133070904D01*
X97112295Y-132832809D01*
X97159914Y-132737571D01*
X97207533Y-132689952D01*
X97302771Y-132642333D01*
X97493247Y-132642333D01*
X97588485Y-132689952D01*
X97636104Y-132737571D01*
X97683723Y-132832809D01*
%TO.C,C15*%
X81618057Y-127992142D02*
X81665676Y-128039761D01*
X81808533Y-128087380D01*
X81903771Y-128087380D01*
X82046628Y-128039761D01*
X82141866Y-127944523D01*
X82189485Y-127849285D01*
X82237104Y-127658809D01*
X82237104Y-127515952D01*
X82189485Y-127325476D01*
X82141866Y-127230238D01*
X82046628Y-127135000D01*
X81903771Y-127087380D01*
X81808533Y-127087380D01*
X81665676Y-127135000D01*
X81618057Y-127182619D01*
X80665676Y-128087380D02*
X81237104Y-128087380D01*
X80951390Y-128087380D02*
X80951390Y-127087380D01*
X81046628Y-127230238D01*
X81141866Y-127325476D01*
X81237104Y-127373095D01*
X79760914Y-127087380D02*
X80237104Y-127087380D01*
X80284723Y-127563571D01*
X80237104Y-127515952D01*
X80141866Y-127468333D01*
X79903771Y-127468333D01*
X79808533Y-127515952D01*
X79760914Y-127563571D01*
X79713295Y-127658809D01*
X79713295Y-127896904D01*
X79760914Y-127992142D01*
X79808533Y-128039761D01*
X79903771Y-128087380D01*
X80141866Y-128087380D01*
X80237104Y-128039761D01*
X80284723Y-127992142D01*
%TO.C,C14*%
X83442857Y-101157142D02*
X83490476Y-101204761D01*
X83633333Y-101252380D01*
X83728571Y-101252380D01*
X83871428Y-101204761D01*
X83966666Y-101109523D01*
X84014285Y-101014285D01*
X84061904Y-100823809D01*
X84061904Y-100680952D01*
X84014285Y-100490476D01*
X83966666Y-100395238D01*
X83871428Y-100300000D01*
X83728571Y-100252380D01*
X83633333Y-100252380D01*
X83490476Y-100300000D01*
X83442857Y-100347619D01*
X82490476Y-101252380D02*
X83061904Y-101252380D01*
X82776190Y-101252380D02*
X82776190Y-100252380D01*
X82871428Y-100395238D01*
X82966666Y-100490476D01*
X83061904Y-100538095D01*
X81633333Y-100585714D02*
X81633333Y-101252380D01*
X81871428Y-100204761D02*
X82109523Y-100919047D01*
X81490476Y-100919047D01*
%TO.C,C13*%
X80119457Y-83473542D02*
X80167076Y-83521161D01*
X80309933Y-83568780D01*
X80405171Y-83568780D01*
X80548028Y-83521161D01*
X80643266Y-83425923D01*
X80690885Y-83330685D01*
X80738504Y-83140209D01*
X80738504Y-82997352D01*
X80690885Y-82806876D01*
X80643266Y-82711638D01*
X80548028Y-82616400D01*
X80405171Y-82568780D01*
X80309933Y-82568780D01*
X80167076Y-82616400D01*
X80119457Y-82664019D01*
X79167076Y-83568780D02*
X79738504Y-83568780D01*
X79452790Y-83568780D02*
X79452790Y-82568780D01*
X79548028Y-82711638D01*
X79643266Y-82806876D01*
X79738504Y-82854495D01*
X78833742Y-82568780D02*
X78214695Y-82568780D01*
X78548028Y-82949733D01*
X78405171Y-82949733D01*
X78309933Y-82997352D01*
X78262314Y-83044971D01*
X78214695Y-83140209D01*
X78214695Y-83378304D01*
X78262314Y-83473542D01*
X78309933Y-83521161D01*
X78405171Y-83568780D01*
X78690885Y-83568780D01*
X78786123Y-83521161D01*
X78833742Y-83473542D01*
%TO.C,C12*%
X112294942Y-75661342D02*
X112342561Y-75613723D01*
X112390180Y-75470866D01*
X112390180Y-75375628D01*
X112342561Y-75232771D01*
X112247323Y-75137533D01*
X112152085Y-75089914D01*
X111961609Y-75042295D01*
X111818752Y-75042295D01*
X111628276Y-75089914D01*
X111533038Y-75137533D01*
X111437800Y-75232771D01*
X111390180Y-75375628D01*
X111390180Y-75470866D01*
X111437800Y-75613723D01*
X111485419Y-75661342D01*
X112390180Y-76613723D02*
X112390180Y-76042295D01*
X112390180Y-76328009D02*
X111390180Y-76328009D01*
X111533038Y-76232771D01*
X111628276Y-76137533D01*
X111675895Y-76042295D01*
X111485419Y-76994676D02*
X111437800Y-77042295D01*
X111390180Y-77137533D01*
X111390180Y-77375628D01*
X111437800Y-77470866D01*
X111485419Y-77518485D01*
X111580657Y-77566104D01*
X111675895Y-77566104D01*
X111818752Y-77518485D01*
X112390180Y-76947057D01*
X112390180Y-77566104D01*
%TD*%
M02*
