%TF.GenerationSoftware,KiCad,Pcbnew,5.1.6-1*%
%TF.CreationDate,2020-09-26T18:39:16+00:00*%
%TF.ProjectId,bigbutton,62696762-7574-4746-9f6e-2e6b69636164,rev?*%
%TF.SameCoordinates,Original*%
%TF.FileFunction,Legend,Top*%
%TF.FilePolarity,Positive*%
%FSLAX46Y46*%
G04 Gerber Fmt 4.6, Leading zero omitted, Abs format (unit mm)*
G04 Created by KiCad (PCBNEW 5.1.6-1) date 2020-09-26 18:39:16*
%MOMM*%
%LPD*%
G01*
G04 APERTURE LIST*
%ADD10C,0.152400*%
%ADD11C,0.120000*%
%ADD12C,0.150000*%
G04 APERTURE END LIST*
D10*
X120845638Y-130554895D02*
X120845638Y-131135466D01*
X120806933Y-131251580D01*
X120729523Y-131328990D01*
X120613409Y-131367695D01*
X120536000Y-131367695D01*
X121619733Y-131367695D02*
X121232685Y-131367695D01*
X121232685Y-130554895D01*
X122355123Y-131290285D02*
X122316419Y-131328990D01*
X122200304Y-131367695D01*
X122122895Y-131367695D01*
X122006780Y-131328990D01*
X121929371Y-131251580D01*
X121890666Y-131174171D01*
X121851961Y-131019352D01*
X121851961Y-130903238D01*
X121890666Y-130748419D01*
X121929371Y-130671009D01*
X122006780Y-130593600D01*
X122122895Y-130554895D01*
X122200304Y-130554895D01*
X122316419Y-130593600D01*
X122355123Y-130632304D01*
X122935695Y-130554895D02*
X122935695Y-131135466D01*
X122896990Y-131251580D01*
X122819580Y-131328990D01*
X122703466Y-131367695D01*
X122626057Y-131367695D01*
X123709790Y-131367695D02*
X123322742Y-131367695D01*
X123322742Y-130554895D01*
X124445180Y-131290285D02*
X124406476Y-131328990D01*
X124290361Y-131367695D01*
X124212952Y-131367695D01*
X124096838Y-131328990D01*
X124019428Y-131251580D01*
X123980723Y-131174171D01*
X123942019Y-131019352D01*
X123942019Y-130903238D01*
X123980723Y-130748419D01*
X124019428Y-130671009D01*
X124096838Y-130593600D01*
X124212952Y-130554895D01*
X124290361Y-130554895D01*
X124406476Y-130593600D01*
X124445180Y-130632304D01*
X125025752Y-130554895D02*
X125025752Y-131135466D01*
X124987047Y-131251580D01*
X124909638Y-131328990D01*
X124793523Y-131367695D01*
X124716114Y-131367695D01*
X125799847Y-131367695D02*
X125412800Y-131367695D01*
X125412800Y-130554895D01*
X126535238Y-131290285D02*
X126496533Y-131328990D01*
X126380419Y-131367695D01*
X126303009Y-131367695D01*
X126186895Y-131328990D01*
X126109485Y-131251580D01*
X126070780Y-131174171D01*
X126032076Y-131019352D01*
X126032076Y-130903238D01*
X126070780Y-130748419D01*
X126109485Y-130671009D01*
X126186895Y-130593600D01*
X126303009Y-130554895D01*
X126380419Y-130554895D01*
X126496533Y-130593600D01*
X126535238Y-130632304D01*
X127115809Y-130554895D02*
X127115809Y-131135466D01*
X127077104Y-131251580D01*
X126999695Y-131328990D01*
X126883580Y-131367695D01*
X126806171Y-131367695D01*
X127889904Y-131367695D02*
X127502857Y-131367695D01*
X127502857Y-130554895D01*
X128625295Y-131290285D02*
X128586590Y-131328990D01*
X128470476Y-131367695D01*
X128393066Y-131367695D01*
X128276952Y-131328990D01*
X128199542Y-131251580D01*
X128160838Y-131174171D01*
X128122133Y-131019352D01*
X128122133Y-130903238D01*
X128160838Y-130748419D01*
X128199542Y-130671009D01*
X128276952Y-130593600D01*
X128393066Y-130554895D01*
X128470476Y-130554895D01*
X128586590Y-130593600D01*
X128625295Y-130632304D01*
D11*
%TO.C,SW4*%
X126300000Y-103400000D02*
X126300000Y-108800000D01*
X131700000Y-108800000D02*
X131700000Y-103400000D01*
X130350000Y-108800000D02*
X127650000Y-108800000D01*
X130350000Y-103400000D02*
X127650000Y-103400000D01*
X131700000Y-103400000D02*
X131400000Y-103400000D01*
X126300000Y-103400000D02*
X126600000Y-103400000D01*
X126600000Y-108800000D02*
X126300000Y-108800000D01*
X131700000Y-108800000D02*
X131400000Y-108800000D01*
%TO.C,R6*%
X126371267Y-99090000D02*
X126028733Y-99090000D01*
X126371267Y-100110000D02*
X126028733Y-100110000D01*
%TO.C,J2*%
X82246200Y-99380000D02*
X80366200Y-99380000D01*
X80366200Y-110620000D02*
X82246200Y-110620000D01*
X77866200Y-110620000D02*
X77191200Y-110620000D01*
X77191200Y-99380000D02*
X77866200Y-99380000D01*
X77191200Y-99380000D02*
X77191200Y-110620000D01*
%TO.C,C2*%
X99214400Y-92919733D02*
X99214400Y-93262267D01*
X98194400Y-92919733D02*
X98194400Y-93262267D01*
%TO.C,X1*%
X90039000Y-82809800D02*
X94539000Y-82809800D01*
X90039000Y-86709800D02*
X94539000Y-86709800D01*
X94539000Y-86709800D02*
G75*
G03*
X94539000Y-82809800I0J1950000D01*
G01*
X90039000Y-86709800D02*
G75*
G02*
X90039000Y-82809800I0J1950000D01*
G01*
%TO.C,J1*%
X131127200Y-91481600D02*
X130304730Y-91481600D01*
X128419670Y-91481600D02*
X127597200Y-91481600D01*
X129689670Y-91481600D02*
X129034730Y-91481600D01*
X131127200Y-96496600D02*
X131127200Y-91481600D01*
X127597200Y-97951600D02*
X127597200Y-91481600D01*
X131127200Y-96496600D02*
X130560671Y-96496600D01*
X129433729Y-96496600D02*
X129290671Y-96496600D01*
X129237200Y-96550071D02*
X129237200Y-96693129D01*
X129237200Y-97820071D02*
X129237200Y-97951600D01*
X129237200Y-97951600D02*
X129034730Y-97951600D01*
X128419670Y-97951600D02*
X127597200Y-97951600D01*
X131127200Y-97256600D02*
X131127200Y-98016600D01*
X131127200Y-98016600D02*
X129997200Y-98016600D01*
%TO.C,U5*%
X87542800Y-111769800D02*
X89342800Y-111769800D01*
X89342800Y-108549800D02*
X86892800Y-108549800D01*
%TO.C,U3*%
X87949200Y-106308800D02*
X89749200Y-106308800D01*
X89749200Y-103088800D02*
X86799200Y-103088800D01*
%TO.C,U2*%
X112039400Y-88549800D02*
X110089400Y-88549800D01*
X112039400Y-88549800D02*
X113989400Y-88549800D01*
X112039400Y-93669800D02*
X110089400Y-93669800D01*
X112039400Y-93669800D02*
X115489400Y-93669800D01*
%TO.C,U1*%
X88084000Y-98892600D02*
X88084000Y-99342600D01*
X88084000Y-99342600D02*
X88534000Y-99342600D01*
X88084000Y-92572600D02*
X88084000Y-92122600D01*
X88084000Y-92122600D02*
X88534000Y-92122600D01*
X95304000Y-98892600D02*
X95304000Y-99342600D01*
X95304000Y-99342600D02*
X94854000Y-99342600D01*
X95304000Y-92572600D02*
X95304000Y-92122600D01*
X95304000Y-92122600D02*
X94854000Y-92122600D01*
X94854000Y-92122600D02*
X94854000Y-90832600D01*
%TO.C,TP_~RST~_1*%
X129452600Y-86766400D02*
G75*
G03*
X129452600Y-86766400I-700000J0D01*
G01*
%TO.C,TP_SDA_1*%
X104800000Y-90200000D02*
G75*
G03*
X104800000Y-90200000I-700000J0D01*
G01*
%TO.C,TP_SCL_1*%
X103620800Y-94691200D02*
G75*
G03*
X103620800Y-94691200I-700000J0D01*
G01*
%TO.C,TP_GND_1*%
X80700000Y-122000000D02*
G75*
G03*
X80700000Y-122000000I-700000J0D01*
G01*
%TO.C,D-*%
X93003600Y-103632000D02*
G75*
G03*
X93003600Y-103632000I-700000J0D01*
G01*
%TO.C,D+*%
X93054400Y-105689400D02*
G75*
G03*
X93054400Y-105689400I-700000J0D01*
G01*
%TO.C,TP_CC2_1*%
X84443800Y-91287600D02*
G75*
G03*
X84443800Y-91287600I-700000J0D01*
G01*
%TO.C,TP_CC1_1*%
X86196400Y-89331800D02*
G75*
G03*
X86196400Y-89331800I-700000J0D01*
G01*
%TO.C,TP_5V_1*%
X80700000Y-125323600D02*
G75*
G03*
X80700000Y-125323600I-700000J0D01*
G01*
%TO.C,TP_3V3_1*%
X80700000Y-119000000D02*
G75*
G03*
X80700000Y-119000000I-700000J0D01*
G01*
%TO.C,SW1*%
X121216400Y-75328800D02*
X121216400Y-75628800D01*
X121216400Y-80428800D02*
X121216400Y-80728800D01*
X115816400Y-80728800D02*
X115816400Y-80428800D01*
X115816400Y-75328800D02*
X115816400Y-75628800D01*
X115816400Y-76678800D02*
X115816400Y-79378800D01*
X121216400Y-76678800D02*
X121216400Y-79378800D01*
X121216400Y-75328800D02*
X115816400Y-75328800D01*
X115816400Y-80728800D02*
X121216400Y-80728800D01*
%TO.C,R5*%
X84076000Y-113315933D02*
X84076000Y-113658467D01*
X83056000Y-113315933D02*
X83056000Y-113658467D01*
%TO.C,R4*%
X81028000Y-113417533D02*
X81028000Y-113760067D01*
X80008000Y-113417533D02*
X80008000Y-113760067D01*
%TO.C,R3*%
X106241667Y-93347000D02*
X105899133Y-93347000D01*
X106241667Y-92327000D02*
X105899133Y-92327000D01*
%TO.C,R2*%
X110635867Y-87733600D02*
X110293333Y-87733600D01*
X110635867Y-86713600D02*
X110293333Y-86713600D01*
%TO.C,R1*%
X99180467Y-86616000D02*
X98837933Y-86616000D01*
X99180467Y-85596000D02*
X98837933Y-85596000D01*
%TO.C,C21*%
X95887000Y-110064733D02*
X95887000Y-110407267D01*
X94867000Y-110064733D02*
X94867000Y-110407267D01*
%TO.C,C20*%
X88068333Y-107926600D02*
X88410867Y-107926600D01*
X88068333Y-106906600D02*
X88410867Y-106906600D01*
%TO.C,C11*%
X109023333Y-94333600D02*
X109365867Y-94333600D01*
X109023333Y-95353600D02*
X109365867Y-95353600D01*
%TO.C,C10*%
X90197400Y-80397533D02*
X90197400Y-80740067D01*
X89177400Y-80397533D02*
X89177400Y-80740067D01*
%TO.C,C9*%
X95302800Y-80448333D02*
X95302800Y-80790867D01*
X94282800Y-80448333D02*
X94282800Y-80790867D01*
%TO.C,C8*%
X95472067Y-89943400D02*
X95129533Y-89943400D01*
X95472067Y-88923400D02*
X95129533Y-88923400D01*
%TO.C,C7*%
X120845733Y-82370200D02*
X121188267Y-82370200D01*
X120845733Y-83390200D02*
X121188267Y-83390200D01*
%TO.C,C6*%
X90078733Y-88790000D02*
X90421267Y-88790000D01*
X90078733Y-89810000D02*
X90421267Y-89810000D01*
%TO.C,C5*%
X90078733Y-87290000D02*
X90421267Y-87290000D01*
X90078733Y-88310000D02*
X90421267Y-88310000D01*
%TO.C,C4*%
X93270800Y-109988533D02*
X93270800Y-110331067D01*
X92250800Y-109988533D02*
X92250800Y-110331067D01*
%TO.C,C3*%
X83767200Y-97072267D02*
X83767200Y-96729733D01*
X84787200Y-97072267D02*
X84787200Y-96729733D01*
%TO.C,C1*%
X95853067Y-102414800D02*
X95510533Y-102414800D01*
X95853067Y-101394800D02*
X95510533Y-101394800D01*
%TO.C,SW4*%
D12*
X124004761Y-107433333D02*
X124052380Y-107290476D01*
X124052380Y-107052380D01*
X124004761Y-106957142D01*
X123957142Y-106909523D01*
X123861904Y-106861904D01*
X123766666Y-106861904D01*
X123671428Y-106909523D01*
X123623809Y-106957142D01*
X123576190Y-107052380D01*
X123528571Y-107242857D01*
X123480952Y-107338095D01*
X123433333Y-107385714D01*
X123338095Y-107433333D01*
X123242857Y-107433333D01*
X123147619Y-107385714D01*
X123100000Y-107338095D01*
X123052380Y-107242857D01*
X123052380Y-107004761D01*
X123100000Y-106861904D01*
X123052380Y-106528571D02*
X124052380Y-106290476D01*
X123338095Y-106100000D01*
X124052380Y-105909523D01*
X123052380Y-105671428D01*
X123385714Y-104861904D02*
X124052380Y-104861904D01*
X123004761Y-105100000D02*
X123719047Y-105338095D01*
X123719047Y-104719047D01*
X132928571Y-107933333D02*
X132976190Y-107790476D01*
X133023809Y-107742857D01*
X133119047Y-107695238D01*
X133261904Y-107695238D01*
X133357142Y-107742857D01*
X133404761Y-107790476D01*
X133452380Y-107885714D01*
X133452380Y-108266666D01*
X132452380Y-108266666D01*
X132452380Y-107933333D01*
X132500000Y-107838095D01*
X132547619Y-107790476D01*
X132642857Y-107742857D01*
X132738095Y-107742857D01*
X132833333Y-107790476D01*
X132880952Y-107838095D01*
X132928571Y-107933333D01*
X132928571Y-108266666D01*
X132452380Y-107076190D02*
X132452380Y-106885714D01*
X132500000Y-106790476D01*
X132595238Y-106695238D01*
X132785714Y-106647619D01*
X133119047Y-106647619D01*
X133309523Y-106695238D01*
X133404761Y-106790476D01*
X133452380Y-106885714D01*
X133452380Y-107076190D01*
X133404761Y-107171428D01*
X133309523Y-107266666D01*
X133119047Y-107314285D01*
X132785714Y-107314285D01*
X132595238Y-107266666D01*
X132500000Y-107171428D01*
X132452380Y-107076190D01*
X132452380Y-106028571D02*
X132452380Y-105838095D01*
X132500000Y-105742857D01*
X132595238Y-105647619D01*
X132785714Y-105600000D01*
X133119047Y-105600000D01*
X133309523Y-105647619D01*
X133404761Y-105742857D01*
X133452380Y-105838095D01*
X133452380Y-106028571D01*
X133404761Y-106123809D01*
X133309523Y-106219047D01*
X133119047Y-106266666D01*
X132785714Y-106266666D01*
X132595238Y-106219047D01*
X132500000Y-106123809D01*
X132452380Y-106028571D01*
X132452380Y-105314285D02*
X132452380Y-104742857D01*
X133452380Y-105028571D02*
X132452380Y-105028571D01*
X132452380Y-104219047D02*
X132452380Y-104123809D01*
X132500000Y-104028571D01*
X132547619Y-103980952D01*
X132642857Y-103933333D01*
X132833333Y-103885714D01*
X133071428Y-103885714D01*
X133261904Y-103933333D01*
X133357142Y-103980952D01*
X133404761Y-104028571D01*
X133452380Y-104123809D01*
X133452380Y-104219047D01*
X133404761Y-104314285D01*
X133357142Y-104361904D01*
X133261904Y-104409523D01*
X133071428Y-104457142D01*
X132833333Y-104457142D01*
X132642857Y-104409523D01*
X132547619Y-104361904D01*
X132500000Y-104314285D01*
X132452380Y-104219047D01*
%TO.C,R6*%
X126033333Y-101482380D02*
X125700000Y-101006190D01*
X125461904Y-101482380D02*
X125461904Y-100482380D01*
X125842857Y-100482380D01*
X125938095Y-100530000D01*
X125985714Y-100577619D01*
X126033333Y-100672857D01*
X126033333Y-100815714D01*
X125985714Y-100910952D01*
X125938095Y-100958571D01*
X125842857Y-101006190D01*
X125461904Y-101006190D01*
X126890476Y-100482380D02*
X126700000Y-100482380D01*
X126604761Y-100530000D01*
X126557142Y-100577619D01*
X126461904Y-100720476D01*
X126414285Y-100910952D01*
X126414285Y-101291904D01*
X126461904Y-101387142D01*
X126509523Y-101434761D01*
X126604761Y-101482380D01*
X126795238Y-101482380D01*
X126890476Y-101434761D01*
X126938095Y-101387142D01*
X126985714Y-101291904D01*
X126985714Y-101053809D01*
X126938095Y-100958571D01*
X126890476Y-100910952D01*
X126795238Y-100863333D01*
X126604761Y-100863333D01*
X126509523Y-100910952D01*
X126461904Y-100958571D01*
X126414285Y-101053809D01*
%TO.C,J2*%
X85338580Y-105333333D02*
X86052866Y-105333333D01*
X86195723Y-105380952D01*
X86290961Y-105476190D01*
X86338580Y-105619047D01*
X86338580Y-105714285D01*
X85433819Y-104904761D02*
X85386200Y-104857142D01*
X85338580Y-104761904D01*
X85338580Y-104523809D01*
X85386200Y-104428571D01*
X85433819Y-104380952D01*
X85529057Y-104333333D01*
X85624295Y-104333333D01*
X85767152Y-104380952D01*
X86338580Y-104952380D01*
X86338580Y-104333333D01*
%TO.C,C2*%
X100491542Y-93257666D02*
X100539161Y-93305285D01*
X100586780Y-93448142D01*
X100586780Y-93543380D01*
X100539161Y-93686238D01*
X100443923Y-93781476D01*
X100348685Y-93829095D01*
X100158209Y-93876714D01*
X100015352Y-93876714D01*
X99824876Y-93829095D01*
X99729638Y-93781476D01*
X99634400Y-93686238D01*
X99586780Y-93543380D01*
X99586780Y-93448142D01*
X99634400Y-93305285D01*
X99682019Y-93257666D01*
X99682019Y-92876714D02*
X99634400Y-92829095D01*
X99586780Y-92733857D01*
X99586780Y-92495761D01*
X99634400Y-92400523D01*
X99682019Y-92352904D01*
X99777257Y-92305285D01*
X99872495Y-92305285D01*
X100015352Y-92352904D01*
X100586780Y-92924333D01*
X100586780Y-92305285D01*
%TO.C,X1*%
X91479476Y-81262180D02*
X92146142Y-82262180D01*
X92146142Y-81262180D02*
X91479476Y-82262180D01*
X93050904Y-82262180D02*
X92479476Y-82262180D01*
X92765190Y-82262180D02*
X92765190Y-81262180D01*
X92669952Y-81405038D01*
X92574714Y-81500276D01*
X92479476Y-81547895D01*
%TO.C,J1*%
X129028866Y-98403980D02*
X129028866Y-99118266D01*
X128981247Y-99261123D01*
X128886009Y-99356361D01*
X128743152Y-99403980D01*
X128647914Y-99403980D01*
X130028866Y-99403980D02*
X129457438Y-99403980D01*
X129743152Y-99403980D02*
X129743152Y-98403980D01*
X129647914Y-98546838D01*
X129552676Y-98642076D01*
X129457438Y-98689695D01*
%TO.C,U5*%
X86182295Y-112177580D02*
X86182295Y-112987104D01*
X86229914Y-113082342D01*
X86277533Y-113129961D01*
X86372771Y-113177580D01*
X86563247Y-113177580D01*
X86658485Y-113129961D01*
X86706104Y-113082342D01*
X86753723Y-112987104D01*
X86753723Y-112177580D01*
X87706104Y-112177580D02*
X87229914Y-112177580D01*
X87182295Y-112653771D01*
X87229914Y-112606152D01*
X87325152Y-112558533D01*
X87563247Y-112558533D01*
X87658485Y-112606152D01*
X87706104Y-112653771D01*
X87753723Y-112749009D01*
X87753723Y-112987104D01*
X87706104Y-113082342D01*
X87658485Y-113129961D01*
X87563247Y-113177580D01*
X87325152Y-113177580D01*
X87229914Y-113129961D01*
X87182295Y-113082342D01*
%TO.C,U3*%
X86738095Y-101452380D02*
X86738095Y-102261904D01*
X86785714Y-102357142D01*
X86833333Y-102404761D01*
X86928571Y-102452380D01*
X87119047Y-102452380D01*
X87214285Y-102404761D01*
X87261904Y-102357142D01*
X87309523Y-102261904D01*
X87309523Y-101452380D01*
X87690476Y-101452380D02*
X88309523Y-101452380D01*
X87976190Y-101833333D01*
X88119047Y-101833333D01*
X88214285Y-101880952D01*
X88261904Y-101928571D01*
X88309523Y-102023809D01*
X88309523Y-102261904D01*
X88261904Y-102357142D01*
X88214285Y-102404761D01*
X88119047Y-102452380D01*
X87833333Y-102452380D01*
X87738095Y-102404761D01*
X87690476Y-102357142D01*
%TO.C,U2*%
X111277495Y-93962180D02*
X111277495Y-94771704D01*
X111325114Y-94866942D01*
X111372733Y-94914561D01*
X111467971Y-94962180D01*
X111658447Y-94962180D01*
X111753685Y-94914561D01*
X111801304Y-94866942D01*
X111848923Y-94771704D01*
X111848923Y-93962180D01*
X112277495Y-94057419D02*
X112325114Y-94009800D01*
X112420352Y-93962180D01*
X112658447Y-93962180D01*
X112753685Y-94009800D01*
X112801304Y-94057419D01*
X112848923Y-94152657D01*
X112848923Y-94247895D01*
X112801304Y-94390752D01*
X112229876Y-94962180D01*
X112848923Y-94962180D01*
%TO.C,U1*%
X96996380Y-96494504D02*
X97805904Y-96494504D01*
X97901142Y-96446885D01*
X97948761Y-96399266D01*
X97996380Y-96304028D01*
X97996380Y-96113552D01*
X97948761Y-96018314D01*
X97901142Y-95970695D01*
X97805904Y-95923076D01*
X96996380Y-95923076D01*
X97996380Y-94923076D02*
X97996380Y-95494504D01*
X97996380Y-95208790D02*
X96996380Y-95208790D01*
X97139238Y-95304028D01*
X97234476Y-95399266D01*
X97282095Y-95494504D01*
%TO.C,TP_~RST~_1*%
X125371647Y-84770780D02*
X125943076Y-84770780D01*
X125657361Y-85770780D02*
X125657361Y-84770780D01*
X126276409Y-85770780D02*
X126276409Y-84770780D01*
X126657361Y-84770780D01*
X126752600Y-84818400D01*
X126800219Y-84866019D01*
X126847838Y-84961257D01*
X126847838Y-85104114D01*
X126800219Y-85199352D01*
X126752600Y-85246971D01*
X126657361Y-85294590D01*
X126276409Y-85294590D01*
X127038314Y-85866019D02*
X127800219Y-85866019D01*
X127800219Y-84403400D02*
X128800219Y-84403400D01*
X128609742Y-85770780D02*
X128276409Y-85294590D01*
X128038314Y-85770780D02*
X128038314Y-84770780D01*
X128419266Y-84770780D01*
X128514504Y-84818400D01*
X128562123Y-84866019D01*
X128609742Y-84961257D01*
X128609742Y-85104114D01*
X128562123Y-85199352D01*
X128514504Y-85246971D01*
X128419266Y-85294590D01*
X128038314Y-85294590D01*
X128800219Y-84403400D02*
X129752600Y-84403400D01*
X128990695Y-85723161D02*
X129133552Y-85770780D01*
X129371647Y-85770780D01*
X129466885Y-85723161D01*
X129514504Y-85675542D01*
X129562123Y-85580304D01*
X129562123Y-85485066D01*
X129514504Y-85389828D01*
X129466885Y-85342209D01*
X129371647Y-85294590D01*
X129181171Y-85246971D01*
X129085933Y-85199352D01*
X129038314Y-85151733D01*
X128990695Y-85056495D01*
X128990695Y-84961257D01*
X129038314Y-84866019D01*
X129085933Y-84818400D01*
X129181171Y-84770780D01*
X129419266Y-84770780D01*
X129562123Y-84818400D01*
X129752600Y-84403400D02*
X130514504Y-84403400D01*
X129847838Y-84770780D02*
X130419266Y-84770780D01*
X130133552Y-85770780D02*
X130133552Y-84770780D01*
X130514504Y-85866019D02*
X131276409Y-85866019D01*
X132038314Y-85770780D02*
X131466885Y-85770780D01*
X131752600Y-85770780D02*
X131752600Y-84770780D01*
X131657361Y-84913638D01*
X131562123Y-85008876D01*
X131466885Y-85056495D01*
%TO.C,TP_SDA_1*%
X100671428Y-88204380D02*
X101242857Y-88204380D01*
X100957142Y-89204380D02*
X100957142Y-88204380D01*
X101576190Y-89204380D02*
X101576190Y-88204380D01*
X101957142Y-88204380D01*
X102052380Y-88252000D01*
X102100000Y-88299619D01*
X102147619Y-88394857D01*
X102147619Y-88537714D01*
X102100000Y-88632952D01*
X102052380Y-88680571D01*
X101957142Y-88728190D01*
X101576190Y-88728190D01*
X102338095Y-89299619D02*
X103100000Y-89299619D01*
X103290476Y-89156761D02*
X103433333Y-89204380D01*
X103671428Y-89204380D01*
X103766666Y-89156761D01*
X103814285Y-89109142D01*
X103861904Y-89013904D01*
X103861904Y-88918666D01*
X103814285Y-88823428D01*
X103766666Y-88775809D01*
X103671428Y-88728190D01*
X103480952Y-88680571D01*
X103385714Y-88632952D01*
X103338095Y-88585333D01*
X103290476Y-88490095D01*
X103290476Y-88394857D01*
X103338095Y-88299619D01*
X103385714Y-88252000D01*
X103480952Y-88204380D01*
X103719047Y-88204380D01*
X103861904Y-88252000D01*
X104290476Y-89204380D02*
X104290476Y-88204380D01*
X104528571Y-88204380D01*
X104671428Y-88252000D01*
X104766666Y-88347238D01*
X104814285Y-88442476D01*
X104861904Y-88632952D01*
X104861904Y-88775809D01*
X104814285Y-88966285D01*
X104766666Y-89061523D01*
X104671428Y-89156761D01*
X104528571Y-89204380D01*
X104290476Y-89204380D01*
X105242857Y-88918666D02*
X105719047Y-88918666D01*
X105147619Y-89204380D02*
X105480952Y-88204380D01*
X105814285Y-89204380D01*
X105909523Y-89299619D02*
X106671428Y-89299619D01*
X107433333Y-89204380D02*
X106861904Y-89204380D01*
X107147619Y-89204380D02*
X107147619Y-88204380D01*
X107052380Y-88347238D01*
X106957142Y-88442476D01*
X106861904Y-88490095D01*
%TO.C,TP_SCL_1*%
X99465238Y-95946980D02*
X100036666Y-95946980D01*
X99750952Y-96946980D02*
X99750952Y-95946980D01*
X100370000Y-96946980D02*
X100370000Y-95946980D01*
X100750952Y-95946980D01*
X100846190Y-95994600D01*
X100893809Y-96042219D01*
X100941428Y-96137457D01*
X100941428Y-96280314D01*
X100893809Y-96375552D01*
X100846190Y-96423171D01*
X100750952Y-96470790D01*
X100370000Y-96470790D01*
X101131904Y-97042219D02*
X101893809Y-97042219D01*
X102084285Y-96899361D02*
X102227142Y-96946980D01*
X102465238Y-96946980D01*
X102560476Y-96899361D01*
X102608095Y-96851742D01*
X102655714Y-96756504D01*
X102655714Y-96661266D01*
X102608095Y-96566028D01*
X102560476Y-96518409D01*
X102465238Y-96470790D01*
X102274761Y-96423171D01*
X102179523Y-96375552D01*
X102131904Y-96327933D01*
X102084285Y-96232695D01*
X102084285Y-96137457D01*
X102131904Y-96042219D01*
X102179523Y-95994600D01*
X102274761Y-95946980D01*
X102512857Y-95946980D01*
X102655714Y-95994600D01*
X103655714Y-96851742D02*
X103608095Y-96899361D01*
X103465238Y-96946980D01*
X103370000Y-96946980D01*
X103227142Y-96899361D01*
X103131904Y-96804123D01*
X103084285Y-96708885D01*
X103036666Y-96518409D01*
X103036666Y-96375552D01*
X103084285Y-96185076D01*
X103131904Y-96089838D01*
X103227142Y-95994600D01*
X103370000Y-95946980D01*
X103465238Y-95946980D01*
X103608095Y-95994600D01*
X103655714Y-96042219D01*
X104560476Y-96946980D02*
X104084285Y-96946980D01*
X104084285Y-95946980D01*
X104655714Y-97042219D02*
X105417619Y-97042219D01*
X106179523Y-96946980D02*
X105608095Y-96946980D01*
X105893809Y-96946980D02*
X105893809Y-95946980D01*
X105798571Y-96089838D01*
X105703333Y-96185076D01*
X105608095Y-96232695D01*
%TO.C,TP_GND_1*%
X76452380Y-120004380D02*
X77023809Y-120004380D01*
X76738095Y-121004380D02*
X76738095Y-120004380D01*
X77357142Y-121004380D02*
X77357142Y-120004380D01*
X77738095Y-120004380D01*
X77833333Y-120052000D01*
X77880952Y-120099619D01*
X77928571Y-120194857D01*
X77928571Y-120337714D01*
X77880952Y-120432952D01*
X77833333Y-120480571D01*
X77738095Y-120528190D01*
X77357142Y-120528190D01*
X78119047Y-121099619D02*
X78880952Y-121099619D01*
X79642857Y-120052000D02*
X79547619Y-120004380D01*
X79404761Y-120004380D01*
X79261904Y-120052000D01*
X79166666Y-120147238D01*
X79119047Y-120242476D01*
X79071428Y-120432952D01*
X79071428Y-120575809D01*
X79119047Y-120766285D01*
X79166666Y-120861523D01*
X79261904Y-120956761D01*
X79404761Y-121004380D01*
X79500000Y-121004380D01*
X79642857Y-120956761D01*
X79690476Y-120909142D01*
X79690476Y-120575809D01*
X79500000Y-120575809D01*
X80119047Y-121004380D02*
X80119047Y-120004380D01*
X80690476Y-121004380D01*
X80690476Y-120004380D01*
X81166666Y-121004380D02*
X81166666Y-120004380D01*
X81404761Y-120004380D01*
X81547619Y-120052000D01*
X81642857Y-120147238D01*
X81690476Y-120242476D01*
X81738095Y-120432952D01*
X81738095Y-120575809D01*
X81690476Y-120766285D01*
X81642857Y-120861523D01*
X81547619Y-120956761D01*
X81404761Y-121004380D01*
X81166666Y-121004380D01*
X81928571Y-121099619D02*
X82690476Y-121099619D01*
X83452380Y-121004380D02*
X82880952Y-121004380D01*
X83166666Y-121004380D02*
X83166666Y-120004380D01*
X83071428Y-120147238D01*
X82976190Y-120242476D01*
X82880952Y-120290095D01*
%TO.C,D-*%
X91422647Y-102636380D02*
X91422647Y-101636380D01*
X91660742Y-101636380D01*
X91803600Y-101684000D01*
X91898838Y-101779238D01*
X91946457Y-101874476D01*
X91994076Y-102064952D01*
X91994076Y-102207809D01*
X91946457Y-102398285D01*
X91898838Y-102493523D01*
X91803600Y-102588761D01*
X91660742Y-102636380D01*
X91422647Y-102636380D01*
X92422647Y-102255428D02*
X93184552Y-102255428D01*
%TO.C,D+*%
X93819047Y-106152380D02*
X93819047Y-105152380D01*
X94057142Y-105152380D01*
X94200000Y-105200000D01*
X94295238Y-105295238D01*
X94342857Y-105390476D01*
X94390476Y-105580952D01*
X94390476Y-105723809D01*
X94342857Y-105914285D01*
X94295238Y-106009523D01*
X94200000Y-106104761D01*
X94057142Y-106152380D01*
X93819047Y-106152380D01*
X94819047Y-105771428D02*
X95580952Y-105771428D01*
X95200000Y-106152380D02*
X95200000Y-105390476D01*
%TO.C,TP_CC2_1*%
X77400000Y-89291980D02*
X77971428Y-89291980D01*
X77685714Y-90291980D02*
X77685714Y-89291980D01*
X78304761Y-90291980D02*
X78304761Y-89291980D01*
X78685714Y-89291980D01*
X78780952Y-89339600D01*
X78828571Y-89387219D01*
X78876190Y-89482457D01*
X78876190Y-89625314D01*
X78828571Y-89720552D01*
X78780952Y-89768171D01*
X78685714Y-89815790D01*
X78304761Y-89815790D01*
X79066666Y-90387219D02*
X79828571Y-90387219D01*
X80638095Y-90196742D02*
X80590476Y-90244361D01*
X80447619Y-90291980D01*
X80352380Y-90291980D01*
X80209523Y-90244361D01*
X80114285Y-90149123D01*
X80066666Y-90053885D01*
X80019047Y-89863409D01*
X80019047Y-89720552D01*
X80066666Y-89530076D01*
X80114285Y-89434838D01*
X80209523Y-89339600D01*
X80352380Y-89291980D01*
X80447619Y-89291980D01*
X80590476Y-89339600D01*
X80638095Y-89387219D01*
X81638095Y-90196742D02*
X81590476Y-90244361D01*
X81447619Y-90291980D01*
X81352380Y-90291980D01*
X81209523Y-90244361D01*
X81114285Y-90149123D01*
X81066666Y-90053885D01*
X81019047Y-89863409D01*
X81019047Y-89720552D01*
X81066666Y-89530076D01*
X81114285Y-89434838D01*
X81209523Y-89339600D01*
X81352380Y-89291980D01*
X81447619Y-89291980D01*
X81590476Y-89339600D01*
X81638095Y-89387219D01*
X82019047Y-89387219D02*
X82066666Y-89339600D01*
X82161904Y-89291980D01*
X82400000Y-89291980D01*
X82495238Y-89339600D01*
X82542857Y-89387219D01*
X82590476Y-89482457D01*
X82590476Y-89577695D01*
X82542857Y-89720552D01*
X81971428Y-90291980D01*
X82590476Y-90291980D01*
X82780952Y-90387219D02*
X83542857Y-90387219D01*
X84304761Y-90291980D02*
X83733333Y-90291980D01*
X84019047Y-90291980D02*
X84019047Y-89291980D01*
X83923809Y-89434838D01*
X83828571Y-89530076D01*
X83733333Y-89577695D01*
%TO.C,TP_CC1_1*%
X79600000Y-87252380D02*
X80171428Y-87252380D01*
X79885714Y-88252380D02*
X79885714Y-87252380D01*
X80504761Y-88252380D02*
X80504761Y-87252380D01*
X80885714Y-87252380D01*
X80980952Y-87300000D01*
X81028571Y-87347619D01*
X81076190Y-87442857D01*
X81076190Y-87585714D01*
X81028571Y-87680952D01*
X80980952Y-87728571D01*
X80885714Y-87776190D01*
X80504761Y-87776190D01*
X81266666Y-88347619D02*
X82028571Y-88347619D01*
X82838095Y-88157142D02*
X82790476Y-88204761D01*
X82647619Y-88252380D01*
X82552380Y-88252380D01*
X82409523Y-88204761D01*
X82314285Y-88109523D01*
X82266666Y-88014285D01*
X82219047Y-87823809D01*
X82219047Y-87680952D01*
X82266666Y-87490476D01*
X82314285Y-87395238D01*
X82409523Y-87300000D01*
X82552380Y-87252380D01*
X82647619Y-87252380D01*
X82790476Y-87300000D01*
X82838095Y-87347619D01*
X83838095Y-88157142D02*
X83790476Y-88204761D01*
X83647619Y-88252380D01*
X83552380Y-88252380D01*
X83409523Y-88204761D01*
X83314285Y-88109523D01*
X83266666Y-88014285D01*
X83219047Y-87823809D01*
X83219047Y-87680952D01*
X83266666Y-87490476D01*
X83314285Y-87395238D01*
X83409523Y-87300000D01*
X83552380Y-87252380D01*
X83647619Y-87252380D01*
X83790476Y-87300000D01*
X83838095Y-87347619D01*
X84790476Y-88252380D02*
X84219047Y-88252380D01*
X84504761Y-88252380D02*
X84504761Y-87252380D01*
X84409523Y-87395238D01*
X84314285Y-87490476D01*
X84219047Y-87538095D01*
X84980952Y-88347619D02*
X85742857Y-88347619D01*
X86504761Y-88252380D02*
X85933333Y-88252380D01*
X86219047Y-88252380D02*
X86219047Y-87252380D01*
X86123809Y-87395238D01*
X86028571Y-87490476D01*
X85933333Y-87538095D01*
%TO.C,TP_5V_1*%
X77071428Y-123327980D02*
X77642857Y-123327980D01*
X77357142Y-124327980D02*
X77357142Y-123327980D01*
X77976190Y-124327980D02*
X77976190Y-123327980D01*
X78357142Y-123327980D01*
X78452380Y-123375600D01*
X78500000Y-123423219D01*
X78547619Y-123518457D01*
X78547619Y-123661314D01*
X78500000Y-123756552D01*
X78452380Y-123804171D01*
X78357142Y-123851790D01*
X77976190Y-123851790D01*
X78738095Y-124423219D02*
X79500000Y-124423219D01*
X80214285Y-123327980D02*
X79738095Y-123327980D01*
X79690476Y-123804171D01*
X79738095Y-123756552D01*
X79833333Y-123708933D01*
X80071428Y-123708933D01*
X80166666Y-123756552D01*
X80214285Y-123804171D01*
X80261904Y-123899409D01*
X80261904Y-124137504D01*
X80214285Y-124232742D01*
X80166666Y-124280361D01*
X80071428Y-124327980D01*
X79833333Y-124327980D01*
X79738095Y-124280361D01*
X79690476Y-124232742D01*
X80547619Y-123327980D02*
X80880952Y-124327980D01*
X81214285Y-123327980D01*
X81309523Y-124423219D02*
X82071428Y-124423219D01*
X82833333Y-124327980D02*
X82261904Y-124327980D01*
X82547619Y-124327980D02*
X82547619Y-123327980D01*
X82452380Y-123470838D01*
X82357142Y-123566076D01*
X82261904Y-123613695D01*
%TO.C,TP_3V3_1*%
X76595238Y-117004380D02*
X77166666Y-117004380D01*
X76880952Y-118004380D02*
X76880952Y-117004380D01*
X77500000Y-118004380D02*
X77500000Y-117004380D01*
X77880952Y-117004380D01*
X77976190Y-117052000D01*
X78023809Y-117099619D01*
X78071428Y-117194857D01*
X78071428Y-117337714D01*
X78023809Y-117432952D01*
X77976190Y-117480571D01*
X77880952Y-117528190D01*
X77500000Y-117528190D01*
X78261904Y-118099619D02*
X79023809Y-118099619D01*
X79166666Y-117004380D02*
X79785714Y-117004380D01*
X79452380Y-117385333D01*
X79595238Y-117385333D01*
X79690476Y-117432952D01*
X79738095Y-117480571D01*
X79785714Y-117575809D01*
X79785714Y-117813904D01*
X79738095Y-117909142D01*
X79690476Y-117956761D01*
X79595238Y-118004380D01*
X79309523Y-118004380D01*
X79214285Y-117956761D01*
X79166666Y-117909142D01*
X80071428Y-117004380D02*
X80404761Y-118004380D01*
X80738095Y-117004380D01*
X80976190Y-117004380D02*
X81595238Y-117004380D01*
X81261904Y-117385333D01*
X81404761Y-117385333D01*
X81500000Y-117432952D01*
X81547619Y-117480571D01*
X81595238Y-117575809D01*
X81595238Y-117813904D01*
X81547619Y-117909142D01*
X81500000Y-117956761D01*
X81404761Y-118004380D01*
X81119047Y-118004380D01*
X81023809Y-117956761D01*
X80976190Y-117909142D01*
X81785714Y-118099619D02*
X82547619Y-118099619D01*
X83309523Y-118004380D02*
X82738095Y-118004380D01*
X83023809Y-118004380D02*
X83023809Y-117004380D01*
X82928571Y-117147238D01*
X82833333Y-117242476D01*
X82738095Y-117290095D01*
%TO.C,SW1*%
X116466666Y-82504761D02*
X116609523Y-82552380D01*
X116847619Y-82552380D01*
X116942857Y-82504761D01*
X116990476Y-82457142D01*
X117038095Y-82361904D01*
X117038095Y-82266666D01*
X116990476Y-82171428D01*
X116942857Y-82123809D01*
X116847619Y-82076190D01*
X116657142Y-82028571D01*
X116561904Y-81980952D01*
X116514285Y-81933333D01*
X116466666Y-81838095D01*
X116466666Y-81742857D01*
X116514285Y-81647619D01*
X116561904Y-81600000D01*
X116657142Y-81552380D01*
X116895238Y-81552380D01*
X117038095Y-81600000D01*
X117371428Y-81552380D02*
X117609523Y-82552380D01*
X117800000Y-81838095D01*
X117990476Y-82552380D01*
X118228571Y-81552380D01*
X119133333Y-82552380D02*
X118561904Y-82552380D01*
X118847619Y-82552380D02*
X118847619Y-81552380D01*
X118752380Y-81695238D01*
X118657142Y-81790476D01*
X118561904Y-81838095D01*
X117047619Y-74552380D02*
X116714285Y-74076190D01*
X116476190Y-74552380D02*
X116476190Y-73552380D01*
X116857142Y-73552380D01*
X116952380Y-73600000D01*
X117000000Y-73647619D01*
X117047619Y-73742857D01*
X117047619Y-73885714D01*
X117000000Y-73980952D01*
X116952380Y-74028571D01*
X116857142Y-74076190D01*
X116476190Y-74076190D01*
X117476190Y-74028571D02*
X117809523Y-74028571D01*
X117952380Y-74552380D02*
X117476190Y-74552380D01*
X117476190Y-73552380D01*
X117952380Y-73552380D01*
X118333333Y-74504761D02*
X118476190Y-74552380D01*
X118714285Y-74552380D01*
X118809523Y-74504761D01*
X118857142Y-74457142D01*
X118904761Y-74361904D01*
X118904761Y-74266666D01*
X118857142Y-74171428D01*
X118809523Y-74123809D01*
X118714285Y-74076190D01*
X118523809Y-74028571D01*
X118428571Y-73980952D01*
X118380952Y-73933333D01*
X118333333Y-73838095D01*
X118333333Y-73742857D01*
X118380952Y-73647619D01*
X118428571Y-73600000D01*
X118523809Y-73552380D01*
X118761904Y-73552380D01*
X118904761Y-73600000D01*
X119333333Y-74028571D02*
X119666666Y-74028571D01*
X119809523Y-74552380D02*
X119333333Y-74552380D01*
X119333333Y-73552380D01*
X119809523Y-73552380D01*
X120095238Y-73552380D02*
X120666666Y-73552380D01*
X120380952Y-74552380D02*
X120380952Y-73552380D01*
%TO.C,R5*%
X85448380Y-113653866D02*
X84972190Y-113987200D01*
X85448380Y-114225295D02*
X84448380Y-114225295D01*
X84448380Y-113844342D01*
X84496000Y-113749104D01*
X84543619Y-113701485D01*
X84638857Y-113653866D01*
X84781714Y-113653866D01*
X84876952Y-113701485D01*
X84924571Y-113749104D01*
X84972190Y-113844342D01*
X84972190Y-114225295D01*
X84448380Y-112749104D02*
X84448380Y-113225295D01*
X84924571Y-113272914D01*
X84876952Y-113225295D01*
X84829333Y-113130057D01*
X84829333Y-112891961D01*
X84876952Y-112796723D01*
X84924571Y-112749104D01*
X85019809Y-112701485D01*
X85257904Y-112701485D01*
X85353142Y-112749104D01*
X85400761Y-112796723D01*
X85448380Y-112891961D01*
X85448380Y-113130057D01*
X85400761Y-113225295D01*
X85353142Y-113272914D01*
%TO.C,R4*%
X82400380Y-113755466D02*
X81924190Y-114088800D01*
X82400380Y-114326895D02*
X81400380Y-114326895D01*
X81400380Y-113945942D01*
X81448000Y-113850704D01*
X81495619Y-113803085D01*
X81590857Y-113755466D01*
X81733714Y-113755466D01*
X81828952Y-113803085D01*
X81876571Y-113850704D01*
X81924190Y-113945942D01*
X81924190Y-114326895D01*
X81733714Y-112898323D02*
X82400380Y-112898323D01*
X81352761Y-113136419D02*
X82067047Y-113374514D01*
X82067047Y-112755466D01*
%TO.C,R3*%
X105903733Y-94719380D02*
X105570400Y-94243190D01*
X105332304Y-94719380D02*
X105332304Y-93719380D01*
X105713257Y-93719380D01*
X105808495Y-93767000D01*
X105856114Y-93814619D01*
X105903733Y-93909857D01*
X105903733Y-94052714D01*
X105856114Y-94147952D01*
X105808495Y-94195571D01*
X105713257Y-94243190D01*
X105332304Y-94243190D01*
X106237066Y-93719380D02*
X106856114Y-93719380D01*
X106522780Y-94100333D01*
X106665638Y-94100333D01*
X106760876Y-94147952D01*
X106808495Y-94195571D01*
X106856114Y-94290809D01*
X106856114Y-94528904D01*
X106808495Y-94624142D01*
X106760876Y-94671761D01*
X106665638Y-94719380D01*
X106379923Y-94719380D01*
X106284685Y-94671761D01*
X106237066Y-94624142D01*
%TO.C,R2*%
X110297933Y-86252380D02*
X109964600Y-85776190D01*
X109726504Y-86252380D02*
X109726504Y-85252380D01*
X110107457Y-85252380D01*
X110202695Y-85300000D01*
X110250314Y-85347619D01*
X110297933Y-85442857D01*
X110297933Y-85585714D01*
X110250314Y-85680952D01*
X110202695Y-85728571D01*
X110107457Y-85776190D01*
X109726504Y-85776190D01*
X110678885Y-85347619D02*
X110726504Y-85300000D01*
X110821742Y-85252380D01*
X111059838Y-85252380D01*
X111155076Y-85300000D01*
X111202695Y-85347619D01*
X111250314Y-85442857D01*
X111250314Y-85538095D01*
X111202695Y-85680952D01*
X110631266Y-86252380D01*
X111250314Y-86252380D01*
%TO.C,R1*%
X98842533Y-87988380D02*
X98509200Y-87512190D01*
X98271104Y-87988380D02*
X98271104Y-86988380D01*
X98652057Y-86988380D01*
X98747295Y-87036000D01*
X98794914Y-87083619D01*
X98842533Y-87178857D01*
X98842533Y-87321714D01*
X98794914Y-87416952D01*
X98747295Y-87464571D01*
X98652057Y-87512190D01*
X98271104Y-87512190D01*
X99794914Y-87988380D02*
X99223485Y-87988380D01*
X99509200Y-87988380D02*
X99509200Y-86988380D01*
X99413961Y-87131238D01*
X99318723Y-87226476D01*
X99223485Y-87274095D01*
%TO.C,C21*%
X97164142Y-110878857D02*
X97211761Y-110926476D01*
X97259380Y-111069333D01*
X97259380Y-111164571D01*
X97211761Y-111307428D01*
X97116523Y-111402666D01*
X97021285Y-111450285D01*
X96830809Y-111497904D01*
X96687952Y-111497904D01*
X96497476Y-111450285D01*
X96402238Y-111402666D01*
X96307000Y-111307428D01*
X96259380Y-111164571D01*
X96259380Y-111069333D01*
X96307000Y-110926476D01*
X96354619Y-110878857D01*
X96354619Y-110497904D02*
X96307000Y-110450285D01*
X96259380Y-110355047D01*
X96259380Y-110116952D01*
X96307000Y-110021714D01*
X96354619Y-109974095D01*
X96449857Y-109926476D01*
X96545095Y-109926476D01*
X96687952Y-109974095D01*
X97259380Y-110545523D01*
X97259380Y-109926476D01*
X97259380Y-108974095D02*
X97259380Y-109545523D01*
X97259380Y-109259809D02*
X96259380Y-109259809D01*
X96402238Y-109355047D01*
X96497476Y-109450285D01*
X96545095Y-109545523D01*
%TO.C,C20*%
X90657142Y-108057142D02*
X90609523Y-108104761D01*
X90466666Y-108152380D01*
X90371428Y-108152380D01*
X90228571Y-108104761D01*
X90133333Y-108009523D01*
X90085714Y-107914285D01*
X90038095Y-107723809D01*
X90038095Y-107580952D01*
X90085714Y-107390476D01*
X90133333Y-107295238D01*
X90228571Y-107200000D01*
X90371428Y-107152380D01*
X90466666Y-107152380D01*
X90609523Y-107200000D01*
X90657142Y-107247619D01*
X91038095Y-107247619D02*
X91085714Y-107200000D01*
X91180952Y-107152380D01*
X91419047Y-107152380D01*
X91514285Y-107200000D01*
X91561904Y-107247619D01*
X91609523Y-107342857D01*
X91609523Y-107438095D01*
X91561904Y-107580952D01*
X90990476Y-108152380D01*
X91609523Y-108152380D01*
X92228571Y-107152380D02*
X92323809Y-107152380D01*
X92419047Y-107200000D01*
X92466666Y-107247619D01*
X92514285Y-107342857D01*
X92561904Y-107533333D01*
X92561904Y-107771428D01*
X92514285Y-107961904D01*
X92466666Y-108057142D01*
X92419047Y-108104761D01*
X92323809Y-108152380D01*
X92228571Y-108152380D01*
X92133333Y-108104761D01*
X92085714Y-108057142D01*
X92038095Y-107961904D01*
X91990476Y-107771428D01*
X91990476Y-107533333D01*
X92038095Y-107342857D01*
X92085714Y-107247619D01*
X92133333Y-107200000D01*
X92228571Y-107152380D01*
%TO.C,C11*%
X108627942Y-96775542D02*
X108580323Y-96823161D01*
X108437466Y-96870780D01*
X108342228Y-96870780D01*
X108199371Y-96823161D01*
X108104133Y-96727923D01*
X108056514Y-96632685D01*
X108008895Y-96442209D01*
X108008895Y-96299352D01*
X108056514Y-96108876D01*
X108104133Y-96013638D01*
X108199371Y-95918400D01*
X108342228Y-95870780D01*
X108437466Y-95870780D01*
X108580323Y-95918400D01*
X108627942Y-95966019D01*
X109580323Y-96870780D02*
X109008895Y-96870780D01*
X109294609Y-96870780D02*
X109294609Y-95870780D01*
X109199371Y-96013638D01*
X109104133Y-96108876D01*
X109008895Y-96156495D01*
X110532704Y-96870780D02*
X109961276Y-96870780D01*
X110246990Y-96870780D02*
X110246990Y-95870780D01*
X110151752Y-96013638D01*
X110056514Y-96108876D01*
X109961276Y-96156495D01*
%TO.C,C10*%
X88571342Y-81237057D02*
X88618961Y-81284676D01*
X88666580Y-81427533D01*
X88666580Y-81522771D01*
X88618961Y-81665628D01*
X88523723Y-81760866D01*
X88428485Y-81808485D01*
X88238009Y-81856104D01*
X88095152Y-81856104D01*
X87904676Y-81808485D01*
X87809438Y-81760866D01*
X87714200Y-81665628D01*
X87666580Y-81522771D01*
X87666580Y-81427533D01*
X87714200Y-81284676D01*
X87761819Y-81237057D01*
X88666580Y-80284676D02*
X88666580Y-80856104D01*
X88666580Y-80570390D02*
X87666580Y-80570390D01*
X87809438Y-80665628D01*
X87904676Y-80760866D01*
X87952295Y-80856104D01*
X87666580Y-79665628D02*
X87666580Y-79570390D01*
X87714200Y-79475152D01*
X87761819Y-79427533D01*
X87857057Y-79379914D01*
X88047533Y-79332295D01*
X88285628Y-79332295D01*
X88476104Y-79379914D01*
X88571342Y-79427533D01*
X88618961Y-79475152D01*
X88666580Y-79570390D01*
X88666580Y-79665628D01*
X88618961Y-79760866D01*
X88571342Y-79808485D01*
X88476104Y-79856104D01*
X88285628Y-79903723D01*
X88047533Y-79903723D01*
X87857057Y-79856104D01*
X87761819Y-79808485D01*
X87714200Y-79760866D01*
X87666580Y-79665628D01*
%TO.C,C9*%
X96579942Y-80786266D02*
X96627561Y-80833885D01*
X96675180Y-80976742D01*
X96675180Y-81071980D01*
X96627561Y-81214838D01*
X96532323Y-81310076D01*
X96437085Y-81357695D01*
X96246609Y-81405314D01*
X96103752Y-81405314D01*
X95913276Y-81357695D01*
X95818038Y-81310076D01*
X95722800Y-81214838D01*
X95675180Y-81071980D01*
X95675180Y-80976742D01*
X95722800Y-80833885D01*
X95770419Y-80786266D01*
X96675180Y-80310076D02*
X96675180Y-80119600D01*
X96627561Y-80024361D01*
X96579942Y-79976742D01*
X96437085Y-79881504D01*
X96246609Y-79833885D01*
X95865657Y-79833885D01*
X95770419Y-79881504D01*
X95722800Y-79929123D01*
X95675180Y-80024361D01*
X95675180Y-80214838D01*
X95722800Y-80310076D01*
X95770419Y-80357695D01*
X95865657Y-80405314D01*
X96103752Y-80405314D01*
X96198990Y-80357695D01*
X96246609Y-80310076D01*
X96294228Y-80214838D01*
X96294228Y-80024361D01*
X96246609Y-79929123D01*
X96198990Y-79881504D01*
X96103752Y-79833885D01*
%TO.C,C8*%
X95133333Y-88457142D02*
X95085714Y-88504761D01*
X94942857Y-88552380D01*
X94847619Y-88552380D01*
X94704761Y-88504761D01*
X94609523Y-88409523D01*
X94561904Y-88314285D01*
X94514285Y-88123809D01*
X94514285Y-87980952D01*
X94561904Y-87790476D01*
X94609523Y-87695238D01*
X94704761Y-87600000D01*
X94847619Y-87552380D01*
X94942857Y-87552380D01*
X95085714Y-87600000D01*
X95133333Y-87647619D01*
X95704761Y-87980952D02*
X95609523Y-87933333D01*
X95561904Y-87885714D01*
X95514285Y-87790476D01*
X95514285Y-87742857D01*
X95561904Y-87647619D01*
X95609523Y-87600000D01*
X95704761Y-87552380D01*
X95895238Y-87552380D01*
X95990476Y-87600000D01*
X96038095Y-87647619D01*
X96085714Y-87742857D01*
X96085714Y-87790476D01*
X96038095Y-87885714D01*
X95990476Y-87933333D01*
X95895238Y-87980952D01*
X95704761Y-87980952D01*
X95609523Y-88028571D01*
X95561904Y-88076190D01*
X95514285Y-88171428D01*
X95514285Y-88361904D01*
X95561904Y-88457142D01*
X95609523Y-88504761D01*
X95704761Y-88552380D01*
X95895238Y-88552380D01*
X95990476Y-88504761D01*
X96038095Y-88457142D01*
X96085714Y-88361904D01*
X96085714Y-88171428D01*
X96038095Y-88076190D01*
X95990476Y-88028571D01*
X95895238Y-87980952D01*
%TO.C,C7*%
X120850333Y-81807342D02*
X120802714Y-81854961D01*
X120659857Y-81902580D01*
X120564619Y-81902580D01*
X120421761Y-81854961D01*
X120326523Y-81759723D01*
X120278904Y-81664485D01*
X120231285Y-81474009D01*
X120231285Y-81331152D01*
X120278904Y-81140676D01*
X120326523Y-81045438D01*
X120421761Y-80950200D01*
X120564619Y-80902580D01*
X120659857Y-80902580D01*
X120802714Y-80950200D01*
X120850333Y-80997819D01*
X121183666Y-80902580D02*
X121850333Y-80902580D01*
X121421761Y-81902580D01*
%TO.C,C6*%
X87533333Y-89657142D02*
X87485714Y-89704761D01*
X87342857Y-89752380D01*
X87247619Y-89752380D01*
X87104761Y-89704761D01*
X87009523Y-89609523D01*
X86961904Y-89514285D01*
X86914285Y-89323809D01*
X86914285Y-89180952D01*
X86961904Y-88990476D01*
X87009523Y-88895238D01*
X87104761Y-88800000D01*
X87247619Y-88752380D01*
X87342857Y-88752380D01*
X87485714Y-88800000D01*
X87533333Y-88847619D01*
X88390476Y-88752380D02*
X88200000Y-88752380D01*
X88104761Y-88800000D01*
X88057142Y-88847619D01*
X87961904Y-88990476D01*
X87914285Y-89180952D01*
X87914285Y-89561904D01*
X87961904Y-89657142D01*
X88009523Y-89704761D01*
X88104761Y-89752380D01*
X88295238Y-89752380D01*
X88390476Y-89704761D01*
X88438095Y-89657142D01*
X88485714Y-89561904D01*
X88485714Y-89323809D01*
X88438095Y-89228571D01*
X88390476Y-89180952D01*
X88295238Y-89133333D01*
X88104761Y-89133333D01*
X88009523Y-89180952D01*
X87961904Y-89228571D01*
X87914285Y-89323809D01*
%TO.C,C5*%
X87633333Y-88157142D02*
X87585714Y-88204761D01*
X87442857Y-88252380D01*
X87347619Y-88252380D01*
X87204761Y-88204761D01*
X87109523Y-88109523D01*
X87061904Y-88014285D01*
X87014285Y-87823809D01*
X87014285Y-87680952D01*
X87061904Y-87490476D01*
X87109523Y-87395238D01*
X87204761Y-87300000D01*
X87347619Y-87252380D01*
X87442857Y-87252380D01*
X87585714Y-87300000D01*
X87633333Y-87347619D01*
X88538095Y-87252380D02*
X88061904Y-87252380D01*
X88014285Y-87728571D01*
X88061904Y-87680952D01*
X88157142Y-87633333D01*
X88395238Y-87633333D01*
X88490476Y-87680952D01*
X88538095Y-87728571D01*
X88585714Y-87823809D01*
X88585714Y-88061904D01*
X88538095Y-88157142D01*
X88490476Y-88204761D01*
X88395238Y-88252380D01*
X88157142Y-88252380D01*
X88061904Y-88204761D01*
X88014285Y-88157142D01*
%TO.C,C4*%
X94547942Y-110326466D02*
X94595561Y-110374085D01*
X94643180Y-110516942D01*
X94643180Y-110612180D01*
X94595561Y-110755038D01*
X94500323Y-110850276D01*
X94405085Y-110897895D01*
X94214609Y-110945514D01*
X94071752Y-110945514D01*
X93881276Y-110897895D01*
X93786038Y-110850276D01*
X93690800Y-110755038D01*
X93643180Y-110612180D01*
X93643180Y-110516942D01*
X93690800Y-110374085D01*
X93738419Y-110326466D01*
X93976514Y-109469323D02*
X94643180Y-109469323D01*
X93595561Y-109707419D02*
X94309847Y-109945514D01*
X94309847Y-109326466D01*
%TO.C,C3*%
X83204342Y-97067666D02*
X83251961Y-97115285D01*
X83299580Y-97258142D01*
X83299580Y-97353380D01*
X83251961Y-97496238D01*
X83156723Y-97591476D01*
X83061485Y-97639095D01*
X82871009Y-97686714D01*
X82728152Y-97686714D01*
X82537676Y-97639095D01*
X82442438Y-97591476D01*
X82347200Y-97496238D01*
X82299580Y-97353380D01*
X82299580Y-97258142D01*
X82347200Y-97115285D01*
X82394819Y-97067666D01*
X82299580Y-96734333D02*
X82299580Y-96115285D01*
X82680533Y-96448619D01*
X82680533Y-96305761D01*
X82728152Y-96210523D01*
X82775771Y-96162904D01*
X82871009Y-96115285D01*
X83109104Y-96115285D01*
X83204342Y-96162904D01*
X83251961Y-96210523D01*
X83299580Y-96305761D01*
X83299580Y-96591476D01*
X83251961Y-96686714D01*
X83204342Y-96734333D01*
%TO.C,C1*%
X95515133Y-103691942D02*
X95467514Y-103739561D01*
X95324657Y-103787180D01*
X95229419Y-103787180D01*
X95086561Y-103739561D01*
X94991323Y-103644323D01*
X94943704Y-103549085D01*
X94896085Y-103358609D01*
X94896085Y-103215752D01*
X94943704Y-103025276D01*
X94991323Y-102930038D01*
X95086561Y-102834800D01*
X95229419Y-102787180D01*
X95324657Y-102787180D01*
X95467514Y-102834800D01*
X95515133Y-102882419D01*
X96467514Y-103787180D02*
X95896085Y-103787180D01*
X96181800Y-103787180D02*
X96181800Y-102787180D01*
X96086561Y-102930038D01*
X95991323Y-103025276D01*
X95896085Y-103072895D01*
%TD*%
M02*
