%TF.GenerationSoftware,KiCad,Pcbnew,5.99.0-912657dd23-1*%
%TF.CreationDate,2021-04-24T23:07:35+00:00*%
%TF.ProjectId,bigbutton,62696762-7574-4746-9f6e-2e6b69636164,rev?*%
%TF.SameCoordinates,Original*%
%TF.FileFunction,Copper,L1,Top*%
%TF.FilePolarity,Positive*%
%FSLAX46Y46*%
G04 Gerber Fmt 4.6, Leading zero omitted, Abs format (unit mm)*
G04 Created by KiCad (PCBNEW 5.99.0-912657dd23-1) date 2021-04-24 23:07:35*
%MOMM*%
%LPD*%
G01*
G04 APERTURE LIST*
G04 Aperture macros list*
%AMRoundRect*
0 Rectangle with rounded corners*
0 $1 Rounding radius*
0 $2 $3 $4 $5 $6 $7 $8 $9 X,Y pos of 4 corners*
0 Add a 4 corners polygon primitive as box body*
4,1,4,$2,$3,$4,$5,$6,$7,$8,$9,$2,$3,0*
0 Add four circle primitives for the rounded corners*
1,1,$1+$1,$2,$3,0*
1,1,$1+$1,$4,$5,0*
1,1,$1+$1,$6,$7,0*
1,1,$1+$1,$8,$9,0*
0 Add four rect primitives between the rounded corners*
20,1,$1+$1,$2,$3,$4,$5,0*
20,1,$1+$1,$4,$5,$6,$7,0*
20,1,$1+$1,$6,$7,$8,$9,0*
20,1,$1+$1,$8,$9,$2,$3,0*%
G04 Aperture macros list end*
%TA.AperFunction,SMDPad,CuDef*%
%ADD10RoundRect,0.218750X0.218750X0.256250X-0.218750X0.256250X-0.218750X-0.256250X0.218750X-0.256250X0*%
%TD*%
%TA.AperFunction,SMDPad,CuDef*%
%ADD11RoundRect,0.218750X-0.256250X0.218750X-0.256250X-0.218750X0.256250X-0.218750X0.256250X0.218750X0*%
%TD*%
%TA.AperFunction,SMDPad,CuDef*%
%ADD12RoundRect,0.218750X-0.218750X-0.256250X0.218750X-0.256250X0.218750X0.256250X-0.218750X0.256250X0*%
%TD*%
%TA.AperFunction,SMDPad,CuDef*%
%ADD13RoundRect,0.218750X0.256250X-0.218750X0.256250X0.218750X-0.256250X0.218750X-0.256250X-0.218750X0*%
%TD*%
%TA.AperFunction,SMDPad,CuDef*%
%ADD14R,2.000000X0.750000*%
%TD*%
%TA.AperFunction,SMDPad,CuDef*%
%ADD15C,1.000000*%
%TD*%
%TA.AperFunction,SMDPad,CuDef*%
%ADD16RoundRect,0.150000X0.825000X0.150000X-0.825000X0.150000X-0.825000X-0.150000X0.825000X-0.150000X0*%
%TD*%
%TA.AperFunction,SMDPad,CuDef*%
%ADD17R,1.560000X0.650000*%
%TD*%
%TA.AperFunction,ComponentPad*%
%ADD18C,1.500000*%
%TD*%
%TA.AperFunction,SMDPad,CuDef*%
%ADD19R,1.550000X0.300000*%
%TD*%
%TA.AperFunction,ComponentPad*%
%ADD20O,2.100000X1.000000*%
%TD*%
%TA.AperFunction,ComponentPad*%
%ADD21O,1.800000X1.000000*%
%TD*%
%TA.AperFunction,ComponentPad*%
%ADD22R,1.000000X1.000000*%
%TD*%
%TA.AperFunction,ComponentPad*%
%ADD23O,1.000000X1.000000*%
%TD*%
%TA.AperFunction,SMDPad,CuDef*%
%ADD24R,0.750000X2.000000*%
%TD*%
%TA.AperFunction,SMDPad,CuDef*%
%ADD25RoundRect,0.075000X-0.075000X0.662500X-0.075000X-0.662500X0.075000X-0.662500X0.075000X0.662500X0*%
%TD*%
%TA.AperFunction,SMDPad,CuDef*%
%ADD26RoundRect,0.075000X-0.662500X0.075000X-0.662500X-0.075000X0.662500X-0.075000X0.662500X0.075000X0*%
%TD*%
%TA.AperFunction,ComponentPad*%
%ADD27C,2.200000*%
%TD*%
%TA.AperFunction,WasherPad*%
%ADD28C,13.800000*%
%TD*%
%TA.AperFunction,ComponentPad*%
%ADD29O,5.800000X2.200000*%
%TD*%
%TA.AperFunction,ComponentPad*%
%ADD30O,5.000000X2.600000*%
%TD*%
%TA.AperFunction,ViaPad*%
%ADD31C,0.800000*%
%TD*%
%TA.AperFunction,Conductor*%
%ADD32C,0.250000*%
%TD*%
%TA.AperFunction,Conductor*%
%ADD33C,0.400000*%
%TD*%
%TA.AperFunction,Conductor*%
%ADD34C,0.200000*%
%TD*%
G04 APERTURE END LIST*
D10*
%TO.P,C1,1*%
%TO.N,+3V3*%
X96469300Y-101904800D03*
%TO.P,C1,2*%
%TO.N,GND*%
X94894300Y-101904800D03*
%TD*%
D11*
%TO.P,C2,1*%
%TO.N,+3V3*%
X98704400Y-92303500D03*
%TO.P,C2,2*%
%TO.N,GND*%
X98704400Y-93878500D03*
%TD*%
D12*
%TO.P,C5,1*%
%TO.N,+3V3*%
X89462500Y-87800000D03*
%TO.P,C5,2*%
%TO.N,GND*%
X91037500Y-87800000D03*
%TD*%
%TO.P,C6,1*%
%TO.N,+3V3*%
X89462500Y-89300000D03*
%TO.P,C6,2*%
%TO.N,GND*%
X91037500Y-89300000D03*
%TD*%
%TO.P,C7,1*%
%TO.N,/~RST*%
X120229500Y-82880200D03*
%TO.P,C7,2*%
%TO.N,GND*%
X121804500Y-82880200D03*
%TD*%
D10*
%TO.P,C8,1*%
%TO.N,+3V3*%
X96088300Y-89433400D03*
%TO.P,C8,2*%
%TO.N,Net-(C8-Pad2)*%
X94513300Y-89433400D03*
%TD*%
D12*
%TO.P,C11,1*%
%TO.N,+3V3*%
X108407100Y-94843600D03*
%TO.P,C11,2*%
%TO.N,GND*%
X109982100Y-94843600D03*
%TD*%
D13*
%TO.P,R1,1*%
%TO.N,+3V3*%
X100000000Y-85987500D03*
%TO.P,R1,2*%
%TO.N,/~RST*%
X100000000Y-84412500D03*
%TD*%
D10*
%TO.P,R2,1*%
%TO.N,+3V3*%
X111252100Y-87223600D03*
%TO.P,R2,2*%
%TO.N,/I2C_SDA*%
X109677100Y-87223600D03*
%TD*%
%TO.P,R3,1*%
%TO.N,+3V3*%
X106857900Y-92837000D03*
%TO.P,R3,2*%
%TO.N,/I2C_SCL*%
X105282900Y-92837000D03*
%TD*%
%TO.P,R4,1*%
%TO.N,/USB_CC1*%
X83856900Y-104978200D03*
%TO.P,R4,2*%
%TO.N,GND*%
X82281900Y-104978200D03*
%TD*%
D12*
%TO.P,R5,1*%
%TO.N,/USB_CC2*%
X78700500Y-104952800D03*
%TO.P,R5,2*%
%TO.N,GND*%
X80275500Y-104952800D03*
%TD*%
D14*
%TO.P,SW1,1*%
%TO.N,GND*%
X122016400Y-76153800D03*
X115016400Y-76153800D03*
%TO.P,SW1,2*%
%TO.N,/~RST*%
X122016400Y-79903800D03*
X115016400Y-79903800D03*
%TD*%
D15*
%TO.P,TP_3V3_1,1*%
%TO.N,+3V3*%
X89281000Y-125704600D03*
%TD*%
%TO.P,TP_5V_1,1*%
%TO.N,+5V*%
X89408000Y-132867400D03*
%TD*%
%TO.P,TP_CC1_1,1*%
%TO.N,/USB_CC1*%
X83108800Y-91363800D03*
%TD*%
%TO.P,TP_CC2_1,1*%
%TO.N,/USB_CC2*%
X80670400Y-91287600D03*
%TD*%
%TO.P,TP_D-_1,1*%
%TO.N,/USB_D-*%
X93573600Y-109575600D03*
%TD*%
%TO.P,TP_GND_1,1*%
%TO.N,GND*%
X89357200Y-129133600D03*
%TD*%
%TO.P,TP_SCL_1,1*%
%TO.N,/I2C_SCL*%
X102920800Y-94691200D03*
%TD*%
%TO.P,TP_SDA_1,1*%
%TO.N,/I2C_SDA*%
X104100000Y-90200000D03*
%TD*%
%TO.P,TP_~RST~_1,1*%
%TO.N,/~RST*%
X128752600Y-86766400D03*
%TD*%
D16*
%TO.P,U2,1*%
%TO.N,N/C*%
X114514400Y-93014800D03*
%TO.P,U2,2*%
X114514400Y-91744800D03*
%TO.P,U2,3*%
X114514400Y-90474800D03*
%TO.P,U2,4*%
%TO.N,GND*%
X114514400Y-89204800D03*
%TO.P,U2,5*%
%TO.N,/I2C_SDA*%
X109564400Y-89204800D03*
%TO.P,U2,6*%
%TO.N,/I2C_SCL*%
X109564400Y-90474800D03*
%TO.P,U2,7*%
%TO.N,N/C*%
X109564400Y-91744800D03*
%TO.P,U2,8*%
%TO.N,+3V3*%
X109564400Y-93014800D03*
%TD*%
D17*
%TO.P,U3,1*%
%TO.N,/USB_UNFILTERED_D-*%
X88566000Y-109641600D03*
%TO.P,U3,2*%
%TO.N,GND*%
X88566000Y-110591600D03*
%TO.P,U3,3*%
%TO.N,/USB_UNFILTERED_D+*%
X88566000Y-111541600D03*
%TO.P,U3,4*%
%TO.N,/USB_D+*%
X91266000Y-111541600D03*
%TO.P,U3,5*%
%TO.N,+5V*%
X91266000Y-110591600D03*
%TO.P,U3,6*%
%TO.N,/USB_D-*%
X91266000Y-109641600D03*
%TD*%
D18*
%TO.P,X1,1*%
%TO.N,Net-(C10-Pad2)*%
X89789000Y-83700000D03*
%TO.P,X1,2*%
%TO.N,Net-(C9-Pad2)*%
X94789000Y-83700000D03*
%TD*%
D19*
%TO.P,J2,A1*%
%TO.N,GND*%
X83676800Y-109705400D03*
%TO.P,J2,A4*%
%TO.N,+5V*%
X83676800Y-110505400D03*
%TO.P,J2,A5*%
%TO.N,/USB_CC1*%
X83676800Y-111805400D03*
%TO.P,J2,A6*%
%TO.N,/USB_UNFILTERED_D+*%
X83676800Y-112805400D03*
%TO.P,J2,A7*%
%TO.N,/USB_UNFILTERED_D-*%
X83676800Y-113305400D03*
%TO.P,J2,A8*%
%TO.N,Net-(J2-PadA8)*%
X83676800Y-114305400D03*
%TO.P,J2,A9*%
%TO.N,+5V*%
X83676800Y-115605400D03*
%TO.P,J2,A12*%
%TO.N,GND*%
X83676800Y-116405400D03*
%TO.P,J2,B1*%
X83676800Y-116105400D03*
%TO.P,J2,B4*%
%TO.N,+5V*%
X83676800Y-115305400D03*
%TO.P,J2,B5*%
%TO.N,/USB_CC2*%
X83676800Y-114805400D03*
%TO.P,J2,B6*%
%TO.N,/USB_UNFILTERED_D+*%
X83676800Y-113805400D03*
%TO.P,J2,B7*%
%TO.N,/USB_UNFILTERED_D-*%
X83676800Y-112305400D03*
%TO.P,J2,B8*%
%TO.N,Net-(J2-PadB8)*%
X83676800Y-111305400D03*
%TO.P,J2,B9*%
%TO.N,+5V*%
X83676800Y-110805400D03*
%TO.P,J2,B12*%
%TO.N,GND*%
X83676800Y-110005400D03*
D20*
%TO.P,J2,S1*%
X82911800Y-117375400D03*
X82911800Y-108735400D03*
D21*
X78761800Y-108735400D03*
X78761800Y-117375400D03*
%TD*%
D11*
%TO.P,C9,1*%
%TO.N,GND*%
X94792800Y-77812500D03*
%TO.P,C9,2*%
%TO.N,Net-(C9-Pad2)*%
X94792800Y-79387500D03*
%TD*%
%TO.P,C10,1*%
%TO.N,GND*%
X89800000Y-77812500D03*
%TO.P,C10,2*%
%TO.N,Net-(C10-Pad2)*%
X89800000Y-79387500D03*
%TD*%
D13*
%TO.P,C3,1*%
%TO.N,+3V3*%
X84277200Y-97688500D03*
%TO.P,C3,2*%
%TO.N,GND*%
X84277200Y-96113500D03*
%TD*%
D22*
%TO.P,J1,1*%
%TO.N,+3V3*%
X129997200Y-97256600D03*
D23*
%TO.P,J1,2*%
%TO.N,/SWDIO*%
X128727200Y-97256600D03*
%TO.P,J1,3*%
%TO.N,GND*%
X129997200Y-95986600D03*
%TO.P,J1,4*%
%TO.N,/SWCLK*%
X128727200Y-95986600D03*
%TO.P,J1,5*%
%TO.N,GND*%
X129997200Y-94716600D03*
%TO.P,J1,6*%
%TO.N,Net-(J1-Pad6)*%
X128727200Y-94716600D03*
%TO.P,J1,7*%
%TO.N,Net-(J1-Pad7)*%
X129997200Y-93446600D03*
%TO.P,J1,8*%
%TO.N,Net-(J1-Pad8)*%
X128727200Y-93446600D03*
%TO.P,J1,9*%
%TO.N,GND*%
X129997200Y-92176600D03*
%TO.P,J1,10*%
%TO.N,/~RST*%
X128727200Y-92176600D03*
%TD*%
D10*
%TO.P,R6,1*%
%TO.N,/BOOT0*%
X126987500Y-99600000D03*
%TO.P,R6,2*%
%TO.N,GND*%
X125412500Y-99600000D03*
%TD*%
D24*
%TO.P,SW4,1*%
%TO.N,+3V3*%
X130875000Y-102600000D03*
X130875000Y-109600000D03*
%TO.P,SW4,2*%
%TO.N,/BOOT0*%
X127125000Y-109600000D03*
X127125000Y-102600000D03*
%TD*%
D25*
%TO.P,U1,1*%
%TO.N,Net-(C8-Pad2)*%
X94444000Y-91570100D03*
%TO.P,U1,2*%
%TO.N,Net-(U1-Pad2)*%
X93944000Y-91570100D03*
%TO.P,U1,3*%
%TO.N,Net-(U1-Pad3)*%
X93444000Y-91570100D03*
%TO.P,U1,4*%
%TO.N,Net-(U1-Pad4)*%
X92944000Y-91570100D03*
%TO.P,U1,5*%
%TO.N,Net-(C9-Pad2)*%
X92444000Y-91570100D03*
%TO.P,U1,6*%
%TO.N,Net-(C10-Pad2)*%
X91944000Y-91570100D03*
%TO.P,U1,7*%
%TO.N,/~RST*%
X91444000Y-91570100D03*
%TO.P,U1,8*%
%TO.N,GND*%
X90944000Y-91570100D03*
%TO.P,U1,9*%
%TO.N,+3V3*%
X90444000Y-91570100D03*
%TO.P,U1,10*%
%TO.N,/USB_CC2*%
X89944000Y-91570100D03*
%TO.P,U1,11*%
%TO.N,/USB_CC1*%
X89444000Y-91570100D03*
%TO.P,U1,12*%
%TO.N,Net-(SW2-Pad1)*%
X88944000Y-91570100D03*
D26*
%TO.P,U1,13*%
%TO.N,Net-(SW3-Pad1)*%
X87531500Y-92982600D03*
%TO.P,U1,14*%
%TO.N,Net-(U1-Pad14)*%
X87531500Y-93482600D03*
%TO.P,U1,15*%
%TO.N,/MCU_SCK*%
X87531500Y-93982600D03*
%TO.P,U1,16*%
%TO.N,/MCU_DIN*%
X87531500Y-94482600D03*
%TO.P,U1,17*%
%TO.N,/MCU_DOUT*%
X87531500Y-94982600D03*
%TO.P,U1,18*%
%TO.N,Net-(U1-Pad18)*%
X87531500Y-95482600D03*
%TO.P,U1,19*%
%TO.N,Net-(U1-Pad19)*%
X87531500Y-95982600D03*
%TO.P,U1,20*%
%TO.N,Net-(U1-Pad20)*%
X87531500Y-96482600D03*
%TO.P,U1,21*%
%TO.N,Net-(U1-Pad21)*%
X87531500Y-96982600D03*
%TO.P,U1,22*%
%TO.N,Net-(U1-Pad22)*%
X87531500Y-97482600D03*
%TO.P,U1,23*%
%TO.N,GND*%
X87531500Y-97982600D03*
%TO.P,U1,24*%
%TO.N,+3V3*%
X87531500Y-98482600D03*
D25*
%TO.P,U1,25*%
%TO.N,Net-(U1-Pad25)*%
X88944000Y-99895100D03*
%TO.P,U1,26*%
%TO.N,Net-(U1-Pad26)*%
X89444000Y-99895100D03*
%TO.P,U1,27*%
%TO.N,Net-(U1-Pad27)*%
X89944000Y-99895100D03*
%TO.P,U1,28*%
%TO.N,Net-(U1-Pad28)*%
X90444000Y-99895100D03*
%TO.P,U1,29*%
%TO.N,Net-(U1-Pad29)*%
X90944000Y-99895100D03*
%TO.P,U1,30*%
%TO.N,/I2C_SCL*%
X91444000Y-99895100D03*
%TO.P,U1,31*%
%TO.N,/I2C_SDA*%
X91944000Y-99895100D03*
%TO.P,U1,32*%
%TO.N,/USB_D-*%
X92444000Y-99895100D03*
%TO.P,U1,33*%
%TO.N,/USB_D+*%
X92944000Y-99895100D03*
%TO.P,U1,34*%
%TO.N,/SWDIO*%
X93444000Y-99895100D03*
%TO.P,U1,35*%
%TO.N,GND*%
X93944000Y-99895100D03*
%TO.P,U1,36*%
%TO.N,+3V3*%
X94444000Y-99895100D03*
D26*
%TO.P,U1,37*%
%TO.N,/SWCLK*%
X95856500Y-98482600D03*
%TO.P,U1,38*%
%TO.N,Net-(U1-Pad38)*%
X95856500Y-97982600D03*
%TO.P,U1,39*%
%TO.N,Net-(U1-Pad39)*%
X95856500Y-97482600D03*
%TO.P,U1,40*%
%TO.N,Net-(U1-Pad40)*%
X95856500Y-96982600D03*
%TO.P,U1,41*%
%TO.N,Net-(U1-Pad41)*%
X95856500Y-96482600D03*
%TO.P,U1,42*%
%TO.N,Net-(U1-Pad42)*%
X95856500Y-95982600D03*
%TO.P,U1,43*%
%TO.N,Net-(U1-Pad43)*%
X95856500Y-95482600D03*
%TO.P,U1,44*%
%TO.N,/BOOT0*%
X95856500Y-94982600D03*
%TO.P,U1,45*%
%TO.N,Net-(U1-Pad45)*%
X95856500Y-94482600D03*
%TO.P,U1,46*%
%TO.N,Net-(U1-Pad46)*%
X95856500Y-93982600D03*
%TO.P,U1,47*%
%TO.N,GND*%
X95856500Y-93482600D03*
%TO.P,U1,48*%
%TO.N,+3V3*%
X95856500Y-92982600D03*
%TD*%
D15*
%TO.P,TP_D+_1,1*%
%TO.N,/USB_D+*%
X93573600Y-111607600D03*
%TD*%
D27*
%TO.P,SW2,1*%
%TO.N,Net-(SW2-Pad1)*%
X99644200Y-117043200D03*
%TO.P,SW2,2*%
%TO.N,GND*%
X105994200Y-119583200D03*
%TD*%
D28*
%TO.P,SW3,*%
%TO.N,*%
X105000000Y-105000000D03*
D29*
%TO.P,SW3,1*%
%TO.N,Net-(SW3-Pad1)*%
X115160000Y-125740000D03*
D30*
%TO.P,SW3,2*%
%TO.N,GND*%
X89760000Y-115850000D03*
%TD*%
D31*
%TO.N,GND*%
X95377000Y-103632000D03*
X89356738Y-110644354D03*
X86723830Y-109169729D03*
X110261400Y-115189000D03*
X89509600Y-105130600D03*
X80314800Y-102793800D03*
X83464400Y-76987400D03*
X80137000Y-79908400D03*
X119634000Y-121843800D03*
X119634000Y-113157000D03*
X94030800Y-98450400D03*
X85801200Y-96012000D03*
X82092800Y-98501200D03*
X93681800Y-94919800D03*
X114150000Y-83100000D03*
X87250000Y-86000000D03*
%TO.N,+3V3*%
X96469300Y-104969300D03*
X91643678Y-101456306D03*
X105300002Y-97500000D03*
X97200000Y-109700000D03*
X93000000Y-123400000D03*
%TO.N,+5V*%
X77300000Y-115300000D03*
X92800000Y-133600000D03*
X88100000Y-113200000D03*
X85800000Y-110100000D03*
%TO.N,Net-(D4-Pad2)*%
X81000000Y-132850000D03*
X104850000Y-134550000D03*
%TO.N,/I2C_SCL*%
X91550000Y-97600000D03*
X100106102Y-93041958D03*
%TO.N,/BOOT0*%
X106300000Y-95100000D03*
X98400000Y-96200000D03*
%TO.N,/SWCLK*%
X99370410Y-96879590D03*
%TO.N,/SWDIO*%
X93151738Y-98156117D03*
%TO.N,/MCU_DOUT*%
X89716990Y-95281351D03*
%TO.N,Net-(SW3-Pad1)*%
X85272990Y-108260555D03*
%TO.N,Net-(SW2-Pad1)*%
X88950800Y-93599000D03*
%TO.N,/~RST*%
X92290148Y-94078985D03*
%TD*%
D32*
%TO.N,GND*%
X86233800Y-97982600D02*
X87531500Y-97982600D01*
X85787200Y-96026000D02*
X85801200Y-96012000D01*
X95856500Y-93482600D02*
X95119000Y-93482600D01*
X83676800Y-116610400D02*
X82911800Y-117375400D01*
X82911800Y-108940400D02*
X83676800Y-109705400D01*
X93944000Y-99895100D02*
X93944000Y-101042000D01*
X82911800Y-108735400D02*
X82911800Y-108940400D01*
X83676800Y-116105400D02*
X83676800Y-116405400D01*
X91052011Y-94112771D02*
X91052011Y-92415611D01*
X93944000Y-98537200D02*
X94030800Y-98450400D01*
X89375000Y-86000000D02*
X87250000Y-86000000D01*
X94806800Y-103061800D02*
X95377000Y-103632000D01*
X89509600Y-106383959D02*
X86723830Y-109169729D01*
X88618754Y-110644354D02*
X88566000Y-110591600D01*
X113214390Y-92223810D02*
X113214390Y-89529810D01*
X113539400Y-89204800D02*
X114514400Y-89204800D01*
X84277200Y-96026000D02*
X85787200Y-96026000D01*
X83676800Y-109705400D02*
X83676800Y-110005400D01*
X83464400Y-76987400D02*
X80619600Y-76987400D01*
X83676800Y-109705400D02*
X84212471Y-109169729D01*
X91125000Y-89250000D02*
X90944000Y-89431000D01*
X113214390Y-89529810D02*
X113539400Y-89204800D01*
X95119000Y-93482600D02*
X93681800Y-94919800D01*
X80137000Y-77470000D02*
X80137000Y-79908400D01*
X91125000Y-89250000D02*
X91125000Y-87750000D01*
X90944000Y-89581000D02*
X90944000Y-91570100D01*
X91052011Y-92415611D02*
X90944000Y-92307600D01*
X93944000Y-99895100D02*
X93944000Y-98537200D01*
X84277200Y-96026000D02*
X86233800Y-97982600D01*
X91125000Y-89400000D02*
X90944000Y-89581000D01*
X90944000Y-92307600D02*
X90944000Y-91570100D01*
X83676800Y-116405400D02*
X83676800Y-116610400D01*
X89356738Y-110644354D02*
X88618754Y-110644354D01*
X95856500Y-93482600D02*
X98221000Y-93482600D01*
X84212471Y-109169729D02*
X86723830Y-109169729D01*
X80619600Y-76987400D02*
X80137000Y-77470000D01*
X94806800Y-101904800D02*
X94806800Y-103061800D01*
X110261400Y-115189000D02*
X112979200Y-115189000D01*
X89509600Y-105130600D02*
X89509600Y-106383959D01*
X91125000Y-87750000D02*
X89375000Y-86000000D01*
X110594600Y-94843600D02*
X113214390Y-92223810D01*
X110069600Y-94843600D02*
X110594600Y-94843600D01*
X93944000Y-101042000D02*
X94806800Y-101904800D01*
X98221000Y-93482600D02*
X98704400Y-93966000D01*
X112979200Y-115189000D02*
X119634000Y-121843800D01*
X93681800Y-94919800D02*
X91859040Y-94919800D01*
X91859040Y-94919800D02*
X91052011Y-94112771D01*
D33*
%TO.N,+3V3*%
X90444000Y-91570100D02*
X90444000Y-90281500D01*
X93000000Y-123400000D02*
X90695400Y-125704600D01*
X97200000Y-109700000D02*
X96469300Y-108969300D01*
X89462500Y-89300000D02*
X89462500Y-87800000D01*
X90695400Y-125704600D02*
X89281000Y-125704600D01*
X87531500Y-99788628D02*
X89199178Y-101456306D01*
X106857900Y-93342100D02*
X106857900Y-92837000D01*
X89199178Y-101456306D02*
X91643678Y-101456306D01*
X110539400Y-93014800D02*
X111252100Y-92302100D01*
X96469300Y-108969300D02*
X96469300Y-104969300D01*
X105300002Y-97500000D02*
X105300002Y-94899998D01*
X88337528Y-98482600D02*
X90444000Y-96376128D01*
X100874100Y-97500000D02*
X105300002Y-97500000D01*
X95856500Y-92982600D02*
X98025300Y-92982600D01*
X96469300Y-101904800D02*
X100874100Y-97500000D01*
X105300002Y-94899998D02*
X106857900Y-93342100D01*
X96088300Y-89433400D02*
X95900000Y-89621700D01*
X87531500Y-98482600D02*
X87531500Y-99788628D01*
X111252100Y-87223600D02*
X110016000Y-85987500D01*
X87531500Y-98482600D02*
X88337528Y-98482600D01*
X109564400Y-93014800D02*
X110539400Y-93014800D01*
X96469300Y-101904800D02*
X96469300Y-104969300D01*
X84277200Y-97688500D02*
X85071300Y-98482600D01*
X99534200Y-85987500D02*
X96088300Y-89433400D01*
X96469300Y-101904800D02*
X96453700Y-101904800D01*
D32*
X130875000Y-102600000D02*
X130875000Y-98134400D01*
D33*
X85071300Y-98482600D02*
X87531500Y-98482600D01*
X90444000Y-96376128D02*
X90444000Y-91570100D01*
X108407100Y-94172100D02*
X109564400Y-93014800D01*
X100000000Y-85987500D02*
X99534200Y-85987500D01*
X106857900Y-92837000D02*
X109386600Y-92837000D01*
X95900000Y-89621700D02*
X95900000Y-92939100D01*
X108407100Y-94843600D02*
X108407100Y-94172100D01*
X109386600Y-92837000D02*
X109564400Y-93014800D01*
X90444000Y-90281500D02*
X89462500Y-89300000D01*
D32*
X130875000Y-109600000D02*
X130875000Y-102600000D01*
D33*
X111252100Y-92302100D02*
X111252100Y-87223600D01*
D32*
X96175800Y-89433400D02*
X96175800Y-89687400D01*
D33*
X98025300Y-92982600D02*
X98704400Y-92303500D01*
X95900000Y-92939100D02*
X95856500Y-92982600D01*
X110016000Y-85987500D02*
X100000000Y-85987500D01*
D32*
X130875000Y-98134400D02*
X129997200Y-97256600D01*
D33*
X96453700Y-101904800D02*
X94444000Y-99895100D01*
D32*
%TO.N,Net-(C8-Pad2)*%
X94425800Y-89433400D02*
X94425800Y-91551900D01*
X94425800Y-91551900D02*
X94444000Y-91570100D01*
D34*
%TO.N,Net-(C9-Pad2)*%
X92444000Y-86045000D02*
X94789000Y-83700000D01*
X94789000Y-83700000D02*
X94789000Y-79478800D01*
X92444000Y-91570100D02*
X92444000Y-86045000D01*
X94789000Y-79478800D02*
X94792800Y-79475000D01*
%TO.N,Net-(C10-Pad2)*%
X89789000Y-79486000D02*
X89800000Y-79475000D01*
X91944000Y-91570100D02*
X91944000Y-85855000D01*
X89789000Y-83700000D02*
X89789000Y-79486000D01*
X91944000Y-85855000D02*
X89789000Y-83700000D01*
D33*
%TO.N,+5V*%
X89673001Y-112192684D02*
X89673001Y-111440997D01*
X88665685Y-113200000D02*
X89673001Y-112192684D01*
X83676800Y-115305400D02*
X83664799Y-115293399D01*
D32*
X83676800Y-115305400D02*
X83676800Y-115605400D01*
D33*
X90522398Y-110591600D02*
X91266000Y-110591600D01*
X77306601Y-115293399D02*
X77300000Y-115300000D01*
X83676800Y-110505400D02*
X85394600Y-110505400D01*
X85394600Y-110505400D02*
X85800000Y-110100000D01*
X83664799Y-115293399D02*
X77306601Y-115293399D01*
X88100000Y-113200000D02*
X88665685Y-113200000D01*
D32*
X83676800Y-110505400D02*
X83676800Y-110805400D01*
D33*
X92067400Y-132867400D02*
X92800000Y-133600000D01*
X83676800Y-115305400D02*
X85994600Y-115305400D01*
X89408000Y-132867400D02*
X92067400Y-132867400D01*
X89673001Y-111440997D02*
X90522398Y-110591600D01*
X85994600Y-115305400D02*
X88100000Y-113200000D01*
D32*
%TO.N,Net-(D4-Pad2)*%
X83550000Y-135400000D02*
X104000000Y-135400000D01*
X104000000Y-135400000D02*
X104850000Y-134550000D01*
X81000000Y-132850000D02*
X83550000Y-135400000D01*
%TO.N,/USB_CC1*%
X83108800Y-91363800D02*
X83892010Y-90580590D01*
X82651800Y-111805400D02*
X81609790Y-110763390D01*
X81609790Y-110763390D02*
X81609790Y-107312810D01*
X89444000Y-90865774D02*
X89444000Y-91570100D01*
X83108800Y-92070906D02*
X83108800Y-91363800D01*
X83892010Y-90580590D02*
X89158816Y-90580590D01*
X83108800Y-104667600D02*
X83108800Y-92070906D01*
X83419400Y-104978200D02*
X83108800Y-104667600D01*
X83944400Y-104978200D02*
X83419400Y-104978200D01*
X81609790Y-107312810D02*
X83944400Y-104978200D01*
X89158816Y-90580590D02*
X89444000Y-90865774D01*
X83676800Y-111805400D02*
X82651800Y-111805400D01*
%TO.N,/USB_CC2*%
X80670400Y-91287600D02*
X81754431Y-90203570D01*
X78613000Y-104952800D02*
X78613000Y-93345000D01*
X89944000Y-90832600D02*
X89944000Y-91570100D01*
X82651800Y-114805400D02*
X79913810Y-112067410D01*
X79913810Y-112067410D02*
X79913810Y-106253610D01*
X78613000Y-93345000D02*
X80670400Y-91287600D01*
X81754431Y-90203570D02*
X89314970Y-90203570D01*
X89314970Y-90203570D02*
X89944000Y-90832600D01*
X79913810Y-106253610D02*
X78613000Y-104952800D01*
X83676800Y-114805400D02*
X82651800Y-114805400D01*
%TO.N,/I2C_SDA*%
X110791410Y-90791318D02*
X110791410Y-89456810D01*
X110539400Y-89204800D02*
X109564400Y-89204800D01*
X109589600Y-87223600D02*
X109589600Y-89179600D01*
X95121934Y-98947998D02*
X98387038Y-98947998D01*
X110555918Y-91026810D02*
X110791410Y-90791318D01*
X91944000Y-98398893D02*
X92838777Y-97504116D01*
X98387038Y-98947998D02*
X101891835Y-95443201D01*
X110791410Y-89456810D02*
X110539400Y-89204800D01*
X94866990Y-98693054D02*
X95121934Y-98947998D01*
X109589600Y-87223600D02*
X107076400Y-87223600D01*
X107223190Y-91026810D02*
X110555918Y-91026810D01*
X107076400Y-87223600D02*
X104100000Y-90200000D01*
X91944000Y-99895100D02*
X91944000Y-98398893D01*
X94328880Y-97504116D02*
X94866990Y-98042226D01*
X106000000Y-92250000D02*
X107223190Y-91026810D01*
X101891835Y-95443201D02*
X103956799Y-95443201D01*
X106000000Y-93400000D02*
X106000000Y-92250000D01*
X103956799Y-95443201D02*
X106000000Y-93400000D01*
X109589600Y-89179600D02*
X109564400Y-89204800D01*
X94866990Y-98042226D02*
X94866990Y-98693054D01*
X92838777Y-97504116D02*
X94328880Y-97504116D01*
%TO.N,/I2C_SCL*%
X104775000Y-92837000D02*
X105195400Y-92837000D01*
X102920800Y-94691200D02*
X101755344Y-94691200D01*
X101755344Y-94691200D02*
X100106102Y-93041958D01*
X105097999Y-92739599D02*
X105195400Y-92837000D01*
X109564400Y-90474800D02*
X107025200Y-90474800D01*
X102920800Y-94691200D02*
X104775000Y-92837000D01*
X91444000Y-97706000D02*
X91550000Y-97600000D01*
X91444000Y-99895100D02*
X91444000Y-97706000D01*
X105097999Y-92402001D02*
X105097999Y-92739599D01*
X107025200Y-90474800D02*
X105097999Y-92402001D01*
%TO.N,/USB_D+*%
X91266000Y-111541600D02*
X93558400Y-111541600D01*
X93558400Y-111541600D02*
X93573600Y-111556800D01*
D34*
X92919000Y-99920100D02*
X92944000Y-99895100D01*
X92919000Y-103167200D02*
X92919000Y-99920100D01*
X95830600Y-109299800D02*
X95830600Y-106078800D01*
X95830600Y-106078800D02*
X92919000Y-103167200D01*
X93573600Y-111556800D02*
X95830600Y-109299800D01*
%TO.N,/USB_D-*%
X93573600Y-109626400D02*
X94867603Y-109626400D01*
X94867603Y-109626400D02*
X95380600Y-109113403D01*
X95380600Y-106265200D02*
X92469000Y-103353600D01*
D32*
X91266000Y-109641600D02*
X93558400Y-109641600D01*
D34*
X92469000Y-103353600D02*
X92469000Y-99920100D01*
D32*
X93558400Y-109641600D02*
X93573600Y-109626400D01*
D34*
X95380600Y-109113403D02*
X95380600Y-106265200D01*
X92469000Y-99920100D02*
X92444000Y-99895100D01*
D32*
%TO.N,/BOOT0*%
X109585631Y-98385630D02*
X125860630Y-98385630D01*
X106300000Y-95100000D02*
X109585631Y-98385630D01*
X127075000Y-99600000D02*
X127075000Y-102550000D01*
X127075000Y-102550000D02*
X127125000Y-102600000D01*
X127125000Y-102600000D02*
X127125000Y-109600000D01*
X125860630Y-98385630D02*
X127075000Y-99600000D01*
X95856500Y-94982600D02*
X97182600Y-94982600D01*
X97182600Y-94982600D02*
X98400000Y-96200000D01*
%TO.N,/SWCLK*%
X97767400Y-98482600D02*
X99370410Y-96879590D01*
X95856500Y-98482600D02*
X97767400Y-98482600D01*
%TO.N,/SWDIO*%
X93444000Y-99895100D02*
X93444000Y-99157600D01*
X93151738Y-98865338D02*
X93151738Y-98156117D01*
X93444000Y-99157600D02*
X93151738Y-98865338D01*
%TO.N,/MCU_DOUT*%
X87531500Y-94982600D02*
X89418239Y-94982600D01*
X89418239Y-94982600D02*
X89716990Y-95281351D01*
%TO.N,Net-(SW3-Pad1)*%
X85272990Y-101351190D02*
X85272990Y-108260555D01*
X83550190Y-99628390D02*
X85272990Y-101351190D01*
X87531500Y-92982600D02*
X86103326Y-92982600D01*
X83550190Y-95535736D02*
X83550190Y-99628390D01*
X86103326Y-92982600D02*
X83550190Y-95535736D01*
%TO.N,Net-(SW2-Pad1)*%
X88950800Y-93599000D02*
X88950800Y-91576900D01*
X88950800Y-91576900D02*
X88944000Y-91570100D01*
D34*
%TO.N,/USB_UNFILTERED_D-*%
X84967017Y-112305400D02*
X83676800Y-112305400D01*
D32*
X82524600Y-113178200D02*
X82524600Y-112432600D01*
X82524600Y-112432600D02*
X82651800Y-112305400D01*
D34*
X87630817Y-109641600D02*
X84967017Y-112305400D01*
D32*
X82651800Y-112305400D02*
X83676800Y-112305400D01*
D34*
X88566000Y-109641600D02*
X87630817Y-109641600D01*
D32*
X83676800Y-113305400D02*
X82651800Y-113305400D01*
X82651800Y-113305400D02*
X82524600Y-113178200D01*
%TO.N,/USB_UNFILTERED_D+*%
X84836000Y-113671200D02*
X84836000Y-112939600D01*
D34*
X88111000Y-111541600D02*
X88566000Y-111541600D01*
D32*
X83676800Y-113805400D02*
X84701800Y-113805400D01*
D34*
X86847200Y-112805400D02*
X88111000Y-111541600D01*
D32*
X84701800Y-113805400D02*
X84836000Y-113671200D01*
X84836000Y-112939600D02*
X84701800Y-112805400D01*
X84701800Y-112805400D02*
X83676800Y-112805400D01*
D34*
X83676800Y-112805400D02*
X86847200Y-112805400D01*
D32*
%TO.N,/~RST*%
X99990200Y-84250000D02*
X106750000Y-84250000D01*
X128727200Y-92176600D02*
X128727200Y-89715400D01*
X124028200Y-86766400D02*
X120142000Y-82880200D01*
X111096200Y-79903800D02*
X115016400Y-79903800D01*
X91444000Y-91570100D02*
X91444000Y-93171586D01*
X115016400Y-79903800D02*
X118267600Y-79903800D01*
X120142000Y-82880200D02*
X120142000Y-81778200D01*
X128752600Y-92151200D02*
X128727200Y-92176600D01*
X91444000Y-93171586D02*
X92290148Y-94017734D01*
X92290148Y-94017734D02*
X92290148Y-94078985D01*
X106750000Y-84250000D02*
X111096200Y-79903800D01*
X120142000Y-81778200D02*
X122016400Y-79903800D01*
X118267600Y-79903800D02*
X120142000Y-81778200D01*
X128752600Y-86766400D02*
X128752600Y-92151200D01*
X128752600Y-86766400D02*
X124028200Y-86766400D01*
%TD*%
%TA.AperFunction,Conductor*%
%TO.N,GND*%
G36*
X133012721Y-73820002D02*
G01*
X133059214Y-73873658D01*
X133070600Y-73926000D01*
X133070600Y-136018000D01*
X133050598Y-136086121D01*
X132996942Y-136132614D01*
X132944600Y-136144000D01*
X76986400Y-136144000D01*
X76918279Y-136123998D01*
X76871786Y-136070342D01*
X76860400Y-136018000D01*
X76860400Y-132842612D01*
X80294539Y-132842612D01*
X80313140Y-133011102D01*
X80345923Y-133100686D01*
X80360202Y-133139703D01*
X80371395Y-133170290D01*
X80465940Y-133310988D01*
X80591317Y-133425073D01*
X80740288Y-133505957D01*
X80904253Y-133548973D01*
X80988499Y-133550296D01*
X81049277Y-133551251D01*
X81117075Y-133572320D01*
X81136393Y-133588140D01*
X83271449Y-135723196D01*
X83272480Y-135723945D01*
X83274350Y-135725674D01*
X83296958Y-135748282D01*
X83318313Y-135759163D01*
X83318315Y-135759164D01*
X83335169Y-135769493D01*
X83346530Y-135777747D01*
X83346534Y-135777749D01*
X83354557Y-135783578D01*
X83377349Y-135790984D01*
X83395608Y-135798547D01*
X83408133Y-135804929D01*
X83408136Y-135804930D01*
X83416968Y-135809430D01*
X83435529Y-135812370D01*
X83440633Y-135813178D01*
X83459866Y-135817795D01*
X83473224Y-135822136D01*
X83473227Y-135822136D01*
X83482655Y-135825200D01*
X83514618Y-135825200D01*
X83517169Y-135825300D01*
X83518431Y-135825500D01*
X104031569Y-135825500D01*
X104032831Y-135825300D01*
X104035382Y-135825200D01*
X104067344Y-135825200D01*
X104090139Y-135817794D01*
X104109351Y-135813182D01*
X104123235Y-135810983D01*
X104123242Y-135810981D01*
X104133032Y-135809430D01*
X104154393Y-135798546D01*
X104172657Y-135790981D01*
X104195442Y-135783578D01*
X104214825Y-135769496D01*
X104231677Y-135759168D01*
X104253042Y-135748282D01*
X104275650Y-135725674D01*
X104277520Y-135723945D01*
X104278551Y-135723196D01*
X104715070Y-135286677D01*
X104777382Y-135252651D01*
X104806144Y-135249788D01*
X104916147Y-135251516D01*
X104916150Y-135251516D01*
X104923745Y-135251635D01*
X104982841Y-135238100D01*
X105081577Y-135215487D01*
X105081581Y-135215486D01*
X105088980Y-135213791D01*
X105240418Y-135137626D01*
X105369316Y-135027536D01*
X105468234Y-134889877D01*
X105531461Y-134732597D01*
X105542870Y-134652434D01*
X105554764Y-134568859D01*
X105554764Y-134568856D01*
X105555345Y-134564775D01*
X105555500Y-134550000D01*
X105535135Y-134381715D01*
X105532427Y-134374549D01*
X105477902Y-134230250D01*
X105477901Y-134230248D01*
X105475217Y-134223145D01*
X105470918Y-134216890D01*
X105470916Y-134216886D01*
X105383505Y-134089703D01*
X105383504Y-134089701D01*
X105379203Y-134083444D01*
X105252638Y-133970679D01*
X105102829Y-133891359D01*
X104938423Y-133850063D01*
X104930825Y-133850023D01*
X104930823Y-133850023D01*
X104857792Y-133849641D01*
X104768912Y-133849176D01*
X104761533Y-133850948D01*
X104761529Y-133850948D01*
X104611461Y-133886976D01*
X104611457Y-133886977D01*
X104604082Y-133888748D01*
X104453450Y-133966495D01*
X104325711Y-134077928D01*
X104284200Y-134136992D01*
X104254889Y-134178698D01*
X104228240Y-134216615D01*
X104166665Y-134374549D01*
X104144539Y-134542612D01*
X104146986Y-134564775D01*
X104148946Y-134582529D01*
X104136540Y-134652434D01*
X104112802Y-134685451D01*
X103860658Y-134937595D01*
X103798346Y-134971621D01*
X103771563Y-134974500D01*
X83778437Y-134974500D01*
X83710316Y-134954498D01*
X83689342Y-134937595D01*
X81738797Y-132987050D01*
X81704771Y-132924738D01*
X81703149Y-132880204D01*
X81705345Y-132864775D01*
X81705417Y-132857916D01*
X81705435Y-132856153D01*
X88602579Y-132856153D01*
X88603266Y-132863160D01*
X88603266Y-132863163D01*
X88610752Y-132939509D01*
X88620102Y-133034873D01*
X88676785Y-133205269D01*
X88769811Y-133358872D01*
X88774702Y-133363937D01*
X88774703Y-133363938D01*
X88795202Y-133385165D01*
X88894555Y-133488048D01*
X89044818Y-133586378D01*
X89213132Y-133648973D01*
X89220113Y-133649904D01*
X89220115Y-133649905D01*
X89384150Y-133671792D01*
X89384154Y-133671792D01*
X89391131Y-133672723D01*
X89398142Y-133672085D01*
X89398146Y-133672085D01*
X89562947Y-133657087D01*
X89569968Y-133656448D01*
X89637259Y-133634584D01*
X89734057Y-133603133D01*
X89734060Y-133603132D01*
X89740756Y-133600956D01*
X89895005Y-133509005D01*
X90006683Y-133402655D01*
X90069808Y-133370162D01*
X90093575Y-133367900D01*
X91807897Y-133367900D01*
X91876018Y-133387902D01*
X91896992Y-133404805D01*
X92064459Y-133572272D01*
X92098485Y-133634584D01*
X92100603Y-133647541D01*
X92101657Y-133657087D01*
X92113140Y-133761102D01*
X92115750Y-133768233D01*
X92162109Y-133894914D01*
X92171395Y-133920290D01*
X92175631Y-133926593D01*
X92175631Y-133926594D01*
X92184557Y-133939877D01*
X92265940Y-134060988D01*
X92391317Y-134175073D01*
X92540288Y-134255957D01*
X92704253Y-134298973D01*
X92792481Y-134300359D01*
X92866147Y-134301516D01*
X92866150Y-134301516D01*
X92873745Y-134301635D01*
X92932841Y-134288100D01*
X93031577Y-134265487D01*
X93031581Y-134265486D01*
X93038980Y-134263791D01*
X93190418Y-134187626D01*
X93269755Y-134119865D01*
X93313544Y-134082466D01*
X93313545Y-134082465D01*
X93319316Y-134077536D01*
X93418234Y-133939877D01*
X93437389Y-133892229D01*
X93478626Y-133789650D01*
X93478627Y-133789648D01*
X93481461Y-133782597D01*
X93497189Y-133672085D01*
X93504764Y-133618859D01*
X93504764Y-133618856D01*
X93505345Y-133614775D01*
X93505500Y-133600000D01*
X93502150Y-133572320D01*
X93486048Y-133439258D01*
X93486048Y-133439257D01*
X93485135Y-133431715D01*
X93468580Y-133387902D01*
X93427902Y-133280250D01*
X93427901Y-133280248D01*
X93425217Y-133273145D01*
X93420918Y-133266890D01*
X93420916Y-133266886D01*
X93333505Y-133139703D01*
X93333504Y-133139701D01*
X93329203Y-133133444D01*
X93202638Y-133020679D01*
X93052829Y-132941359D01*
X92888423Y-132900063D01*
X92880825Y-132900023D01*
X92880823Y-132900023D01*
X92859254Y-132899910D01*
X92791239Y-132879551D01*
X92770820Y-132863007D01*
X92470470Y-132562657D01*
X92463411Y-132553824D01*
X92462966Y-132554203D01*
X92457148Y-132547367D01*
X92452358Y-132539775D01*
X92414448Y-132506294D01*
X92408762Y-132500949D01*
X92396619Y-132488806D01*
X92387635Y-132482073D01*
X92379793Y-132475688D01*
X92351659Y-132450841D01*
X92344931Y-132444899D01*
X92336806Y-132441085D01*
X92333653Y-132439013D01*
X92320670Y-132431211D01*
X92317333Y-132429384D01*
X92310153Y-132424003D01*
X92301752Y-132420854D01*
X92301749Y-132420852D01*
X92266607Y-132407678D01*
X92257290Y-132403752D01*
X92215194Y-132383988D01*
X92206322Y-132382607D01*
X92202672Y-132381491D01*
X92188063Y-132377659D01*
X92184353Y-132376843D01*
X92175948Y-132373692D01*
X92166999Y-132373027D01*
X92150866Y-132371828D01*
X92129570Y-132370246D01*
X92119522Y-132369092D01*
X92105445Y-132366900D01*
X92089228Y-132366900D01*
X92079891Y-132366554D01*
X92065370Y-132365475D01*
X92033019Y-132363071D01*
X92024243Y-132364944D01*
X92015286Y-132365555D01*
X92015281Y-132365475D01*
X92001782Y-132366900D01*
X90091550Y-132366900D01*
X90023429Y-132346898D01*
X90002144Y-132329684D01*
X89917692Y-132244640D01*
X89917688Y-132244637D01*
X89912729Y-132239643D01*
X89838017Y-132192229D01*
X89767062Y-132147199D01*
X89767058Y-132147197D01*
X89761108Y-132143421D01*
X89591937Y-132083182D01*
X89413623Y-132061920D01*
X89406620Y-132062656D01*
X89406619Y-132062656D01*
X89362810Y-132067260D01*
X89235031Y-132080690D01*
X89228363Y-132082960D01*
X89071702Y-132136292D01*
X89071699Y-132136293D01*
X89065035Y-132138562D01*
X88912085Y-132232657D01*
X88907054Y-132237583D01*
X88907051Y-132237586D01*
X88876889Y-132267123D01*
X88783782Y-132358300D01*
X88779963Y-132364225D01*
X88779962Y-132364227D01*
X88763544Y-132389703D01*
X88686504Y-132509246D01*
X88684095Y-132515866D01*
X88684093Y-132515869D01*
X88683723Y-132516886D01*
X88625085Y-132677993D01*
X88602579Y-132856153D01*
X81705435Y-132856153D01*
X81705457Y-132854135D01*
X81705457Y-132854129D01*
X81705500Y-132850000D01*
X81685135Y-132681715D01*
X81681226Y-132671370D01*
X81627902Y-132530250D01*
X81627901Y-132530248D01*
X81625217Y-132523145D01*
X81620918Y-132516890D01*
X81620916Y-132516886D01*
X81533505Y-132389703D01*
X81533504Y-132389701D01*
X81529203Y-132383444D01*
X81402638Y-132270679D01*
X81252829Y-132191359D01*
X81088423Y-132150063D01*
X81080825Y-132150023D01*
X81080823Y-132150023D01*
X81007792Y-132149641D01*
X80918912Y-132149176D01*
X80911533Y-132150948D01*
X80911529Y-132150948D01*
X80761461Y-132186976D01*
X80761457Y-132186977D01*
X80754082Y-132188748D01*
X80603450Y-132266495D01*
X80475711Y-132377928D01*
X80443329Y-132424003D01*
X80397785Y-132488806D01*
X80378240Y-132516615D01*
X80316665Y-132674549D01*
X80294539Y-132842612D01*
X76860400Y-132842612D01*
X76860400Y-130002821D01*
X88852808Y-130002821D01*
X88857718Y-130009380D01*
X88946268Y-130058869D01*
X88957507Y-130063779D01*
X89133814Y-130121065D01*
X89145788Y-130123698D01*
X89329873Y-130145649D01*
X89342122Y-130145906D01*
X89526965Y-130131683D01*
X89539038Y-130129554D01*
X89717598Y-130079699D01*
X89729021Y-130075269D01*
X89852798Y-130012744D01*
X89863082Y-130003099D01*
X89860844Y-129996455D01*
X89370011Y-129505621D01*
X89356068Y-129498008D01*
X89354234Y-129498139D01*
X89347620Y-129502390D01*
X88859565Y-129990446D01*
X88852808Y-130002821D01*
X76860400Y-130002821D01*
X76860400Y-129125600D01*
X88344815Y-129125600D01*
X88360326Y-129310325D01*
X88362541Y-129322390D01*
X88413637Y-129500584D01*
X88418155Y-129511996D01*
X88478255Y-129628937D01*
X88487976Y-129639158D01*
X88494775Y-129636814D01*
X88985179Y-129146411D01*
X88991555Y-129134732D01*
X89721608Y-129134732D01*
X89721739Y-129136566D01*
X89725990Y-129143180D01*
X90213956Y-129631145D01*
X90226331Y-129637902D01*
X90233065Y-129632861D01*
X90279578Y-129550983D01*
X90284569Y-129539772D01*
X90343078Y-129363885D01*
X90345799Y-129351907D01*
X90369362Y-129165389D01*
X90369854Y-129158360D01*
X90370151Y-129137105D01*
X90369858Y-129130112D01*
X90351509Y-128942974D01*
X90349126Y-128930939D01*
X90295546Y-128753477D01*
X90290873Y-128742137D01*
X90235853Y-128638658D01*
X90225993Y-128628577D01*
X90218866Y-128631145D01*
X89729221Y-129120789D01*
X89721608Y-129134732D01*
X88991555Y-129134732D01*
X88992792Y-129132468D01*
X88992661Y-129130634D01*
X88988410Y-129124020D01*
X88500226Y-128635837D01*
X88487851Y-128629080D01*
X88481462Y-128633862D01*
X88429082Y-128729142D01*
X88424254Y-128740406D01*
X88368198Y-128917116D01*
X88365650Y-128929103D01*
X88344986Y-129113331D01*
X88344815Y-129125600D01*
X76860400Y-129125600D01*
X76860400Y-128264609D01*
X88851928Y-128264609D01*
X88854383Y-128271573D01*
X89344388Y-128761578D01*
X89358332Y-128769192D01*
X89360165Y-128769061D01*
X89366780Y-128764810D01*
X89855127Y-128276462D01*
X89861884Y-128264087D01*
X89857225Y-128257863D01*
X89755169Y-128202682D01*
X89743870Y-128197932D01*
X89566773Y-128143111D01*
X89554769Y-128140646D01*
X89370401Y-128121269D01*
X89358132Y-128121184D01*
X89173522Y-128137984D01*
X89161473Y-128140282D01*
X88983633Y-128192624D01*
X88972265Y-128197217D01*
X88862077Y-128254822D01*
X88851928Y-128264609D01*
X76860400Y-128264609D01*
X76860400Y-125693353D01*
X88475579Y-125693353D01*
X88493102Y-125872073D01*
X88549785Y-126042469D01*
X88553434Y-126048494D01*
X88639002Y-126189782D01*
X88642811Y-126196072D01*
X88647702Y-126201137D01*
X88647703Y-126201138D01*
X88668202Y-126222365D01*
X88767555Y-126325248D01*
X88917818Y-126423578D01*
X89086132Y-126486173D01*
X89093113Y-126487104D01*
X89093115Y-126487105D01*
X89257150Y-126508992D01*
X89257154Y-126508992D01*
X89264131Y-126509923D01*
X89271142Y-126509285D01*
X89271146Y-126509285D01*
X89435947Y-126494287D01*
X89442968Y-126493648D01*
X89497650Y-126475881D01*
X89607057Y-126440333D01*
X89607060Y-126440332D01*
X89613756Y-126438156D01*
X89768005Y-126346205D01*
X89879683Y-126239855D01*
X89942808Y-126207362D01*
X89966575Y-126205100D01*
X90625881Y-126205100D01*
X90637110Y-126206355D01*
X90637157Y-126205771D01*
X90646104Y-126206491D01*
X90654860Y-126208472D01*
X90705311Y-126205342D01*
X90713112Y-126205100D01*
X90730314Y-126205100D01*
X90734750Y-126204465D01*
X90734761Y-126204464D01*
X90741442Y-126203507D01*
X90751498Y-126202476D01*
X90797909Y-126199597D01*
X90806355Y-126196548D01*
X90810087Y-126195775D01*
X90824738Y-126192123D01*
X90828393Y-126191054D01*
X90837277Y-126189782D01*
X90845449Y-126186067D01*
X90845454Y-126186065D01*
X90879618Y-126170531D01*
X90888981Y-126166719D01*
X90902892Y-126161697D01*
X90924275Y-126153978D01*
X90924277Y-126153977D01*
X90932717Y-126150930D01*
X90939966Y-126145634D01*
X90943310Y-126143856D01*
X90956409Y-126136202D01*
X90959579Y-126134175D01*
X90967749Y-126130460D01*
X90974549Y-126124601D01*
X91002986Y-126100098D01*
X91010902Y-126093813D01*
X91018463Y-126088289D01*
X91018472Y-126088281D01*
X91022405Y-126085408D01*
X91033863Y-126073950D01*
X91040710Y-126067592D01*
X91069524Y-126042764D01*
X91076326Y-126036903D01*
X91081210Y-126029369D01*
X91087109Y-126022606D01*
X91087169Y-126022659D01*
X91095710Y-126012103D01*
X91434021Y-125673792D01*
X111956060Y-125673792D01*
X111956260Y-125679121D01*
X111956260Y-125679123D01*
X111960518Y-125792540D01*
X111964976Y-125911287D01*
X112013780Y-126143885D01*
X112015737Y-126148841D01*
X112015739Y-126148847D01*
X112093680Y-126346205D01*
X112101077Y-126364935D01*
X112103844Y-126369494D01*
X112103845Y-126369497D01*
X112179182Y-126493648D01*
X112224370Y-126568115D01*
X112227867Y-126572145D01*
X112317114Y-126674993D01*
X112380134Y-126747618D01*
X112384260Y-126751001D01*
X112384264Y-126751005D01*
X112507137Y-126851753D01*
X112563916Y-126898309D01*
X112568552Y-126900948D01*
X112568555Y-126900950D01*
X112681254Y-126965102D01*
X112770460Y-127015881D01*
X112901667Y-127063507D01*
X112988846Y-127095152D01*
X112988850Y-127095153D01*
X112993861Y-127096972D01*
X112999110Y-127097921D01*
X112999113Y-127097922D01*
X113223647Y-127138524D01*
X113223654Y-127138525D01*
X113227731Y-127139262D01*
X113248150Y-127140225D01*
X113252494Y-127140430D01*
X113252499Y-127140430D01*
X113253981Y-127140500D01*
X117018926Y-127140500D01*
X117196812Y-127125406D01*
X117201976Y-127124066D01*
X117201980Y-127124065D01*
X117421689Y-127067039D01*
X117421688Y-127067039D01*
X117426852Y-127065699D01*
X117643544Y-126968087D01*
X117840692Y-126835360D01*
X118012657Y-126671312D01*
X118154524Y-126480636D01*
X118175016Y-126440333D01*
X118259817Y-126273541D01*
X118259817Y-126273540D01*
X118262236Y-126268783D01*
X118297884Y-126153978D01*
X118331129Y-126046914D01*
X118331130Y-126046908D01*
X118332713Y-126041811D01*
X118363940Y-125806208D01*
X118355024Y-125568713D01*
X118306220Y-125336115D01*
X118304263Y-125331159D01*
X118304261Y-125331153D01*
X118220884Y-125120030D01*
X118220883Y-125120028D01*
X118218923Y-125115065D01*
X118095630Y-124911885D01*
X118006081Y-124808688D01*
X117943366Y-124736415D01*
X117943364Y-124736413D01*
X117939866Y-124732382D01*
X117935740Y-124728999D01*
X117935736Y-124728995D01*
X117760212Y-124585076D01*
X117756084Y-124581691D01*
X117751448Y-124579052D01*
X117751445Y-124579050D01*
X117554183Y-124466762D01*
X117549540Y-124464119D01*
X117397624Y-124408976D01*
X117331154Y-124384848D01*
X117331150Y-124384847D01*
X117326139Y-124383028D01*
X117320890Y-124382079D01*
X117320887Y-124382078D01*
X117096353Y-124341476D01*
X117096346Y-124341475D01*
X117092269Y-124340738D01*
X117070790Y-124339725D01*
X117067506Y-124339570D01*
X117067501Y-124339570D01*
X117066019Y-124339500D01*
X113301074Y-124339500D01*
X113123188Y-124354594D01*
X113118024Y-124355934D01*
X113118020Y-124355935D01*
X112929603Y-124404839D01*
X112893148Y-124414301D01*
X112676456Y-124511913D01*
X112479308Y-124644640D01*
X112307343Y-124808688D01*
X112165476Y-124999364D01*
X112163060Y-125004115D01*
X112163058Y-125004119D01*
X112061382Y-125204100D01*
X112057764Y-125211217D01*
X112022526Y-125324703D01*
X111988871Y-125433086D01*
X111988870Y-125433092D01*
X111987287Y-125438189D01*
X111956060Y-125673792D01*
X91434021Y-125673792D01*
X92969497Y-124138317D01*
X93031809Y-124104291D01*
X93060571Y-124101428D01*
X93061413Y-124101441D01*
X93066148Y-124101516D01*
X93066151Y-124101516D01*
X93073745Y-124101635D01*
X93132841Y-124088100D01*
X93231577Y-124065487D01*
X93231581Y-124065486D01*
X93238980Y-124063791D01*
X93390418Y-123987626D01*
X93519316Y-123877536D01*
X93618234Y-123739877D01*
X93681461Y-123582597D01*
X93689905Y-123523265D01*
X93704764Y-123418859D01*
X93704764Y-123418856D01*
X93705345Y-123414775D01*
X93705500Y-123400000D01*
X93689625Y-123268815D01*
X93686048Y-123239258D01*
X93686048Y-123239257D01*
X93685135Y-123231715D01*
X93680658Y-123219866D01*
X93627902Y-123080250D01*
X93627901Y-123080248D01*
X93625217Y-123073145D01*
X93620918Y-123066890D01*
X93620916Y-123066886D01*
X93533505Y-122939703D01*
X93533504Y-122939701D01*
X93529203Y-122933444D01*
X93402638Y-122820679D01*
X93252829Y-122741359D01*
X93088423Y-122700063D01*
X93080825Y-122700023D01*
X93080823Y-122700023D01*
X93007792Y-122699641D01*
X92918912Y-122699176D01*
X92911533Y-122700948D01*
X92911529Y-122700948D01*
X92761461Y-122736976D01*
X92761457Y-122736977D01*
X92754082Y-122738748D01*
X92603450Y-122816495D01*
X92475711Y-122927928D01*
X92434200Y-122986992D01*
X92418610Y-123009175D01*
X92378240Y-123066615D01*
X92316665Y-123224549D01*
X92313739Y-123246773D01*
X92299358Y-123356008D01*
X92270635Y-123420935D01*
X92263531Y-123428656D01*
X90524992Y-125167195D01*
X90462680Y-125201221D01*
X90435897Y-125204100D01*
X89964550Y-125204100D01*
X89896429Y-125184098D01*
X89875144Y-125166884D01*
X89790692Y-125081840D01*
X89790688Y-125081837D01*
X89785729Y-125076843D01*
X89768905Y-125066166D01*
X89640062Y-124984399D01*
X89640058Y-124984397D01*
X89634108Y-124980621D01*
X89464937Y-124920382D01*
X89286623Y-124899120D01*
X89279620Y-124899856D01*
X89279619Y-124899856D01*
X89235810Y-124904460D01*
X89108031Y-124917890D01*
X89101363Y-124920160D01*
X88944702Y-124973492D01*
X88944699Y-124973493D01*
X88938035Y-124975762D01*
X88785085Y-125069857D01*
X88780054Y-125074783D01*
X88780051Y-125074786D01*
X88772848Y-125081840D01*
X88656782Y-125195500D01*
X88652963Y-125201425D01*
X88652962Y-125201427D01*
X88649719Y-125206459D01*
X88559504Y-125346446D01*
X88498085Y-125515193D01*
X88475579Y-125693353D01*
X76860400Y-125693353D01*
X76860400Y-122092953D01*
X95949096Y-122092953D01*
X95962926Y-122303960D01*
X96014978Y-122508914D01*
X96103508Y-122700950D01*
X96225551Y-122873637D01*
X96229685Y-122877664D01*
X96356879Y-123001571D01*
X96377020Y-123021192D01*
X96381816Y-123024397D01*
X96381819Y-123024399D01*
X96522751Y-123118566D01*
X96552843Y-123138673D01*
X96558146Y-123140951D01*
X96558149Y-123140953D01*
X96639672Y-123175978D01*
X96747131Y-123222146D01*
X96953377Y-123268815D01*
X96959146Y-123269042D01*
X96959149Y-123269042D01*
X97039442Y-123272196D01*
X97164674Y-123277116D01*
X97252893Y-123264325D01*
X97368232Y-123247602D01*
X97368237Y-123247601D01*
X97373946Y-123246773D01*
X97379410Y-123244918D01*
X97379415Y-123244917D01*
X97568712Y-123180660D01*
X97568717Y-123180658D01*
X97574184Y-123178802D01*
X97758682Y-123075478D01*
X97921262Y-122940262D01*
X98056478Y-122777682D01*
X98159802Y-122593184D01*
X98161658Y-122587717D01*
X98161660Y-122587712D01*
X98225917Y-122398415D01*
X98225918Y-122398410D01*
X98227773Y-122392946D01*
X98228601Y-122387237D01*
X98228602Y-122387232D01*
X98257583Y-122187348D01*
X98258116Y-122183674D01*
X98259700Y-122123200D01*
X99878700Y-122123200D01*
X99878970Y-122127319D01*
X99896739Y-122398415D01*
X99898424Y-122424128D01*
X99899228Y-122428168D01*
X99899228Y-122428171D01*
X99953487Y-122700948D01*
X99957258Y-122719907D01*
X99958583Y-122723811D01*
X99958584Y-122723814D01*
X99991740Y-122821488D01*
X100054196Y-123005477D01*
X100086893Y-123071780D01*
X100183431Y-123267540D01*
X100187578Y-123275950D01*
X100355124Y-123526699D01*
X100553965Y-123753435D01*
X100780701Y-123952276D01*
X101031450Y-124119822D01*
X101035149Y-124121646D01*
X101035154Y-124121649D01*
X101068954Y-124138317D01*
X101301923Y-124253204D01*
X101305828Y-124254529D01*
X101305829Y-124254530D01*
X101583586Y-124348816D01*
X101583589Y-124348817D01*
X101587493Y-124350142D01*
X101591532Y-124350945D01*
X101591538Y-124350947D01*
X101879229Y-124408172D01*
X101879232Y-124408172D01*
X101883272Y-124408976D01*
X101887383Y-124409245D01*
X101887387Y-124409246D01*
X102180081Y-124428430D01*
X102184200Y-124428700D01*
X102188319Y-124428430D01*
X102481013Y-124409246D01*
X102481017Y-124409245D01*
X102485128Y-124408976D01*
X102489168Y-124408172D01*
X102489171Y-124408172D01*
X102776862Y-124350947D01*
X102776868Y-124350945D01*
X102780907Y-124350142D01*
X102784811Y-124348817D01*
X102784814Y-124348816D01*
X103062571Y-124254530D01*
X103062572Y-124254529D01*
X103066477Y-124253204D01*
X103299446Y-124138317D01*
X103333246Y-124121649D01*
X103333251Y-124121646D01*
X103336950Y-124119822D01*
X103587699Y-123952276D01*
X103814435Y-123753435D01*
X104013276Y-123526699D01*
X104180822Y-123275950D01*
X104184970Y-123267540D01*
X104281507Y-123071780D01*
X104314204Y-123005477D01*
X104376660Y-122821488D01*
X104409816Y-122723814D01*
X104409817Y-122723811D01*
X104411142Y-122719907D01*
X104414914Y-122700948D01*
X104469172Y-122428171D01*
X104469172Y-122428168D01*
X104469976Y-122424128D01*
X104471662Y-122398415D01*
X104489430Y-122127319D01*
X104489700Y-122123200D01*
X104487342Y-122087217D01*
X104470246Y-121826387D01*
X104470245Y-121826383D01*
X104469976Y-121822272D01*
X104411142Y-121526493D01*
X104351238Y-121350020D01*
X104315530Y-121244829D01*
X104315529Y-121244828D01*
X104314204Y-121240923D01*
X104206386Y-121022289D01*
X104182649Y-120974154D01*
X104182646Y-120974149D01*
X104180822Y-120970450D01*
X104126138Y-120888610D01*
X105053619Y-120888610D01*
X105059346Y-120896261D01*
X105257693Y-121017808D01*
X105266487Y-121022289D01*
X105491182Y-121115360D01*
X105500568Y-121118409D01*
X105737058Y-121175186D01*
X105746805Y-121176729D01*
X105989270Y-121195812D01*
X105999130Y-121195812D01*
X106241595Y-121176729D01*
X106251342Y-121175186D01*
X106261899Y-121172651D01*
X106332807Y-121176198D01*
X106390541Y-121217518D01*
X106416771Y-121283492D01*
X106403168Y-121353173D01*
X106390263Y-121373176D01*
X106295116Y-121493870D01*
X106292427Y-121498981D01*
X106292425Y-121498984D01*
X106278930Y-121524634D01*
X106196657Y-121681009D01*
X106133950Y-121882958D01*
X106109096Y-122092953D01*
X106122926Y-122303960D01*
X106174978Y-122508914D01*
X106263508Y-122700950D01*
X106385551Y-122873637D01*
X106389685Y-122877664D01*
X106516879Y-123001571D01*
X106537020Y-123021192D01*
X106541816Y-123024397D01*
X106541819Y-123024399D01*
X106682751Y-123118566D01*
X106712843Y-123138673D01*
X106718146Y-123140951D01*
X106718149Y-123140953D01*
X106799672Y-123175978D01*
X106907131Y-123222146D01*
X107113377Y-123268815D01*
X107119146Y-123269042D01*
X107119149Y-123269042D01*
X107199442Y-123272196D01*
X107324674Y-123277116D01*
X107412893Y-123264325D01*
X107528232Y-123247602D01*
X107528237Y-123247601D01*
X107533946Y-123246773D01*
X107539410Y-123244918D01*
X107539415Y-123244917D01*
X107728712Y-123180660D01*
X107728717Y-123180658D01*
X107734184Y-123178802D01*
X107918682Y-123075478D01*
X108081262Y-122940262D01*
X108216478Y-122777682D01*
X108319802Y-122593184D01*
X108321658Y-122587717D01*
X108321660Y-122587712D01*
X108385917Y-122398415D01*
X108385918Y-122398410D01*
X108387773Y-122392946D01*
X108388601Y-122387237D01*
X108388602Y-122387232D01*
X108417583Y-122187348D01*
X108418116Y-122183674D01*
X108419700Y-122123200D01*
X108400351Y-121912627D01*
X108391984Y-121882958D01*
X108344520Y-121714665D01*
X108344519Y-121714663D01*
X108342952Y-121709106D01*
X108329097Y-121681009D01*
X108251981Y-121524634D01*
X108249426Y-121519453D01*
X108122904Y-121350020D01*
X107967624Y-121206480D01*
X107962741Y-121203399D01*
X107962737Y-121203396D01*
X107793670Y-121096723D01*
X107793665Y-121096721D01*
X107788786Y-121093642D01*
X107609938Y-121022289D01*
X107597744Y-121017424D01*
X107592380Y-121015284D01*
X107586720Y-121014158D01*
X107586716Y-121014157D01*
X107390650Y-120975157D01*
X107390647Y-120975157D01*
X107384983Y-120974030D01*
X107379208Y-120973954D01*
X107379204Y-120973954D01*
X107273264Y-120972567D01*
X107173541Y-120971262D01*
X107167844Y-120972241D01*
X107167843Y-120972241D01*
X107139810Y-120977058D01*
X107082476Y-120986910D01*
X107011953Y-120978733D01*
X106957045Y-120933726D01*
X106945430Y-120912605D01*
X106931063Y-120879274D01*
X106007011Y-119955221D01*
X105993068Y-119947608D01*
X105991234Y-119947739D01*
X105984620Y-119951990D01*
X105060376Y-120876235D01*
X105053619Y-120888610D01*
X104126138Y-120888610D01*
X104013276Y-120719701D01*
X103814435Y-120492965D01*
X103587699Y-120294124D01*
X103336950Y-120126578D01*
X103333251Y-120124754D01*
X103333246Y-120124751D01*
X103194513Y-120056336D01*
X103066477Y-119993196D01*
X103062571Y-119991870D01*
X102784814Y-119897584D01*
X102784811Y-119897583D01*
X102780907Y-119896258D01*
X102776868Y-119895455D01*
X102776862Y-119895453D01*
X102489171Y-119838228D01*
X102489168Y-119838228D01*
X102485128Y-119837424D01*
X102481017Y-119837155D01*
X102481013Y-119837154D01*
X102188319Y-119817970D01*
X102184200Y-119817700D01*
X102180081Y-119817970D01*
X101887387Y-119837154D01*
X101887383Y-119837155D01*
X101883272Y-119837424D01*
X101879232Y-119838228D01*
X101879229Y-119838228D01*
X101591538Y-119895453D01*
X101591532Y-119895455D01*
X101587493Y-119896258D01*
X101583589Y-119897583D01*
X101583586Y-119897584D01*
X101305829Y-119991870D01*
X101301923Y-119993196D01*
X101173887Y-120056336D01*
X101035154Y-120124751D01*
X101035149Y-120124754D01*
X101031450Y-120126578D01*
X100780701Y-120294124D01*
X100553965Y-120492965D01*
X100355124Y-120719701D01*
X100187578Y-120970450D01*
X100185754Y-120974149D01*
X100185751Y-120974154D01*
X100162014Y-121022289D01*
X100054196Y-121240923D01*
X100052871Y-121244828D01*
X100052870Y-121244829D01*
X100017163Y-121350020D01*
X99957258Y-121526493D01*
X99898424Y-121822272D01*
X99898155Y-121826383D01*
X99898154Y-121826387D01*
X99881058Y-122087217D01*
X99878700Y-122123200D01*
X98259700Y-122123200D01*
X98240351Y-121912627D01*
X98231984Y-121882958D01*
X98184520Y-121714665D01*
X98184519Y-121714663D01*
X98182952Y-121709106D01*
X98169097Y-121681009D01*
X98091981Y-121524634D01*
X98089426Y-121519453D01*
X97962904Y-121350020D01*
X97807624Y-121206480D01*
X97802741Y-121203399D01*
X97802737Y-121203396D01*
X97633670Y-121096723D01*
X97633665Y-121096721D01*
X97628786Y-121093642D01*
X97449938Y-121022289D01*
X97437744Y-121017424D01*
X97432380Y-121015284D01*
X97426720Y-121014158D01*
X97426716Y-121014157D01*
X97230650Y-120975157D01*
X97230647Y-120975157D01*
X97224983Y-120974030D01*
X97219208Y-120973954D01*
X97219204Y-120973954D01*
X97113264Y-120972567D01*
X97013541Y-120971262D01*
X97007844Y-120972241D01*
X97007843Y-120972241D01*
X96810832Y-121006094D01*
X96805135Y-121007073D01*
X96606744Y-121080263D01*
X96425014Y-121188381D01*
X96266030Y-121327806D01*
X96135116Y-121493870D01*
X96132427Y-121498981D01*
X96132425Y-121498984D01*
X96118930Y-121524634D01*
X96036657Y-121681009D01*
X95973950Y-121882958D01*
X95949096Y-122092953D01*
X76860400Y-122092953D01*
X76860400Y-119578270D01*
X104381588Y-119578270D01*
X104381588Y-119588130D01*
X104400671Y-119830595D01*
X104402214Y-119840342D01*
X104458991Y-120076832D01*
X104462040Y-120086218D01*
X104555111Y-120310913D01*
X104559592Y-120319707D01*
X104678892Y-120514387D01*
X104689348Y-120523847D01*
X104698126Y-120520063D01*
X105622179Y-119596011D01*
X105628555Y-119584332D01*
X106358608Y-119584332D01*
X106358739Y-119586166D01*
X106362990Y-119592780D01*
X107287235Y-120517024D01*
X107299610Y-120523781D01*
X107307261Y-120518054D01*
X107428808Y-120319707D01*
X107433289Y-120310913D01*
X107526360Y-120086218D01*
X107529409Y-120076832D01*
X107586186Y-119840342D01*
X107587729Y-119830595D01*
X107606812Y-119588130D01*
X107606812Y-119578270D01*
X107587729Y-119335805D01*
X107586186Y-119326058D01*
X107529409Y-119089568D01*
X107526360Y-119080182D01*
X107433289Y-118855487D01*
X107428808Y-118846693D01*
X107309508Y-118652013D01*
X107299052Y-118642553D01*
X107290274Y-118646337D01*
X106366221Y-119570389D01*
X106358608Y-119584332D01*
X105628555Y-119584332D01*
X105629792Y-119582068D01*
X105629661Y-119580234D01*
X105625410Y-119573620D01*
X104701165Y-118649376D01*
X104688790Y-118642619D01*
X104681139Y-118648346D01*
X104559592Y-118846693D01*
X104555111Y-118855487D01*
X104462040Y-119080182D01*
X104458991Y-119089568D01*
X104402214Y-119326058D01*
X104400671Y-119335805D01*
X104381588Y-119578270D01*
X76860400Y-119578270D01*
X76860400Y-117641167D01*
X77389097Y-117641167D01*
X77420824Y-117748967D01*
X77425417Y-117760335D01*
X77511304Y-117924622D01*
X77518018Y-117934883D01*
X77634180Y-118079359D01*
X77642758Y-118088119D01*
X77784770Y-118207281D01*
X77794884Y-118214207D01*
X77957342Y-118303518D01*
X77968606Y-118308346D01*
X78145316Y-118364402D01*
X78157303Y-118366950D01*
X78300461Y-118383007D01*
X78307485Y-118383400D01*
X78489685Y-118383400D01*
X78504924Y-118378925D01*
X78506129Y-118377535D01*
X78507800Y-118369852D01*
X78507800Y-118365285D01*
X79015799Y-118365285D01*
X79020274Y-118380524D01*
X79021664Y-118381729D01*
X79029347Y-118383400D01*
X79209712Y-118383400D01*
X79215860Y-118383099D01*
X79352426Y-118369709D01*
X79364461Y-118367326D01*
X79541924Y-118313746D01*
X79553266Y-118309071D01*
X79716944Y-118222043D01*
X79727160Y-118215256D01*
X79870819Y-118098090D01*
X79879523Y-118089446D01*
X79997686Y-117946612D01*
X80004546Y-117936441D01*
X80092718Y-117773369D01*
X80097468Y-117762070D01*
X80133180Y-117646707D01*
X80133260Y-117641167D01*
X81389097Y-117641167D01*
X81420824Y-117748967D01*
X81425417Y-117760335D01*
X81511304Y-117924622D01*
X81518018Y-117934883D01*
X81634180Y-118079359D01*
X81642758Y-118088119D01*
X81784770Y-118207281D01*
X81794884Y-118214207D01*
X81957342Y-118303518D01*
X81968606Y-118308346D01*
X82145316Y-118364402D01*
X82157303Y-118366950D01*
X82300461Y-118383007D01*
X82307485Y-118383400D01*
X82639685Y-118383400D01*
X82654924Y-118378925D01*
X82656129Y-118377535D01*
X82657800Y-118369852D01*
X82657800Y-118365285D01*
X83165799Y-118365285D01*
X83170274Y-118380524D01*
X83171664Y-118381729D01*
X83179347Y-118383400D01*
X83509712Y-118383400D01*
X83515860Y-118383099D01*
X83652426Y-118369709D01*
X83664461Y-118367326D01*
X83841924Y-118313746D01*
X83853266Y-118309071D01*
X84016944Y-118222043D01*
X84027160Y-118215256D01*
X84170819Y-118098090D01*
X84179523Y-118089446D01*
X84297686Y-117946612D01*
X84304546Y-117936441D01*
X84392718Y-117773369D01*
X84397468Y-117762070D01*
X84433180Y-117646707D01*
X84433386Y-117632605D01*
X84426630Y-117629400D01*
X83183915Y-117629399D01*
X83168676Y-117633874D01*
X83167471Y-117635264D01*
X83165800Y-117642947D01*
X83165799Y-118365285D01*
X82657800Y-118365285D01*
X82657801Y-117647515D01*
X82653326Y-117632276D01*
X82651936Y-117631071D01*
X82644253Y-117629400D01*
X81403748Y-117629399D01*
X81390217Y-117633372D01*
X81389097Y-117641167D01*
X80133260Y-117641167D01*
X80133386Y-117632605D01*
X80126630Y-117629400D01*
X79033915Y-117629399D01*
X79018676Y-117633874D01*
X79017471Y-117635264D01*
X79015800Y-117642947D01*
X79015799Y-118365285D01*
X78507800Y-118365285D01*
X78507801Y-117647515D01*
X78503326Y-117632276D01*
X78501936Y-117631071D01*
X78494253Y-117629400D01*
X77403748Y-117629399D01*
X77390217Y-117633372D01*
X77389097Y-117641167D01*
X76860400Y-117641167D01*
X76860400Y-117118195D01*
X77390214Y-117118195D01*
X77396970Y-117121400D01*
X78489685Y-117121401D01*
X78504924Y-117116926D01*
X78506129Y-117115536D01*
X78507800Y-117107853D01*
X78507800Y-117103285D01*
X79015799Y-117103285D01*
X79020274Y-117118524D01*
X79021664Y-117119729D01*
X79029347Y-117121400D01*
X80119852Y-117121401D01*
X80133383Y-117117428D01*
X80134503Y-117109633D01*
X80102776Y-117001833D01*
X80098183Y-116990465D01*
X80012296Y-116826178D01*
X80005582Y-116815917D01*
X79889420Y-116671441D01*
X79880842Y-116662681D01*
X79738830Y-116543519D01*
X79728716Y-116536593D01*
X79566258Y-116447282D01*
X79554994Y-116442454D01*
X79378284Y-116386398D01*
X79366297Y-116383850D01*
X79223139Y-116367793D01*
X79216115Y-116367400D01*
X79033915Y-116367400D01*
X79018676Y-116371875D01*
X79017471Y-116373265D01*
X79015800Y-116380948D01*
X79015799Y-117103285D01*
X78507800Y-117103285D01*
X78507801Y-116385515D01*
X78503326Y-116370276D01*
X78501936Y-116369071D01*
X78494253Y-116367400D01*
X78313888Y-116367400D01*
X78307740Y-116367701D01*
X78171174Y-116381091D01*
X78159139Y-116383474D01*
X77981676Y-116437054D01*
X77970334Y-116441729D01*
X77806656Y-116528757D01*
X77796440Y-116535544D01*
X77652781Y-116652710D01*
X77644077Y-116661354D01*
X77525914Y-116804188D01*
X77519054Y-116814359D01*
X77430882Y-116977431D01*
X77426132Y-116988730D01*
X77390420Y-117104093D01*
X77390214Y-117118195D01*
X76860400Y-117118195D01*
X76860400Y-116069156D01*
X76880402Y-116001035D01*
X76934058Y-115954542D01*
X77004332Y-115944438D01*
X77032787Y-115952005D01*
X77033608Y-115952330D01*
X77040288Y-115955957D01*
X77204253Y-115998973D01*
X77292481Y-116000359D01*
X77366147Y-116001516D01*
X77366150Y-116001516D01*
X77373745Y-116001635D01*
X77436068Y-115987361D01*
X77531577Y-115965487D01*
X77531581Y-115965486D01*
X77538980Y-115963791D01*
X77690418Y-115887626D01*
X77764812Y-115824088D01*
X77829601Y-115795057D01*
X77846642Y-115793899D01*
X81660272Y-115793899D01*
X81728393Y-115813901D01*
X81774886Y-115867557D01*
X81786272Y-115919899D01*
X81786272Y-116024423D01*
X81788243Y-116032098D01*
X81788243Y-116032101D01*
X81797323Y-116067464D01*
X81825576Y-116177503D01*
X81829392Y-116184445D01*
X81829394Y-116184449D01*
X81855228Y-116231440D01*
X81901715Y-116315999D01*
X81903264Y-116317649D01*
X81926276Y-116382139D01*
X81910198Y-116451291D01*
X81859635Y-116500588D01*
X81806656Y-116528757D01*
X81796440Y-116535544D01*
X81652781Y-116652710D01*
X81644077Y-116661354D01*
X81525914Y-116804188D01*
X81519054Y-116814359D01*
X81430882Y-116977431D01*
X81426132Y-116988730D01*
X81390420Y-117104093D01*
X81390214Y-117118195D01*
X81396970Y-117121400D01*
X82639685Y-117121401D01*
X82654924Y-117116926D01*
X82656129Y-117115536D01*
X82657800Y-117107853D01*
X82657801Y-116600927D01*
X82677803Y-116532806D01*
X82730153Y-116486919D01*
X82742466Y-116481125D01*
X82742470Y-116481122D01*
X82749639Y-116477749D01*
X82863598Y-116383474D01*
X82865306Y-116382061D01*
X82865307Y-116382060D01*
X82871415Y-116377007D01*
X82876075Y-116370593D01*
X82879311Y-116367147D01*
X82940523Y-116331182D01*
X82971161Y-116327400D01*
X83039800Y-116327400D01*
X83107921Y-116347402D01*
X83154414Y-116401058D01*
X83165800Y-116453400D01*
X83165799Y-117103285D01*
X83170274Y-117118524D01*
X83171664Y-117119729D01*
X83179347Y-117121400D01*
X84419852Y-117121401D01*
X84435092Y-117116926D01*
X84445315Y-117105128D01*
X84505042Y-117066745D01*
X84518163Y-117063644D01*
X84531286Y-117061276D01*
X84656258Y-117024581D01*
X84672492Y-117017167D01*
X84780160Y-116947974D01*
X84793647Y-116936288D01*
X84877462Y-116839560D01*
X84887107Y-116824552D01*
X84940277Y-116708125D01*
X84945302Y-116691012D01*
X84962222Y-116573329D01*
X84960216Y-116559373D01*
X84946685Y-116555400D01*
X83844914Y-116555399D01*
X83829675Y-116559874D01*
X83828470Y-116561264D01*
X83826799Y-116568947D01*
X83826799Y-116677400D01*
X83806797Y-116745521D01*
X83753141Y-116792014D01*
X83700799Y-116803400D01*
X83652800Y-116803400D01*
X83584679Y-116783398D01*
X83538186Y-116729742D01*
X83526800Y-116677400D01*
X83526801Y-116377007D01*
X83526801Y-116186900D01*
X83546803Y-116118779D01*
X83600459Y-116072286D01*
X83652801Y-116060900D01*
X83726186Y-116060900D01*
X83794307Y-116080902D01*
X83840800Y-116134558D01*
X83850904Y-116204832D01*
X83831509Y-116247302D01*
X83830756Y-116250759D01*
X83831275Y-116252524D01*
X83832665Y-116253729D01*
X83840348Y-116255400D01*
X84946685Y-116255401D01*
X84946688Y-116255400D01*
X84663934Y-116255400D01*
X84595813Y-116235398D01*
X84549320Y-116181742D01*
X84540689Y-116121710D01*
X86772296Y-116121710D01*
X86785986Y-116222304D01*
X86787928Y-116231440D01*
X86860504Y-116480433D01*
X86863772Y-116489176D01*
X86972357Y-116724714D01*
X86976877Y-116732869D01*
X87119084Y-116949771D01*
X87124767Y-116957176D01*
X87297467Y-117150671D01*
X87304183Y-117157156D01*
X87503591Y-117323001D01*
X87511179Y-117328414D01*
X87732924Y-117462973D01*
X87741224Y-117467202D01*
X87980412Y-117567502D01*
X87989262Y-117570463D01*
X88240637Y-117634303D01*
X88249834Y-117635925D01*
X88465916Y-117657684D01*
X88472208Y-117658000D01*
X89487885Y-117658000D01*
X89503124Y-117653525D01*
X89504329Y-117652135D01*
X89506000Y-117644452D01*
X89506000Y-116122115D01*
X89504659Y-116117548D01*
X90014000Y-116117548D01*
X90014000Y-117639885D01*
X90018475Y-117655124D01*
X90019865Y-117656329D01*
X90027548Y-117658000D01*
X91024940Y-117658000D01*
X91029615Y-117657827D01*
X91223326Y-117643432D01*
X91232532Y-117642055D01*
X91485513Y-117584812D01*
X91494424Y-117582088D01*
X91736163Y-117488080D01*
X91744573Y-117484069D01*
X91969759Y-117355364D01*
X91977485Y-117350153D01*
X92181177Y-117189575D01*
X92188045Y-117183282D01*
X92220686Y-117148583D01*
X98242656Y-117148583D01*
X98280449Y-117383221D01*
X98282172Y-117388267D01*
X98282172Y-117388268D01*
X98344374Y-117570463D01*
X98357236Y-117608138D01*
X98359785Y-117612824D01*
X98359786Y-117612825D01*
X98374509Y-117639885D01*
X98470821Y-117816901D01*
X98474125Y-117821092D01*
X98614654Y-117999352D01*
X98614658Y-117999356D01*
X98617957Y-118003541D01*
X98794436Y-118162723D01*
X98995212Y-118289894D01*
X99132560Y-118347207D01*
X99208571Y-118378925D01*
X99214545Y-118381418D01*
X99446163Y-118434678D01*
X99451494Y-118434981D01*
X99451496Y-118434981D01*
X99588245Y-118442746D01*
X99683444Y-118448152D01*
X99688751Y-118447552D01*
X99688753Y-118447552D01*
X99813217Y-118433481D01*
X99919602Y-118421454D01*
X99924717Y-118419973D01*
X99924721Y-118419972D01*
X100142763Y-118356831D01*
X100142768Y-118356829D01*
X100147886Y-118355347D01*
X100306811Y-118278348D01*
X105053553Y-118278348D01*
X105057337Y-118287126D01*
X105981389Y-119211179D01*
X105995332Y-119218792D01*
X105997166Y-119218661D01*
X106003780Y-119214410D01*
X106928024Y-118290165D01*
X106934781Y-118277790D01*
X106929054Y-118270139D01*
X106730707Y-118148592D01*
X106721913Y-118144111D01*
X106497218Y-118051040D01*
X106487832Y-118047991D01*
X106251342Y-117991214D01*
X106241595Y-117989671D01*
X105999130Y-117970588D01*
X105989270Y-117970588D01*
X105746805Y-117989671D01*
X105737058Y-117991214D01*
X105500568Y-118047991D01*
X105491182Y-118051040D01*
X105266487Y-118144111D01*
X105257693Y-118148592D01*
X105063013Y-118267892D01*
X105053553Y-118278348D01*
X100306811Y-118278348D01*
X100361768Y-118251722D01*
X100555133Y-118113542D01*
X100722451Y-117944757D01*
X100858938Y-117750195D01*
X100903980Y-117655124D01*
X100958408Y-117540239D01*
X100960693Y-117535416D01*
X101024805Y-117306564D01*
X101037654Y-117183282D01*
X101049134Y-117073132D01*
X101049135Y-117073122D01*
X101049441Y-117070182D01*
X101049700Y-117043200D01*
X101029606Y-116806388D01*
X101025876Y-116792014D01*
X100971239Y-116581511D01*
X100969899Y-116576348D01*
X100872287Y-116359656D01*
X100739560Y-116162508D01*
X100575512Y-115990543D01*
X100384836Y-115848676D01*
X100380085Y-115846260D01*
X100380081Y-115846258D01*
X100177741Y-115743383D01*
X100177740Y-115743383D01*
X100172983Y-115740964D01*
X100037641Y-115698939D01*
X99951114Y-115672071D01*
X99951108Y-115672070D01*
X99946011Y-115670487D01*
X99819168Y-115653675D01*
X99715692Y-115639960D01*
X99715688Y-115639960D01*
X99710408Y-115639260D01*
X99705079Y-115639460D01*
X99705077Y-115639460D01*
X99591661Y-115643718D01*
X99472913Y-115648176D01*
X99240315Y-115696980D01*
X99235359Y-115698937D01*
X99235353Y-115698939D01*
X99024230Y-115782316D01*
X99024228Y-115782317D01*
X99019265Y-115784277D01*
X99014706Y-115787044D01*
X99014703Y-115787045D01*
X98917124Y-115846258D01*
X98816085Y-115907570D01*
X98812055Y-115911067D01*
X98640889Y-116059597D01*
X98636582Y-116063334D01*
X98633199Y-116067460D01*
X98633195Y-116067464D01*
X98591120Y-116118779D01*
X98485891Y-116247116D01*
X98483252Y-116251752D01*
X98483250Y-116251755D01*
X98409709Y-116380948D01*
X98368319Y-116453660D01*
X98328002Y-116564732D01*
X98292448Y-116662681D01*
X98287228Y-116677061D01*
X98286279Y-116682310D01*
X98286278Y-116682313D01*
X98257844Y-116839560D01*
X98244938Y-116910931D01*
X98244206Y-116987125D01*
X98242945Y-117118524D01*
X98242656Y-117148583D01*
X92220686Y-117148583D01*
X92365767Y-116994359D01*
X92371625Y-116987125D01*
X92519473Y-116774003D01*
X92524201Y-116765976D01*
X92638919Y-116533350D01*
X92642407Y-116524717D01*
X92721482Y-116277686D01*
X92723658Y-116268626D01*
X92747557Y-116121878D01*
X92745861Y-116108285D01*
X92731754Y-116104000D01*
X90032115Y-116104000D01*
X90016876Y-116108475D01*
X90015671Y-116109865D01*
X90014000Y-116117548D01*
X89504659Y-116117548D01*
X89501525Y-116106876D01*
X89500135Y-116105671D01*
X89492452Y-116104000D01*
X86788001Y-116104000D01*
X86774317Y-116108018D01*
X86772296Y-116121710D01*
X84540689Y-116121710D01*
X84539216Y-116111468D01*
X84568710Y-116046888D01*
X84588002Y-116028850D01*
X84624835Y-116001035D01*
X84651564Y-115980851D01*
X84717979Y-115955761D01*
X84727495Y-115955401D01*
X84946685Y-115955401D01*
X84961924Y-115950926D01*
X84963129Y-115949536D01*
X84964071Y-115945206D01*
X84963762Y-115940890D01*
X84978853Y-115871516D01*
X85029054Y-115821313D01*
X85089441Y-115805900D01*
X85925081Y-115805900D01*
X85936310Y-115807155D01*
X85936357Y-115806571D01*
X85945304Y-115807291D01*
X85954060Y-115809272D01*
X86004511Y-115806142D01*
X86012312Y-115805900D01*
X86029514Y-115805900D01*
X86033950Y-115805265D01*
X86033961Y-115805264D01*
X86040642Y-115804307D01*
X86050698Y-115803276D01*
X86097109Y-115800397D01*
X86105555Y-115797348D01*
X86109287Y-115796575D01*
X86123938Y-115792923D01*
X86127593Y-115791854D01*
X86136477Y-115790582D01*
X86144649Y-115786867D01*
X86144654Y-115786865D01*
X86178818Y-115771331D01*
X86188181Y-115767519D01*
X86202092Y-115762497D01*
X86223475Y-115754778D01*
X86223477Y-115754777D01*
X86231917Y-115751730D01*
X86239166Y-115746434D01*
X86242510Y-115744656D01*
X86255609Y-115737002D01*
X86258779Y-115734975D01*
X86266949Y-115731260D01*
X86273749Y-115725401D01*
X86302186Y-115700898D01*
X86310102Y-115694613D01*
X86317663Y-115689089D01*
X86317672Y-115689081D01*
X86321605Y-115686208D01*
X86333063Y-115674750D01*
X86339910Y-115668392D01*
X86368724Y-115643564D01*
X86375526Y-115637703D01*
X86380410Y-115630169D01*
X86386309Y-115623406D01*
X86386369Y-115623459D01*
X86394910Y-115612903D01*
X86562866Y-115444947D01*
X86625178Y-115410921D01*
X86695993Y-115415986D01*
X86752829Y-115458533D01*
X86777640Y-115525053D01*
X86776323Y-115554296D01*
X86772443Y-115578122D01*
X86774139Y-115591715D01*
X86788246Y-115596000D01*
X89487885Y-115596000D01*
X89503124Y-115591525D01*
X89504329Y-115590135D01*
X89506000Y-115582452D01*
X89506000Y-114060115D01*
X89504659Y-114055548D01*
X90014000Y-114055548D01*
X90014000Y-115577885D01*
X90018475Y-115593124D01*
X90019865Y-115594329D01*
X90027548Y-115596000D01*
X92731999Y-115596000D01*
X92745683Y-115591982D01*
X92747704Y-115578290D01*
X92734014Y-115477696D01*
X92732072Y-115468560D01*
X92659496Y-115219567D01*
X92656228Y-115210824D01*
X92547643Y-114975286D01*
X92543123Y-114967131D01*
X92400916Y-114750229D01*
X92395233Y-114742824D01*
X92222533Y-114549329D01*
X92215817Y-114542844D01*
X92016409Y-114376999D01*
X92008821Y-114371586D01*
X91787076Y-114237027D01*
X91778776Y-114232798D01*
X91539588Y-114132498D01*
X91530738Y-114129537D01*
X91279363Y-114065697D01*
X91270166Y-114064075D01*
X91054084Y-114042316D01*
X91047792Y-114042000D01*
X90032115Y-114042000D01*
X90016876Y-114046475D01*
X90015671Y-114047865D01*
X90014000Y-114055548D01*
X89504659Y-114055548D01*
X89501525Y-114044876D01*
X89500135Y-114043671D01*
X89492452Y-114042000D01*
X88515599Y-114042000D01*
X88447478Y-114021998D01*
X88400985Y-113968342D01*
X88390881Y-113898068D01*
X88420375Y-113833488D01*
X88458985Y-113803435D01*
X88483635Y-113791038D01*
X88483638Y-113791036D01*
X88490418Y-113787626D01*
X88496189Y-113782697D01*
X88496192Y-113782695D01*
X88553598Y-113733665D01*
X88618388Y-113704634D01*
X88627627Y-113703718D01*
X88675596Y-113700742D01*
X88683397Y-113700500D01*
X88700599Y-113700500D01*
X88705035Y-113699865D01*
X88705046Y-113699864D01*
X88711727Y-113698907D01*
X88721783Y-113697876D01*
X88768194Y-113694997D01*
X88776640Y-113691948D01*
X88780372Y-113691175D01*
X88795023Y-113687523D01*
X88798678Y-113686454D01*
X88807562Y-113685182D01*
X88815734Y-113681467D01*
X88815739Y-113681465D01*
X88849903Y-113665931D01*
X88859266Y-113662119D01*
X88882637Y-113653682D01*
X88894560Y-113649378D01*
X88894562Y-113649377D01*
X88903002Y-113646330D01*
X88910251Y-113641034D01*
X88913595Y-113639256D01*
X88926694Y-113631602D01*
X88929864Y-113629575D01*
X88938034Y-113625860D01*
X88944834Y-113620001D01*
X88973271Y-113595498D01*
X88981187Y-113589213D01*
X88988748Y-113583689D01*
X88988757Y-113583681D01*
X88992690Y-113580808D01*
X89004148Y-113569350D01*
X89010995Y-113562992D01*
X89039809Y-113538164D01*
X89046611Y-113532303D01*
X89051495Y-113524769D01*
X89057394Y-113518006D01*
X89057454Y-113518059D01*
X89065995Y-113507503D01*
X89977744Y-112595754D01*
X89986577Y-112588695D01*
X89986198Y-112588250D01*
X89993034Y-112582432D01*
X90000626Y-112577642D01*
X90034107Y-112539732D01*
X90039452Y-112534046D01*
X90051595Y-112521903D01*
X90058330Y-112512916D01*
X90064712Y-112505078D01*
X90089560Y-112476943D01*
X90095502Y-112470215D01*
X90099317Y-112462090D01*
X90101403Y-112458914D01*
X90109176Y-112445978D01*
X90111012Y-112442624D01*
X90116398Y-112435438D01*
X90132725Y-112391885D01*
X90136651Y-112382570D01*
X90144780Y-112365256D01*
X90156413Y-112340478D01*
X90157794Y-112331606D01*
X90158913Y-112327947D01*
X90162744Y-112313340D01*
X90163558Y-112309638D01*
X90166709Y-112301233D01*
X90170155Y-112254857D01*
X90171309Y-112244810D01*
X90173291Y-112232080D01*
X90203535Y-112167847D01*
X90263704Y-112130162D01*
X90334696Y-112130990D01*
X90364117Y-112144335D01*
X90375641Y-112151470D01*
X90387113Y-112153614D01*
X90387114Y-112153615D01*
X90480275Y-112171030D01*
X90480277Y-112171030D01*
X90486000Y-112172100D01*
X92046000Y-112172100D01*
X92047441Y-112172033D01*
X92047458Y-112172033D01*
X92061558Y-112171381D01*
X92074188Y-112170797D01*
X92182173Y-112140072D01*
X92271767Y-112072414D01*
X92300029Y-112026769D01*
X92352894Y-111979382D01*
X92407155Y-111967100D01*
X92784488Y-111967100D01*
X92852609Y-111987102D01*
X92892263Y-112027827D01*
X92935411Y-112099072D01*
X92940302Y-112104137D01*
X92940303Y-112104138D01*
X93004675Y-112170797D01*
X93060155Y-112228248D01*
X93210418Y-112326578D01*
X93378732Y-112389173D01*
X93385713Y-112390104D01*
X93385715Y-112390105D01*
X93549750Y-112411992D01*
X93549754Y-112411992D01*
X93556731Y-112412923D01*
X93563742Y-112412285D01*
X93563746Y-112412285D01*
X93728547Y-112397287D01*
X93735568Y-112396648D01*
X93801656Y-112375175D01*
X93899657Y-112343333D01*
X93899660Y-112343332D01*
X93906356Y-112341156D01*
X94060605Y-112249205D01*
X94133741Y-112179558D01*
X94185545Y-112130226D01*
X94185547Y-112130224D01*
X94190649Y-112125365D01*
X94290025Y-111975792D01*
X94353794Y-111807920D01*
X94357907Y-111778652D01*
X94378235Y-111634014D01*
X94378235Y-111634009D01*
X94378786Y-111630091D01*
X94379100Y-111607600D01*
X94359083Y-111429143D01*
X94356921Y-111422934D01*
X94361322Y-111352261D01*
X94390683Y-111306109D01*
X96068910Y-109627883D01*
X96068936Y-109627861D01*
X96068946Y-109627856D01*
X96068970Y-109627832D01*
X96068977Y-109627826D01*
X96155400Y-109541403D01*
X96217712Y-109507377D01*
X96288527Y-109512442D01*
X96333590Y-109541403D01*
X96464459Y-109672272D01*
X96498485Y-109734584D01*
X96500603Y-109747541D01*
X96502354Y-109763398D01*
X96513140Y-109861102D01*
X96536433Y-109924753D01*
X96562063Y-109994788D01*
X96571395Y-110020290D01*
X96575631Y-110026593D01*
X96575631Y-110026594D01*
X96581653Y-110035556D01*
X96665940Y-110160988D01*
X96791317Y-110275073D01*
X96940288Y-110355957D01*
X97104253Y-110398973D01*
X97192481Y-110400359D01*
X97266147Y-110401516D01*
X97266150Y-110401516D01*
X97273745Y-110401635D01*
X97349774Y-110384222D01*
X97431577Y-110365487D01*
X97431581Y-110365486D01*
X97438980Y-110363791D01*
X97590418Y-110287626D01*
X97719316Y-110177536D01*
X97818234Y-110039877D01*
X97830807Y-110008601D01*
X97878626Y-109889650D01*
X97878627Y-109889648D01*
X97881461Y-109882597D01*
X97891818Y-109809826D01*
X97904764Y-109718859D01*
X97904764Y-109718856D01*
X97905345Y-109714775D01*
X97905500Y-109700000D01*
X97905003Y-109695893D01*
X97886048Y-109539258D01*
X97886048Y-109539257D01*
X97885135Y-109531715D01*
X97878068Y-109513012D01*
X97827902Y-109380250D01*
X97827901Y-109380248D01*
X97825217Y-109373145D01*
X97820918Y-109366890D01*
X97820916Y-109366886D01*
X97733505Y-109239703D01*
X97733504Y-109239701D01*
X97729203Y-109233444D01*
X97717505Y-109223021D01*
X97644926Y-109158356D01*
X97602638Y-109120679D01*
X97452829Y-109041359D01*
X97288423Y-109000063D01*
X97280825Y-109000023D01*
X97280823Y-109000023D01*
X97259254Y-108999910D01*
X97191239Y-108979551D01*
X97170820Y-108963007D01*
X97006705Y-108798892D01*
X96972679Y-108736580D01*
X96969800Y-108709797D01*
X96969800Y-105513597D01*
X96993478Y-105440071D01*
X97083100Y-105315349D01*
X97083103Y-105315343D01*
X97087534Y-105309177D01*
X97097136Y-105285292D01*
X97147926Y-105158950D01*
X97147927Y-105158948D01*
X97150761Y-105151897D01*
X97174645Y-104984075D01*
X97174800Y-104969300D01*
X97154435Y-104801015D01*
X97151727Y-104793849D01*
X97097202Y-104649550D01*
X97097201Y-104649548D01*
X97094517Y-104642445D01*
X97090218Y-104636190D01*
X97090216Y-104636186D01*
X97002808Y-104509008D01*
X96998503Y-104502744D01*
X96999006Y-104502398D01*
X96971241Y-104442960D01*
X96969800Y-104423956D01*
X96969800Y-102661333D01*
X96989802Y-102593212D01*
X97016502Y-102563417D01*
X97070211Y-102519924D01*
X97075187Y-102512922D01*
X97075189Y-102512920D01*
X97147666Y-102410934D01*
X97147667Y-102410932D01*
X97152641Y-102403933D01*
X97182097Y-102322118D01*
X97198272Y-102277193D01*
X97198273Y-102277190D01*
X97200844Y-102270048D01*
X97207300Y-102208622D01*
X97207300Y-101926803D01*
X97227302Y-101858682D01*
X97244205Y-101837708D01*
X101044508Y-98037405D01*
X101106820Y-98003379D01*
X101133603Y-98000500D01*
X102459936Y-98000500D01*
X102528057Y-98020502D01*
X102574550Y-98074158D01*
X102584654Y-98144432D01*
X102555160Y-98209012D01*
X102505706Y-98243893D01*
X102340069Y-98308472D01*
X102138351Y-98387119D01*
X101893380Y-98503964D01*
X101691699Y-98600161D01*
X101661720Y-98614460D01*
X101203020Y-98876098D01*
X101201124Y-98877372D01*
X101201116Y-98877377D01*
X100899486Y-99080064D01*
X100764713Y-99170628D01*
X100762909Y-99172043D01*
X100762907Y-99172044D01*
X100541053Y-99346000D01*
X100349155Y-99496468D01*
X100347466Y-99498005D01*
X100347454Y-99498015D01*
X100072628Y-99748088D01*
X99958576Y-99851867D01*
X99777373Y-100042815D01*
X99646870Y-100180337D01*
X99595075Y-100234917D01*
X99260604Y-100643561D01*
X99259285Y-100645438D01*
X99259278Y-100645447D01*
X98991601Y-101026312D01*
X98956959Y-101075603D01*
X98955768Y-101077593D01*
X98695314Y-101512781D01*
X98685772Y-101528724D01*
X98684739Y-101530778D01*
X98469753Y-101958231D01*
X98448499Y-102000489D01*
X98447615Y-102002624D01*
X98447611Y-102002632D01*
X98249125Y-102481821D01*
X98246415Y-102488364D01*
X98080604Y-102989730D01*
X97951957Y-103501892D01*
X97861166Y-104022101D01*
X97808718Y-104547563D01*
X97805976Y-104652268D01*
X97796923Y-104998022D01*
X97794895Y-105075454D01*
X97819771Y-105602941D01*
X97820049Y-105605241D01*
X97820050Y-105605249D01*
X97837944Y-105753118D01*
X97883212Y-106127189D01*
X97984877Y-106645382D01*
X97985488Y-106647615D01*
X97985490Y-106647624D01*
X98116579Y-107126803D01*
X98124221Y-107154738D01*
X98300496Y-107652521D01*
X98512753Y-108136058D01*
X98513841Y-108138114D01*
X98513844Y-108138119D01*
X98607567Y-108315130D01*
X98759854Y-108602750D01*
X98761085Y-108604713D01*
X98761090Y-108604721D01*
X98914487Y-108849256D01*
X99040471Y-109050092D01*
X99233996Y-109313544D01*
X99326417Y-109439359D01*
X99353097Y-109475680D01*
X99508300Y-109657400D01*
X99677361Y-109855345D01*
X99696052Y-109877230D01*
X100067496Y-110252583D01*
X100069227Y-110254093D01*
X100069228Y-110254094D01*
X100463699Y-110598214D01*
X100463712Y-110598224D01*
X100465432Y-110599725D01*
X100467267Y-110601103D01*
X100467271Y-110601106D01*
X100647163Y-110736173D01*
X100887723Y-110916791D01*
X101332102Y-111202077D01*
X101411083Y-111244960D01*
X101794158Y-111452953D01*
X101794167Y-111452957D01*
X101796181Y-111454051D01*
X101798274Y-111454996D01*
X101798276Y-111454997D01*
X102275356Y-111670407D01*
X102275370Y-111670413D01*
X102277468Y-111671360D01*
X102773378Y-111852838D01*
X102775605Y-111853472D01*
X102775610Y-111853474D01*
X103279024Y-111996875D01*
X103279030Y-111996876D01*
X103281247Y-111997508D01*
X103283508Y-111997976D01*
X103283507Y-111997976D01*
X103796096Y-112104128D01*
X103796106Y-112104130D01*
X103798348Y-112104594D01*
X104321903Y-112173522D01*
X104579562Y-112188379D01*
X104846802Y-112203788D01*
X104846814Y-112203788D01*
X104849099Y-112203920D01*
X104851399Y-112203884D01*
X104851405Y-112203884D01*
X105374775Y-112195662D01*
X105374785Y-112195661D01*
X105377107Y-112195625D01*
X105432884Y-112190647D01*
X105900786Y-112148888D01*
X105900798Y-112148886D01*
X105903089Y-112148682D01*
X105929623Y-112144337D01*
X106011128Y-112130990D01*
X106424220Y-112063344D01*
X106937702Y-111940068D01*
X106939900Y-111939366D01*
X106939909Y-111939364D01*
X107438571Y-111780220D01*
X107438578Y-111780217D01*
X107440776Y-111779516D01*
X107707841Y-111672157D01*
X107928600Y-111583413D01*
X107928608Y-111583410D01*
X107930741Y-111582552D01*
X108404965Y-111350232D01*
X108658502Y-111202077D01*
X108858905Y-111084971D01*
X108858909Y-111084968D01*
X108860900Y-111083805D01*
X109007762Y-110982869D01*
X109294188Y-110786014D01*
X109294193Y-110786010D01*
X109296098Y-110784701D01*
X109708222Y-110454528D01*
X110095058Y-110095058D01*
X110454528Y-109708222D01*
X110784701Y-109296098D01*
X110789984Y-109288412D01*
X111082497Y-108862803D01*
X111083805Y-108860900D01*
X111091238Y-108848181D01*
X111349072Y-108406950D01*
X111350232Y-108404965D01*
X111582552Y-107930741D01*
X111596280Y-107896593D01*
X111778652Y-107442925D01*
X111779516Y-107440776D01*
X111829212Y-107285060D01*
X111939364Y-106939909D01*
X111939366Y-106939900D01*
X111940068Y-106937702D01*
X112063344Y-106424220D01*
X112148682Y-105903089D01*
X112152007Y-105865843D01*
X112187401Y-105469254D01*
X112195625Y-105377107D01*
X112205500Y-105000000D01*
X112186149Y-104472282D01*
X112184602Y-104458264D01*
X112137229Y-104029165D01*
X112128202Y-103947399D01*
X112031968Y-103428169D01*
X111919984Y-103001308D01*
X111898550Y-102919606D01*
X111898548Y-102919599D01*
X111897966Y-102917381D01*
X111837902Y-102741948D01*
X111727662Y-102419964D01*
X111727660Y-102419958D01*
X111726914Y-102417780D01*
X111677543Y-102302030D01*
X111520637Y-101934171D01*
X111520637Y-101934170D01*
X111519731Y-101932047D01*
X111503037Y-101899703D01*
X111278593Y-101464850D01*
X111278589Y-101464844D01*
X111277531Y-101462793D01*
X111073166Y-101129300D01*
X111002808Y-101014485D01*
X111002805Y-101014480D01*
X111001614Y-101012537D01*
X110993724Y-101001556D01*
X110835703Y-100781647D01*
X110693462Y-100583698D01*
X110687975Y-100577135D01*
X110534615Y-100393719D01*
X110354730Y-100178579D01*
X110053319Y-99867547D01*
X124467000Y-99867547D01*
X124467000Y-99895473D01*
X124467425Y-99902777D01*
X124480778Y-100017318D01*
X124484122Y-100031465D01*
X124536957Y-100177021D01*
X124543465Y-100190016D01*
X124628365Y-100319510D01*
X124637689Y-100330662D01*
X124750098Y-100437148D01*
X124761745Y-100445861D01*
X124895638Y-100523633D01*
X124908970Y-100529430D01*
X125057981Y-100574561D01*
X125070607Y-100577010D01*
X125134934Y-100582751D01*
X125140404Y-100582994D01*
X125155624Y-100578525D01*
X125156829Y-100577135D01*
X125158500Y-100569452D01*
X125158501Y-99872115D01*
X125154026Y-99856876D01*
X125152636Y-99855671D01*
X125144953Y-99854000D01*
X124485115Y-99853999D01*
X124469876Y-99858474D01*
X124468671Y-99859864D01*
X124467000Y-99867547D01*
X110053319Y-99867547D01*
X109987238Y-99799357D01*
X109939751Y-99757047D01*
X109594680Y-99449600D01*
X109594674Y-99449595D01*
X109592959Y-99448067D01*
X109174010Y-99126597D01*
X109147754Y-99109350D01*
X108734572Y-98837939D01*
X108734563Y-98837934D01*
X108732644Y-98836673D01*
X108271229Y-98579852D01*
X108065550Y-98484379D01*
X107794330Y-98358483D01*
X107794323Y-98358480D01*
X107792244Y-98357515D01*
X107298261Y-98170855D01*
X107296060Y-98170203D01*
X107296054Y-98170201D01*
X106794161Y-98021533D01*
X106794152Y-98021531D01*
X106791935Y-98020874D01*
X106275984Y-97908379D01*
X106070639Y-97879154D01*
X106006017Y-97849753D01*
X105967548Y-97790082D01*
X105967446Y-97719085D01*
X105971487Y-97707412D01*
X105972861Y-97703996D01*
X105981463Y-97682597D01*
X105994183Y-97593221D01*
X106004766Y-97518859D01*
X106004766Y-97518856D01*
X106005347Y-97514775D01*
X106005502Y-97500000D01*
X105997424Y-97433250D01*
X105986050Y-97339258D01*
X105986050Y-97339257D01*
X105985137Y-97331715D01*
X105974887Y-97304588D01*
X105927904Y-97180250D01*
X105927903Y-97180248D01*
X105925219Y-97173145D01*
X105920920Y-97166890D01*
X105920918Y-97166886D01*
X105833510Y-97039708D01*
X105829205Y-97033444D01*
X105829708Y-97033098D01*
X105801943Y-96973660D01*
X105800502Y-96954656D01*
X105800502Y-95837551D01*
X105820504Y-95769430D01*
X105874160Y-95722937D01*
X105944434Y-95712833D01*
X105986624Y-95726820D01*
X105994192Y-95730929D01*
X106015207Y-95742339D01*
X106040288Y-95755957D01*
X106204253Y-95798973D01*
X106288499Y-95800296D01*
X106349277Y-95801251D01*
X106417075Y-95822320D01*
X106436393Y-95838140D01*
X109307079Y-98708826D01*
X109308114Y-98709578D01*
X109309987Y-98711310D01*
X109332589Y-98733912D01*
X109353949Y-98744795D01*
X109370806Y-98755126D01*
X109382163Y-98763378D01*
X109382165Y-98763379D01*
X109390188Y-98769208D01*
X109412980Y-98776614D01*
X109431239Y-98784177D01*
X109443764Y-98790559D01*
X109443767Y-98790560D01*
X109452599Y-98795060D01*
X109471160Y-98798000D01*
X109476264Y-98798808D01*
X109495497Y-98803425D01*
X109508855Y-98807766D01*
X109508858Y-98807766D01*
X109518286Y-98810830D01*
X109550249Y-98810830D01*
X109552800Y-98810930D01*
X109554062Y-98811130D01*
X124443680Y-98811130D01*
X124511801Y-98831132D01*
X124558294Y-98884788D01*
X124568398Y-98955062D01*
X124552634Y-99000415D01*
X124526369Y-99045634D01*
X124520570Y-99058970D01*
X124475439Y-99207981D01*
X124472990Y-99220607D01*
X124467249Y-99284934D01*
X124467000Y-99290529D01*
X124467000Y-99327885D01*
X124471475Y-99343124D01*
X124472865Y-99344329D01*
X124480548Y-99346000D01*
X125158498Y-99346001D01*
X125158504Y-99346000D01*
X125540500Y-99346001D01*
X125608621Y-99366003D01*
X125655114Y-99419659D01*
X125666500Y-99472001D01*
X125666499Y-100564885D01*
X125670974Y-100580124D01*
X125672364Y-100581329D01*
X125677984Y-100582551D01*
X125792318Y-100569222D01*
X125806465Y-100565878D01*
X125952021Y-100513043D01*
X125965016Y-100506535D01*
X126094510Y-100421635D01*
X126105662Y-100412311D01*
X126212148Y-100299902D01*
X126220866Y-100288249D01*
X126227277Y-100277212D01*
X126278788Y-100228355D01*
X126348537Y-100215103D01*
X126409083Y-100239527D01*
X126409876Y-100238411D01*
X126525867Y-100320842D01*
X126533951Y-100323752D01*
X126533950Y-100323752D01*
X126566181Y-100335356D01*
X126623499Y-100377251D01*
X126649068Y-100443483D01*
X126649500Y-100453907D01*
X126649501Y-101236848D01*
X126629499Y-101304969D01*
X126599434Y-101337397D01*
X126524233Y-101394186D01*
X126465130Y-101489641D01*
X126462986Y-101501113D01*
X126462985Y-101501114D01*
X126458064Y-101527438D01*
X126444500Y-101600000D01*
X126444500Y-103600000D01*
X126444567Y-103601441D01*
X126444567Y-103601458D01*
X126445219Y-103615558D01*
X126445803Y-103628188D01*
X126476528Y-103736173D01*
X126544186Y-103825767D01*
X126614378Y-103869228D01*
X126639641Y-103884870D01*
X126637303Y-103888646D01*
X126675237Y-103917735D01*
X126699275Y-103984539D01*
X126699500Y-103992070D01*
X126699501Y-108208248D01*
X126679499Y-108276369D01*
X126629665Y-108321038D01*
X126625056Y-108323333D01*
X126613827Y-108326528D01*
X126524233Y-108394186D01*
X126465130Y-108489641D01*
X126462986Y-108501113D01*
X126462985Y-108501114D01*
X126445570Y-108594275D01*
X126444500Y-108600000D01*
X126444500Y-110600000D01*
X126444567Y-110601441D01*
X126444567Y-110601458D01*
X126445219Y-110615558D01*
X126445803Y-110628188D01*
X126476528Y-110736173D01*
X126544186Y-110825767D01*
X126639641Y-110884870D01*
X126651113Y-110887014D01*
X126651114Y-110887015D01*
X126744275Y-110904430D01*
X126744277Y-110904430D01*
X126750000Y-110905500D01*
X127500000Y-110905500D01*
X127501441Y-110905433D01*
X127501458Y-110905433D01*
X127515558Y-110904781D01*
X127528188Y-110904197D01*
X127636173Y-110873472D01*
X127725767Y-110805814D01*
X127784870Y-110710359D01*
X127805500Y-110600000D01*
X127805500Y-108600000D01*
X127805236Y-108594275D01*
X127804781Y-108584442D01*
X127804197Y-108571812D01*
X127773472Y-108463827D01*
X127705814Y-108374233D01*
X127610359Y-108315130D01*
X127612697Y-108311354D01*
X127574763Y-108282265D01*
X127550725Y-108215461D01*
X127550500Y-108207930D01*
X127550500Y-103991752D01*
X127570502Y-103923631D01*
X127620335Y-103878962D01*
X127624943Y-103876667D01*
X127636173Y-103873472D01*
X127725767Y-103805814D01*
X127784870Y-103710359D01*
X127805500Y-103600000D01*
X127805500Y-101600000D01*
X127805236Y-101594275D01*
X127804533Y-101579084D01*
X127804197Y-101571812D01*
X127773472Y-101463827D01*
X127705814Y-101374233D01*
X127640133Y-101333565D01*
X127620287Y-101321277D01*
X127620286Y-101321277D01*
X127610359Y-101315130D01*
X127598881Y-101312984D01*
X127587995Y-101308767D01*
X127588886Y-101306467D01*
X127540059Y-101281638D01*
X127504219Y-101220352D01*
X127500500Y-101189965D01*
X127500500Y-100346411D01*
X127520502Y-100278290D01*
X127547202Y-100248494D01*
X127588411Y-100215124D01*
X127593387Y-100208122D01*
X127593389Y-100208120D01*
X127665866Y-100106134D01*
X127665867Y-100106132D01*
X127670841Y-100099133D01*
X127682129Y-100067780D01*
X127716472Y-99972393D01*
X127716473Y-99972390D01*
X127719044Y-99965248D01*
X127725500Y-99903822D01*
X127725500Y-99307250D01*
X127722444Y-99284934D01*
X127712354Y-99211279D01*
X127712353Y-99211276D01*
X127711188Y-99202770D01*
X127654675Y-99072175D01*
X127633183Y-99045634D01*
X127570531Y-98968266D01*
X127565124Y-98961589D01*
X127449133Y-98879158D01*
X127417480Y-98867762D01*
X127322396Y-98833529D01*
X127322392Y-98833528D01*
X127315248Y-98830956D01*
X127253822Y-98824500D01*
X126953437Y-98824500D01*
X126885316Y-98804498D01*
X126864342Y-98787595D01*
X126139181Y-98062434D01*
X126138150Y-98061685D01*
X126136280Y-98059956D01*
X126113672Y-98037348D01*
X126092307Y-98026462D01*
X126075454Y-98016134D01*
X126056072Y-98002052D01*
X126033286Y-97994648D01*
X126015023Y-97987084D01*
X125993662Y-97976200D01*
X125983872Y-97974649D01*
X125983865Y-97974647D01*
X125969981Y-97972448D01*
X125950769Y-97967836D01*
X125927974Y-97960430D01*
X125896012Y-97960430D01*
X125893461Y-97960330D01*
X125892199Y-97960130D01*
X109814069Y-97960130D01*
X109745948Y-97940128D01*
X109724974Y-97923225D01*
X107719127Y-95917379D01*
X107038797Y-95237050D01*
X107004772Y-95174738D01*
X107003149Y-95130204D01*
X107005345Y-95114775D01*
X107005500Y-95100000D01*
X106998176Y-95039482D01*
X106986048Y-94939258D01*
X106986048Y-94939257D01*
X106985135Y-94931715D01*
X106982450Y-94924609D01*
X106927902Y-94780250D01*
X106927901Y-94780248D01*
X106925217Y-94773145D01*
X106920918Y-94766890D01*
X106920916Y-94766886D01*
X106833505Y-94639703D01*
X106833504Y-94639701D01*
X106829203Y-94633444D01*
X106702638Y-94520679D01*
X106687650Y-94512743D01*
X106647117Y-94491282D01*
X106596274Y-94441729D01*
X106580292Y-94372555D01*
X106604246Y-94305721D01*
X106616981Y-94290833D01*
X107162648Y-93745166D01*
X107171478Y-93738111D01*
X107171098Y-93737664D01*
X107177929Y-93731850D01*
X107185525Y-93727058D01*
X107194041Y-93717416D01*
X107218997Y-93689158D01*
X107224343Y-93683471D01*
X107236494Y-93671320D01*
X107240634Y-93665795D01*
X107243236Y-93662325D01*
X107249617Y-93654487D01*
X107259375Y-93643438D01*
X107280401Y-93619631D01*
X107284216Y-93611505D01*
X107286299Y-93608334D01*
X107294086Y-93595375D01*
X107295914Y-93592036D01*
X107296307Y-93591512D01*
X107296577Y-93591230D01*
X107296815Y-93590834D01*
X107301301Y-93584849D01*
X107302107Y-93585453D01*
X107341035Y-93544787D01*
X107348225Y-93541675D01*
X107423412Y-93480790D01*
X107452133Y-93457532D01*
X107452134Y-93457531D01*
X107458811Y-93452124D01*
X107463787Y-93445122D01*
X107463789Y-93445120D01*
X107502597Y-93390511D01*
X107558362Y-93346570D01*
X107605303Y-93337500D01*
X108229697Y-93337500D01*
X108297818Y-93357502D01*
X108344311Y-93411158D01*
X108354415Y-93481432D01*
X108324921Y-93546012D01*
X108318792Y-93552595D01*
X108102353Y-93769034D01*
X108093523Y-93776089D01*
X108093903Y-93776536D01*
X108087072Y-93782350D01*
X108079476Y-93787142D01*
X108073533Y-93793871D01*
X108073532Y-93793872D01*
X108046004Y-93825042D01*
X108040658Y-93830729D01*
X108028506Y-93842881D01*
X108025822Y-93846462D01*
X108025816Y-93846469D01*
X108021767Y-93851872D01*
X108015385Y-93859711D01*
X107990540Y-93887843D01*
X107984600Y-93894569D01*
X107980786Y-93902694D01*
X107978706Y-93905860D01*
X107970915Y-93918826D01*
X107969089Y-93922161D01*
X107963703Y-93929347D01*
X107960553Y-93937748D01*
X107960552Y-93937751D01*
X107947374Y-93972904D01*
X107943448Y-93982221D01*
X107923689Y-94024306D01*
X107922307Y-94033179D01*
X107921196Y-94036814D01*
X107917354Y-94051456D01*
X107916542Y-94055149D01*
X107913392Y-94063552D01*
X107912727Y-94072502D01*
X107911252Y-94092354D01*
X107886257Y-94158806D01*
X107864899Y-94180932D01*
X107806188Y-94228476D01*
X107801212Y-94235478D01*
X107801210Y-94235480D01*
X107752098Y-94304588D01*
X107723758Y-94344467D01*
X107708669Y-94386379D01*
X107680321Y-94465118D01*
X107675556Y-94478352D01*
X107669100Y-94539778D01*
X107669100Y-95136351D01*
X107669682Y-95140596D01*
X107669682Y-95140603D01*
X107682246Y-95232322D01*
X107683412Y-95240831D01*
X107686823Y-95248713D01*
X107731449Y-95351838D01*
X107739925Y-95371426D01*
X107745334Y-95378106D01*
X107745335Y-95378107D01*
X107816493Y-95465979D01*
X107829476Y-95482012D01*
X107836478Y-95486988D01*
X107836480Y-95486990D01*
X107912986Y-95541359D01*
X107945467Y-95564442D01*
X107972746Y-95574263D01*
X108072204Y-95610071D01*
X108072208Y-95610072D01*
X108079352Y-95612644D01*
X108140778Y-95619100D01*
X108662351Y-95619100D01*
X108666596Y-95618518D01*
X108666603Y-95618518D01*
X108758322Y-95605954D01*
X108758325Y-95605953D01*
X108766831Y-95604788D01*
X108860066Y-95564442D01*
X108889537Y-95551689D01*
X108889538Y-95551688D01*
X108897426Y-95548275D01*
X108979111Y-95482128D01*
X109044636Y-95454803D01*
X109114534Y-95467243D01*
X109163775Y-95510963D01*
X109197968Y-95563115D01*
X109207289Y-95574263D01*
X109319698Y-95680749D01*
X109331345Y-95689462D01*
X109465240Y-95767235D01*
X109478565Y-95773029D01*
X109627584Y-95818162D01*
X109640207Y-95820610D01*
X109704534Y-95826351D01*
X109710004Y-95826594D01*
X109725224Y-95822125D01*
X109726429Y-95820735D01*
X109728100Y-95813052D01*
X109728100Y-95111148D01*
X110236100Y-95111148D01*
X110236100Y-95808485D01*
X110240575Y-95823724D01*
X110241965Y-95824929D01*
X110247585Y-95826151D01*
X110361919Y-95812822D01*
X110376066Y-95809478D01*
X110521622Y-95756643D01*
X110534617Y-95750135D01*
X110664111Y-95665235D01*
X110675263Y-95655911D01*
X110781749Y-95543502D01*
X110790462Y-95531855D01*
X110868235Y-95397960D01*
X110874029Y-95384635D01*
X110919162Y-95235616D01*
X110921610Y-95222993D01*
X110927351Y-95158666D01*
X110927600Y-95153071D01*
X110927600Y-95115715D01*
X110923125Y-95100476D01*
X110921735Y-95099271D01*
X110914052Y-95097600D01*
X110254215Y-95097600D01*
X110238976Y-95102075D01*
X110237771Y-95103465D01*
X110236100Y-95111148D01*
X109728100Y-95111148D01*
X109728100Y-94715600D01*
X109748102Y-94647479D01*
X109801758Y-94600986D01*
X109854100Y-94589600D01*
X110909485Y-94589600D01*
X110924724Y-94585125D01*
X110925929Y-94583735D01*
X110927600Y-94576052D01*
X110927600Y-94548126D01*
X110927175Y-94540822D01*
X110913822Y-94426281D01*
X110910478Y-94412134D01*
X110857643Y-94266578D01*
X110851135Y-94253583D01*
X110766235Y-94124089D01*
X110756911Y-94112937D01*
X110644502Y-94006451D01*
X110632855Y-93997738D01*
X110498960Y-93919965D01*
X110485635Y-93914171D01*
X110336616Y-93869038D01*
X110317648Y-93865360D01*
X110318005Y-93863518D01*
X110260281Y-93840824D01*
X110218742Y-93783248D01*
X110214924Y-93712354D01*
X110250041Y-93650650D01*
X110312942Y-93617727D01*
X110337554Y-93615300D01*
X110422657Y-93615300D01*
X110427304Y-93614601D01*
X110427309Y-93614601D01*
X110514023Y-93601564D01*
X110514024Y-93601564D01*
X110523334Y-93600164D01*
X110611470Y-93557842D01*
X110636939Y-93545612D01*
X110636940Y-93545611D01*
X110645429Y-93541535D01*
X110652344Y-93535142D01*
X110652348Y-93535140D01*
X110684292Y-93505612D01*
X110717658Y-93483441D01*
X110722075Y-93481432D01*
X110723613Y-93480733D01*
X110732981Y-93476919D01*
X110758291Y-93467782D01*
X110768275Y-93464178D01*
X110768277Y-93464177D01*
X110776717Y-93461130D01*
X110783966Y-93455834D01*
X110787310Y-93454056D01*
X110800409Y-93446402D01*
X110803579Y-93444375D01*
X110811749Y-93440660D01*
X110820524Y-93433099D01*
X110846986Y-93410298D01*
X110854902Y-93404013D01*
X110862463Y-93398489D01*
X110862472Y-93398481D01*
X110866405Y-93395608D01*
X110877863Y-93384150D01*
X110884710Y-93377792D01*
X110913524Y-93352964D01*
X110920326Y-93347103D01*
X110925210Y-93339569D01*
X110931109Y-93332806D01*
X110931170Y-93332859D01*
X110939708Y-93322305D01*
X111556851Y-92705163D01*
X111565678Y-92698111D01*
X111565298Y-92697664D01*
X111572129Y-92691850D01*
X111579725Y-92687058D01*
X111613198Y-92649157D01*
X111618543Y-92643471D01*
X111630694Y-92631320D01*
X111636603Y-92623436D01*
X111637436Y-92622325D01*
X111643817Y-92614487D01*
X111648654Y-92609010D01*
X111674601Y-92579631D01*
X111678416Y-92571505D01*
X111680499Y-92568334D01*
X111688275Y-92555394D01*
X111690111Y-92552040D01*
X111695497Y-92544854D01*
X111711824Y-92501301D01*
X111715750Y-92491986D01*
X111735512Y-92449894D01*
X111736893Y-92441022D01*
X111738012Y-92437363D01*
X111741843Y-92422756D01*
X111742657Y-92419054D01*
X111745808Y-92410649D01*
X111748467Y-92374868D01*
X111749254Y-92364273D01*
X111750408Y-92354225D01*
X111751850Y-92344962D01*
X111751850Y-92344961D01*
X111752600Y-92340145D01*
X111752600Y-92323928D01*
X111752946Y-92314591D01*
X111755764Y-92276667D01*
X111756429Y-92267719D01*
X111754556Y-92258943D01*
X111753945Y-92249986D01*
X111754025Y-92249981D01*
X111752600Y-92236482D01*
X111752600Y-89476225D01*
X113041739Y-89476225D01*
X113046235Y-89511815D01*
X113050146Y-89527048D01*
X113105491Y-89666833D01*
X113113068Y-89680615D01*
X113201434Y-89802240D01*
X113212203Y-89813707D01*
X113300931Y-89887110D01*
X113340670Y-89945944D01*
X113342292Y-90016922D01*
X113329570Y-90047480D01*
X113305943Y-90088158D01*
X113265887Y-90157119D01*
X113238900Y-90273548D01*
X113238900Y-90658057D01*
X113239599Y-90662704D01*
X113239599Y-90662709D01*
X113248607Y-90722626D01*
X113254036Y-90758734D01*
X113312665Y-90880828D01*
X113404602Y-90980285D01*
X113436922Y-90999058D01*
X113485780Y-91050567D01*
X113499034Y-91120315D01*
X113472475Y-91186157D01*
X113444457Y-91212224D01*
X113441861Y-91213988D01*
X113433371Y-91218065D01*
X113333914Y-91310002D01*
X113265887Y-91427119D01*
X113238900Y-91543548D01*
X113238900Y-91928057D01*
X113239599Y-91932704D01*
X113239599Y-91932709D01*
X113251711Y-92013272D01*
X113254036Y-92028734D01*
X113277044Y-92076648D01*
X113300263Y-92125000D01*
X113312665Y-92150828D01*
X113404602Y-92250285D01*
X113436922Y-92269058D01*
X113485780Y-92320567D01*
X113499034Y-92390315D01*
X113472475Y-92456157D01*
X113444457Y-92482224D01*
X113441861Y-92483988D01*
X113433371Y-92488065D01*
X113333914Y-92580002D01*
X113329185Y-92588144D01*
X113329184Y-92588145D01*
X113312652Y-92616608D01*
X113265887Y-92697119D01*
X113238900Y-92813548D01*
X113238900Y-93198057D01*
X113239599Y-93202704D01*
X113239599Y-93202709D01*
X113250489Y-93275142D01*
X113254036Y-93298734D01*
X113293462Y-93380838D01*
X113308022Y-93411158D01*
X113312665Y-93420828D01*
X113404602Y-93520285D01*
X113521719Y-93588312D01*
X113638148Y-93615299D01*
X114686002Y-93615300D01*
X115372657Y-93615300D01*
X115377304Y-93614601D01*
X115377309Y-93614601D01*
X115464023Y-93601564D01*
X115464024Y-93601564D01*
X115473334Y-93600164D01*
X115561470Y-93557842D01*
X115586939Y-93545612D01*
X115586940Y-93545611D01*
X115595429Y-93541535D01*
X115603383Y-93534183D01*
X115672087Y-93470673D01*
X115694886Y-93449598D01*
X115704470Y-93433099D01*
X115732901Y-93384150D01*
X115762913Y-93332481D01*
X115789900Y-93216052D01*
X115789900Y-92831543D01*
X115787109Y-92812973D01*
X115776164Y-92740177D01*
X115776164Y-92740176D01*
X115774764Y-92730866D01*
X115716135Y-92608772D01*
X115698391Y-92589576D01*
X115657050Y-92544854D01*
X115624198Y-92509315D01*
X115591878Y-92490542D01*
X115543020Y-92439033D01*
X115529766Y-92369285D01*
X115556325Y-92303443D01*
X115584343Y-92277376D01*
X115586939Y-92275612D01*
X115595429Y-92271535D01*
X115694886Y-92179598D01*
X115762913Y-92062481D01*
X115789900Y-91946052D01*
X115789900Y-91561543D01*
X115786941Y-91541857D01*
X115776164Y-91470177D01*
X115776164Y-91470176D01*
X115774764Y-91460866D01*
X115716135Y-91338772D01*
X115624198Y-91239315D01*
X115591878Y-91220542D01*
X115543020Y-91169033D01*
X115529766Y-91099285D01*
X115556325Y-91033443D01*
X115584343Y-91007376D01*
X115586939Y-91005612D01*
X115595429Y-91001535D01*
X115608938Y-90989048D01*
X115672870Y-90929949D01*
X115694886Y-90909598D01*
X115762913Y-90792481D01*
X115789900Y-90676052D01*
X115789900Y-90291543D01*
X115780109Y-90226414D01*
X115776164Y-90200177D01*
X115776164Y-90200176D01*
X115774764Y-90190866D01*
X115716135Y-90068772D01*
X115709743Y-90061858D01*
X115704447Y-90054064D01*
X115707608Y-90051916D01*
X115684242Y-90004719D01*
X115692141Y-89934163D01*
X115734276Y-89880957D01*
X115786841Y-89842766D01*
X115798308Y-89831998D01*
X115894136Y-89716161D01*
X115902565Y-89702879D01*
X115966573Y-89566855D01*
X115971436Y-89551887D01*
X115985800Y-89476594D01*
X115984529Y-89463555D01*
X115969607Y-89458800D01*
X114768402Y-89458799D01*
X114768396Y-89458800D01*
X113057653Y-89458799D01*
X113043776Y-89462874D01*
X113041739Y-89476225D01*
X111752600Y-89476225D01*
X111752600Y-88933006D01*
X113043000Y-88933006D01*
X113044271Y-88946045D01*
X113059193Y-88950800D01*
X114242285Y-88950801D01*
X114257524Y-88946326D01*
X114258729Y-88944936D01*
X114260400Y-88937253D01*
X114260400Y-88932685D01*
X114768399Y-88932685D01*
X114772874Y-88947924D01*
X114774264Y-88949129D01*
X114781947Y-88950800D01*
X115971147Y-88950801D01*
X115985024Y-88946726D01*
X115987061Y-88933375D01*
X115982565Y-88897785D01*
X115978654Y-88882552D01*
X115923309Y-88742767D01*
X115915732Y-88728985D01*
X115827366Y-88607360D01*
X115816598Y-88595893D01*
X115700761Y-88500065D01*
X115687479Y-88491636D01*
X115551455Y-88427628D01*
X115536487Y-88422765D01*
X115406224Y-88397915D01*
X115394439Y-88396801D01*
X114786515Y-88396801D01*
X114771276Y-88401276D01*
X114770071Y-88402666D01*
X114768400Y-88410349D01*
X114768399Y-88932685D01*
X114260400Y-88932685D01*
X114260401Y-88414915D01*
X114255926Y-88399676D01*
X114254536Y-88398471D01*
X114246853Y-88396800D01*
X113653780Y-88396800D01*
X113645890Y-88397297D01*
X113532385Y-88411635D01*
X113517152Y-88415546D01*
X113377366Y-88470892D01*
X113363584Y-88478468D01*
X113241959Y-88566834D01*
X113230492Y-88577602D01*
X113134664Y-88693439D01*
X113126235Y-88706721D01*
X113062227Y-88842745D01*
X113057364Y-88857713D01*
X113043000Y-88933006D01*
X111752600Y-88933006D01*
X111752600Y-87980133D01*
X111772602Y-87912012D01*
X111799302Y-87882217D01*
X111853011Y-87838724D01*
X111857987Y-87831722D01*
X111857989Y-87831720D01*
X111930466Y-87729734D01*
X111930467Y-87729732D01*
X111935441Y-87722733D01*
X111947343Y-87689676D01*
X111981072Y-87595993D01*
X111981073Y-87595990D01*
X111983644Y-87588848D01*
X111990100Y-87527422D01*
X111990100Y-86930850D01*
X111985930Y-86900404D01*
X111976954Y-86834879D01*
X111976953Y-86834876D01*
X111975788Y-86826370D01*
X111929344Y-86719044D01*
X111922689Y-86703664D01*
X111922688Y-86703663D01*
X111919275Y-86695775D01*
X111888758Y-86658089D01*
X111835131Y-86591866D01*
X111829724Y-86585189D01*
X111713733Y-86502758D01*
X111687147Y-86493186D01*
X111586996Y-86457129D01*
X111586992Y-86457128D01*
X111579848Y-86454556D01*
X111518422Y-86448100D01*
X111236605Y-86448100D01*
X111168484Y-86428098D01*
X111147510Y-86411196D01*
X110419068Y-85682755D01*
X110412013Y-85673926D01*
X110411568Y-85674305D01*
X110405748Y-85667467D01*
X110400958Y-85659875D01*
X110363042Y-85626389D01*
X110357370Y-85621057D01*
X110345219Y-85608906D01*
X110341639Y-85606223D01*
X110336235Y-85602173D01*
X110328393Y-85595788D01*
X110300259Y-85570941D01*
X110293531Y-85564999D01*
X110285406Y-85561185D01*
X110282253Y-85559113D01*
X110269270Y-85551311D01*
X110265933Y-85549484D01*
X110258753Y-85544103D01*
X110250352Y-85540954D01*
X110250349Y-85540952D01*
X110215207Y-85527778D01*
X110205890Y-85523852D01*
X110195264Y-85518863D01*
X110163794Y-85504088D01*
X110154922Y-85502707D01*
X110151272Y-85501591D01*
X110136663Y-85497759D01*
X110132953Y-85496943D01*
X110124548Y-85493792D01*
X110115599Y-85493127D01*
X110099466Y-85491928D01*
X110078170Y-85490346D01*
X110068122Y-85489192D01*
X110054045Y-85487000D01*
X110037828Y-85487000D01*
X110028491Y-85486654D01*
X110013970Y-85485575D01*
X109981619Y-85483171D01*
X109972843Y-85485044D01*
X109963886Y-85485655D01*
X109963881Y-85485575D01*
X109950382Y-85487000D01*
X100756534Y-85487000D01*
X100688413Y-85466998D01*
X100658618Y-85440298D01*
X100615124Y-85386588D01*
X100608122Y-85381612D01*
X100608120Y-85381610D01*
X100499133Y-85304158D01*
X100500588Y-85302110D01*
X100458823Y-85261832D01*
X100442477Y-85192742D01*
X100466078Y-85125784D01*
X100512933Y-85088096D01*
X100512594Y-85087536D01*
X100516786Y-85084997D01*
X100518252Y-85083818D01*
X100518369Y-85083767D01*
X100527826Y-85079675D01*
X100638412Y-84990124D01*
X100643388Y-84983122D01*
X100643390Y-84983120D01*
X100715866Y-84881135D01*
X100720842Y-84874133D01*
X100762358Y-84758819D01*
X100804253Y-84701501D01*
X100870486Y-84675932D01*
X100880909Y-84675500D01*
X106781569Y-84675500D01*
X106782831Y-84675300D01*
X106785382Y-84675200D01*
X106817344Y-84675200D01*
X106840139Y-84667794D01*
X106859351Y-84663182D01*
X106873235Y-84660983D01*
X106873242Y-84660981D01*
X106883032Y-84659430D01*
X106904393Y-84648546D01*
X106922657Y-84640981D01*
X106945442Y-84633578D01*
X106964825Y-84619496D01*
X106981677Y-84609168D01*
X107003042Y-84598282D01*
X107025650Y-84575674D01*
X107027520Y-84573945D01*
X107028551Y-84573196D01*
X109118778Y-82482969D01*
X111235543Y-80366205D01*
X111297855Y-80332179D01*
X111324638Y-80329300D01*
X113624648Y-80329300D01*
X113692769Y-80349302D01*
X113737438Y-80399135D01*
X113739733Y-80403743D01*
X113742928Y-80414973D01*
X113810586Y-80504567D01*
X113906041Y-80563670D01*
X113917513Y-80565814D01*
X113917514Y-80565815D01*
X114010675Y-80583230D01*
X114010677Y-80583230D01*
X114016400Y-80584300D01*
X116016400Y-80584300D01*
X116017841Y-80584233D01*
X116017858Y-80584233D01*
X116031958Y-80583581D01*
X116044588Y-80582997D01*
X116152573Y-80552272D01*
X116242167Y-80484614D01*
X116301270Y-80389159D01*
X116305046Y-80391497D01*
X116334135Y-80353563D01*
X116400939Y-80329525D01*
X116408470Y-80329300D01*
X118039163Y-80329300D01*
X118107284Y-80349302D01*
X118128258Y-80366205D01*
X119679596Y-81917544D01*
X119713622Y-81979856D01*
X119716501Y-82006639D01*
X119716501Y-82133786D01*
X119696499Y-82201907D01*
X119669796Y-82231706D01*
X119635265Y-82259669D01*
X119628588Y-82265076D01*
X119546158Y-82381067D01*
X119543249Y-82389148D01*
X119509471Y-82482969D01*
X119497956Y-82514952D01*
X119491500Y-82576378D01*
X119491500Y-83172951D01*
X119492082Y-83177196D01*
X119492082Y-83177203D01*
X119503368Y-83259593D01*
X119505812Y-83277431D01*
X119562325Y-83408026D01*
X119651876Y-83518612D01*
X119658878Y-83523588D01*
X119658880Y-83523590D01*
X119722012Y-83568455D01*
X119767867Y-83601042D01*
X119828365Y-83622823D01*
X119894604Y-83646671D01*
X119894608Y-83646672D01*
X119901752Y-83649244D01*
X119963178Y-83655700D01*
X120263563Y-83655700D01*
X120331684Y-83675702D01*
X120352658Y-83692605D01*
X123749648Y-87089596D01*
X123750683Y-87090348D01*
X123752556Y-87092080D01*
X123775158Y-87114682D01*
X123796518Y-87125565D01*
X123813375Y-87135896D01*
X123824732Y-87144148D01*
X123824734Y-87144149D01*
X123832757Y-87149978D01*
X123855549Y-87157384D01*
X123873808Y-87164947D01*
X123886333Y-87171329D01*
X123886336Y-87171330D01*
X123895168Y-87175830D01*
X123913729Y-87178770D01*
X123918833Y-87179578D01*
X123938066Y-87184195D01*
X123951424Y-87188536D01*
X123951427Y-87188536D01*
X123960855Y-87191600D01*
X123992818Y-87191600D01*
X123995369Y-87191700D01*
X123996631Y-87191900D01*
X128003460Y-87191900D01*
X128071581Y-87211902D01*
X128105650Y-87246893D01*
X128106464Y-87246266D01*
X128110762Y-87251847D01*
X128114411Y-87257872D01*
X128239155Y-87387048D01*
X128270093Y-87407294D01*
X128316141Y-87461329D01*
X128327100Y-87512725D01*
X128327101Y-89538718D01*
X128321277Y-89575488D01*
X128317771Y-89582368D01*
X128301701Y-89683831D01*
X128301701Y-89688784D01*
X128301700Y-91428118D01*
X128281698Y-91496239D01*
X128241726Y-91535433D01*
X128237284Y-91538166D01*
X128237282Y-91538168D01*
X128231285Y-91541857D01*
X128102982Y-91667500D01*
X128099163Y-91673425D01*
X128099162Y-91673427D01*
X128011001Y-91810226D01*
X128005704Y-91818446D01*
X128003295Y-91825066D01*
X128003293Y-91825069D01*
X127980961Y-91886426D01*
X127944285Y-91987193D01*
X127921779Y-92165353D01*
X127922466Y-92172360D01*
X127922466Y-92172363D01*
X127932693Y-92276667D01*
X127939302Y-92344073D01*
X127995985Y-92514469D01*
X128010875Y-92539055D01*
X128084056Y-92659890D01*
X128089011Y-92668072D01*
X128141689Y-92722621D01*
X128142608Y-92723573D01*
X128175540Y-92786469D01*
X128169240Y-92857186D01*
X128140131Y-92901122D01*
X128102982Y-92937500D01*
X128099163Y-92943425D01*
X128099162Y-92943427D01*
X128018006Y-93069357D01*
X128005704Y-93088446D01*
X128003295Y-93095066D01*
X128003293Y-93095069D01*
X127993437Y-93122148D01*
X127944285Y-93257193D01*
X127921779Y-93435353D01*
X127922466Y-93442360D01*
X127922466Y-93442363D01*
X127928580Y-93504717D01*
X127939302Y-93614073D01*
X127995985Y-93784469D01*
X127999634Y-93790494D01*
X128085231Y-93931830D01*
X128089011Y-93938072D01*
X128093902Y-93943137D01*
X128093903Y-93943138D01*
X128142608Y-93993573D01*
X128175540Y-94056469D01*
X128169240Y-94127186D01*
X128140131Y-94171122D01*
X128102982Y-94207500D01*
X128099163Y-94213425D01*
X128099162Y-94213427D01*
X128040413Y-94304588D01*
X128005704Y-94358446D01*
X128003295Y-94365066D01*
X128003293Y-94365069D01*
X127998746Y-94377562D01*
X127944285Y-94527193D01*
X127921779Y-94705353D01*
X127922466Y-94712360D01*
X127922466Y-94712363D01*
X127925915Y-94747535D01*
X127939302Y-94884073D01*
X127995985Y-95054469D01*
X127999634Y-95060494D01*
X128081358Y-95195435D01*
X128089011Y-95208072D01*
X128093902Y-95213137D01*
X128093903Y-95213138D01*
X128142608Y-95263573D01*
X128175540Y-95326469D01*
X128169240Y-95397186D01*
X128140131Y-95441122D01*
X128102982Y-95477500D01*
X128099163Y-95483425D01*
X128099162Y-95483427D01*
X128020199Y-95605954D01*
X128005704Y-95628446D01*
X128003295Y-95635066D01*
X128003293Y-95635069D01*
X127992314Y-95665235D01*
X127944285Y-95797193D01*
X127921779Y-95975353D01*
X127922466Y-95982360D01*
X127922466Y-95982363D01*
X127928305Y-96041913D01*
X127939302Y-96154073D01*
X127995985Y-96324469D01*
X127999634Y-96330494D01*
X128037354Y-96392776D01*
X128089011Y-96478072D01*
X128093902Y-96483137D01*
X128093903Y-96483138D01*
X128142608Y-96533573D01*
X128175540Y-96596469D01*
X128169240Y-96667186D01*
X128140131Y-96711122D01*
X128102982Y-96747500D01*
X128099163Y-96753425D01*
X128099162Y-96753427D01*
X128025312Y-96868020D01*
X128005704Y-96898446D01*
X128003295Y-96905066D01*
X128003293Y-96905069D01*
X127989768Y-96942229D01*
X127944285Y-97067193D01*
X127921779Y-97245353D01*
X127922466Y-97252360D01*
X127922466Y-97252363D01*
X127930407Y-97333351D01*
X127939302Y-97424073D01*
X127995985Y-97594469D01*
X127999634Y-97600494D01*
X128080228Y-97733569D01*
X128089011Y-97748072D01*
X128093902Y-97753137D01*
X128093903Y-97753138D01*
X128101594Y-97761102D01*
X128213755Y-97877248D01*
X128364018Y-97975578D01*
X128532332Y-98038173D01*
X128539313Y-98039104D01*
X128539315Y-98039105D01*
X128703350Y-98060992D01*
X128703354Y-98060992D01*
X128710331Y-98061923D01*
X128717342Y-98061285D01*
X128717346Y-98061285D01*
X128882147Y-98046287D01*
X128889168Y-98045648D01*
X128928569Y-98032846D01*
X129053257Y-97992333D01*
X129053260Y-97992332D01*
X129059956Y-97990156D01*
X129075817Y-97980701D01*
X129126668Y-97950388D01*
X129195423Y-97932688D01*
X129262832Y-97954970D01*
X129276070Y-97965501D01*
X129284348Y-97973047D01*
X129291386Y-97982367D01*
X129386841Y-98041470D01*
X129398313Y-98043614D01*
X129398314Y-98043615D01*
X129491475Y-98061030D01*
X129491477Y-98061030D01*
X129497200Y-98062100D01*
X130148762Y-98062100D01*
X130216883Y-98082102D01*
X130237857Y-98099005D01*
X130412596Y-98273744D01*
X130446622Y-98336056D01*
X130449501Y-98362839D01*
X130449500Y-101208248D01*
X130429498Y-101276369D01*
X130379665Y-101321038D01*
X130375057Y-101323333D01*
X130363827Y-101326528D01*
X130354509Y-101333564D01*
X130354508Y-101333565D01*
X130332165Y-101350438D01*
X130274233Y-101394186D01*
X130215130Y-101489641D01*
X130212986Y-101501113D01*
X130212985Y-101501114D01*
X130208064Y-101527438D01*
X130194500Y-101600000D01*
X130194500Y-103600000D01*
X130194567Y-103601441D01*
X130194567Y-103601458D01*
X130195219Y-103615558D01*
X130195803Y-103628188D01*
X130226528Y-103736173D01*
X130294186Y-103825767D01*
X130364378Y-103869228D01*
X130389641Y-103884870D01*
X130387321Y-103888617D01*
X130425446Y-103918022D01*
X130449501Y-103992071D01*
X130449500Y-108208248D01*
X130429498Y-108276369D01*
X130379665Y-108321038D01*
X130375057Y-108323333D01*
X130363827Y-108326528D01*
X130354509Y-108333564D01*
X130354508Y-108333565D01*
X130319030Y-108360357D01*
X130274233Y-108394186D01*
X130215130Y-108489641D01*
X130212986Y-108501113D01*
X130212985Y-108501114D01*
X130195570Y-108594275D01*
X130194500Y-108600000D01*
X130194500Y-110600000D01*
X130194567Y-110601441D01*
X130194567Y-110601458D01*
X130195219Y-110615558D01*
X130195803Y-110628188D01*
X130226528Y-110736173D01*
X130294186Y-110825767D01*
X130389641Y-110884870D01*
X130401113Y-110887014D01*
X130401114Y-110887015D01*
X130494275Y-110904430D01*
X130494277Y-110904430D01*
X130500000Y-110905500D01*
X131250000Y-110905500D01*
X131251441Y-110905433D01*
X131251458Y-110905433D01*
X131265558Y-110904781D01*
X131278188Y-110904197D01*
X131386173Y-110873472D01*
X131475767Y-110805814D01*
X131534870Y-110710359D01*
X131555500Y-110600000D01*
X131555500Y-108600000D01*
X131555236Y-108594275D01*
X131554781Y-108584442D01*
X131554197Y-108571812D01*
X131523472Y-108463827D01*
X131455814Y-108374233D01*
X131360359Y-108315130D01*
X131362697Y-108311354D01*
X131324763Y-108282265D01*
X131300725Y-108215461D01*
X131300500Y-108207930D01*
X131300500Y-103991752D01*
X131320502Y-103923631D01*
X131370335Y-103878962D01*
X131374943Y-103876667D01*
X131386173Y-103873472D01*
X131475767Y-103805814D01*
X131534870Y-103710359D01*
X131555500Y-103600000D01*
X131555500Y-101600000D01*
X131555236Y-101594275D01*
X131554533Y-101579084D01*
X131554197Y-101571812D01*
X131523472Y-101463827D01*
X131455814Y-101374233D01*
X131360359Y-101315130D01*
X131362697Y-101311354D01*
X131324763Y-101282265D01*
X131300725Y-101215461D01*
X131300500Y-101207930D01*
X131300500Y-98102831D01*
X131300300Y-98101569D01*
X131300200Y-98099018D01*
X131300200Y-98067055D01*
X131296966Y-98057100D01*
X131292795Y-98044266D01*
X131288178Y-98025033D01*
X131285981Y-98011162D01*
X131284430Y-98001368D01*
X131279930Y-97992536D01*
X131279929Y-97992533D01*
X131273547Y-97980008D01*
X131265982Y-97961745D01*
X131265555Y-97960430D01*
X131258578Y-97938957D01*
X131251792Y-97929616D01*
X131244496Y-97919575D01*
X131234163Y-97902714D01*
X131227782Y-97890190D01*
X131223282Y-97881358D01*
X131200680Y-97858756D01*
X131198948Y-97856883D01*
X131198196Y-97855848D01*
X130839605Y-97497257D01*
X130805579Y-97434945D01*
X130802700Y-97408162D01*
X130802700Y-96756600D01*
X130802597Y-96754356D01*
X130801733Y-96735684D01*
X130801397Y-96728412D01*
X130798292Y-96717499D01*
X130792053Y-96695570D01*
X130792649Y-96624576D01*
X130817864Y-96578756D01*
X130820939Y-96575194D01*
X130828013Y-96565166D01*
X130919577Y-96403985D01*
X130924567Y-96392776D01*
X130969472Y-96257787D01*
X130969973Y-96243696D01*
X130963785Y-96240600D01*
X130251202Y-96240599D01*
X130251196Y-96240600D01*
X129869200Y-96240599D01*
X129801079Y-96220597D01*
X129754586Y-96166941D01*
X129743200Y-96114599D01*
X129743200Y-95714485D01*
X130251199Y-95714485D01*
X130255674Y-95729724D01*
X130257064Y-95730929D01*
X130264747Y-95732600D01*
X130955511Y-95732601D01*
X130969042Y-95728628D01*
X130970134Y-95721034D01*
X130935546Y-95606476D01*
X130930871Y-95595134D01*
X130843846Y-95431463D01*
X130836468Y-95420358D01*
X130815431Y-95352550D01*
X130831860Y-95288393D01*
X130919577Y-95133985D01*
X130924567Y-95122776D01*
X130969472Y-94987787D01*
X130969973Y-94973696D01*
X130963785Y-94970600D01*
X130269315Y-94970599D01*
X130254076Y-94975074D01*
X130252871Y-94976464D01*
X130251200Y-94984147D01*
X130251200Y-95587638D01*
X130251199Y-95714485D01*
X129743200Y-95714485D01*
X129743200Y-95592437D01*
X129743201Y-94970600D01*
X129743200Y-94970596D01*
X129743201Y-94588600D01*
X129763203Y-94520479D01*
X129816859Y-94473986D01*
X129869201Y-94462600D01*
X130955511Y-94462601D01*
X130969042Y-94458628D01*
X130970134Y-94451034D01*
X130935546Y-94336476D01*
X130930871Y-94325134D01*
X130843843Y-94161456D01*
X130837056Y-94151240D01*
X130719889Y-94007581D01*
X130711803Y-93999438D01*
X130677996Y-93937008D01*
X130683308Y-93866210D01*
X130696261Y-93840927D01*
X130703036Y-93830729D01*
X130713625Y-93814792D01*
X130762458Y-93686239D01*
X130774894Y-93653502D01*
X130774895Y-93653500D01*
X130777394Y-93646920D01*
X130782066Y-93613677D01*
X130801835Y-93473014D01*
X130801835Y-93473009D01*
X130802386Y-93469091D01*
X130802596Y-93454056D01*
X130802645Y-93450563D01*
X130802645Y-93450558D01*
X130802700Y-93446600D01*
X130782683Y-93268143D01*
X130778060Y-93254866D01*
X130741387Y-93149558D01*
X130723626Y-93098555D01*
X130719504Y-93091958D01*
X130692884Y-93049356D01*
X130673748Y-92980987D01*
X130694614Y-92913126D01*
X130704356Y-92900256D01*
X130820943Y-92765187D01*
X130828013Y-92755166D01*
X130919577Y-92593985D01*
X130924567Y-92582776D01*
X130969472Y-92447787D01*
X130969973Y-92433696D01*
X130963785Y-92430600D01*
X130251202Y-92430599D01*
X130251196Y-92430600D01*
X129869200Y-92430599D01*
X129801079Y-92410597D01*
X129754586Y-92356941D01*
X129743200Y-92304599D01*
X129743200Y-91904485D01*
X130251199Y-91904485D01*
X130255674Y-91919724D01*
X130257064Y-91920929D01*
X130264747Y-91922600D01*
X130955511Y-91922601D01*
X130969042Y-91918628D01*
X130970134Y-91911034D01*
X130935546Y-91796476D01*
X130930871Y-91785134D01*
X130843843Y-91621456D01*
X130837056Y-91611240D01*
X130719890Y-91467581D01*
X130711246Y-91458877D01*
X130568412Y-91340714D01*
X130558241Y-91333854D01*
X130395169Y-91245682D01*
X130383870Y-91240932D01*
X130268507Y-91205220D01*
X130254405Y-91205014D01*
X130251200Y-91211770D01*
X130251199Y-91904485D01*
X129743200Y-91904485D01*
X129743201Y-91218548D01*
X129739228Y-91205017D01*
X129731433Y-91203897D01*
X129623633Y-91235624D01*
X129612265Y-91240217D01*
X129447978Y-91326104D01*
X129437710Y-91332822D01*
X129383052Y-91376769D01*
X129317430Y-91403866D01*
X129247575Y-91391183D01*
X129195667Y-91342747D01*
X129178100Y-91278573D01*
X129178100Y-87516247D01*
X129198102Y-87448126D01*
X129229481Y-87417901D01*
X129227941Y-87415872D01*
X129233549Y-87411615D01*
X129239605Y-87408005D01*
X129309884Y-87341079D01*
X129364545Y-87289026D01*
X129364547Y-87289024D01*
X129369649Y-87284165D01*
X129469025Y-87134592D01*
X129524829Y-86987689D01*
X129530294Y-86973302D01*
X129530295Y-86973300D01*
X129532794Y-86966720D01*
X129542114Y-86900404D01*
X129557235Y-86792814D01*
X129557235Y-86792809D01*
X129557786Y-86788891D01*
X129558100Y-86766400D01*
X129538083Y-86587943D01*
X129535392Y-86580214D01*
X129503279Y-86488000D01*
X129479026Y-86418355D01*
X129383865Y-86266065D01*
X129313255Y-86194961D01*
X129262292Y-86143640D01*
X129262288Y-86143637D01*
X129257329Y-86138643D01*
X129240505Y-86127966D01*
X129111662Y-86046199D01*
X129111658Y-86046197D01*
X129105708Y-86042421D01*
X128936537Y-85982182D01*
X128758223Y-85960920D01*
X128751220Y-85961656D01*
X128751219Y-85961656D01*
X128707410Y-85966260D01*
X128579631Y-85979690D01*
X128572963Y-85981960D01*
X128416302Y-86035292D01*
X128416299Y-86035293D01*
X128409635Y-86037562D01*
X128256685Y-86131657D01*
X128251654Y-86136583D01*
X128251651Y-86136586D01*
X128244448Y-86143640D01*
X128128382Y-86257300D01*
X128124568Y-86263218D01*
X128124564Y-86263223D01*
X128111720Y-86283154D01*
X128058006Y-86329579D01*
X128005808Y-86340900D01*
X124256638Y-86340900D01*
X124188517Y-86320898D01*
X124167543Y-86303995D01*
X121941842Y-84078294D01*
X121907817Y-84015983D01*
X121912881Y-83945168D01*
X121955428Y-83888332D01*
X122021948Y-83863521D01*
X122030937Y-83863200D01*
X122062474Y-83863200D01*
X122069778Y-83862775D01*
X122184319Y-83849422D01*
X122198466Y-83846078D01*
X122344022Y-83793243D01*
X122357017Y-83786735D01*
X122486511Y-83701835D01*
X122497663Y-83692511D01*
X122604149Y-83580102D01*
X122612862Y-83568455D01*
X122690635Y-83434560D01*
X122696429Y-83421235D01*
X122741562Y-83272216D01*
X122744010Y-83259593D01*
X122749751Y-83195266D01*
X122750000Y-83189671D01*
X122750000Y-83152315D01*
X122745525Y-83137076D01*
X122744135Y-83135871D01*
X122736452Y-83134200D01*
X121676500Y-83134200D01*
X121608379Y-83114198D01*
X121561886Y-83060542D01*
X121550500Y-83008200D01*
X121550500Y-81915315D01*
X121549159Y-81910748D01*
X122058500Y-81910748D01*
X122058500Y-82608085D01*
X122062975Y-82623324D01*
X122064365Y-82624529D01*
X122072048Y-82626200D01*
X122731885Y-82626200D01*
X122747124Y-82621725D01*
X122748329Y-82620335D01*
X122750000Y-82612652D01*
X122750000Y-82584726D01*
X122749575Y-82577422D01*
X122736222Y-82462881D01*
X122732878Y-82448734D01*
X122680043Y-82303178D01*
X122673535Y-82290183D01*
X122588635Y-82160689D01*
X122579311Y-82149537D01*
X122466902Y-82043051D01*
X122455255Y-82034338D01*
X122321360Y-81956565D01*
X122308035Y-81950771D01*
X122159016Y-81905638D01*
X122146393Y-81903190D01*
X122082066Y-81897449D01*
X122076596Y-81897206D01*
X122061376Y-81901675D01*
X122060171Y-81903065D01*
X122058500Y-81910748D01*
X121549159Y-81910748D01*
X121546025Y-81900076D01*
X121544635Y-81898871D01*
X121539015Y-81897649D01*
X121424681Y-81910978D01*
X121410534Y-81914322D01*
X121264978Y-81967157D01*
X121251983Y-81973665D01*
X121122489Y-82058565D01*
X121111337Y-82067889D01*
X121004851Y-82180298D01*
X120996135Y-82191948D01*
X120989726Y-82202983D01*
X120938216Y-82251843D01*
X120868468Y-82265098D01*
X120807916Y-82240674D01*
X120807124Y-82241788D01*
X120698135Y-82164334D01*
X120691133Y-82159358D01*
X120650819Y-82144844D01*
X120593501Y-82102949D01*
X120567932Y-82036717D01*
X120567500Y-82026293D01*
X120567500Y-82006637D01*
X120587502Y-81938516D01*
X120604405Y-81917542D01*
X121900743Y-80621205D01*
X121963055Y-80587179D01*
X121989838Y-80584300D01*
X123016400Y-80584300D01*
X123017841Y-80584233D01*
X123017858Y-80584233D01*
X123031958Y-80583581D01*
X123044588Y-80582997D01*
X123152573Y-80552272D01*
X123242167Y-80484614D01*
X123301270Y-80389159D01*
X123321900Y-80278800D01*
X123321900Y-79528800D01*
X123321636Y-79523075D01*
X123321161Y-79512818D01*
X123320597Y-79500612D01*
X123289872Y-79392627D01*
X123222214Y-79303033D01*
X123126759Y-79243930D01*
X123115287Y-79241786D01*
X123115286Y-79241785D01*
X123022125Y-79224370D01*
X123022123Y-79224370D01*
X123016400Y-79223300D01*
X121016400Y-79223300D01*
X121014959Y-79223367D01*
X121014942Y-79223367D01*
X121000842Y-79224019D01*
X120988212Y-79224603D01*
X120880227Y-79255328D01*
X120790633Y-79322986D01*
X120731530Y-79418441D01*
X120729386Y-79429913D01*
X120729385Y-79429914D01*
X120711970Y-79523075D01*
X120710900Y-79528800D01*
X120710900Y-80278800D01*
X120710967Y-80280241D01*
X120710967Y-80280258D01*
X120711619Y-80294358D01*
X120712203Y-80306988D01*
X120742928Y-80414973D01*
X120749964Y-80424290D01*
X120755168Y-80434741D01*
X120752414Y-80436112D01*
X120771020Y-80485355D01*
X120756226Y-80554793D01*
X120734476Y-80583976D01*
X120231095Y-81087357D01*
X120168783Y-81121383D01*
X120097968Y-81116318D01*
X120052905Y-81087357D01*
X118548853Y-79583306D01*
X118546151Y-79580604D01*
X118545120Y-79579855D01*
X118543250Y-79578126D01*
X118520642Y-79555518D01*
X118499277Y-79544632D01*
X118482424Y-79534304D01*
X118476869Y-79530268D01*
X118463042Y-79520222D01*
X118440256Y-79512818D01*
X118421993Y-79505254D01*
X118400632Y-79494370D01*
X118390842Y-79492819D01*
X118390835Y-79492817D01*
X118376951Y-79490618D01*
X118357739Y-79486006D01*
X118334944Y-79478600D01*
X118302982Y-79478600D01*
X118300431Y-79478500D01*
X118299169Y-79478300D01*
X116408152Y-79478300D01*
X116340031Y-79458298D01*
X116295362Y-79408465D01*
X116293067Y-79403856D01*
X116289872Y-79392627D01*
X116222214Y-79303033D01*
X116126759Y-79243930D01*
X116115287Y-79241786D01*
X116115286Y-79241785D01*
X116022125Y-79224370D01*
X116022123Y-79224370D01*
X116016400Y-79223300D01*
X114016400Y-79223300D01*
X114014959Y-79223367D01*
X114014942Y-79223367D01*
X114000842Y-79224019D01*
X113988212Y-79224603D01*
X113880227Y-79255328D01*
X113790633Y-79322986D01*
X113731530Y-79418441D01*
X113727754Y-79416103D01*
X113698665Y-79454037D01*
X113631861Y-79478075D01*
X113624330Y-79478300D01*
X111064631Y-79478300D01*
X111063369Y-79478500D01*
X111060818Y-79478600D01*
X111028855Y-79478600D01*
X111019427Y-79481664D01*
X111019424Y-79481664D01*
X111006066Y-79486005D01*
X110986832Y-79490622D01*
X110963168Y-79494370D01*
X110954336Y-79498870D01*
X110954333Y-79498871D01*
X110941808Y-79505253D01*
X110923549Y-79512816D01*
X110900757Y-79520222D01*
X110892734Y-79526051D01*
X110892732Y-79526052D01*
X110881375Y-79534304D01*
X110864518Y-79544635D01*
X110843158Y-79555518D01*
X110820556Y-79578120D01*
X110818683Y-79579852D01*
X110817648Y-79580604D01*
X110814930Y-79583322D01*
X106610658Y-83787595D01*
X106548346Y-83821621D01*
X106521563Y-83824500D01*
X100673504Y-83824500D01*
X100600515Y-83801206D01*
X100506135Y-83734134D01*
X100499133Y-83729158D01*
X100423241Y-83701835D01*
X100372396Y-83683529D01*
X100372392Y-83683528D01*
X100365248Y-83680956D01*
X100303822Y-83674500D01*
X99707250Y-83674500D01*
X99703005Y-83675082D01*
X99702998Y-83675082D01*
X99611279Y-83687646D01*
X99611276Y-83687647D01*
X99602770Y-83688812D01*
X99576916Y-83700000D01*
X99500714Y-83732975D01*
X99472174Y-83745325D01*
X99465494Y-83750734D01*
X99465493Y-83750735D01*
X99377957Y-83821621D01*
X99361588Y-83834876D01*
X99356612Y-83841878D01*
X99356610Y-83841880D01*
X99287097Y-83939696D01*
X99279158Y-83950867D01*
X99230956Y-84084752D01*
X99224500Y-84146178D01*
X99224500Y-84667750D01*
X99225081Y-84671993D01*
X99225082Y-84672002D01*
X99236975Y-84758819D01*
X99238812Y-84772230D01*
X99295325Y-84902825D01*
X99384876Y-85013412D01*
X99391878Y-85018388D01*
X99391879Y-85018389D01*
X99500867Y-85095842D01*
X99499412Y-85097890D01*
X99541177Y-85138168D01*
X99557523Y-85207258D01*
X99533922Y-85274216D01*
X99487067Y-85311904D01*
X99487406Y-85312464D01*
X99483214Y-85315003D01*
X99481748Y-85316182D01*
X99472174Y-85320325D01*
X99465494Y-85325734D01*
X99465493Y-85325735D01*
X99382105Y-85393262D01*
X99361588Y-85409876D01*
X99356612Y-85416878D01*
X99356610Y-85416880D01*
X99339971Y-85440294D01*
X99279158Y-85525867D01*
X99276247Y-85533952D01*
X99272868Y-85540415D01*
X99243457Y-85577489D01*
X99226625Y-85591993D01*
X99218709Y-85598280D01*
X99207195Y-85606691D01*
X99195730Y-85618156D01*
X99188883Y-85624514D01*
X99153274Y-85655197D01*
X99148390Y-85662731D01*
X99142491Y-85669494D01*
X99142430Y-85669441D01*
X99133892Y-85679994D01*
X97652299Y-87161588D01*
X96192892Y-88620995D01*
X96130580Y-88655021D01*
X96103797Y-88657900D01*
X95833050Y-88657900D01*
X95828805Y-88658482D01*
X95828798Y-88658482D01*
X95737079Y-88671046D01*
X95737076Y-88671047D01*
X95728570Y-88672212D01*
X95597975Y-88728725D01*
X95591295Y-88734134D01*
X95591294Y-88734135D01*
X95507901Y-88801666D01*
X95487389Y-88818276D01*
X95482413Y-88825278D01*
X95482411Y-88825280D01*
X95404959Y-88934267D01*
X95402912Y-88932812D01*
X95362633Y-88974579D01*
X95293544Y-88990925D01*
X95226585Y-88967324D01*
X95188896Y-88920468D01*
X95188336Y-88920807D01*
X95185796Y-88916613D01*
X95184618Y-88915148D01*
X95180475Y-88905575D01*
X95109782Y-88818276D01*
X95096331Y-88801666D01*
X95090924Y-88794989D01*
X94974933Y-88712558D01*
X94948347Y-88702986D01*
X94848196Y-88666929D01*
X94848192Y-88666928D01*
X94841048Y-88664356D01*
X94779622Y-88657900D01*
X94258050Y-88657900D01*
X94253805Y-88658482D01*
X94253798Y-88658482D01*
X94162079Y-88671046D01*
X94162076Y-88671047D01*
X94153570Y-88672212D01*
X94022975Y-88728725D01*
X94016295Y-88734134D01*
X94016294Y-88734135D01*
X93932901Y-88801666D01*
X93912389Y-88818276D01*
X93907413Y-88825278D01*
X93907411Y-88825280D01*
X93842505Y-88916613D01*
X93829959Y-88934267D01*
X93827051Y-88942344D01*
X93827050Y-88942346D01*
X93793271Y-89036170D01*
X93781756Y-89068152D01*
X93775300Y-89129578D01*
X93775300Y-89726150D01*
X93775882Y-89730395D01*
X93775882Y-89730402D01*
X93788446Y-89822121D01*
X93789612Y-89830630D01*
X93803318Y-89862303D01*
X93840126Y-89947361D01*
X93846125Y-89961225D01*
X93851534Y-89967905D01*
X93851535Y-89967906D01*
X93917447Y-90049300D01*
X93935676Y-90071811D01*
X93947292Y-90080066D01*
X93991231Y-90135833D01*
X94000300Y-90182770D01*
X94000301Y-90322040D01*
X94000301Y-90406099D01*
X93980299Y-90474220D01*
X93926644Y-90520713D01*
X93874301Y-90532100D01*
X93838962Y-90532100D01*
X93808084Y-90537240D01*
X93756022Y-90545905D01*
X93756021Y-90545905D01*
X93745750Y-90547615D01*
X93736585Y-90552560D01*
X93731165Y-90554416D01*
X93660238Y-90557559D01*
X93639415Y-90550455D01*
X93613627Y-90539054D01*
X93558580Y-90532100D01*
X93338962Y-90532100D01*
X93308084Y-90537240D01*
X93256022Y-90545905D01*
X93256021Y-90545905D01*
X93245750Y-90547615D01*
X93236585Y-90552560D01*
X93231165Y-90554416D01*
X93160238Y-90557559D01*
X93139415Y-90550455D01*
X93113627Y-90539054D01*
X93058580Y-90532100D01*
X92970500Y-90532100D01*
X92902379Y-90512098D01*
X92855886Y-90458442D01*
X92844500Y-90406100D01*
X92844500Y-86263082D01*
X92864502Y-86194961D01*
X92881405Y-86173987D01*
X94328242Y-84727150D01*
X94390554Y-84693124D01*
X94456272Y-84696412D01*
X94505735Y-84712483D01*
X94556492Y-84728976D01*
X94556496Y-84728977D01*
X94562347Y-84730878D01*
X94568457Y-84731607D01*
X94568459Y-84731607D01*
X94664621Y-84743073D01*
X94766895Y-84755269D01*
X94773030Y-84754797D01*
X94773032Y-84754797D01*
X94966144Y-84739938D01*
X94966148Y-84739937D01*
X94972286Y-84739465D01*
X95170695Y-84684068D01*
X95298525Y-84619496D01*
X95349068Y-84593965D01*
X95349070Y-84593964D01*
X95354565Y-84591188D01*
X95390990Y-84562730D01*
X95411713Y-84546539D01*
X95516893Y-84464363D01*
X95520919Y-84459699D01*
X95520922Y-84459696D01*
X95647467Y-84313092D01*
X95647468Y-84313090D01*
X95651496Y-84308424D01*
X95753247Y-84129311D01*
X95818270Y-83933844D01*
X95844088Y-83729471D01*
X95844500Y-83700000D01*
X95824398Y-83494986D01*
X95795762Y-83400137D01*
X95766639Y-83303679D01*
X95764858Y-83297780D01*
X95679410Y-83137076D01*
X95671042Y-83121337D01*
X95671040Y-83121334D01*
X95668148Y-83115895D01*
X95664258Y-83111125D01*
X95664255Y-83111121D01*
X95541847Y-82961034D01*
X95541844Y-82961031D01*
X95537952Y-82956259D01*
X95520734Y-82942015D01*
X95383978Y-82828880D01*
X95383974Y-82828878D01*
X95379228Y-82824951D01*
X95373803Y-82822018D01*
X95373799Y-82822015D01*
X95255571Y-82758088D01*
X95205162Y-82708093D01*
X95189500Y-82647253D01*
X95189500Y-80194184D01*
X95209502Y-80126063D01*
X95265458Y-80078548D01*
X95320625Y-80054675D01*
X95431211Y-79965124D01*
X95436187Y-79958122D01*
X95436189Y-79958120D01*
X95508665Y-79856135D01*
X95513641Y-79849133D01*
X95561843Y-79715248D01*
X95568300Y-79653822D01*
X95568300Y-79132250D01*
X95566784Y-79121178D01*
X95555154Y-79036279D01*
X95555153Y-79036276D01*
X95553988Y-79027770D01*
X95497475Y-78897175D01*
X95431326Y-78815488D01*
X95404002Y-78749963D01*
X95416442Y-78680064D01*
X95460164Y-78630824D01*
X95512307Y-78596638D01*
X95523462Y-78587311D01*
X95629948Y-78474902D01*
X95638661Y-78463255D01*
X95716434Y-78329360D01*
X95722228Y-78316035D01*
X95767361Y-78167017D01*
X95769809Y-78154392D01*
X95775551Y-78090063D01*
X95775794Y-78084596D01*
X95771325Y-78069376D01*
X95769935Y-78068171D01*
X95762252Y-78066500D01*
X95046802Y-78066499D01*
X95046796Y-78066500D01*
X93827915Y-78066499D01*
X93812676Y-78070974D01*
X93811471Y-78072364D01*
X93810249Y-78077984D01*
X93823578Y-78192318D01*
X93826922Y-78206465D01*
X93879757Y-78352021D01*
X93886265Y-78365016D01*
X93971165Y-78494510D01*
X93980489Y-78505662D01*
X94092898Y-78612148D01*
X94104548Y-78620864D01*
X94115586Y-78627275D01*
X94164445Y-78678786D01*
X94177699Y-78748534D01*
X94153275Y-78809084D01*
X94154389Y-78809876D01*
X94071959Y-78925867D01*
X94023757Y-79059752D01*
X94017300Y-79121178D01*
X94017300Y-79642750D01*
X94017882Y-79646995D01*
X94017882Y-79647002D01*
X94027231Y-79715248D01*
X94031612Y-79747230D01*
X94088125Y-79877825D01*
X94093534Y-79884505D01*
X94093535Y-79884506D01*
X94158819Y-79965124D01*
X94177676Y-79988411D01*
X94184678Y-79993387D01*
X94184680Y-79993389D01*
X94263306Y-80049265D01*
X94293667Y-80070841D01*
X94301744Y-80073749D01*
X94301748Y-80073751D01*
X94305182Y-80074987D01*
X94307869Y-80076951D01*
X94309363Y-80077732D01*
X94309245Y-80077957D01*
X94362500Y-80116882D01*
X94388069Y-80183114D01*
X94388501Y-80193538D01*
X94388500Y-82647716D01*
X94368498Y-82715837D01*
X94320876Y-82759378D01*
X94211047Y-82816795D01*
X94050505Y-82945874D01*
X93918093Y-83103677D01*
X93915129Y-83109069D01*
X93915126Y-83109073D01*
X93833531Y-83257494D01*
X93818853Y-83284194D01*
X93816992Y-83290061D01*
X93816991Y-83290063D01*
X93814543Y-83297780D01*
X93756565Y-83480549D01*
X93733603Y-83685263D01*
X93750840Y-83890538D01*
X93752537Y-83896457D01*
X93752538Y-83896461D01*
X93793053Y-84037754D01*
X93792602Y-84108749D01*
X93761029Y-84161579D01*
X92378099Y-85544509D01*
X92315789Y-85578533D01*
X92244974Y-85573469D01*
X92199911Y-85544508D01*
X92182347Y-85526944D01*
X92182334Y-85526937D01*
X92182311Y-85526918D01*
X90816125Y-84160733D01*
X90782100Y-84098421D01*
X90785662Y-84031868D01*
X90818270Y-83933844D01*
X90844088Y-83729471D01*
X90844500Y-83700000D01*
X90824398Y-83494986D01*
X90795762Y-83400137D01*
X90766639Y-83303679D01*
X90764858Y-83297780D01*
X90679410Y-83137076D01*
X90671042Y-83121337D01*
X90671040Y-83121334D01*
X90668148Y-83115895D01*
X90664258Y-83111125D01*
X90664255Y-83111121D01*
X90541847Y-82961034D01*
X90541844Y-82961031D01*
X90537952Y-82956259D01*
X90520734Y-82942015D01*
X90383978Y-82828880D01*
X90383974Y-82828878D01*
X90379228Y-82824951D01*
X90373803Y-82822018D01*
X90373799Y-82822015D01*
X90255571Y-82758088D01*
X90205162Y-82708093D01*
X90189500Y-82647253D01*
X90189500Y-80197300D01*
X90209502Y-80129179D01*
X90265459Y-80081663D01*
X90269556Y-80079890D01*
X90327825Y-80054675D01*
X90438411Y-79965124D01*
X90443387Y-79958122D01*
X90443389Y-79958120D01*
X90515865Y-79856135D01*
X90520841Y-79849133D01*
X90569043Y-79715248D01*
X90575500Y-79653822D01*
X90575500Y-79132250D01*
X90573984Y-79121178D01*
X90562354Y-79036279D01*
X90562353Y-79036276D01*
X90561188Y-79027770D01*
X90504675Y-78897175D01*
X90438526Y-78815488D01*
X90411202Y-78749963D01*
X90423642Y-78680064D01*
X90467364Y-78630824D01*
X90519507Y-78596638D01*
X90530662Y-78587311D01*
X90637148Y-78474902D01*
X90645861Y-78463255D01*
X90723634Y-78329360D01*
X90729428Y-78316035D01*
X90774561Y-78167017D01*
X90777009Y-78154392D01*
X90782751Y-78090063D01*
X90782994Y-78084596D01*
X90778525Y-78069376D01*
X90777135Y-78068171D01*
X90769452Y-78066500D01*
X90054002Y-78066499D01*
X90053996Y-78066500D01*
X88835115Y-78066499D01*
X88819876Y-78070974D01*
X88818671Y-78072364D01*
X88817449Y-78077984D01*
X88830778Y-78192318D01*
X88834122Y-78206465D01*
X88886957Y-78352021D01*
X88893465Y-78365016D01*
X88978365Y-78494510D01*
X88987689Y-78505662D01*
X89100098Y-78612148D01*
X89111748Y-78620864D01*
X89122786Y-78627275D01*
X89171645Y-78678786D01*
X89184899Y-78748534D01*
X89160475Y-78809084D01*
X89161589Y-78809876D01*
X89079159Y-78925867D01*
X89030957Y-79059752D01*
X89024500Y-79121178D01*
X89024500Y-79642750D01*
X89025082Y-79646995D01*
X89025082Y-79647002D01*
X89034431Y-79715248D01*
X89038812Y-79747230D01*
X89095325Y-79877825D01*
X89100734Y-79884505D01*
X89100735Y-79884506D01*
X89166019Y-79965124D01*
X89184876Y-79988411D01*
X89191878Y-79993387D01*
X89191880Y-79993389D01*
X89270506Y-80049265D01*
X89300867Y-80070841D01*
X89308948Y-80073750D01*
X89316562Y-80077731D01*
X89315433Y-80079890D01*
X89362492Y-80114278D01*
X89388068Y-80180508D01*
X89388501Y-80190945D01*
X89388500Y-82647716D01*
X89368498Y-82715837D01*
X89320876Y-82759378D01*
X89211047Y-82816795D01*
X89050505Y-82945874D01*
X88918093Y-83103677D01*
X88915129Y-83109069D01*
X88915126Y-83109073D01*
X88833531Y-83257494D01*
X88818853Y-83284194D01*
X88816992Y-83290061D01*
X88816991Y-83290063D01*
X88814543Y-83297780D01*
X88756565Y-83480549D01*
X88733603Y-83685263D01*
X88750840Y-83890538D01*
X88779230Y-83989546D01*
X88804481Y-84077604D01*
X88807621Y-84088555D01*
X88901782Y-84271773D01*
X89029737Y-84433212D01*
X89034430Y-84437206D01*
X89034431Y-84437207D01*
X89060856Y-84459696D01*
X89186612Y-84566723D01*
X89191990Y-84569729D01*
X89191992Y-84569730D01*
X89262549Y-84609163D01*
X89366432Y-84667221D01*
X89562347Y-84730878D01*
X89766895Y-84755269D01*
X89773030Y-84754797D01*
X89773032Y-84754797D01*
X89966144Y-84739938D01*
X89966148Y-84739937D01*
X89972286Y-84739465D01*
X90127906Y-84696015D01*
X90198896Y-84696961D01*
X90250885Y-84728278D01*
X91506596Y-85983989D01*
X91540622Y-86046301D01*
X91543501Y-86073084D01*
X91543501Y-86702034D01*
X91523499Y-86770155D01*
X91469843Y-86816648D01*
X91393509Y-86825729D01*
X91379386Y-86822990D01*
X91315066Y-86817249D01*
X91309596Y-86817006D01*
X91294376Y-86821475D01*
X91293171Y-86822865D01*
X91291500Y-86830548D01*
X91291500Y-90211800D01*
X91271498Y-90279921D01*
X91217842Y-90326414D01*
X91149053Y-90336722D01*
X91111959Y-90331838D01*
X91086656Y-90335784D01*
X91016267Y-90326517D01*
X90962062Y-90280665D01*
X90941485Y-90219092D01*
X90939553Y-90187953D01*
X90938997Y-90178991D01*
X90935948Y-90170545D01*
X90935175Y-90166813D01*
X90931521Y-90152155D01*
X90930454Y-90148508D01*
X90929182Y-90139623D01*
X90909931Y-90097282D01*
X90906119Y-90087919D01*
X90893378Y-90052625D01*
X90893378Y-90052624D01*
X90890330Y-90044182D01*
X90885032Y-90036930D01*
X90883252Y-90033583D01*
X90875609Y-90020502D01*
X90873574Y-90017320D01*
X90869860Y-90009151D01*
X90839501Y-89973918D01*
X90833215Y-89966002D01*
X90824809Y-89954495D01*
X90820405Y-89950091D01*
X90820164Y-89949649D01*
X90818204Y-89947361D01*
X90818688Y-89946947D01*
X90786379Y-89887779D01*
X90783500Y-89860996D01*
X90783500Y-86835115D01*
X90779025Y-86819876D01*
X90777635Y-86818671D01*
X90772015Y-86817449D01*
X90657681Y-86830778D01*
X90643534Y-86834122D01*
X90497978Y-86886957D01*
X90484983Y-86893465D01*
X90355489Y-86978365D01*
X90344337Y-86987689D01*
X90237851Y-87100098D01*
X90229135Y-87111748D01*
X90222726Y-87122783D01*
X90171216Y-87171643D01*
X90101468Y-87184898D01*
X90040916Y-87160474D01*
X90040124Y-87161588D01*
X89931135Y-87084134D01*
X89924133Y-87079158D01*
X89863635Y-87057377D01*
X89797396Y-87033529D01*
X89797392Y-87033528D01*
X89790248Y-87030956D01*
X89728822Y-87024500D01*
X89207249Y-87024500D01*
X89203004Y-87025082D01*
X89202997Y-87025082D01*
X89111278Y-87037646D01*
X89111275Y-87037647D01*
X89102769Y-87038812D01*
X89094886Y-87042223D01*
X89094887Y-87042223D01*
X88982809Y-87090723D01*
X88972174Y-87095325D01*
X88965494Y-87100734D01*
X88965493Y-87100735D01*
X88870844Y-87177381D01*
X88861588Y-87184876D01*
X88856612Y-87191878D01*
X88856610Y-87191880D01*
X88817515Y-87246893D01*
X88779158Y-87300867D01*
X88776249Y-87308948D01*
X88737023Y-87417901D01*
X88730956Y-87434752D01*
X88724500Y-87496178D01*
X88724500Y-88092751D01*
X88725082Y-88096996D01*
X88725082Y-88097003D01*
X88737646Y-88188722D01*
X88738812Y-88197231D01*
X88742223Y-88205113D01*
X88782909Y-88299133D01*
X88795325Y-88327826D01*
X88800734Y-88334506D01*
X88800735Y-88334507D01*
X88863192Y-88411635D01*
X88884876Y-88438412D01*
X88891878Y-88443388D01*
X88899262Y-88448636D01*
X88943202Y-88504402D01*
X88950018Y-88575071D01*
X88917545Y-88638206D01*
X88905567Y-88649262D01*
X88875033Y-88673988D01*
X88861588Y-88684876D01*
X88856614Y-88691875D01*
X88786871Y-88790014D01*
X88779158Y-88800867D01*
X88770369Y-88825280D01*
X88735977Y-88920807D01*
X88730956Y-88934752D01*
X88724500Y-88996178D01*
X88724500Y-89592751D01*
X88725083Y-89597005D01*
X88730283Y-89634971D01*
X88719711Y-89705176D01*
X88672861Y-89758520D01*
X88605449Y-89778070D01*
X81722862Y-89778070D01*
X81721600Y-89778270D01*
X81719049Y-89778370D01*
X81687086Y-89778370D01*
X81677658Y-89781434D01*
X81677655Y-89781434D01*
X81664297Y-89785775D01*
X81645063Y-89790392D01*
X81621399Y-89794140D01*
X81612567Y-89798640D01*
X81612564Y-89798641D01*
X81600039Y-89805023D01*
X81581780Y-89812586D01*
X81558988Y-89819992D01*
X81550965Y-89825821D01*
X81550961Y-89825823D01*
X81539600Y-89834077D01*
X81522748Y-89844405D01*
X81501389Y-89855288D01*
X81478781Y-89877896D01*
X81476911Y-89879625D01*
X81475880Y-89880374D01*
X80896291Y-90459963D01*
X80833979Y-90493989D01*
X80792278Y-90495982D01*
X80683017Y-90482954D01*
X80676023Y-90482120D01*
X80669020Y-90482856D01*
X80669019Y-90482856D01*
X80625210Y-90487460D01*
X80497431Y-90500890D01*
X80490763Y-90503160D01*
X80334102Y-90556492D01*
X80334099Y-90556493D01*
X80327435Y-90558762D01*
X80174485Y-90652857D01*
X80169454Y-90657783D01*
X80169451Y-90657786D01*
X80125102Y-90701216D01*
X80046182Y-90778500D01*
X80042363Y-90784425D01*
X80042362Y-90784427D01*
X79985647Y-90872432D01*
X79948904Y-90929446D01*
X79946495Y-90936066D01*
X79946493Y-90936069D01*
X79926978Y-90989687D01*
X79887485Y-91098193D01*
X79864979Y-91276353D01*
X79865666Y-91283360D01*
X79865666Y-91283363D01*
X79878358Y-91412808D01*
X79865098Y-91482555D01*
X79842054Y-91514198D01*
X79066458Y-92289795D01*
X78289804Y-93066449D01*
X78289052Y-93067484D01*
X78287320Y-93069357D01*
X78264719Y-93091958D01*
X78257966Y-93105212D01*
X78253838Y-93113313D01*
X78243510Y-93130167D01*
X78229422Y-93149558D01*
X78226359Y-93158986D01*
X78226355Y-93158993D01*
X78222015Y-93172351D01*
X78214451Y-93190614D01*
X78203571Y-93211968D01*
X78202020Y-93221758D01*
X78202019Y-93221762D01*
X78199822Y-93235637D01*
X78195205Y-93254866D01*
X78190865Y-93268221D01*
X78190864Y-93268224D01*
X78187800Y-93277656D01*
X78187800Y-93309632D01*
X78187700Y-93312173D01*
X78187501Y-93313431D01*
X78187501Y-93317250D01*
X78187500Y-104206387D01*
X78167498Y-104274508D01*
X78140795Y-104304307D01*
X78099588Y-104337676D01*
X78017158Y-104453667D01*
X78001518Y-104497108D01*
X77980471Y-104555569D01*
X77968956Y-104587552D01*
X77962500Y-104648978D01*
X77962500Y-105245551D01*
X77963082Y-105249796D01*
X77963082Y-105249803D01*
X77975646Y-105341522D01*
X77976812Y-105350031D01*
X78033325Y-105480626D01*
X78122876Y-105591212D01*
X78129878Y-105596188D01*
X78129880Y-105596190D01*
X78193012Y-105641055D01*
X78238867Y-105673642D01*
X78299365Y-105695423D01*
X78365604Y-105719271D01*
X78365608Y-105719272D01*
X78372752Y-105721844D01*
X78434178Y-105728300D01*
X78734562Y-105728300D01*
X78802683Y-105748302D01*
X78823658Y-105765205D01*
X79451407Y-106392955D01*
X79485432Y-106455267D01*
X79488311Y-106482050D01*
X79488311Y-107616612D01*
X79468309Y-107684733D01*
X79414653Y-107731226D01*
X79348267Y-107741827D01*
X79223142Y-107727793D01*
X79216115Y-107727400D01*
X79033915Y-107727400D01*
X79018676Y-107731875D01*
X79017471Y-107733265D01*
X79015800Y-107740948D01*
X79015799Y-108481398D01*
X79015800Y-108481404D01*
X79015799Y-109725285D01*
X79020274Y-109740524D01*
X79021664Y-109741729D01*
X79029347Y-109743400D01*
X79209712Y-109743400D01*
X79215861Y-109743099D01*
X79350015Y-109729946D01*
X79419762Y-109743206D01*
X79471269Y-109792069D01*
X79488310Y-109855345D01*
X79488310Y-112098978D01*
X79488510Y-112100240D01*
X79488610Y-112102791D01*
X79488610Y-112134754D01*
X79491674Y-112144182D01*
X79491674Y-112144185D01*
X79494739Y-112153615D01*
X79495825Y-112156957D01*
X79496015Y-112157543D01*
X79500632Y-112176776D01*
X79504380Y-112200441D01*
X79508880Y-112209273D01*
X79508881Y-112209276D01*
X79515263Y-112221801D01*
X79522826Y-112240060D01*
X79530232Y-112262852D01*
X79536061Y-112270875D01*
X79536062Y-112270877D01*
X79544314Y-112282234D01*
X79554645Y-112299091D01*
X79565528Y-112320451D01*
X79588131Y-112343054D01*
X79589864Y-112344928D01*
X79590614Y-112345961D01*
X81822457Y-114577804D01*
X81856483Y-114640116D01*
X81851418Y-114710931D01*
X81808871Y-114767767D01*
X81742351Y-114792578D01*
X81733362Y-114792899D01*
X77831684Y-114792899D01*
X77763563Y-114772897D01*
X77747865Y-114760975D01*
X77708310Y-114725732D01*
X77708307Y-114725730D01*
X77702638Y-114720679D01*
X77552829Y-114641359D01*
X77388423Y-114600063D01*
X77380825Y-114600023D01*
X77380823Y-114600023D01*
X77307792Y-114599641D01*
X77218912Y-114599176D01*
X77211533Y-114600948D01*
X77211529Y-114600948D01*
X77061461Y-114636976D01*
X77061457Y-114636977D01*
X77054082Y-114638748D01*
X77047342Y-114642227D01*
X77047336Y-114642229D01*
X77044193Y-114643852D01*
X77041654Y-114644343D01*
X77040212Y-114644879D01*
X77040123Y-114644639D01*
X76974486Y-114657323D01*
X76908562Y-114630970D01*
X76867351Y-114573159D01*
X76860400Y-114531888D01*
X76860400Y-109001167D01*
X77389097Y-109001167D01*
X77420824Y-109108967D01*
X77425417Y-109120335D01*
X77511304Y-109284622D01*
X77518018Y-109294883D01*
X77634180Y-109439359D01*
X77642758Y-109448119D01*
X77784770Y-109567281D01*
X77794884Y-109574207D01*
X77957342Y-109663518D01*
X77968606Y-109668346D01*
X78145316Y-109724402D01*
X78157303Y-109726950D01*
X78300461Y-109743007D01*
X78307485Y-109743400D01*
X78489685Y-109743400D01*
X78504924Y-109738925D01*
X78506129Y-109737535D01*
X78507800Y-109729852D01*
X78507801Y-109007515D01*
X78503326Y-108992276D01*
X78501936Y-108991071D01*
X78494253Y-108989400D01*
X77403748Y-108989399D01*
X77390217Y-108993372D01*
X77389097Y-109001167D01*
X76860400Y-109001167D01*
X76860400Y-108478195D01*
X77390214Y-108478195D01*
X77396970Y-108481400D01*
X78489685Y-108481401D01*
X78504924Y-108476926D01*
X78506129Y-108475536D01*
X78507800Y-108467853D01*
X78507801Y-107745515D01*
X78503326Y-107730276D01*
X78501936Y-107729071D01*
X78494253Y-107727400D01*
X78313888Y-107727400D01*
X78307740Y-107727701D01*
X78171174Y-107741091D01*
X78159139Y-107743474D01*
X77981676Y-107797054D01*
X77970334Y-107801729D01*
X77806656Y-107888757D01*
X77796440Y-107895544D01*
X77652781Y-108012710D01*
X77644077Y-108021354D01*
X77525914Y-108164188D01*
X77519054Y-108174359D01*
X77430882Y-108337431D01*
X77426132Y-108348730D01*
X77390420Y-108464093D01*
X77390214Y-108478195D01*
X76860400Y-108478195D01*
X76860400Y-77540404D01*
X88817006Y-77540404D01*
X88821475Y-77555624D01*
X88822865Y-77556829D01*
X88830548Y-77558500D01*
X89527885Y-77558501D01*
X89543124Y-77554026D01*
X89544329Y-77552636D01*
X89546000Y-77544953D01*
X89546000Y-77540385D01*
X90053999Y-77540385D01*
X90058474Y-77555624D01*
X90059864Y-77556829D01*
X90067547Y-77558500D01*
X90764885Y-77558501D01*
X90780124Y-77554026D01*
X90781329Y-77552636D01*
X90782551Y-77547016D01*
X90781781Y-77540404D01*
X93809806Y-77540404D01*
X93814275Y-77555624D01*
X93815665Y-77556829D01*
X93823348Y-77558500D01*
X94520685Y-77558501D01*
X94535924Y-77554026D01*
X94537129Y-77552636D01*
X94538800Y-77544953D01*
X94538800Y-77540385D01*
X95046799Y-77540385D01*
X95051274Y-77555624D01*
X95052664Y-77556829D01*
X95060347Y-77558500D01*
X95757685Y-77558501D01*
X95772924Y-77554026D01*
X95774129Y-77552636D01*
X95775351Y-77547016D01*
X95762022Y-77432682D01*
X95758678Y-77418535D01*
X95705843Y-77272979D01*
X95699335Y-77259984D01*
X95614435Y-77130490D01*
X95605111Y-77119338D01*
X95492702Y-77012852D01*
X95481055Y-77004139D01*
X95347160Y-76926366D01*
X95333835Y-76920572D01*
X95184817Y-76875439D01*
X95172192Y-76872991D01*
X95107863Y-76867249D01*
X95102272Y-76867000D01*
X95064915Y-76867000D01*
X95049676Y-76871475D01*
X95048471Y-76872865D01*
X95046800Y-76880548D01*
X95046799Y-77540385D01*
X94538800Y-77540385D01*
X94538801Y-76885115D01*
X94534326Y-76869876D01*
X94532936Y-76868671D01*
X94525253Y-76867000D01*
X94497327Y-76867000D01*
X94490023Y-76867425D01*
X94375482Y-76880778D01*
X94361335Y-76884122D01*
X94215779Y-76936957D01*
X94202784Y-76943465D01*
X94073290Y-77028365D01*
X94062138Y-77037689D01*
X93955652Y-77150098D01*
X93946939Y-77161745D01*
X93869166Y-77295640D01*
X93863372Y-77308965D01*
X93818239Y-77457983D01*
X93815791Y-77470608D01*
X93810049Y-77534937D01*
X93809806Y-77540404D01*
X90781781Y-77540404D01*
X90769222Y-77432682D01*
X90765878Y-77418535D01*
X90713043Y-77272979D01*
X90706535Y-77259984D01*
X90621635Y-77130490D01*
X90612311Y-77119338D01*
X90499902Y-77012852D01*
X90488255Y-77004139D01*
X90354360Y-76926366D01*
X90341035Y-76920572D01*
X90192017Y-76875439D01*
X90179392Y-76872991D01*
X90115063Y-76867249D01*
X90109472Y-76867000D01*
X90072115Y-76867000D01*
X90056876Y-76871475D01*
X90055671Y-76872865D01*
X90054000Y-76880548D01*
X90053999Y-77540385D01*
X89546000Y-77540385D01*
X89546001Y-76885115D01*
X89541526Y-76869876D01*
X89540136Y-76868671D01*
X89532453Y-76867000D01*
X89504527Y-76867000D01*
X89497223Y-76867425D01*
X89382682Y-76880778D01*
X89368535Y-76884122D01*
X89222979Y-76936957D01*
X89209984Y-76943465D01*
X89080490Y-77028365D01*
X89069338Y-77037689D01*
X88962852Y-77150098D01*
X88954139Y-77161745D01*
X88876366Y-77295640D01*
X88870572Y-77308965D01*
X88825439Y-77457983D01*
X88822991Y-77470608D01*
X88817249Y-77534937D01*
X88817006Y-77540404D01*
X76860400Y-77540404D01*
X76860400Y-76421348D01*
X113503400Y-76421348D01*
X113503400Y-76526543D01*
X113503561Y-76531050D01*
X113508140Y-76595069D01*
X113510526Y-76608291D01*
X113547219Y-76733258D01*
X113554633Y-76749492D01*
X113623826Y-76857160D01*
X113635512Y-76870647D01*
X113732240Y-76954462D01*
X113747248Y-76964107D01*
X113863675Y-77017277D01*
X113880788Y-77022302D01*
X114011954Y-77041161D01*
X114020895Y-77041800D01*
X114744285Y-77041800D01*
X114759524Y-77037325D01*
X114760729Y-77035935D01*
X114762400Y-77028252D01*
X114762400Y-76425915D01*
X114761059Y-76421348D01*
X115270400Y-76421348D01*
X115270400Y-77023685D01*
X115274875Y-77038924D01*
X115276265Y-77040129D01*
X115283948Y-77041800D01*
X116014143Y-77041800D01*
X116018650Y-77041639D01*
X116082669Y-77037060D01*
X116095891Y-77034674D01*
X116220858Y-76997981D01*
X116237092Y-76990567D01*
X116344760Y-76921374D01*
X116358247Y-76909688D01*
X116442062Y-76812960D01*
X116451707Y-76797952D01*
X116504877Y-76681525D01*
X116509902Y-76664412D01*
X116528761Y-76533246D01*
X116529400Y-76524303D01*
X116529400Y-76425915D01*
X116528059Y-76421348D01*
X120503400Y-76421348D01*
X120503400Y-76526543D01*
X120503561Y-76531050D01*
X120508140Y-76595069D01*
X120510526Y-76608291D01*
X120547219Y-76733258D01*
X120554633Y-76749492D01*
X120623826Y-76857160D01*
X120635512Y-76870647D01*
X120732240Y-76954462D01*
X120747248Y-76964107D01*
X120863675Y-77017277D01*
X120880788Y-77022302D01*
X121011954Y-77041161D01*
X121020895Y-77041800D01*
X121744285Y-77041800D01*
X121759524Y-77037325D01*
X121760729Y-77035935D01*
X121762400Y-77028252D01*
X121762400Y-76425915D01*
X121761059Y-76421348D01*
X122270400Y-76421348D01*
X122270400Y-77023685D01*
X122274875Y-77038924D01*
X122276265Y-77040129D01*
X122283948Y-77041800D01*
X123014143Y-77041800D01*
X123018650Y-77041639D01*
X123082669Y-77037060D01*
X123095891Y-77034674D01*
X123220858Y-76997981D01*
X123237092Y-76990567D01*
X123344760Y-76921374D01*
X123358247Y-76909688D01*
X123442062Y-76812960D01*
X123451707Y-76797952D01*
X123504877Y-76681525D01*
X123509902Y-76664412D01*
X123528761Y-76533246D01*
X123529400Y-76524303D01*
X123529400Y-76425915D01*
X123524925Y-76410676D01*
X123523535Y-76409471D01*
X123515852Y-76407800D01*
X122288515Y-76407800D01*
X122273276Y-76412275D01*
X122272071Y-76413665D01*
X122270400Y-76421348D01*
X121761059Y-76421348D01*
X121757925Y-76410676D01*
X121756535Y-76409471D01*
X121748852Y-76407800D01*
X120521515Y-76407800D01*
X120506276Y-76412275D01*
X120505071Y-76413665D01*
X120503400Y-76421348D01*
X116528059Y-76421348D01*
X116524925Y-76410676D01*
X116523535Y-76409471D01*
X116515852Y-76407800D01*
X115288515Y-76407800D01*
X115273276Y-76412275D01*
X115272071Y-76413665D01*
X115270400Y-76421348D01*
X114761059Y-76421348D01*
X114757925Y-76410676D01*
X114756535Y-76409471D01*
X114748852Y-76407800D01*
X113521515Y-76407800D01*
X113506276Y-76412275D01*
X113505071Y-76413665D01*
X113503400Y-76421348D01*
X76860400Y-76421348D01*
X76860400Y-75783295D01*
X113503400Y-75783295D01*
X113503400Y-75881685D01*
X113507875Y-75896924D01*
X113509265Y-75898129D01*
X113516948Y-75899800D01*
X114744285Y-75899800D01*
X114759524Y-75895325D01*
X114760729Y-75893935D01*
X114762400Y-75886252D01*
X114762400Y-75283915D01*
X114761059Y-75279348D01*
X115270400Y-75279348D01*
X115270400Y-75881685D01*
X115274875Y-75896924D01*
X115276265Y-75898129D01*
X115283948Y-75899800D01*
X116511285Y-75899800D01*
X116526524Y-75895325D01*
X116527729Y-75893935D01*
X116529400Y-75886252D01*
X116529400Y-75783295D01*
X120503400Y-75783295D01*
X120503400Y-75881685D01*
X120507875Y-75896924D01*
X120509265Y-75898129D01*
X120516948Y-75899800D01*
X121744285Y-75899800D01*
X121759524Y-75895325D01*
X121760729Y-75893935D01*
X121762400Y-75886252D01*
X121762400Y-75283915D01*
X121761059Y-75279348D01*
X122270400Y-75279348D01*
X122270400Y-75881685D01*
X122274875Y-75896924D01*
X122276265Y-75898129D01*
X122283948Y-75899800D01*
X123511285Y-75899800D01*
X123526524Y-75895325D01*
X123527729Y-75893935D01*
X123529400Y-75886252D01*
X123529400Y-75781057D01*
X123529239Y-75776550D01*
X123524660Y-75712531D01*
X123522274Y-75699309D01*
X123485581Y-75574342D01*
X123478167Y-75558108D01*
X123408974Y-75450440D01*
X123397288Y-75436953D01*
X123300560Y-75353138D01*
X123285552Y-75343493D01*
X123169125Y-75290323D01*
X123152012Y-75285298D01*
X123020846Y-75266439D01*
X123011905Y-75265800D01*
X122288515Y-75265800D01*
X122273276Y-75270275D01*
X122272071Y-75271665D01*
X122270400Y-75279348D01*
X121761059Y-75279348D01*
X121757925Y-75268676D01*
X121756535Y-75267471D01*
X121748852Y-75265800D01*
X121018657Y-75265800D01*
X121014150Y-75265961D01*
X120950131Y-75270540D01*
X120936909Y-75272926D01*
X120811942Y-75309619D01*
X120795708Y-75317033D01*
X120688040Y-75386226D01*
X120674553Y-75397912D01*
X120590738Y-75494640D01*
X120581093Y-75509648D01*
X120527923Y-75626075D01*
X120522898Y-75643188D01*
X120504039Y-75774354D01*
X120503400Y-75783295D01*
X116529400Y-75783295D01*
X116529400Y-75781057D01*
X116529239Y-75776550D01*
X116524660Y-75712531D01*
X116522274Y-75699309D01*
X116485581Y-75574342D01*
X116478167Y-75558108D01*
X116408974Y-75450440D01*
X116397288Y-75436953D01*
X116300560Y-75353138D01*
X116285552Y-75343493D01*
X116169125Y-75290323D01*
X116152012Y-75285298D01*
X116020846Y-75266439D01*
X116011905Y-75265800D01*
X115288515Y-75265800D01*
X115273276Y-75270275D01*
X115272071Y-75271665D01*
X115270400Y-75279348D01*
X114761059Y-75279348D01*
X114757925Y-75268676D01*
X114756535Y-75267471D01*
X114748852Y-75265800D01*
X114018657Y-75265800D01*
X114014150Y-75265961D01*
X113950131Y-75270540D01*
X113936909Y-75272926D01*
X113811942Y-75309619D01*
X113795708Y-75317033D01*
X113688040Y-75386226D01*
X113674553Y-75397912D01*
X113590738Y-75494640D01*
X113581093Y-75509648D01*
X113527923Y-75626075D01*
X113522898Y-75643188D01*
X113504039Y-75774354D01*
X113503400Y-75783295D01*
X76860400Y-75783295D01*
X76860400Y-73926000D01*
X76880402Y-73857879D01*
X76934058Y-73811386D01*
X76986400Y-73800000D01*
X132944600Y-73800000D01*
X133012721Y-73820002D01*
G37*
%TD.AperFunction*%
%TA.AperFunction,Conductor*%
G36*
X84323317Y-98446502D02*
G01*
X84344291Y-98463405D01*
X84668234Y-98787348D01*
X84675289Y-98796177D01*
X84675734Y-98795798D01*
X84681553Y-98802635D01*
X84686342Y-98810225D01*
X84710015Y-98831132D01*
X84724242Y-98843697D01*
X84729929Y-98849043D01*
X84742080Y-98861194D01*
X84745667Y-98863882D01*
X84751075Y-98867936D01*
X84758908Y-98874313D01*
X84793769Y-98905101D01*
X84801895Y-98908916D01*
X84805066Y-98910999D01*
X84818006Y-98918775D01*
X84821360Y-98920611D01*
X84828546Y-98925997D01*
X84844415Y-98931946D01*
X84872098Y-98942324D01*
X84881411Y-98946249D01*
X84923506Y-98966012D01*
X84932378Y-98967393D01*
X84936037Y-98968512D01*
X84950644Y-98972343D01*
X84954346Y-98973157D01*
X84962751Y-98976308D01*
X84980099Y-98977597D01*
X85009127Y-98979754D01*
X85019175Y-98980908D01*
X85028438Y-98982350D01*
X85028439Y-98982350D01*
X85033255Y-98983100D01*
X85049472Y-98983100D01*
X85058809Y-98983446D01*
X85105681Y-98986929D01*
X85114457Y-98985056D01*
X85123414Y-98984445D01*
X85123419Y-98984525D01*
X85136918Y-98983100D01*
X86905000Y-98983100D01*
X86973121Y-99003102D01*
X87019614Y-99056758D01*
X87031000Y-99109100D01*
X87031001Y-99719104D01*
X87029745Y-99730336D01*
X87030329Y-99730383D01*
X87029609Y-99739334D01*
X87027628Y-99748088D01*
X87028184Y-99757047D01*
X87030759Y-99798553D01*
X87031001Y-99806355D01*
X87031001Y-99823542D01*
X87031637Y-99827982D01*
X87032593Y-99834662D01*
X87033622Y-99844712D01*
X87034778Y-99863342D01*
X87036503Y-99891137D01*
X87039551Y-99899579D01*
X87040316Y-99903275D01*
X87043982Y-99917979D01*
X87045046Y-99921619D01*
X87046319Y-99930505D01*
X87050033Y-99938674D01*
X87050035Y-99938680D01*
X87065565Y-99972835D01*
X87069377Y-99982198D01*
X87085170Y-100025945D01*
X87090466Y-100033194D01*
X87092247Y-100036544D01*
X87099873Y-100049595D01*
X87101924Y-100052802D01*
X87105641Y-100060977D01*
X87111503Y-100067780D01*
X87135995Y-100096204D01*
X87142281Y-100104119D01*
X87150692Y-100115633D01*
X87162157Y-100127098D01*
X87168515Y-100133945D01*
X87199198Y-100169554D01*
X87206732Y-100174438D01*
X87213495Y-100180337D01*
X87213442Y-100180398D01*
X87223995Y-100188936D01*
X88796108Y-101761049D01*
X88803167Y-101769882D01*
X88803612Y-101769503D01*
X88809430Y-101776339D01*
X88814220Y-101783931D01*
X88820948Y-101789873D01*
X88852129Y-101817411D01*
X88857816Y-101822757D01*
X88869959Y-101834900D01*
X88873546Y-101837588D01*
X88878942Y-101841632D01*
X88886784Y-101848017D01*
X88921647Y-101878807D01*
X88929772Y-101882622D01*
X88932948Y-101884708D01*
X88945884Y-101892481D01*
X88949238Y-101894317D01*
X88956424Y-101899703D01*
X88999976Y-101916030D01*
X89009289Y-101919955D01*
X89051384Y-101939718D01*
X89060256Y-101941099D01*
X89063915Y-101942218D01*
X89078522Y-101946049D01*
X89082224Y-101946863D01*
X89090629Y-101950014D01*
X89112510Y-101951640D01*
X89137005Y-101953460D01*
X89147053Y-101954614D01*
X89156316Y-101956056D01*
X89156317Y-101956056D01*
X89161133Y-101956806D01*
X89177350Y-101956806D01*
X89186687Y-101957152D01*
X89233559Y-101960635D01*
X89242335Y-101958762D01*
X89251292Y-101958151D01*
X89251297Y-101958231D01*
X89264796Y-101956806D01*
X91104295Y-101956806D01*
X91172416Y-101976808D01*
X91189095Y-101989613D01*
X91201048Y-102000489D01*
X91234995Y-102031379D01*
X91383966Y-102112263D01*
X91547931Y-102155279D01*
X91636159Y-102156665D01*
X91709825Y-102157822D01*
X91709828Y-102157822D01*
X91717423Y-102157941D01*
X91776519Y-102144406D01*
X91875255Y-102121793D01*
X91875259Y-102121792D01*
X91882658Y-102120097D01*
X91889442Y-102116685D01*
X91896591Y-102114111D01*
X91897406Y-102116375D01*
X91955715Y-102105733D01*
X92021362Y-102132769D01*
X92061971Y-102191005D01*
X92068500Y-102231038D01*
X92068500Y-103290122D01*
X92068498Y-103290152D01*
X92068493Y-103290167D01*
X92068493Y-103417033D01*
X92075293Y-103437961D01*
X92079905Y-103457175D01*
X92083347Y-103478905D01*
X92087849Y-103487741D01*
X92093334Y-103498507D01*
X92100898Y-103516767D01*
X92104633Y-103528262D01*
X92104635Y-103528265D01*
X92107698Y-103537693D01*
X92113525Y-103545713D01*
X92120629Y-103555491D01*
X92130957Y-103572346D01*
X92135778Y-103581806D01*
X92140944Y-103591946D01*
X92230653Y-103681656D01*
X92230667Y-103681663D01*
X92230695Y-103681687D01*
X94943196Y-106394189D01*
X94977222Y-106456501D01*
X94980101Y-106483284D01*
X94980100Y-108895321D01*
X94960098Y-108963442D01*
X94943195Y-108984416D01*
X94738616Y-109188995D01*
X94676304Y-109223021D01*
X94649521Y-109225900D01*
X94368835Y-109225900D01*
X94300714Y-109205898D01*
X94261981Y-109166670D01*
X94208598Y-109081239D01*
X94204865Y-109075265D01*
X94124040Y-108993874D01*
X94083292Y-108952840D01*
X94083288Y-108952837D01*
X94078329Y-108947843D01*
X94061505Y-108937166D01*
X93932662Y-108855399D01*
X93932658Y-108855397D01*
X93926708Y-108851621D01*
X93757537Y-108791382D01*
X93579223Y-108770120D01*
X93572220Y-108770856D01*
X93572219Y-108770856D01*
X93528410Y-108775460D01*
X93400631Y-108788890D01*
X93393963Y-108791160D01*
X93237302Y-108844492D01*
X93237299Y-108844493D01*
X93230635Y-108846762D01*
X93077685Y-108940857D01*
X93072654Y-108945783D01*
X93072651Y-108945786D01*
X93016098Y-109001167D01*
X92949382Y-109066500D01*
X92911210Y-109125732D01*
X92890185Y-109158356D01*
X92836470Y-109204780D01*
X92784274Y-109216100D01*
X92409151Y-109216100D01*
X92341030Y-109196098D01*
X92308602Y-109166033D01*
X92251814Y-109090833D01*
X92156359Y-109031730D01*
X92144887Y-109029586D01*
X92144886Y-109029585D01*
X92051725Y-109012170D01*
X92051723Y-109012170D01*
X92046000Y-109011100D01*
X90486000Y-109011100D01*
X90484559Y-109011167D01*
X90484542Y-109011167D01*
X90470442Y-109011819D01*
X90457812Y-109012403D01*
X90349827Y-109043128D01*
X90260233Y-109110786D01*
X90201130Y-109206241D01*
X90198986Y-109217713D01*
X90198985Y-109217714D01*
X90182938Y-109303557D01*
X90180500Y-109316600D01*
X90180500Y-109966600D01*
X90181803Y-109994788D01*
X90189039Y-110020218D01*
X90205889Y-110079441D01*
X90205301Y-110149505D01*
X90201130Y-110156241D01*
X90198985Y-110167716D01*
X90197743Y-110174359D01*
X90165566Y-110237645D01*
X90156141Y-110246657D01*
X90141472Y-110259297D01*
X90136588Y-110266831D01*
X90130689Y-110273594D01*
X90130629Y-110273541D01*
X90122088Y-110284097D01*
X90072820Y-110333365D01*
X90010508Y-110367391D01*
X89939693Y-110362326D01*
X89882857Y-110319779D01*
X89858046Y-110253260D01*
X89854260Y-110200330D01*
X89851874Y-110187109D01*
X89815181Y-110062142D01*
X89807767Y-110045908D01*
X89738574Y-109938240D01*
X89726888Y-109924753D01*
X89694988Y-109897112D01*
X89656604Y-109837386D01*
X89651500Y-109801887D01*
X89651500Y-109316600D01*
X89651236Y-109310875D01*
X89650533Y-109295684D01*
X89650197Y-109288412D01*
X89619472Y-109180427D01*
X89551814Y-109090833D01*
X89456359Y-109031730D01*
X89444887Y-109029586D01*
X89444886Y-109029585D01*
X89351725Y-109012170D01*
X89351723Y-109012170D01*
X89346000Y-109011100D01*
X87786000Y-109011100D01*
X87784559Y-109011167D01*
X87784542Y-109011167D01*
X87770442Y-109011819D01*
X87757812Y-109012403D01*
X87649827Y-109043128D01*
X87560233Y-109110786D01*
X87530779Y-109158356D01*
X87510161Y-109191656D01*
X87501130Y-109206241D01*
X87498984Y-109217719D01*
X87498182Y-109219790D01*
X87454921Y-109276084D01*
X87449558Y-109279377D01*
X87446723Y-109280298D01*
X87435555Y-109288412D01*
X87428925Y-109293229D01*
X87412070Y-109303557D01*
X87401311Y-109309039D01*
X87401309Y-109309040D01*
X87392470Y-109313544D01*
X87302761Y-109403253D01*
X87302754Y-109403268D01*
X87302739Y-109403285D01*
X86904138Y-109801887D01*
X86699430Y-110006595D01*
X86637117Y-110040620D01*
X86566302Y-110035556D01*
X86509466Y-109993009D01*
X86490580Y-109945964D01*
X86487859Y-109946632D01*
X86486048Y-109939257D01*
X86485135Y-109931715D01*
X86465178Y-109878900D01*
X86427902Y-109780250D01*
X86427901Y-109780248D01*
X86425217Y-109773145D01*
X86420918Y-109766890D01*
X86420916Y-109766886D01*
X86333505Y-109639703D01*
X86333504Y-109639701D01*
X86329203Y-109633444D01*
X86322962Y-109627883D01*
X86241608Y-109555400D01*
X86202638Y-109520679D01*
X86052829Y-109441359D01*
X85888423Y-109400063D01*
X85880825Y-109400023D01*
X85880823Y-109400023D01*
X85807792Y-109399641D01*
X85718912Y-109399176D01*
X85711533Y-109400948D01*
X85711529Y-109400948D01*
X85561461Y-109436976D01*
X85561457Y-109436977D01*
X85554082Y-109438748D01*
X85547337Y-109442229D01*
X85547338Y-109442229D01*
X85411303Y-109512442D01*
X85403450Y-109516495D01*
X85397728Y-109521487D01*
X85397726Y-109521488D01*
X85358852Y-109555400D01*
X85275711Y-109627928D01*
X85234200Y-109686992D01*
X85201308Y-109733793D01*
X85178240Y-109766615D01*
X85161392Y-109809829D01*
X85118014Y-109866028D01*
X85051135Y-109889856D01*
X84981991Y-109873743D01*
X84961489Y-109859283D01*
X84958937Y-109857072D01*
X84951252Y-109855400D01*
X83844915Y-109855399D01*
X83829676Y-109859874D01*
X83828471Y-109861264D01*
X83826800Y-109868946D01*
X83826800Y-109878900D01*
X83806798Y-109947021D01*
X83753142Y-109993514D01*
X83700800Y-110004900D01*
X83652801Y-110004900D01*
X83584680Y-109984898D01*
X83538187Y-109931242D01*
X83526801Y-109878900D01*
X83526801Y-109433400D01*
X83546803Y-109365279D01*
X83600459Y-109318786D01*
X83652801Y-109307400D01*
X83700800Y-109307400D01*
X83768921Y-109327402D01*
X83815414Y-109381058D01*
X83826800Y-109433400D01*
X83826800Y-109537285D01*
X83831275Y-109552524D01*
X83832665Y-109553729D01*
X83840348Y-109555400D01*
X84946685Y-109555401D01*
X84961924Y-109550926D01*
X84963129Y-109549536D01*
X84964071Y-109545205D01*
X84960060Y-109489131D01*
X84957674Y-109475909D01*
X84920981Y-109350942D01*
X84913567Y-109334708D01*
X84844374Y-109227040D01*
X84832688Y-109213553D01*
X84735960Y-109129738D01*
X84720952Y-109120093D01*
X84604525Y-109066923D01*
X84587411Y-109061898D01*
X84524911Y-109052912D01*
X84460330Y-109023419D01*
X84435860Y-108994758D01*
X84434996Y-108993369D01*
X84426630Y-108989400D01*
X83183915Y-108989399D01*
X83168676Y-108993874D01*
X83167471Y-108995264D01*
X83165800Y-109002947D01*
X83165799Y-109657400D01*
X83145797Y-109725521D01*
X83092141Y-109772014D01*
X83039799Y-109783400D01*
X82971161Y-109783400D01*
X82903040Y-109763398D01*
X82879311Y-109743653D01*
X82876075Y-109740207D01*
X82871415Y-109733793D01*
X82749639Y-109633051D01*
X82730150Y-109623880D01*
X82677030Y-109576778D01*
X82657800Y-109509873D01*
X82657801Y-108989400D01*
X82657800Y-108989396D01*
X82657801Y-107745515D01*
X82653326Y-107730276D01*
X82651936Y-107729071D01*
X82644253Y-107727400D01*
X82313888Y-107727400D01*
X82307739Y-107727701D01*
X82173585Y-107740854D01*
X82103838Y-107727594D01*
X82052331Y-107678731D01*
X82035290Y-107615455D01*
X82035290Y-107541247D01*
X82055292Y-107473126D01*
X82072195Y-107452152D01*
X83733743Y-105790605D01*
X83796055Y-105756579D01*
X83822838Y-105753700D01*
X84112150Y-105753700D01*
X84116395Y-105753118D01*
X84116402Y-105753118D01*
X84208121Y-105740554D01*
X84208124Y-105740553D01*
X84216630Y-105739388D01*
X84347225Y-105682875D01*
X84353906Y-105677465D01*
X84451133Y-105598732D01*
X84451134Y-105598731D01*
X84457811Y-105593324D01*
X84462787Y-105586322D01*
X84462789Y-105586320D01*
X84535266Y-105484334D01*
X84535267Y-105484332D01*
X84540241Y-105477333D01*
X84557179Y-105430288D01*
X84585872Y-105350593D01*
X84585873Y-105350590D01*
X84588444Y-105343448D01*
X84594900Y-105282022D01*
X84594900Y-104685450D01*
X84591421Y-104660049D01*
X84581754Y-104589479D01*
X84581753Y-104589476D01*
X84580588Y-104580970D01*
X84535035Y-104475703D01*
X84527489Y-104458264D01*
X84527488Y-104458263D01*
X84524075Y-104450375D01*
X84518071Y-104442960D01*
X84439931Y-104346466D01*
X84434524Y-104339789D01*
X84318533Y-104257358D01*
X84261804Y-104236934D01*
X84191796Y-104211729D01*
X84191792Y-104211728D01*
X84184648Y-104209156D01*
X84123222Y-104202700D01*
X83660300Y-104202700D01*
X83592179Y-104182698D01*
X83545686Y-104129042D01*
X83534300Y-104076700D01*
X83534300Y-100518437D01*
X83554302Y-100450316D01*
X83607958Y-100403823D01*
X83678232Y-100393719D01*
X83742812Y-100423213D01*
X83749393Y-100429340D01*
X84321608Y-101001556D01*
X84810585Y-101490533D01*
X84844611Y-101552845D01*
X84847490Y-101579628D01*
X84847491Y-107645015D01*
X84827489Y-107713136D01*
X84804320Y-107739964D01*
X84748701Y-107788483D01*
X84651230Y-107927170D01*
X84589655Y-108085104D01*
X84588664Y-108092632D01*
X84575232Y-108194657D01*
X84546509Y-108259584D01*
X84487244Y-108298675D01*
X84416253Y-108299520D01*
X84356074Y-108261850D01*
X84338648Y-108236584D01*
X84312299Y-108186182D01*
X84305582Y-108175917D01*
X84189420Y-108031441D01*
X84180842Y-108022681D01*
X84038830Y-107903519D01*
X84028716Y-107896593D01*
X83866258Y-107807282D01*
X83854994Y-107802454D01*
X83678284Y-107746398D01*
X83666297Y-107743850D01*
X83523139Y-107727793D01*
X83516115Y-107727400D01*
X83183915Y-107727400D01*
X83168676Y-107731875D01*
X83167471Y-107733265D01*
X83165800Y-107740948D01*
X83165799Y-108463285D01*
X83170274Y-108478524D01*
X83171664Y-108479729D01*
X83179347Y-108481400D01*
X84419852Y-108481401D01*
X84463864Y-108468478D01*
X84475170Y-108461211D01*
X84546167Y-108461208D01*
X84605895Y-108499589D01*
X84628999Y-108538804D01*
X84641079Y-108571812D01*
X84644385Y-108580845D01*
X84648621Y-108587148D01*
X84648621Y-108587149D01*
X84660429Y-108604721D01*
X84738930Y-108721543D01*
X84864307Y-108835628D01*
X85013278Y-108916512D01*
X85177243Y-108959528D01*
X85265471Y-108960914D01*
X85339137Y-108962071D01*
X85339140Y-108962071D01*
X85346735Y-108962190D01*
X85410827Y-108947511D01*
X85504567Y-108926042D01*
X85504571Y-108926041D01*
X85511970Y-108924346D01*
X85663408Y-108848181D01*
X85792306Y-108738091D01*
X85891224Y-108600432D01*
X85931763Y-108499589D01*
X85951616Y-108450205D01*
X85951617Y-108450203D01*
X85954451Y-108443152D01*
X85974518Y-108302151D01*
X85977754Y-108279414D01*
X85977754Y-108279411D01*
X85978335Y-108275330D01*
X85978490Y-108260555D01*
X85966828Y-108164188D01*
X85959038Y-108099813D01*
X85959038Y-108099812D01*
X85958125Y-108092270D01*
X85955417Y-108085104D01*
X85900892Y-107940805D01*
X85900891Y-107940803D01*
X85898207Y-107933700D01*
X85893908Y-107927445D01*
X85893906Y-107927441D01*
X85806495Y-107800258D01*
X85806494Y-107800256D01*
X85802193Y-107793999D01*
X85740671Y-107739185D01*
X85703115Y-107678935D01*
X85698490Y-107645109D01*
X85698490Y-101319621D01*
X85698290Y-101318359D01*
X85698190Y-101315808D01*
X85698190Y-101283845D01*
X85690785Y-101261055D01*
X85686168Y-101241823D01*
X85683971Y-101227952D01*
X85682420Y-101218158D01*
X85677920Y-101209326D01*
X85677919Y-101209323D01*
X85671537Y-101196798D01*
X85663972Y-101178535D01*
X85659632Y-101165178D01*
X85656568Y-101155747D01*
X85642485Y-101136363D01*
X85632153Y-101119504D01*
X85625772Y-101106980D01*
X85621272Y-101098148D01*
X85598670Y-101075546D01*
X85596938Y-101073673D01*
X85596186Y-101072638D01*
X84012595Y-99489048D01*
X83978570Y-99426736D01*
X83975690Y-99399953D01*
X83975690Y-98552500D01*
X83995692Y-98484379D01*
X84049348Y-98437886D01*
X84101690Y-98426500D01*
X84255196Y-98426500D01*
X84323317Y-98446502D01*
G37*
%TD.AperFunction*%
%TA.AperFunction,Conductor*%
G36*
X94028741Y-100733681D02*
G01*
X94056171Y-100768246D01*
X94068346Y-100790810D01*
X94069455Y-100791835D01*
X94093506Y-100853094D01*
X94093999Y-100864232D01*
X94093999Y-101117611D01*
X94095331Y-101122147D01*
X94095333Y-101193143D01*
X94083390Y-101220933D01*
X94008167Y-101350438D01*
X94002370Y-101363770D01*
X93957239Y-101512781D01*
X93954790Y-101525407D01*
X93949049Y-101589734D01*
X93948800Y-101595329D01*
X93948800Y-101632685D01*
X93953275Y-101647924D01*
X93954665Y-101649129D01*
X93962348Y-101650800D01*
X94640298Y-101650801D01*
X94640304Y-101650800D01*
X95022300Y-101650801D01*
X95090421Y-101670803D01*
X95136914Y-101724459D01*
X95148300Y-101776801D01*
X95148299Y-102869685D01*
X95152774Y-102884924D01*
X95154164Y-102886129D01*
X95159784Y-102887351D01*
X95274118Y-102874022D01*
X95288265Y-102870678D01*
X95433821Y-102817843D01*
X95446816Y-102811335D01*
X95576310Y-102726435D01*
X95587462Y-102717111D01*
X95693948Y-102604702D01*
X95702666Y-102593049D01*
X95709077Y-102582012D01*
X95760588Y-102533155D01*
X95830337Y-102519903D01*
X95890883Y-102544327D01*
X95891676Y-102543211D01*
X95915790Y-102560348D01*
X95959730Y-102616113D01*
X95968800Y-102663054D01*
X95968801Y-104423803D01*
X95948799Y-104491924D01*
X95944841Y-104497108D01*
X95945011Y-104497228D01*
X95891696Y-104573088D01*
X95847540Y-104635915D01*
X95785965Y-104793849D01*
X95784974Y-104801378D01*
X95776856Y-104863042D01*
X95763839Y-104961912D01*
X95782440Y-105130402D01*
X95784948Y-105137256D01*
X95781036Y-105208019D01*
X95739414Y-105265535D01*
X95673303Y-105291418D01*
X95603694Y-105277450D01*
X95573189Y-105254996D01*
X93356405Y-103038213D01*
X93322380Y-102975901D01*
X93319500Y-102949118D01*
X93319500Y-102172347D01*
X93948800Y-102172347D01*
X93948800Y-102200273D01*
X93949225Y-102207577D01*
X93962578Y-102322118D01*
X93965922Y-102336265D01*
X94018757Y-102481821D01*
X94025265Y-102494816D01*
X94110165Y-102624310D01*
X94119489Y-102635462D01*
X94231898Y-102741948D01*
X94243545Y-102750661D01*
X94377438Y-102828433D01*
X94390770Y-102834230D01*
X94539781Y-102879361D01*
X94552407Y-102881810D01*
X94616734Y-102887551D01*
X94622204Y-102887794D01*
X94637424Y-102883325D01*
X94638629Y-102881935D01*
X94640300Y-102874252D01*
X94640301Y-102176915D01*
X94635826Y-102161676D01*
X94634436Y-102160471D01*
X94626753Y-102158800D01*
X93966915Y-102158799D01*
X93951676Y-102163274D01*
X93950471Y-102164664D01*
X93948800Y-102172347D01*
X93319500Y-102172347D01*
X93319500Y-101126274D01*
X93339502Y-101058153D01*
X93393158Y-101011660D01*
X93463432Y-101001556D01*
X93522204Y-101026312D01*
X93568444Y-101061793D01*
X93582630Y-101069983D01*
X93709183Y-101122403D01*
X93725003Y-101126642D01*
X93776040Y-101133361D01*
X93790222Y-101131150D01*
X93794000Y-101117993D01*
X93794000Y-100862362D01*
X93814002Y-100794241D01*
X93827476Y-100776833D01*
X93829955Y-100774151D01*
X93829957Y-100774148D01*
X93837024Y-100766503D01*
X93840632Y-100758342D01*
X93894086Y-100712948D01*
X93964457Y-100703546D01*
X94028741Y-100733681D01*
G37*
%TD.AperFunction*%
%TA.AperFunction,Conductor*%
G36*
X82474355Y-90649072D02*
G01*
X82520848Y-90702728D01*
X82530952Y-90773002D01*
X82501458Y-90837582D01*
X82494393Y-90845092D01*
X82492376Y-90847067D01*
X82484582Y-90854700D01*
X82480763Y-90860625D01*
X82480762Y-90860627D01*
X82436087Y-90929949D01*
X82387304Y-91005646D01*
X82384895Y-91012266D01*
X82384893Y-91012269D01*
X82373710Y-91042995D01*
X82325885Y-91174393D01*
X82303379Y-91352553D01*
X82304066Y-91359560D01*
X82304066Y-91359563D01*
X82308410Y-91403866D01*
X82320902Y-91531273D01*
X82377585Y-91701669D01*
X82381234Y-91707694D01*
X82462493Y-91841867D01*
X82470611Y-91855272D01*
X82475502Y-91860337D01*
X82475503Y-91860338D01*
X82524460Y-91911034D01*
X82595355Y-91984448D01*
X82601247Y-91988303D01*
X82601251Y-91988307D01*
X82626294Y-92004694D01*
X82672343Y-92058731D01*
X82683301Y-92110126D01*
X82683300Y-103869228D01*
X82663298Y-103937349D01*
X82609642Y-103983842D01*
X82559560Y-103993572D01*
X82556673Y-103994420D01*
X82556673Y-103995200D01*
X82554015Y-103995200D01*
X82538776Y-103999675D01*
X82537571Y-104001065D01*
X82535900Y-104008748D01*
X82535899Y-105106200D01*
X82515897Y-105174321D01*
X82462241Y-105220814D01*
X82409899Y-105232200D01*
X82153900Y-105232199D01*
X82085779Y-105212197D01*
X82039286Y-105158541D01*
X82027900Y-105106199D01*
X82027901Y-104013315D01*
X82023426Y-103998076D01*
X82022036Y-103996871D01*
X82016416Y-103995649D01*
X81902082Y-104008978D01*
X81887935Y-104012322D01*
X81742379Y-104065157D01*
X81729384Y-104071665D01*
X81599890Y-104156565D01*
X81588738Y-104165889D01*
X81482252Y-104278298D01*
X81473539Y-104289945D01*
X81392092Y-104430165D01*
X81389632Y-104428736D01*
X81352476Y-104473226D01*
X81284731Y-104494463D01*
X81216258Y-104475703D01*
X81168797Y-104422901D01*
X81164002Y-104411476D01*
X81151047Y-104375786D01*
X81144535Y-104362783D01*
X81059635Y-104233289D01*
X81050311Y-104222137D01*
X80937902Y-104115651D01*
X80926255Y-104106938D01*
X80792360Y-104029165D01*
X80779035Y-104023371D01*
X80630016Y-103978238D01*
X80617393Y-103975790D01*
X80553066Y-103970049D01*
X80547596Y-103969806D01*
X80532376Y-103974275D01*
X80531171Y-103975665D01*
X80529500Y-103983348D01*
X80529500Y-105080800D01*
X80509498Y-105148921D01*
X80455842Y-105195414D01*
X80403500Y-105206800D01*
X80147500Y-105206800D01*
X80079379Y-105186798D01*
X80032886Y-105133142D01*
X80021500Y-105080800D01*
X80021500Y-103987915D01*
X80017025Y-103972676D01*
X80015635Y-103971471D01*
X80010015Y-103970249D01*
X79895681Y-103983578D01*
X79881534Y-103986922D01*
X79735978Y-104039757D01*
X79722983Y-104046265D01*
X79593489Y-104131165D01*
X79582337Y-104140489D01*
X79475851Y-104252898D01*
X79467135Y-104264548D01*
X79460726Y-104275583D01*
X79409216Y-104324443D01*
X79339468Y-104337698D01*
X79278916Y-104313274D01*
X79278124Y-104314388D01*
X79169135Y-104236934D01*
X79162133Y-104231958D01*
X79121819Y-104217444D01*
X79064501Y-104175549D01*
X79038932Y-104109317D01*
X79038500Y-104098893D01*
X79038500Y-93573437D01*
X79058502Y-93505316D01*
X79075405Y-93484342D01*
X80444770Y-92114978D01*
X80507082Y-92080952D01*
X80550529Y-92079180D01*
X80578891Y-92082964D01*
X80653531Y-92092923D01*
X80660542Y-92092285D01*
X80660546Y-92092285D01*
X80825347Y-92077287D01*
X80832368Y-92076648D01*
X80904214Y-92053304D01*
X80996457Y-92023333D01*
X80996460Y-92023332D01*
X81003156Y-92021156D01*
X81157405Y-91929205D01*
X81244354Y-91846404D01*
X81282345Y-91810226D01*
X81282347Y-91810224D01*
X81287449Y-91805365D01*
X81386825Y-91655792D01*
X81450594Y-91487920D01*
X81453241Y-91469088D01*
X81475035Y-91314014D01*
X81475035Y-91314009D01*
X81475586Y-91310091D01*
X81475900Y-91287600D01*
X81462110Y-91164659D01*
X81474394Y-91094733D01*
X81498230Y-91061518D01*
X81893775Y-90665974D01*
X81956087Y-90631949D01*
X81982870Y-90629070D01*
X82406234Y-90629070D01*
X82474355Y-90649072D01*
G37*
%TD.AperFunction*%
%TA.AperFunction,Conductor*%
G36*
X94168563Y-97949618D02*
G01*
X94189538Y-97966521D01*
X94404586Y-98181570D01*
X94438611Y-98243882D01*
X94441490Y-98270665D01*
X94441491Y-98463405D01*
X94441491Y-98588027D01*
X94421489Y-98656147D01*
X94367834Y-98702640D01*
X94297560Y-98712745D01*
X94267273Y-98704436D01*
X94178817Y-98667797D01*
X94162997Y-98663558D01*
X94111960Y-98656839D01*
X94097778Y-98659050D01*
X94094000Y-98672207D01*
X94094000Y-98927838D01*
X94073998Y-98995959D01*
X94060524Y-99013367D01*
X94050975Y-99023697D01*
X94049448Y-99022286D01*
X94005508Y-99059597D01*
X93935137Y-99068998D01*
X93870854Y-99038861D01*
X93834481Y-98983403D01*
X93834383Y-98983100D01*
X93827578Y-98962157D01*
X93821748Y-98954132D01*
X93821746Y-98954129D01*
X93818064Y-98949061D01*
X93794001Y-98875002D01*
X93794001Y-98672589D01*
X93788435Y-98653634D01*
X93754070Y-98600161D01*
X93754070Y-98529164D01*
X93764550Y-98503964D01*
X93765543Y-98502158D01*
X93769972Y-98495994D01*
X93833199Y-98338714D01*
X93853610Y-98195296D01*
X93856502Y-98174976D01*
X93856502Y-98174973D01*
X93857083Y-98170892D01*
X93857238Y-98156117D01*
X93851253Y-98106659D01*
X93846908Y-98070753D01*
X93858581Y-98000723D01*
X93906263Y-97948121D01*
X93971995Y-97929616D01*
X94100442Y-97929616D01*
X94168563Y-97949618D01*
G37*
%TD.AperFunction*%
%TA.AperFunction,Conductor*%
G36*
X94822770Y-92578879D02*
G01*
X94865032Y-92635927D01*
X94869742Y-92706767D01*
X94861999Y-92730310D01*
X94825454Y-92812973D01*
X94818500Y-92868020D01*
X94818500Y-92900875D01*
X94798498Y-92968996D01*
X94781595Y-92989970D01*
X94773198Y-92998367D01*
X94689804Y-93107049D01*
X94681617Y-93121230D01*
X94629197Y-93247783D01*
X94624958Y-93263603D01*
X94618239Y-93314640D01*
X94620450Y-93328822D01*
X94633607Y-93332600D01*
X94889238Y-93332600D01*
X94957359Y-93352602D01*
X94974767Y-93366076D01*
X94977449Y-93368555D01*
X94977452Y-93368557D01*
X94985097Y-93375624D01*
X94993258Y-93379232D01*
X95038652Y-93432686D01*
X95048054Y-93503057D01*
X95017919Y-93567341D01*
X94983354Y-93594771D01*
X94981553Y-93595743D01*
X94960790Y-93606946D01*
X94959765Y-93608055D01*
X94898506Y-93632106D01*
X94887368Y-93632599D01*
X94633989Y-93632599D01*
X94620218Y-93636643D01*
X94618189Y-93650182D01*
X94624958Y-93701596D01*
X94629197Y-93717416D01*
X94681617Y-93843969D01*
X94689804Y-93858150D01*
X94773198Y-93966832D01*
X94781595Y-93975229D01*
X94815621Y-94037541D01*
X94818500Y-94064324D01*
X94818500Y-94087638D01*
X94819354Y-94092768D01*
X94827736Y-94143124D01*
X94834015Y-94180850D01*
X94838960Y-94190015D01*
X94840816Y-94195435D01*
X94843959Y-94266362D01*
X94836855Y-94287185D01*
X94825454Y-94312973D01*
X94818500Y-94368020D01*
X94818500Y-94587638D01*
X94819354Y-94592768D01*
X94829556Y-94654058D01*
X94834015Y-94680850D01*
X94838960Y-94690015D01*
X94840816Y-94695435D01*
X94843959Y-94766362D01*
X94836855Y-94787185D01*
X94825454Y-94812973D01*
X94818500Y-94868020D01*
X94818500Y-95087638D01*
X94820903Y-95102075D01*
X94830323Y-95158666D01*
X94834015Y-95180850D01*
X94838960Y-95190015D01*
X94840816Y-95195435D01*
X94843959Y-95266362D01*
X94836855Y-95287185D01*
X94825454Y-95312973D01*
X94818500Y-95368020D01*
X94818500Y-95587638D01*
X94819354Y-95592768D01*
X94827736Y-95643124D01*
X94834015Y-95680850D01*
X94838960Y-95690015D01*
X94840816Y-95695435D01*
X94843959Y-95766362D01*
X94836855Y-95787185D01*
X94825454Y-95812973D01*
X94818500Y-95868020D01*
X94818500Y-96087638D01*
X94819354Y-96092768D01*
X94832059Y-96169097D01*
X94834015Y-96180850D01*
X94838960Y-96190015D01*
X94840816Y-96195435D01*
X94843959Y-96266362D01*
X94836855Y-96287185D01*
X94825454Y-96312973D01*
X94818500Y-96368020D01*
X94818500Y-96587638D01*
X94819354Y-96592768D01*
X94831741Y-96667186D01*
X94834015Y-96680850D01*
X94838960Y-96690015D01*
X94840816Y-96695435D01*
X94843959Y-96766362D01*
X94836855Y-96787185D01*
X94825454Y-96812973D01*
X94818500Y-96868020D01*
X94818500Y-97087638D01*
X94816104Y-97087638D01*
X94803834Y-97147372D01*
X94754218Y-97198154D01*
X94685024Y-97214050D01*
X94618220Y-97190013D01*
X94603458Y-97177370D01*
X94581922Y-97155834D01*
X94560557Y-97144948D01*
X94543704Y-97134620D01*
X94534493Y-97127928D01*
X94524322Y-97120538D01*
X94501536Y-97113134D01*
X94483273Y-97105570D01*
X94461912Y-97094686D01*
X94452122Y-97093135D01*
X94452115Y-97093133D01*
X94438231Y-97090934D01*
X94419019Y-97086322D01*
X94396224Y-97078916D01*
X94364262Y-97078916D01*
X94361711Y-97078816D01*
X94360449Y-97078616D01*
X92807208Y-97078616D01*
X92805946Y-97078816D01*
X92803395Y-97078916D01*
X92771432Y-97078916D01*
X92762004Y-97081980D01*
X92762001Y-97081980D01*
X92748643Y-97086321D01*
X92729409Y-97090938D01*
X92705745Y-97094686D01*
X92696913Y-97099186D01*
X92696910Y-97099187D01*
X92684385Y-97105569D01*
X92666126Y-97113132D01*
X92643334Y-97120538D01*
X92635311Y-97126367D01*
X92635309Y-97126368D01*
X92623952Y-97134620D01*
X92607095Y-97144951D01*
X92585735Y-97155834D01*
X92563133Y-97178436D01*
X92561260Y-97180168D01*
X92560225Y-97180920D01*
X92393494Y-97347651D01*
X92331182Y-97381677D01*
X92260367Y-97376612D01*
X92203531Y-97334065D01*
X92186533Y-97303092D01*
X92177903Y-97280252D01*
X92177901Y-97280248D01*
X92175217Y-97273145D01*
X92170918Y-97266890D01*
X92170916Y-97266886D01*
X92083505Y-97139703D01*
X92083504Y-97139701D01*
X92079203Y-97133444D01*
X92061278Y-97117473D01*
X91986628Y-97050963D01*
X91952638Y-97020679D01*
X91802829Y-96941359D01*
X91638423Y-96900063D01*
X91630825Y-96900023D01*
X91630823Y-96900023D01*
X91557792Y-96899641D01*
X91468912Y-96899176D01*
X91461533Y-96900948D01*
X91461529Y-96900948D01*
X91311461Y-96936976D01*
X91311457Y-96936977D01*
X91304082Y-96938748D01*
X91153450Y-97016495D01*
X91147728Y-97021487D01*
X91147726Y-97021488D01*
X91095333Y-97067193D01*
X91025711Y-97127928D01*
X91006098Y-97155834D01*
X90948094Y-97238366D01*
X90928240Y-97266615D01*
X90866665Y-97424549D01*
X90860813Y-97468996D01*
X90855330Y-97510650D01*
X90844539Y-97592612D01*
X90863140Y-97761102D01*
X90875407Y-97794622D01*
X90916918Y-97908055D01*
X90921395Y-97920290D01*
X90925631Y-97926593D01*
X90925631Y-97926594D01*
X90997083Y-98032926D01*
X91018501Y-98103202D01*
X91018500Y-98731100D01*
X90998498Y-98799221D01*
X90944842Y-98845714D01*
X90892500Y-98857100D01*
X90838962Y-98857100D01*
X90833411Y-98858024D01*
X90756022Y-98870905D01*
X90756021Y-98870905D01*
X90745750Y-98872615D01*
X90736585Y-98877560D01*
X90731165Y-98879416D01*
X90660238Y-98882559D01*
X90639415Y-98875455D01*
X90613627Y-98864054D01*
X90558580Y-98857100D01*
X90338962Y-98857100D01*
X90333411Y-98858024D01*
X90256022Y-98870905D01*
X90256021Y-98870905D01*
X90245750Y-98872615D01*
X90236585Y-98877560D01*
X90231165Y-98879416D01*
X90160238Y-98882559D01*
X90139415Y-98875455D01*
X90113627Y-98864054D01*
X90058580Y-98857100D01*
X89838962Y-98857100D01*
X89833411Y-98858024D01*
X89756022Y-98870905D01*
X89756021Y-98870905D01*
X89745750Y-98872615D01*
X89736585Y-98877560D01*
X89731165Y-98879416D01*
X89660238Y-98882559D01*
X89639415Y-98875455D01*
X89613627Y-98864054D01*
X89558580Y-98857100D01*
X89338962Y-98857100D01*
X89333411Y-98858024D01*
X89256022Y-98870905D01*
X89256021Y-98870905D01*
X89245750Y-98872615D01*
X89236585Y-98877560D01*
X89231165Y-98879416D01*
X89160238Y-98882559D01*
X89139415Y-98875455D01*
X89113627Y-98864054D01*
X89058580Y-98857100D01*
X88975031Y-98857100D01*
X88906910Y-98837098D01*
X88860417Y-98783442D01*
X88850313Y-98713168D01*
X88879807Y-98648588D01*
X88885936Y-98642005D01*
X89743592Y-97784350D01*
X90748748Y-96779194D01*
X90757578Y-96772139D01*
X90757198Y-96771692D01*
X90764029Y-96765878D01*
X90771625Y-96761086D01*
X90805098Y-96723185D01*
X90810443Y-96717499D01*
X90822594Y-96705348D01*
X90827473Y-96698838D01*
X90829336Y-96696353D01*
X90835717Y-96688515D01*
X90837102Y-96686947D01*
X90866501Y-96653659D01*
X90870316Y-96645533D01*
X90872399Y-96642362D01*
X90880175Y-96629422D01*
X90882011Y-96626068D01*
X90887397Y-96618882D01*
X90903724Y-96575329D01*
X90907650Y-96566014D01*
X90912723Y-96555209D01*
X90927412Y-96523922D01*
X90928793Y-96515050D01*
X90929912Y-96511391D01*
X90933742Y-96496788D01*
X90934557Y-96493083D01*
X90937708Y-96484677D01*
X90941155Y-96438292D01*
X90942306Y-96428265D01*
X90944500Y-96414173D01*
X90944500Y-96397945D01*
X90944846Y-96388609D01*
X90946414Y-96367500D01*
X90948328Y-96341747D01*
X90946455Y-96332971D01*
X90945844Y-96324014D01*
X90945924Y-96324009D01*
X90944500Y-96310515D01*
X90944500Y-93578023D01*
X90964502Y-93509902D01*
X91018158Y-93463409D01*
X91088432Y-93453305D01*
X91153012Y-93482799D01*
X91159595Y-93488928D01*
X91559082Y-93888415D01*
X91593108Y-93950727D01*
X91594909Y-93993954D01*
X91584687Y-94071597D01*
X91603288Y-94240087D01*
X91624515Y-94298092D01*
X91656824Y-94386379D01*
X91661543Y-94399275D01*
X91665779Y-94405578D01*
X91665779Y-94405579D01*
X91670184Y-94412134D01*
X91756088Y-94539973D01*
X91881465Y-94654058D01*
X92030436Y-94734942D01*
X92194401Y-94777958D01*
X92282629Y-94779344D01*
X92356295Y-94780501D01*
X92356298Y-94780501D01*
X92363893Y-94780620D01*
X92423859Y-94766886D01*
X92521725Y-94744472D01*
X92521729Y-94744471D01*
X92529128Y-94742776D01*
X92680566Y-94666611D01*
X92763291Y-94595957D01*
X92803692Y-94561451D01*
X92803693Y-94561450D01*
X92809464Y-94556521D01*
X92908382Y-94418862D01*
X92930401Y-94364089D01*
X92968774Y-94268635D01*
X92968775Y-94268633D01*
X92971609Y-94261582D01*
X92984483Y-94171124D01*
X92994912Y-94097844D01*
X92994912Y-94097841D01*
X92995493Y-94093760D01*
X92995648Y-94078985D01*
X92979439Y-93945043D01*
X92976196Y-93918243D01*
X92976196Y-93918242D01*
X92975283Y-93910700D01*
X92971082Y-93899582D01*
X92918050Y-93759235D01*
X92918049Y-93759233D01*
X92915365Y-93752130D01*
X92911066Y-93745875D01*
X92911064Y-93745871D01*
X92823653Y-93618688D01*
X92823652Y-93618686D01*
X92819351Y-93612429D01*
X92803856Y-93598623D01*
X92752500Y-93552867D01*
X92692786Y-93499664D01*
X92542977Y-93420344D01*
X92378571Y-93379048D01*
X92370973Y-93379008D01*
X92370971Y-93379008D01*
X92323260Y-93378759D01*
X92304354Y-93378660D01*
X92236339Y-93358302D01*
X92215918Y-93341757D01*
X91906405Y-93032244D01*
X91872379Y-92969932D01*
X91869500Y-92943149D01*
X91869500Y-92734100D01*
X91889502Y-92665979D01*
X91943158Y-92619486D01*
X91995500Y-92608100D01*
X92049038Y-92608100D01*
X92090817Y-92601146D01*
X92131978Y-92594295D01*
X92131979Y-92594295D01*
X92142250Y-92592585D01*
X92151415Y-92587640D01*
X92156835Y-92585784D01*
X92227762Y-92582641D01*
X92248585Y-92589745D01*
X92274373Y-92601146D01*
X92329420Y-92608100D01*
X92549038Y-92608100D01*
X92590817Y-92601146D01*
X92631978Y-92594295D01*
X92631979Y-92594295D01*
X92642250Y-92592585D01*
X92651415Y-92587640D01*
X92656835Y-92585784D01*
X92727762Y-92582641D01*
X92748585Y-92589745D01*
X92774373Y-92601146D01*
X92829420Y-92608100D01*
X93049038Y-92608100D01*
X93090817Y-92601146D01*
X93131978Y-92594295D01*
X93131979Y-92594295D01*
X93142250Y-92592585D01*
X93151415Y-92587640D01*
X93156835Y-92585784D01*
X93227762Y-92582641D01*
X93248585Y-92589745D01*
X93274373Y-92601146D01*
X93329420Y-92608100D01*
X93549038Y-92608100D01*
X93590817Y-92601146D01*
X93631978Y-92594295D01*
X93631979Y-92594295D01*
X93642250Y-92592585D01*
X93651415Y-92587640D01*
X93656835Y-92585784D01*
X93727762Y-92582641D01*
X93748585Y-92589745D01*
X93774373Y-92601146D01*
X93829420Y-92608100D01*
X94049038Y-92608100D01*
X94090817Y-92601146D01*
X94131978Y-92594295D01*
X94131979Y-92594295D01*
X94142250Y-92592585D01*
X94151415Y-92587640D01*
X94156835Y-92585784D01*
X94227762Y-92582641D01*
X94248585Y-92589745D01*
X94274373Y-92601146D01*
X94329420Y-92608100D01*
X94549038Y-92608100D01*
X94642250Y-92592585D01*
X94651416Y-92587639D01*
X94651420Y-92587638D01*
X94686926Y-92568480D01*
X94756374Y-92553736D01*
X94822770Y-92578879D01*
G37*
%TD.AperFunction*%
%TA.AperFunction,Conductor*%
G36*
X86435621Y-93428102D02*
G01*
X86482114Y-93481758D01*
X86493500Y-93534100D01*
X86493500Y-93587638D01*
X86496564Y-93606044D01*
X86506832Y-93667733D01*
X86509015Y-93680850D01*
X86513960Y-93690015D01*
X86515816Y-93695435D01*
X86518959Y-93766362D01*
X86511855Y-93787185D01*
X86500454Y-93812973D01*
X86493500Y-93868020D01*
X86493500Y-94087638D01*
X86494354Y-94092768D01*
X86502736Y-94143124D01*
X86509015Y-94180850D01*
X86513960Y-94190015D01*
X86515816Y-94195435D01*
X86518959Y-94266362D01*
X86511855Y-94287185D01*
X86500454Y-94312973D01*
X86493500Y-94368020D01*
X86493500Y-94587638D01*
X86494354Y-94592768D01*
X86504556Y-94654058D01*
X86509015Y-94680850D01*
X86513960Y-94690015D01*
X86515816Y-94695435D01*
X86518959Y-94766362D01*
X86511855Y-94787185D01*
X86500454Y-94812973D01*
X86493500Y-94868020D01*
X86493500Y-95087638D01*
X86495903Y-95102075D01*
X86505323Y-95158666D01*
X86509015Y-95180850D01*
X86513960Y-95190015D01*
X86515816Y-95195435D01*
X86518959Y-95266362D01*
X86511855Y-95287185D01*
X86500454Y-95312973D01*
X86493500Y-95368020D01*
X86493500Y-95587638D01*
X86494354Y-95592768D01*
X86502736Y-95643124D01*
X86509015Y-95680850D01*
X86513960Y-95690015D01*
X86515816Y-95695435D01*
X86518959Y-95766362D01*
X86511855Y-95787185D01*
X86500454Y-95812973D01*
X86493500Y-95868020D01*
X86493500Y-96087638D01*
X86494354Y-96092768D01*
X86507059Y-96169097D01*
X86509015Y-96180850D01*
X86513960Y-96190015D01*
X86515816Y-96195435D01*
X86518959Y-96266362D01*
X86511855Y-96287185D01*
X86500454Y-96312973D01*
X86493500Y-96368020D01*
X86493500Y-96587638D01*
X86494354Y-96592768D01*
X86506741Y-96667186D01*
X86509015Y-96680850D01*
X86513960Y-96690015D01*
X86515816Y-96695435D01*
X86518959Y-96766362D01*
X86511855Y-96787185D01*
X86500454Y-96812973D01*
X86493500Y-96868020D01*
X86493500Y-97087638D01*
X86494354Y-97092768D01*
X86506691Y-97166886D01*
X86509015Y-97180850D01*
X86513960Y-97190015D01*
X86515816Y-97195435D01*
X86518959Y-97266362D01*
X86511855Y-97287185D01*
X86500454Y-97312973D01*
X86493500Y-97368020D01*
X86493500Y-97400875D01*
X86473498Y-97468996D01*
X86456595Y-97489970D01*
X86448198Y-97498367D01*
X86364804Y-97607049D01*
X86356617Y-97621230D01*
X86304197Y-97747783D01*
X86299958Y-97763603D01*
X86286000Y-97869622D01*
X86284745Y-97869457D01*
X86262194Y-97931017D01*
X86205609Y-97973896D01*
X86160886Y-97982100D01*
X85330804Y-97982100D01*
X85262683Y-97962098D01*
X85241709Y-97945195D01*
X85089605Y-97793091D01*
X85055579Y-97730779D01*
X85052700Y-97703996D01*
X85052700Y-97433250D01*
X85051509Y-97424549D01*
X85039554Y-97337279D01*
X85039553Y-97337276D01*
X85038388Y-97328770D01*
X84981875Y-97198175D01*
X84915728Y-97116489D01*
X84888403Y-97050963D01*
X84900843Y-96981064D01*
X84944565Y-96931824D01*
X84996708Y-96897638D01*
X85007863Y-96888311D01*
X85114349Y-96775902D01*
X85123062Y-96764255D01*
X85200835Y-96630360D01*
X85206629Y-96617035D01*
X85251762Y-96468016D01*
X85254210Y-96455393D01*
X85259951Y-96391066D01*
X85260194Y-96385596D01*
X85255725Y-96370376D01*
X85254335Y-96369171D01*
X85246652Y-96367500D01*
X84149200Y-96367499D01*
X84081079Y-96347497D01*
X84034586Y-96293841D01*
X84023200Y-96241499D01*
X84023201Y-95985500D01*
X84043203Y-95917379D01*
X84096859Y-95870886D01*
X84149201Y-95859500D01*
X85242085Y-95859501D01*
X85257324Y-95855026D01*
X85258529Y-95853636D01*
X85259751Y-95848016D01*
X85246422Y-95733684D01*
X85243077Y-95719532D01*
X85190244Y-95573981D01*
X85183734Y-95560982D01*
X85098835Y-95431489D01*
X85089511Y-95420337D01*
X84977102Y-95313851D01*
X84965455Y-95305138D01*
X84831560Y-95227365D01*
X84818229Y-95221568D01*
X84749252Y-95200677D01*
X84689854Y-95161788D01*
X84660911Y-95096959D01*
X84671611Y-95026773D01*
X84696681Y-94990992D01*
X86242668Y-93445005D01*
X86304980Y-93410979D01*
X86331763Y-93408100D01*
X86367500Y-93408100D01*
X86435621Y-93428102D01*
G37*
%TD.AperFunction*%
%TA.AperFunction,Conductor*%
G36*
X97663521Y-93503102D02*
G01*
X97710014Y-93556758D01*
X97719121Y-93598623D01*
X97725875Y-93621624D01*
X97727265Y-93622829D01*
X97734948Y-93624500D01*
X98450398Y-93624501D01*
X98450404Y-93624500D01*
X99679177Y-93624501D01*
X99739298Y-93639770D01*
X99839714Y-93694291D01*
X99839719Y-93694293D01*
X99846390Y-93697915D01*
X100010355Y-93740931D01*
X100094601Y-93742254D01*
X100155379Y-93743209D01*
X100223177Y-93764278D01*
X100242495Y-93780098D01*
X101476792Y-95014396D01*
X101477827Y-95015148D01*
X101479700Y-95016880D01*
X101502302Y-95039482D01*
X101501319Y-95040465D01*
X101538335Y-95088473D01*
X101544407Y-95159209D01*
X101510013Y-95223275D01*
X100178079Y-96555209D01*
X100115767Y-96589235D01*
X100044952Y-96584170D01*
X99985144Y-96537482D01*
X99961976Y-96503773D01*
X99899613Y-96413034D01*
X99882678Y-96397945D01*
X99806972Y-96330494D01*
X99773048Y-96300269D01*
X99623239Y-96220949D01*
X99458833Y-96179653D01*
X99451235Y-96179613D01*
X99451233Y-96179613D01*
X99378202Y-96179231D01*
X99289322Y-96178766D01*
X99281940Y-96180538D01*
X99281934Y-96180539D01*
X99245705Y-96189237D01*
X99174797Y-96185691D01*
X99117063Y-96144372D01*
X99091203Y-96081857D01*
X99086048Y-96039257D01*
X99086047Y-96039255D01*
X99085135Y-96031715D01*
X99048093Y-95933685D01*
X99027902Y-95880250D01*
X99027901Y-95880248D01*
X99025217Y-95873145D01*
X99020918Y-95866890D01*
X99020916Y-95866886D01*
X98933505Y-95739703D01*
X98933504Y-95739701D01*
X98929203Y-95733444D01*
X98913589Y-95719532D01*
X98890362Y-95698838D01*
X98802638Y-95620679D01*
X98652829Y-95541359D01*
X98488423Y-95500063D01*
X98480825Y-95500023D01*
X98480823Y-95500023D01*
X98352631Y-95499352D01*
X98284616Y-95478994D01*
X98264196Y-95462449D01*
X97461151Y-94659404D01*
X97460120Y-94658655D01*
X97458250Y-94656926D01*
X97435642Y-94634318D01*
X97414277Y-94623432D01*
X97397424Y-94613104D01*
X97378042Y-94599022D01*
X97355256Y-94591618D01*
X97336993Y-94584054D01*
X97315632Y-94573170D01*
X97305842Y-94571619D01*
X97305835Y-94571617D01*
X97291951Y-94569418D01*
X97272739Y-94564806D01*
X97249944Y-94557400D01*
X97217982Y-94557400D01*
X97215431Y-94557300D01*
X97214169Y-94557100D01*
X97020500Y-94557100D01*
X96952379Y-94537098D01*
X96905886Y-94483442D01*
X96894500Y-94431100D01*
X96894500Y-94377562D01*
X96887661Y-94336476D01*
X96880695Y-94294622D01*
X96880695Y-94294621D01*
X96878985Y-94284350D01*
X96874040Y-94275185D01*
X96872184Y-94269765D01*
X96869041Y-94198838D01*
X96876145Y-94178015D01*
X96887546Y-94152227D01*
X96888587Y-94143984D01*
X97721849Y-94143984D01*
X97735178Y-94258318D01*
X97738522Y-94272465D01*
X97791357Y-94418021D01*
X97797865Y-94431016D01*
X97882765Y-94560510D01*
X97892089Y-94571662D01*
X98004498Y-94678148D01*
X98016145Y-94686861D01*
X98150040Y-94764634D01*
X98163365Y-94770428D01*
X98312383Y-94815561D01*
X98325008Y-94818009D01*
X98389337Y-94823751D01*
X98394928Y-94824000D01*
X98432285Y-94824000D01*
X98447524Y-94819525D01*
X98448729Y-94818135D01*
X98450400Y-94810452D01*
X98450400Y-94805885D01*
X98958399Y-94805885D01*
X98962874Y-94821124D01*
X98964264Y-94822329D01*
X98971947Y-94824000D01*
X98999873Y-94824000D01*
X99007177Y-94823575D01*
X99121718Y-94810222D01*
X99135865Y-94806878D01*
X99281421Y-94754043D01*
X99294416Y-94747535D01*
X99423910Y-94662635D01*
X99435062Y-94653311D01*
X99541548Y-94540902D01*
X99550261Y-94529255D01*
X99628034Y-94395360D01*
X99633828Y-94382035D01*
X99678961Y-94233017D01*
X99681409Y-94220392D01*
X99687151Y-94156063D01*
X99687394Y-94150596D01*
X99682925Y-94135376D01*
X99681535Y-94134171D01*
X99673852Y-94132500D01*
X98976515Y-94132499D01*
X98961276Y-94136974D01*
X98960071Y-94138364D01*
X98958400Y-94146047D01*
X98958399Y-94805885D01*
X98450400Y-94805885D01*
X98450401Y-94150615D01*
X98445926Y-94135376D01*
X98444536Y-94134171D01*
X98436853Y-94132500D01*
X97739515Y-94132499D01*
X97724276Y-94136974D01*
X97723071Y-94138364D01*
X97721849Y-94143984D01*
X96888587Y-94143984D01*
X96894500Y-94097180D01*
X96894500Y-94064324D01*
X96914502Y-93996204D01*
X96931405Y-93975230D01*
X96939802Y-93966833D01*
X97023196Y-93858151D01*
X97031383Y-93843970D01*
X97083803Y-93717417D01*
X97088042Y-93701597D01*
X97102000Y-93595578D01*
X97103255Y-93595743D01*
X97125806Y-93534183D01*
X97182391Y-93491304D01*
X97227114Y-93483100D01*
X97595400Y-93483100D01*
X97663521Y-93503102D01*
G37*
%TD.AperFunction*%
%TD*%
M02*
