%TF.GenerationSoftware,KiCad,Pcbnew,5.99.0-912657dd23-1*%
%TF.CreationDate,2021-04-24T23:07:37+00:00*%
%TF.ProjectId,bigbutton,62696762-7574-4746-9f6e-2e6b69636164,rev?*%
%TF.SameCoordinates,Original*%
%TF.FileFunction,Soldermask,Bot*%
%TF.FilePolarity,Negative*%
%FSLAX46Y46*%
G04 Gerber Fmt 4.6, Leading zero omitted, Abs format (unit mm)*
G04 Created by KiCad (PCBNEW 5.99.0-912657dd23-1) date 2021-04-24 23:07:37*
%MOMM*%
%LPD*%
G01*
G04 APERTURE LIST*
G04 Aperture macros list*
%AMRoundRect*
0 Rectangle with rounded corners*
0 $1 Rounding radius*
0 $2 $3 $4 $5 $6 $7 $8 $9 X,Y pos of 4 corners*
0 Add a 4 corners polygon primitive as box body*
4,1,4,$2,$3,$4,$5,$6,$7,$8,$9,$2,$3,0*
0 Add four circle primitives for the rounded corners*
1,1,$1+$1,$2,$3,0*
1,1,$1+$1,$4,$5,0*
1,1,$1+$1,$6,$7,0*
1,1,$1+$1,$8,$9,0*
0 Add four rect primitives between the rounded corners*
20,1,$1+$1,$2,$3,$4,$5,0*
20,1,$1+$1,$4,$5,$6,$7,0*
20,1,$1+$1,$6,$7,$8,$9,0*
20,1,$1+$1,$8,$9,$2,$3,0*%
G04 Aperture macros list end*
%ADD10C,1.500000*%
%ADD11C,0.650000*%
%ADD12O,2.100000X1.000000*%
%ADD13O,1.800000X1.000000*%
%ADD14R,1.000000X1.000000*%
%ADD15O,1.000000X1.000000*%
%ADD16RoundRect,0.218750X0.256250X-0.218750X0.256250X0.218750X-0.256250X0.218750X-0.256250X-0.218750X0*%
%ADD17RoundRect,0.218750X-0.256250X0.218750X-0.256250X-0.218750X0.256250X-0.218750X0.256250X0.218750X0*%
%ADD18RoundRect,0.218750X-0.218750X-0.256250X0.218750X-0.256250X0.218750X0.256250X-0.218750X0.256250X0*%
%ADD19RoundRect,0.218750X0.218750X0.256250X-0.218750X0.256250X-0.218750X-0.256250X0.218750X-0.256250X0*%
%ADD20R,1.500000X1.000000*%
%ADD21C,4.000000*%
%ADD22C,1.700000*%
%ADD23C,2.200000*%
%ADD24R,0.650000X1.560000*%
%ADD25R,1.560000X0.650000*%
%ADD26C,13.800000*%
%ADD27O,5.800000X2.200000*%
%ADD28O,5.000000X2.600000*%
G04 APERTURE END LIST*
D10*
%TO.C,X1*%
X89789000Y-83700000D03*
X94789000Y-83700000D03*
%TD*%
D11*
%TO.C,J2*%
X82411800Y-115945400D03*
X82411800Y-110165400D03*
D12*
X82911800Y-117375400D03*
X82911800Y-108735400D03*
D13*
X78761800Y-108735400D03*
X78761800Y-117375400D03*
%TD*%
D14*
%TO.C,J1*%
X129997200Y-97256600D03*
D15*
X128727200Y-97256600D03*
X129997200Y-95986600D03*
X128727200Y-95986600D03*
X129997200Y-94716600D03*
X128727200Y-94716600D03*
X129997200Y-93446600D03*
X128727200Y-93446600D03*
X129997200Y-92176600D03*
X128727200Y-92176600D03*
%TD*%
D16*
%TO.C,C4*%
X93472000Y-109778900D03*
X93472000Y-108203900D03*
%TD*%
D17*
%TO.C,C12*%
X109804200Y-75553500D03*
X109804200Y-77128500D03*
%TD*%
D18*
%TO.C,C13*%
X78689100Y-81686400D03*
X80264100Y-81686400D03*
%TD*%
%TO.C,C14*%
X78638300Y-100838000D03*
X80213300Y-100838000D03*
%TD*%
D19*
%TO.C,C16*%
X99161700Y-134239000D03*
X97586700Y-134239000D03*
%TD*%
%TO.C,C17*%
X123596500Y-134416800D03*
X122021500Y-134416800D03*
%TD*%
D16*
%TO.C,C18*%
X123596400Y-106121300D03*
X123596400Y-104546300D03*
%TD*%
D17*
%TO.C,C19*%
X126542800Y-81166900D03*
X126542800Y-82741900D03*
%TD*%
D18*
%TO.C,C20*%
X88163300Y-111734600D03*
X89738300Y-111734600D03*
%TD*%
D20*
%TO.C,D2*%
X78550000Y-78600000D03*
X78550000Y-75400000D03*
X83450000Y-75400000D03*
X83450000Y-78600000D03*
%TD*%
%TO.C,D3*%
X78550000Y-106600000D03*
X78550000Y-103400000D03*
X83450000Y-103400000D03*
X83450000Y-106600000D03*
%TD*%
%TO.C,D4*%
X78550000Y-134600000D03*
X78550000Y-131400000D03*
X83450000Y-131400000D03*
X83450000Y-134600000D03*
%TD*%
%TO.C,D5*%
X102550000Y-134600000D03*
X102550000Y-131400000D03*
X107450000Y-131400000D03*
X107450000Y-134600000D03*
%TD*%
%TO.C,D6*%
X126550000Y-134600000D03*
X126550000Y-131400000D03*
X131450000Y-131400000D03*
X131450000Y-134600000D03*
%TD*%
%TO.C,D7*%
X126550000Y-106600000D03*
X126550000Y-103400000D03*
X131450000Y-103400000D03*
X131450000Y-106600000D03*
%TD*%
%TO.C,D8*%
X126550000Y-78600000D03*
X126550000Y-75400000D03*
X131450000Y-75400000D03*
X131450000Y-78600000D03*
%TD*%
D18*
%TO.C,C15*%
X80111500Y-129235200D03*
X81686500Y-129235200D03*
%TD*%
D21*
%TO.C,SW2*%
X102184200Y-122123200D03*
D22*
X97104200Y-122123200D03*
X107264200Y-122123200D03*
D23*
X99644200Y-117043200D03*
X105994200Y-119583200D03*
%TD*%
D20*
%TO.C,D1*%
X102550000Y-78600000D03*
X102550000Y-75400000D03*
X107450000Y-75400000D03*
X107450000Y-78600000D03*
%TD*%
D24*
%TO.C,U4*%
X104002800Y-83206600D03*
X104952800Y-83206600D03*
X105902800Y-83206600D03*
X105902800Y-85906600D03*
X104002800Y-85906600D03*
%TD*%
D25*
%TO.C,U5*%
X87804000Y-109941400D03*
X87804000Y-108991400D03*
X87804000Y-108041400D03*
X90504000Y-108041400D03*
X90504000Y-109941400D03*
%TD*%
D16*
%TO.C,C21*%
X96088200Y-109702700D03*
X96088200Y-108127700D03*
%TD*%
D26*
%TO.C,SW3*%
X105000000Y-105000000D03*
D27*
X115160000Y-125740000D03*
D28*
X89760000Y-115850000D03*
%TD*%
M02*
