%TF.GenerationSoftware,KiCad,Pcbnew,5.99.0-912657dd23-1*%
%TF.CreationDate,2021-04-24T23:07:36+00:00*%
%TF.ProjectId,bigbutton,62696762-7574-4746-9f6e-2e6b69636164,rev?*%
%TF.SameCoordinates,Original*%
%TF.FileFunction,Copper,L2,Bot*%
%TF.FilePolarity,Positive*%
%FSLAX46Y46*%
G04 Gerber Fmt 4.6, Leading zero omitted, Abs format (unit mm)*
G04 Created by KiCad (PCBNEW 5.99.0-912657dd23-1) date 2021-04-24 23:07:36*
%MOMM*%
%LPD*%
G01*
G04 APERTURE LIST*
G04 Aperture macros list*
%AMRoundRect*
0 Rectangle with rounded corners*
0 $1 Rounding radius*
0 $2 $3 $4 $5 $6 $7 $8 $9 X,Y pos of 4 corners*
0 Add a 4 corners polygon primitive as box body*
4,1,4,$2,$3,$4,$5,$6,$7,$8,$9,$2,$3,0*
0 Add four circle primitives for the rounded corners*
1,1,$1+$1,$2,$3,0*
1,1,$1+$1,$4,$5,0*
1,1,$1+$1,$6,$7,0*
1,1,$1+$1,$8,$9,0*
0 Add four rect primitives between the rounded corners*
20,1,$1+$1,$2,$3,$4,$5,0*
20,1,$1+$1,$4,$5,$6,$7,0*
20,1,$1+$1,$6,$7,$8,$9,0*
20,1,$1+$1,$8,$9,$2,$3,0*%
G04 Aperture macros list end*
%TA.AperFunction,ComponentPad*%
%ADD10C,1.500000*%
%TD*%
%TA.AperFunction,ComponentPad*%
%ADD11O,2.100000X1.000000*%
%TD*%
%TA.AperFunction,ComponentPad*%
%ADD12O,1.800000X1.000000*%
%TD*%
%TA.AperFunction,ComponentPad*%
%ADD13R,1.000000X1.000000*%
%TD*%
%TA.AperFunction,ComponentPad*%
%ADD14O,1.000000X1.000000*%
%TD*%
%TA.AperFunction,SMDPad,CuDef*%
%ADD15RoundRect,0.218750X0.256250X-0.218750X0.256250X0.218750X-0.256250X0.218750X-0.256250X-0.218750X0*%
%TD*%
%TA.AperFunction,SMDPad,CuDef*%
%ADD16RoundRect,0.218750X-0.256250X0.218750X-0.256250X-0.218750X0.256250X-0.218750X0.256250X0.218750X0*%
%TD*%
%TA.AperFunction,SMDPad,CuDef*%
%ADD17RoundRect,0.218750X-0.218750X-0.256250X0.218750X-0.256250X0.218750X0.256250X-0.218750X0.256250X0*%
%TD*%
%TA.AperFunction,SMDPad,CuDef*%
%ADD18RoundRect,0.218750X0.218750X0.256250X-0.218750X0.256250X-0.218750X-0.256250X0.218750X-0.256250X0*%
%TD*%
%TA.AperFunction,SMDPad,CuDef*%
%ADD19R,1.500000X1.000000*%
%TD*%
%TA.AperFunction,ComponentPad*%
%ADD20C,2.200000*%
%TD*%
%TA.AperFunction,SMDPad,CuDef*%
%ADD21R,0.650000X1.560000*%
%TD*%
%TA.AperFunction,SMDPad,CuDef*%
%ADD22R,1.560000X0.650000*%
%TD*%
%TA.AperFunction,WasherPad*%
%ADD23C,13.800000*%
%TD*%
%TA.AperFunction,ComponentPad*%
%ADD24O,5.800000X2.200000*%
%TD*%
%TA.AperFunction,ComponentPad*%
%ADD25O,5.000000X2.600000*%
%TD*%
%TA.AperFunction,ViaPad*%
%ADD26C,0.800000*%
%TD*%
%TA.AperFunction,Conductor*%
%ADD27C,0.250000*%
%TD*%
%TA.AperFunction,Conductor*%
%ADD28C,0.400000*%
%TD*%
G04 APERTURE END LIST*
D10*
%TO.P,X1,1*%
%TO.N,Net-(C10-Pad2)*%
X89789000Y-83700000D03*
%TO.P,X1,2*%
%TO.N,Net-(C9-Pad2)*%
X94789000Y-83700000D03*
%TD*%
D11*
%TO.P,J2,S1*%
%TO.N,GND*%
X82911800Y-117375400D03*
X82911800Y-108735400D03*
D12*
X78761800Y-108735400D03*
X78761800Y-117375400D03*
%TD*%
D13*
%TO.P,J1,1*%
%TO.N,+3V3*%
X129997200Y-97256600D03*
D14*
%TO.P,J1,2*%
%TO.N,/SWDIO*%
X128727200Y-97256600D03*
%TO.P,J1,3*%
%TO.N,GND*%
X129997200Y-95986600D03*
%TO.P,J1,4*%
%TO.N,/SWCLK*%
X128727200Y-95986600D03*
%TO.P,J1,5*%
%TO.N,GND*%
X129997200Y-94716600D03*
%TO.P,J1,6*%
%TO.N,Net-(J1-Pad6)*%
X128727200Y-94716600D03*
%TO.P,J1,7*%
%TO.N,Net-(J1-Pad7)*%
X129997200Y-93446600D03*
%TO.P,J1,8*%
%TO.N,Net-(J1-Pad8)*%
X128727200Y-93446600D03*
%TO.P,J1,9*%
%TO.N,GND*%
X129997200Y-92176600D03*
%TO.P,J1,10*%
%TO.N,/~RST*%
X128727200Y-92176600D03*
%TD*%
D15*
%TO.P,C4,1*%
%TO.N,+3V3*%
X93472000Y-109778900D03*
%TO.P,C4,2*%
%TO.N,GND*%
X93472000Y-108203900D03*
%TD*%
D16*
%TO.P,C12,1*%
%TO.N,+5V*%
X109804200Y-75553500D03*
%TO.P,C12,2*%
%TO.N,GND*%
X109804200Y-77128500D03*
%TD*%
D17*
%TO.P,C13,1*%
%TO.N,+5V*%
X78689100Y-81686400D03*
%TO.P,C13,2*%
%TO.N,GND*%
X80264100Y-81686400D03*
%TD*%
%TO.P,C14,1*%
%TO.N,+5V*%
X78638300Y-100838000D03*
%TO.P,C14,2*%
%TO.N,GND*%
X80213300Y-100838000D03*
%TD*%
D18*
%TO.P,C16,1*%
%TO.N,+5V*%
X99161700Y-134239000D03*
%TO.P,C16,2*%
%TO.N,GND*%
X97586700Y-134239000D03*
%TD*%
%TO.P,C17,1*%
%TO.N,+5V*%
X123596500Y-134416800D03*
%TO.P,C17,2*%
%TO.N,GND*%
X122021500Y-134416800D03*
%TD*%
D15*
%TO.P,C18,1*%
%TO.N,+5V*%
X123596400Y-106121300D03*
%TO.P,C18,2*%
%TO.N,GND*%
X123596400Y-104546300D03*
%TD*%
D16*
%TO.P,C19,1*%
%TO.N,+5V*%
X126542800Y-81166900D03*
%TO.P,C19,2*%
%TO.N,GND*%
X126542800Y-82741900D03*
%TD*%
D17*
%TO.P,C20,1*%
%TO.N,+5V*%
X88163300Y-111734600D03*
%TO.P,C20,2*%
%TO.N,GND*%
X89738300Y-111734600D03*
%TD*%
D19*
%TO.P,D2,1*%
%TO.N,+5V*%
X78550000Y-78600000D03*
%TO.P,D2,2*%
%TO.N,Net-(D2-Pad2)*%
X78550000Y-75400000D03*
%TO.P,D2,3*%
%TO.N,GND*%
X83450000Y-75400000D03*
%TO.P,D2,4*%
%TO.N,Net-(D1-Pad2)*%
X83450000Y-78600000D03*
%TD*%
%TO.P,D3,1*%
%TO.N,+5V*%
X78550000Y-106600000D03*
%TO.P,D3,2*%
%TO.N,Net-(D3-Pad2)*%
X78550000Y-103400000D03*
%TO.P,D3,3*%
%TO.N,GND*%
X83450000Y-103400000D03*
%TO.P,D3,4*%
%TO.N,Net-(D2-Pad2)*%
X83450000Y-106600000D03*
%TD*%
%TO.P,D4,1*%
%TO.N,+5V*%
X78550000Y-134600000D03*
%TO.P,D4,2*%
%TO.N,Net-(D4-Pad2)*%
X78550000Y-131400000D03*
%TO.P,D4,3*%
%TO.N,GND*%
X83450000Y-131400000D03*
%TO.P,D4,4*%
%TO.N,Net-(D3-Pad2)*%
X83450000Y-134600000D03*
%TD*%
%TO.P,D5,1*%
%TO.N,+5V*%
X102550000Y-134600000D03*
%TO.P,D5,2*%
%TO.N,Net-(D5-Pad2)*%
X102550000Y-131400000D03*
%TO.P,D5,3*%
%TO.N,GND*%
X107450000Y-131400000D03*
%TO.P,D5,4*%
%TO.N,Net-(D4-Pad2)*%
X107450000Y-134600000D03*
%TD*%
%TO.P,D6,1*%
%TO.N,+5V*%
X126550000Y-134600000D03*
%TO.P,D6,2*%
%TO.N,Net-(D6-Pad2)*%
X126550000Y-131400000D03*
%TO.P,D6,3*%
%TO.N,GND*%
X131450000Y-131400000D03*
%TO.P,D6,4*%
%TO.N,Net-(D5-Pad2)*%
X131450000Y-134600000D03*
%TD*%
%TO.P,D7,1*%
%TO.N,+5V*%
X126550000Y-106600000D03*
%TO.P,D7,2*%
%TO.N,Net-(D7-Pad2)*%
X126550000Y-103400000D03*
%TO.P,D7,3*%
%TO.N,GND*%
X131450000Y-103400000D03*
%TO.P,D7,4*%
%TO.N,Net-(D6-Pad2)*%
X131450000Y-106600000D03*
%TD*%
%TO.P,D8,1*%
%TO.N,+5V*%
X126550000Y-78600000D03*
%TO.P,D8,2*%
%TO.N,Net-(D8-Pad2)*%
X126550000Y-75400000D03*
%TO.P,D8,3*%
%TO.N,GND*%
X131450000Y-75400000D03*
%TO.P,D8,4*%
%TO.N,Net-(D7-Pad2)*%
X131450000Y-78600000D03*
%TD*%
D17*
%TO.P,C15,1*%
%TO.N,+5V*%
X80111500Y-129235200D03*
%TO.P,C15,2*%
%TO.N,GND*%
X81686500Y-129235200D03*
%TD*%
D20*
%TO.P,SW2,1*%
%TO.N,Net-(SW2-Pad1)*%
X99644200Y-117043200D03*
%TO.P,SW2,2*%
%TO.N,GND*%
X105994200Y-119583200D03*
%TD*%
D19*
%TO.P,D1,1*%
%TO.N,+5V*%
X102550000Y-78600000D03*
%TO.P,D1,2*%
%TO.N,Net-(D1-Pad2)*%
X102550000Y-75400000D03*
%TO.P,D1,3*%
%TO.N,GND*%
X107450000Y-75400000D03*
%TO.P,D1,4*%
%TO.N,Net-(D1-Pad4)*%
X107450000Y-78600000D03*
%TD*%
D21*
%TO.P,U4,1*%
%TO.N,Net-(U4-Pad1)*%
X104002800Y-83206600D03*
%TO.P,U4,2*%
%TO.N,/MCU_DOUT*%
X104952800Y-83206600D03*
%TO.P,U4,3*%
%TO.N,GND*%
X105902800Y-83206600D03*
%TO.P,U4,4*%
%TO.N,Net-(D1-Pad4)*%
X105902800Y-85906600D03*
%TO.P,U4,5*%
%TO.N,+5V*%
X104002800Y-85906600D03*
%TD*%
D22*
%TO.P,U5,1*%
%TO.N,+5V*%
X87804000Y-109941400D03*
%TO.P,U5,2*%
%TO.N,GND*%
X87804000Y-108991400D03*
%TO.P,U5,3*%
%TO.N,+5V*%
X87804000Y-108041400D03*
%TO.P,U5,4*%
%TO.N,Net-(U5-Pad4)*%
X90504000Y-108041400D03*
%TO.P,U5,5*%
%TO.N,+3V3*%
X90504000Y-109941400D03*
%TD*%
D15*
%TO.P,C21,1*%
%TO.N,+3V3*%
X96088200Y-109702700D03*
%TO.P,C21,2*%
%TO.N,GND*%
X96088200Y-108127700D03*
%TD*%
D23*
%TO.P,SW3,*%
%TO.N,*%
X105000000Y-105000000D03*
D24*
%TO.P,SW3,1*%
%TO.N,Net-(SW3-Pad1)*%
X115160000Y-125740000D03*
D25*
%TO.P,SW3,2*%
%TO.N,GND*%
X89760000Y-115850000D03*
%TD*%
D26*
%TO.N,GND*%
X95377000Y-103632000D03*
X89356738Y-110644354D03*
X86723830Y-109169729D03*
X110261400Y-115189000D03*
X89509600Y-105130600D03*
X80314800Y-102793800D03*
X83464400Y-76987400D03*
X80137000Y-79908400D03*
X119634000Y-121843800D03*
X119634000Y-113157000D03*
X94030800Y-98450400D03*
X85801200Y-96012000D03*
X82092800Y-98501200D03*
X93681800Y-94919800D03*
X114150000Y-83100000D03*
X87250000Y-86000000D03*
%TO.N,+3V3*%
X96469300Y-104969300D03*
X91643678Y-101456306D03*
X105300002Y-97500000D03*
X97200000Y-109700000D03*
X93000000Y-123400000D03*
%TO.N,+5V*%
X77300000Y-115300000D03*
X92800000Y-133600000D03*
X88100000Y-113200000D03*
X85800000Y-110100000D03*
%TO.N,Net-(D4-Pad2)*%
X81000000Y-132850000D03*
X104850000Y-134550000D03*
%TO.N,/I2C_SCL*%
X91550000Y-97600000D03*
X100106102Y-93041958D03*
%TO.N,/BOOT0*%
X106300000Y-95100000D03*
X98400000Y-96200000D03*
%TO.N,/SWCLK*%
X99370410Y-96879590D03*
%TO.N,/SWDIO*%
X93151738Y-98156117D03*
%TO.N,/MCU_DOUT*%
X89716990Y-95281351D03*
%TO.N,Net-(SW3-Pad1)*%
X85272990Y-108260555D03*
%TO.N,Net-(SW2-Pad1)*%
X88950800Y-93599000D03*
%TO.N,/~RST*%
X92290148Y-94078985D03*
%TD*%
D27*
%TO.N,GND*%
X80300800Y-100838000D02*
X80300800Y-100564600D01*
X83296200Y-92067326D02*
X83296200Y-99380000D01*
X120990209Y-133473009D02*
X104089837Y-133473009D01*
X130749201Y-96031495D02*
X130749201Y-97958201D01*
X110261400Y-115316000D02*
X110261400Y-115189000D01*
X107450000Y-75400000D02*
X107988200Y-75400000D01*
X119634000Y-120065800D02*
X119634000Y-113157000D01*
X89356738Y-109530060D02*
X89357200Y-109529598D01*
X89356738Y-110644354D02*
X89356738Y-109530060D01*
X83593400Y-108735400D02*
X85877400Y-106451400D01*
X83450000Y-99858400D02*
X82092800Y-98501200D01*
X101598399Y-130647999D02*
X106697999Y-130647999D01*
X121934000Y-134416800D02*
X120990209Y-133473009D01*
X107988200Y-75400000D02*
X109804200Y-77216000D01*
X83296200Y-99380000D02*
X83296200Y-103246200D01*
X105902800Y-76947200D02*
X105902800Y-83206600D01*
X87804000Y-108991400D02*
X86902159Y-108991400D01*
X92430600Y-96171000D02*
X93681800Y-94919800D01*
X80300800Y-100564600D02*
X79116200Y-99380000D01*
X130697999Y-132152001D02*
X131450000Y-131400000D01*
X80300800Y-102779800D02*
X80314800Y-102793800D01*
X130698801Y-98008601D02*
X130046599Y-98008601D01*
X96012000Y-108116400D02*
X96088200Y-108040200D01*
X89048600Y-108991400D02*
X87804000Y-108991400D01*
X104089837Y-133473009D02*
X102768829Y-132152001D01*
X120366401Y-132152001D02*
X130697999Y-132152001D01*
X86902159Y-108991400D02*
X86723830Y-109169729D01*
X93472000Y-108116400D02*
X96012000Y-108116400D01*
X89825800Y-111734600D02*
X89825800Y-111113416D01*
X89357200Y-108991400D02*
X89048600Y-108991400D01*
X105994200Y-119583200D02*
X110261400Y-115316000D01*
X92633800Y-98856800D02*
X92430600Y-98653600D01*
X87250000Y-88113526D02*
X87039244Y-88324282D01*
X83450000Y-76973000D02*
X83464400Y-76987400D01*
X83450000Y-103400000D02*
X83450000Y-99858400D01*
X106697999Y-130647999D02*
X107450000Y-131400000D01*
X130749201Y-97958201D02*
X130698801Y-98008601D01*
X119634000Y-113157000D02*
X119634000Y-108421200D01*
X85112000Y-103400000D02*
X83450000Y-103400000D01*
X82911800Y-108735400D02*
X83593400Y-108735400D01*
X89825800Y-111113416D02*
X89356738Y-110644354D01*
X89357200Y-109529598D02*
X89357200Y-108991400D01*
X107450000Y-75400000D02*
X105902800Y-76947200D01*
X125407201Y-102647999D02*
X123596400Y-104458800D01*
X102768829Y-132152001D02*
X101598399Y-132152001D01*
X80264100Y-80035500D02*
X80137000Y-79908400D01*
X87039244Y-88324282D02*
X83296200Y-92067326D01*
X93472000Y-108116400D02*
X92546000Y-108116400D01*
X94030800Y-98450400D02*
X93624400Y-98856800D01*
X119659400Y-131445000D02*
X120366401Y-132152001D01*
X80351600Y-87148400D02*
X79116200Y-88383800D01*
X93624400Y-98856800D02*
X92633800Y-98856800D01*
X79116200Y-88383800D02*
X79116200Y-99380000D01*
X85877400Y-104165400D02*
X85112000Y-103400000D01*
X129997200Y-95986600D02*
X130704306Y-95986600D01*
X131450000Y-103400000D02*
X130697999Y-104152001D01*
X119634000Y-120065800D02*
X119634000Y-131419600D01*
X119634000Y-113157000D02*
X119634000Y-121843800D01*
X101598399Y-132152001D02*
X101547999Y-132101601D01*
X130704306Y-95986600D02*
X130749201Y-96031495D01*
X92546000Y-108116400D02*
X91671000Y-108991400D01*
X130046599Y-98008601D02*
X125407201Y-102647999D01*
X101547999Y-130698399D02*
X101598399Y-130647999D01*
X87250000Y-86000000D02*
X87250000Y-88113526D01*
X85877400Y-106451400D02*
X85877400Y-104165400D01*
X123903199Y-104152001D02*
X123596400Y-104458800D01*
X92430600Y-98653600D02*
X92430600Y-96171000D01*
X91671000Y-108991400D02*
X89357200Y-108991400D01*
X83450000Y-75400000D02*
X83450000Y-76973000D01*
X119634000Y-131419600D02*
X119659400Y-131445000D01*
X80300800Y-100838000D02*
X80300800Y-102779800D01*
X130697999Y-104152001D02*
X123903199Y-104152001D01*
X80351600Y-81686400D02*
X80351600Y-87148400D01*
X119634000Y-108421200D02*
X123596400Y-104458800D01*
X80264100Y-81686400D02*
X80264100Y-80035500D01*
X83296200Y-103246200D02*
X83450000Y-103400000D01*
X101547999Y-132101601D02*
X101547999Y-130698399D01*
D28*
%TO.N,+3V3*%
X128330239Y-98083601D02*
X129170199Y-98083601D01*
X96088200Y-109702700D02*
X96088200Y-120311800D01*
X129170199Y-98083601D02*
X129997200Y-97256600D01*
X96469300Y-104969300D02*
X95156672Y-104969300D01*
X93309500Y-109941400D02*
X93472000Y-109778900D01*
X97197300Y-109702700D02*
X97200000Y-109700000D01*
X90504000Y-109941400D02*
X93309500Y-109941400D01*
X96088200Y-120311800D02*
X93000000Y-123400000D01*
D27*
X93548200Y-109790200D02*
X93472000Y-109866400D01*
D28*
X96012000Y-109778900D02*
X96088200Y-109702700D01*
X127746638Y-97500000D02*
X128330239Y-98083601D01*
D27*
X93397000Y-109941400D02*
X93472000Y-109866400D01*
D28*
X96088200Y-109702700D02*
X97197300Y-109702700D01*
X95156672Y-104969300D02*
X91643678Y-101456306D01*
X105300002Y-97500000D02*
X127746638Y-97500000D01*
X93472000Y-109778900D02*
X96012000Y-109778900D01*
%TO.N,+5V*%
X102550000Y-84453800D02*
X104002800Y-85906600D01*
X78550000Y-81547300D02*
X78689100Y-81686400D01*
X78550000Y-78600000D02*
X78550000Y-81547300D01*
X109900000Y-74100000D02*
X106000000Y-74100000D01*
D27*
X123987600Y-106600000D02*
X123596400Y-106208800D01*
D28*
X130911398Y-74100000D02*
X126550000Y-78461398D01*
X125722999Y-135427001D02*
X132461601Y-135427001D01*
X87645400Y-110100000D02*
X87804000Y-109941400D01*
D27*
X102550000Y-134600000D02*
X99610200Y-134600000D01*
D28*
X130911398Y-74100000D02*
X109900000Y-74100000D01*
X77300000Y-106500000D02*
X77400000Y-106600000D01*
X128250000Y-104900000D02*
X132600000Y-104900000D01*
X101722999Y-135427001D02*
X102550000Y-134600000D01*
X102550000Y-78600000D02*
X102550000Y-77550000D01*
X87804000Y-109941400D02*
X87804000Y-111375300D01*
X77300000Y-129100000D02*
X77300000Y-115300000D01*
X132600000Y-74100000D02*
X130911398Y-74100000D01*
D27*
X123684000Y-134416800D02*
X126366800Y-134416800D01*
X126550000Y-106600000D02*
X123987600Y-106600000D01*
D28*
X88100000Y-111797900D02*
X88163300Y-111734600D01*
X86358600Y-108041400D02*
X87804000Y-108041400D01*
X78011398Y-74100000D02*
X77300000Y-74811398D01*
X78376300Y-101100000D02*
X78638300Y-100838000D01*
X85800000Y-110100000D02*
X87645400Y-110100000D01*
X78550000Y-134600000D02*
X79377001Y-135427001D01*
X77300000Y-74811398D02*
X77300000Y-80400000D01*
X85800000Y-109301798D02*
X86000000Y-109101798D01*
X77300000Y-115300000D02*
X77300000Y-106500000D01*
X106000000Y-74100000D02*
X78011398Y-74100000D01*
X125722999Y-135427001D02*
X126550000Y-134600000D01*
D27*
X99610200Y-134600000D02*
X99249200Y-134239000D01*
D28*
X94627001Y-135427001D02*
X101722999Y-135427001D01*
X109900000Y-75457700D02*
X109804200Y-75553500D01*
X79377001Y-135427001D02*
X94627001Y-135427001D01*
X132461601Y-135427001D02*
X132600000Y-135288602D01*
X86000000Y-109101798D02*
X86000000Y-108400000D01*
X101722999Y-135427001D02*
X125722999Y-135427001D01*
X87804000Y-111375300D02*
X88163300Y-111734600D01*
X88100000Y-113200000D02*
X88100000Y-111797900D01*
X77300000Y-133350000D02*
X77300000Y-129100000D01*
X85800000Y-110100000D02*
X85800000Y-109301798D01*
X77400000Y-106600000D02*
X78550000Y-106600000D01*
X77300000Y-101100000D02*
X78376300Y-101100000D01*
X77300000Y-129100000D02*
X79976300Y-129100000D01*
X126550000Y-78461398D02*
X126550000Y-78600000D01*
D27*
X126366800Y-134416800D02*
X126550000Y-134600000D01*
D28*
X77300000Y-106500000D02*
X77300000Y-101100000D01*
X102550000Y-77550000D02*
X106000000Y-74100000D01*
X126550000Y-81159700D02*
X126542800Y-81166900D01*
X126550000Y-106600000D02*
X128250000Y-104900000D01*
X92800000Y-133600000D02*
X94627001Y-135427001D01*
X78550000Y-134600000D02*
X77300000Y-133350000D01*
X102550000Y-78600000D02*
X102550000Y-84453800D01*
X77300000Y-79850000D02*
X78550000Y-78600000D01*
X79976300Y-129100000D02*
X80111500Y-129235200D01*
X126550000Y-78600000D02*
X126550000Y-81159700D01*
X77300000Y-101100000D02*
X77300000Y-80400000D01*
X77300000Y-80400000D02*
X77300000Y-79850000D01*
X132600000Y-135288602D02*
X132600000Y-104900000D01*
X86000000Y-108400000D02*
X86358600Y-108041400D01*
X109900000Y-74100000D02*
X109900000Y-75457700D01*
X132600000Y-104900000D02*
X132600000Y-74100000D01*
D27*
%TO.N,Net-(D1-Pad2)*%
X101250000Y-76700000D02*
X102550000Y-75400000D01*
X83450000Y-78600000D02*
X85350000Y-76700000D01*
X85350000Y-76700000D02*
X101250000Y-76700000D01*
%TO.N,Net-(D1-Pad4)*%
X107450000Y-84359400D02*
X105902800Y-85906600D01*
X107450000Y-78600000D02*
X107450000Y-84359400D01*
%TO.N,Net-(D2-Pad2)*%
X81440798Y-77290798D02*
X81440798Y-105590798D01*
X79550000Y-75400000D02*
X81440798Y-77290798D01*
X81440798Y-105590798D02*
X82450000Y-106600000D01*
X82450000Y-106600000D02*
X83450000Y-106600000D01*
X78550000Y-75400000D02*
X79550000Y-75400000D01*
%TO.N,Net-(D3-Pad2)*%
X80801010Y-105651010D02*
X78550000Y-103400000D01*
X83450000Y-134600000D02*
X83450000Y-133850000D01*
X80801010Y-131201010D02*
X80801010Y-105651010D01*
X83450000Y-133850000D02*
X80801010Y-131201010D01*
%TO.N,Net-(D4-Pad2)*%
X78550000Y-131400000D02*
X79550000Y-131400000D01*
X104850000Y-134550000D02*
X107400000Y-134550000D01*
X107400000Y-134550000D02*
X107450000Y-134600000D01*
X79550000Y-131400000D02*
X81000000Y-132850000D01*
%TO.N,Net-(D5-Pad2)*%
X129946000Y-133096000D02*
X104246000Y-133096000D01*
X104246000Y-133096000D02*
X102550000Y-131400000D01*
X131450000Y-134600000D02*
X129946000Y-133096000D01*
%TO.N,Net-(D6-Pad2)*%
X131450000Y-106600000D02*
X130374999Y-107675001D01*
X130374999Y-107675001D02*
X130374999Y-127575001D01*
X130374999Y-127575001D02*
X126550000Y-131400000D01*
%TO.N,Net-(D7-Pad2)*%
X131450000Y-78600000D02*
X132000000Y-79150000D01*
X132000000Y-79150000D02*
X132000000Y-98750000D01*
X127350000Y-103400000D02*
X126550000Y-103400000D01*
X132000000Y-98750000D02*
X127350000Y-103400000D01*
%TO.N,/I2C_SCL*%
X91550000Y-97600000D02*
X91550000Y-93854169D01*
X99721077Y-93426983D02*
X100106102Y-93041958D01*
X91550000Y-93854169D02*
X91977186Y-93426983D01*
X91977186Y-93426983D02*
X99721077Y-93426983D01*
%TO.N,/BOOT0*%
X98400000Y-96200000D02*
X99500000Y-95100000D01*
X99500000Y-95100000D02*
X106300000Y-95100000D01*
%TO.N,/SWCLK*%
X99370410Y-96879590D02*
X100197998Y-96052002D01*
X127954692Y-96052002D02*
X128020094Y-95986600D01*
X128020094Y-95986600D02*
X128727200Y-95986600D01*
X100197998Y-96052002D02*
X127954692Y-96052002D01*
%TO.N,/SWDIO*%
X128727200Y-97256600D02*
X127999613Y-96529013D01*
X127999613Y-96529013D02*
X100806025Y-96529013D01*
X99578920Y-97756118D02*
X93551737Y-97756118D01*
X100806025Y-96529013D02*
X99578920Y-97756118D01*
X93551737Y-97756118D02*
X93151738Y-98156117D01*
%TO.N,/MCU_DOUT*%
X91382684Y-93049972D02*
X89716990Y-94715666D01*
X89716990Y-94715666D02*
X89716990Y-95281351D01*
X104952800Y-83206600D02*
X104952800Y-86515202D01*
X104952800Y-86515202D02*
X98418030Y-93049972D01*
X98418030Y-93049972D02*
X91382684Y-93049972D01*
%TO.N,Net-(SW3-Pad1)*%
X84872991Y-108660554D02*
X85272990Y-108260555D01*
X115160000Y-125740000D02*
X92796200Y-125740000D01*
X92796200Y-125740000D02*
X84872991Y-117816791D01*
X84872991Y-117816791D02*
X84872991Y-108660554D01*
%TO.N,Net-(SW2-Pad1)*%
X88950800Y-99685526D02*
X88950800Y-93599000D01*
X99644200Y-117043200D02*
X99644200Y-110378926D01*
X99644200Y-110378926D02*
X88950800Y-99685526D01*
%TO.N,/~RST*%
X126824815Y-94078985D02*
X92290148Y-94078985D01*
X128727200Y-92176600D02*
X126824815Y-94078985D01*
%TD*%
%TA.AperFunction,Conductor*%
%TO.N,GND*%
G36*
X121072178Y-133749502D02*
G01*
X121118671Y-133803158D01*
X121128775Y-133873432D01*
X121124647Y-133892023D01*
X121084440Y-134024778D01*
X121081990Y-134037407D01*
X121076249Y-134101734D01*
X121076000Y-134107329D01*
X121076000Y-134144685D01*
X121080475Y-134159924D01*
X121081865Y-134161129D01*
X121089548Y-134162800D01*
X122149500Y-134162801D01*
X122217621Y-134182803D01*
X122264114Y-134236459D01*
X122275500Y-134288801D01*
X122275499Y-134544800D01*
X122255497Y-134612921D01*
X122201841Y-134659414D01*
X122149499Y-134670800D01*
X121094115Y-134670799D01*
X121078545Y-134675371D01*
X121019376Y-134713397D01*
X120983877Y-134718501D01*
X108839500Y-134718501D01*
X108771379Y-134698499D01*
X108724886Y-134644843D01*
X108713500Y-134592501D01*
X108713500Y-134100000D01*
X108708273Y-134026921D01*
X108669635Y-133895330D01*
X108668363Y-133890998D01*
X108668363Y-133820001D01*
X108706747Y-133760275D01*
X108771328Y-133730782D01*
X108789259Y-133729500D01*
X121004057Y-133729500D01*
X121072178Y-133749502D01*
G37*
%TD.AperFunction*%
%TA.AperFunction,Conductor*%
G36*
X125228621Y-74828502D02*
G01*
X125275114Y-74882158D01*
X125286500Y-74934500D01*
X125286500Y-75900000D01*
X125291727Y-75973079D01*
X125310088Y-76035612D01*
X125330304Y-76104460D01*
X125332904Y-76113316D01*
X125343222Y-76129371D01*
X125407051Y-76228691D01*
X125407053Y-76228694D01*
X125411923Y-76236271D01*
X125418733Y-76242172D01*
X125515569Y-76326082D01*
X125515572Y-76326084D01*
X125522381Y-76331984D01*
X125530579Y-76335728D01*
X125645122Y-76388038D01*
X125655330Y-76392700D01*
X125664245Y-76393982D01*
X125664246Y-76393982D01*
X125795552Y-76412861D01*
X125795559Y-76412862D01*
X125800000Y-76413500D01*
X127291739Y-76413500D01*
X127359860Y-76433502D01*
X127406353Y-76487158D01*
X127416457Y-76557432D01*
X127386963Y-76622012D01*
X127380834Y-76628595D01*
X126459834Y-77549595D01*
X126397522Y-77583621D01*
X126370739Y-77586500D01*
X125800000Y-77586500D01*
X125726921Y-77591727D01*
X125673884Y-77607300D01*
X125595330Y-77630365D01*
X125595328Y-77630366D01*
X125586684Y-77632904D01*
X125579105Y-77637775D01*
X125471309Y-77707051D01*
X125471306Y-77707053D01*
X125463729Y-77711923D01*
X125457828Y-77718733D01*
X125373918Y-77815569D01*
X125373916Y-77815572D01*
X125368016Y-77822381D01*
X125364272Y-77830579D01*
X125315735Y-77936861D01*
X125307300Y-77955330D01*
X125306018Y-77964245D01*
X125306018Y-77964246D01*
X125287139Y-78095552D01*
X125287138Y-78095559D01*
X125286500Y-78100000D01*
X125286500Y-79100000D01*
X125291727Y-79173079D01*
X125332904Y-79313316D01*
X125337775Y-79320895D01*
X125407051Y-79428691D01*
X125407053Y-79428693D01*
X125411923Y-79436271D01*
X125418733Y-79442172D01*
X125515569Y-79526082D01*
X125515572Y-79526084D01*
X125522381Y-79531984D01*
X125655330Y-79592700D01*
X125664245Y-79593982D01*
X125664246Y-79593982D01*
X125733431Y-79603929D01*
X125798012Y-79633422D01*
X125836396Y-79693148D01*
X125841500Y-79728647D01*
X125841501Y-80310165D01*
X125821499Y-80378286D01*
X125806974Y-80396818D01*
X125700215Y-80509515D01*
X125615034Y-80656166D01*
X125565874Y-80818480D01*
X125559300Y-80892127D01*
X125559300Y-81428534D01*
X125573940Y-81554103D01*
X125631806Y-81713521D01*
X125724793Y-81855350D01*
X125730105Y-81860383D01*
X125730110Y-81860388D01*
X125735143Y-81865156D01*
X125770840Y-81926525D01*
X125767692Y-81997452D01*
X125739961Y-82043281D01*
X125705652Y-82079498D01*
X125696939Y-82091145D01*
X125619166Y-82225040D01*
X125613372Y-82238365D01*
X125568239Y-82387383D01*
X125565791Y-82400008D01*
X125560049Y-82464337D01*
X125559806Y-82469804D01*
X125564275Y-82485024D01*
X125565665Y-82486229D01*
X125573348Y-82487900D01*
X126288798Y-82487901D01*
X126288804Y-82487900D01*
X127507685Y-82487901D01*
X127522924Y-82483426D01*
X127524129Y-82482036D01*
X127525351Y-82476416D01*
X127512022Y-82362082D01*
X127508678Y-82347935D01*
X127455843Y-82202379D01*
X127449335Y-82189384D01*
X127364435Y-82059890D01*
X127355107Y-82048733D01*
X127350477Y-82044347D01*
X127314779Y-81982978D01*
X127317927Y-81912051D01*
X127345657Y-81866222D01*
X127385385Y-81824285D01*
X127470566Y-81677634D01*
X127519726Y-81515320D01*
X127526300Y-81441673D01*
X127526300Y-80905266D01*
X127511660Y-80779697D01*
X127491403Y-80723888D01*
X127456291Y-80627158D01*
X127453794Y-80620279D01*
X127360807Y-80478450D01*
X127297847Y-80418807D01*
X127262149Y-80357438D01*
X127258500Y-80327335D01*
X127258500Y-79733513D01*
X127278502Y-79665392D01*
X127332158Y-79618899D01*
X127362128Y-79609515D01*
X127366341Y-79608755D01*
X127373079Y-79608273D01*
X127379559Y-79606370D01*
X127379561Y-79606370D01*
X127504670Y-79569635D01*
X127504672Y-79569634D01*
X127513316Y-79567096D01*
X127577135Y-79526082D01*
X127628691Y-79492949D01*
X127628694Y-79492947D01*
X127636271Y-79488077D01*
X127676048Y-79442172D01*
X127726082Y-79384431D01*
X127726084Y-79384428D01*
X127731984Y-79377619D01*
X127792700Y-79244670D01*
X127803962Y-79166340D01*
X127812861Y-79104448D01*
X127812862Y-79104441D01*
X127813500Y-79100000D01*
X127813500Y-78252057D01*
X127833502Y-78183936D01*
X127850405Y-78162962D01*
X130007591Y-76005776D01*
X130069902Y-75971751D01*
X130140717Y-75976816D01*
X130197553Y-76019363D01*
X130217581Y-76059373D01*
X130230820Y-76104460D01*
X130238233Y-76120692D01*
X130307426Y-76228360D01*
X130319112Y-76241847D01*
X130415840Y-76325662D01*
X130430848Y-76335307D01*
X130547275Y-76388477D01*
X130564388Y-76393502D01*
X130695554Y-76412361D01*
X130704495Y-76413000D01*
X131177885Y-76413000D01*
X131193124Y-76408525D01*
X131194329Y-76407135D01*
X131196000Y-76399452D01*
X131196000Y-75272000D01*
X131216002Y-75203879D01*
X131269658Y-75157386D01*
X131322000Y-75146000D01*
X131578000Y-75146000D01*
X131646121Y-75166002D01*
X131692614Y-75219658D01*
X131704000Y-75272000D01*
X131704000Y-76394885D01*
X131708475Y-76410124D01*
X131709865Y-76411329D01*
X131717548Y-76413000D01*
X131765501Y-76413000D01*
X131833622Y-76433002D01*
X131880115Y-76486658D01*
X131891501Y-76539000D01*
X131891501Y-77460500D01*
X131871499Y-77528621D01*
X131817843Y-77575114D01*
X131765501Y-77586500D01*
X130700000Y-77586500D01*
X130626921Y-77591727D01*
X130573884Y-77607300D01*
X130495330Y-77630365D01*
X130495328Y-77630366D01*
X130486684Y-77632904D01*
X130479105Y-77637775D01*
X130371309Y-77707051D01*
X130371306Y-77707053D01*
X130363729Y-77711923D01*
X130357828Y-77718733D01*
X130273918Y-77815569D01*
X130273916Y-77815572D01*
X130268016Y-77822381D01*
X130264272Y-77830579D01*
X130215735Y-77936861D01*
X130207300Y-77955330D01*
X130206018Y-77964245D01*
X130206018Y-77964246D01*
X130187139Y-78095552D01*
X130187138Y-78095559D01*
X130186500Y-78100000D01*
X130186500Y-79100000D01*
X130191727Y-79173079D01*
X130232904Y-79313316D01*
X130237775Y-79320895D01*
X130307051Y-79428691D01*
X130307053Y-79428693D01*
X130311923Y-79436271D01*
X130318733Y-79442172D01*
X130415569Y-79526082D01*
X130415572Y-79526084D01*
X130422381Y-79531984D01*
X130555330Y-79592700D01*
X130564245Y-79593982D01*
X130564246Y-79593982D01*
X130695552Y-79612861D01*
X130695559Y-79612862D01*
X130700000Y-79613500D01*
X131240500Y-79613500D01*
X131308621Y-79633502D01*
X131355114Y-79687158D01*
X131366500Y-79739500D01*
X131366501Y-98435404D01*
X131346499Y-98503525D01*
X131329596Y-98524499D01*
X127491126Y-102362969D01*
X127428814Y-102396995D01*
X127384099Y-102398591D01*
X127304459Y-102387140D01*
X127304444Y-102387139D01*
X127300000Y-102386500D01*
X125800000Y-102386500D01*
X125726921Y-102391727D01*
X125673884Y-102407300D01*
X125595330Y-102430365D01*
X125595328Y-102430366D01*
X125586684Y-102432904D01*
X125579105Y-102437775D01*
X125471309Y-102507051D01*
X125471306Y-102507053D01*
X125463729Y-102511923D01*
X125457828Y-102518733D01*
X125373918Y-102615569D01*
X125373916Y-102615572D01*
X125368016Y-102622381D01*
X125307300Y-102755330D01*
X125306018Y-102764245D01*
X125306018Y-102764246D01*
X125287139Y-102895552D01*
X125287139Y-102895554D01*
X125286500Y-102900000D01*
X125286500Y-103900000D01*
X125291727Y-103973079D01*
X125297806Y-103993782D01*
X125327144Y-104093698D01*
X125332904Y-104113316D01*
X125337775Y-104120895D01*
X125407051Y-104228691D01*
X125407053Y-104228694D01*
X125411923Y-104236271D01*
X125418733Y-104242172D01*
X125515569Y-104326082D01*
X125515572Y-104326084D01*
X125522381Y-104331984D01*
X125655330Y-104392700D01*
X125664245Y-104393982D01*
X125664246Y-104393982D01*
X125795552Y-104412861D01*
X125795559Y-104412862D01*
X125800000Y-104413500D01*
X127300000Y-104413500D01*
X127373079Y-104408273D01*
X127418515Y-104394932D01*
X127489510Y-104394932D01*
X127549236Y-104433315D01*
X127578729Y-104497896D01*
X127568626Y-104568170D01*
X127543110Y-104604920D01*
X126598435Y-105549596D01*
X126536124Y-105583620D01*
X126509341Y-105586500D01*
X125800000Y-105586500D01*
X125726921Y-105591727D01*
X125648835Y-105614655D01*
X125595330Y-105630365D01*
X125595328Y-105630366D01*
X125586684Y-105632904D01*
X125567234Y-105645404D01*
X125471309Y-105707051D01*
X125471306Y-105707053D01*
X125463729Y-105711923D01*
X125457828Y-105718733D01*
X125373918Y-105815569D01*
X125373916Y-105815572D01*
X125368016Y-105822381D01*
X125364272Y-105830578D01*
X125364270Y-105830582D01*
X125335836Y-105892843D01*
X125289343Y-105946498D01*
X125221223Y-105966500D01*
X124704519Y-105966500D01*
X124636398Y-105946498D01*
X124589905Y-105892842D01*
X124579367Y-105855092D01*
X124566108Y-105741369D01*
X124566108Y-105741368D01*
X124565260Y-105734097D01*
X124557212Y-105711923D01*
X124509891Y-105581557D01*
X124507394Y-105574678D01*
X124414407Y-105432849D01*
X124407970Y-105426751D01*
X124404058Y-105423044D01*
X124368361Y-105361675D01*
X124371509Y-105290748D01*
X124399240Y-105244919D01*
X124433549Y-105208702D01*
X124442262Y-105197055D01*
X124520035Y-105063160D01*
X124525829Y-105049835D01*
X124570962Y-104900816D01*
X124573410Y-104888193D01*
X124579151Y-104823866D01*
X124579394Y-104818396D01*
X124574925Y-104803176D01*
X124573535Y-104801971D01*
X124565852Y-104800300D01*
X123850402Y-104800299D01*
X123850396Y-104800300D01*
X122631515Y-104800299D01*
X122616276Y-104804774D01*
X122615071Y-104806164D01*
X122613849Y-104811784D01*
X122627178Y-104926116D01*
X122630523Y-104940268D01*
X122683356Y-105085819D01*
X122689866Y-105098818D01*
X122774765Y-105228311D01*
X122784089Y-105239463D01*
X122788722Y-105243852D01*
X122824420Y-105305221D01*
X122821272Y-105376148D01*
X122793542Y-105421978D01*
X122753814Y-105463915D01*
X122668633Y-105610566D01*
X122619473Y-105772880D01*
X122618898Y-105779320D01*
X122618898Y-105779321D01*
X122613531Y-105839462D01*
X122612900Y-105846527D01*
X122612900Y-106382934D01*
X122627540Y-106508503D01*
X122630036Y-106515381D01*
X122630037Y-106515383D01*
X122682489Y-106659886D01*
X122685406Y-106667922D01*
X122778393Y-106809751D01*
X122901515Y-106926386D01*
X123048166Y-107011567D01*
X123210480Y-107060727D01*
X123216920Y-107061302D01*
X123216921Y-107061302D01*
X123281334Y-107067051D01*
X123281340Y-107067051D01*
X123284127Y-107067300D01*
X123509959Y-107067300D01*
X123578080Y-107087302D01*
X123596212Y-107101450D01*
X123612299Y-107116557D01*
X123619244Y-107120375D01*
X123619248Y-107120378D01*
X123630053Y-107126318D01*
X123646570Y-107137167D01*
X123662576Y-107149582D01*
X123703147Y-107167139D01*
X123713800Y-107172358D01*
X123745610Y-107189846D01*
X123745613Y-107189847D01*
X123752552Y-107193662D01*
X123772181Y-107198702D01*
X123790871Y-107205101D01*
X123809464Y-107213147D01*
X123838671Y-107217773D01*
X123853128Y-107220063D01*
X123864749Y-107222470D01*
X123901374Y-107231873D01*
X123907575Y-107233465D01*
X123908131Y-107233500D01*
X123928053Y-107233500D01*
X123947762Y-107235051D01*
X123967544Y-107238184D01*
X123975436Y-107237438D01*
X124011182Y-107234059D01*
X124023040Y-107233500D01*
X125216888Y-107233500D01*
X125285009Y-107253502D01*
X125330888Y-107306451D01*
X125332904Y-107313316D01*
X125352344Y-107343565D01*
X125407051Y-107428691D01*
X125407053Y-107428694D01*
X125411923Y-107436271D01*
X125418732Y-107442171D01*
X125418733Y-107442172D01*
X125515569Y-107526082D01*
X125515572Y-107526084D01*
X125522381Y-107531984D01*
X125530579Y-107535728D01*
X125630068Y-107581163D01*
X125655330Y-107592700D01*
X125664245Y-107593982D01*
X125664246Y-107593982D01*
X125795552Y-107612861D01*
X125795559Y-107612862D01*
X125800000Y-107613500D01*
X127300000Y-107613500D01*
X127373079Y-107608273D01*
X127465408Y-107581163D01*
X127504670Y-107569635D01*
X127504672Y-107569634D01*
X127513316Y-107567096D01*
X127583659Y-107521889D01*
X127628691Y-107492949D01*
X127628694Y-107492947D01*
X127636271Y-107488077D01*
X127652647Y-107469178D01*
X127726082Y-107384431D01*
X127726084Y-107384428D01*
X127731984Y-107377619D01*
X127778610Y-107275523D01*
X127788958Y-107252864D01*
X127788958Y-107252863D01*
X127792700Y-107244670D01*
X127798614Y-107203539D01*
X127812861Y-107104448D01*
X127812862Y-107104441D01*
X127813500Y-107100000D01*
X127813500Y-106390660D01*
X127833502Y-106322539D01*
X127850405Y-106301564D01*
X128506566Y-105645404D01*
X128568878Y-105611379D01*
X128595661Y-105608500D01*
X130177443Y-105608500D01*
X130245564Y-105628502D01*
X130292057Y-105682158D01*
X130302161Y-105752432D01*
X130277244Y-105806995D01*
X130278790Y-105807989D01*
X130273919Y-105815569D01*
X130268016Y-105822381D01*
X130264272Y-105830579D01*
X130214839Y-105938823D01*
X130207300Y-105955330D01*
X130206018Y-105964245D01*
X130206018Y-105964246D01*
X130187139Y-106095552D01*
X130187138Y-106095559D01*
X130186500Y-106100000D01*
X130186500Y-106915406D01*
X130166498Y-106983527D01*
X130149595Y-107004501D01*
X129982485Y-107171611D01*
X129974398Y-107178970D01*
X129968004Y-107183028D01*
X129962579Y-107188805D01*
X129962578Y-107188806D01*
X129922136Y-107231873D01*
X129919380Y-107234716D01*
X129899061Y-107255035D01*
X129896637Y-107258160D01*
X129896630Y-107258168D01*
X129896410Y-107258452D01*
X129888702Y-107267477D01*
X129858442Y-107299701D01*
X129851187Y-107312898D01*
X129848686Y-107317447D01*
X129837835Y-107333966D01*
X129830277Y-107343710D01*
X129830274Y-107343715D01*
X129825416Y-107349978D01*
X129814922Y-107374228D01*
X129807860Y-107390548D01*
X129802637Y-107401210D01*
X129785774Y-107431884D01*
X129781337Y-107439954D01*
X129779365Y-107447636D01*
X129779364Y-107447637D01*
X129776297Y-107459579D01*
X129769897Y-107478274D01*
X129761852Y-107496866D01*
X129760612Y-107504695D01*
X129754936Y-107540530D01*
X129752529Y-107552151D01*
X129745081Y-107581163D01*
X129741534Y-107594977D01*
X129741499Y-107595533D01*
X129741499Y-107615455D01*
X129739948Y-107635164D01*
X129736815Y-107654946D01*
X129737561Y-107662838D01*
X129740940Y-107698584D01*
X129741499Y-107710442D01*
X129741500Y-117502197D01*
X129741500Y-127260406D01*
X129721498Y-127328527D01*
X129704595Y-127349501D01*
X126704501Y-130349595D01*
X126642189Y-130383621D01*
X126615406Y-130386500D01*
X125800000Y-130386500D01*
X125726921Y-130391727D01*
X125673884Y-130407300D01*
X125595330Y-130430365D01*
X125595328Y-130430366D01*
X125586684Y-130432904D01*
X125579105Y-130437775D01*
X125471309Y-130507051D01*
X125471306Y-130507053D01*
X125463729Y-130511923D01*
X125457828Y-130518733D01*
X125373918Y-130615569D01*
X125373916Y-130615572D01*
X125368016Y-130622381D01*
X125307300Y-130755330D01*
X125306018Y-130764245D01*
X125306018Y-130764246D01*
X125287139Y-130895552D01*
X125287139Y-130895554D01*
X125286500Y-130900000D01*
X125286500Y-131900000D01*
X125291727Y-131973079D01*
X125332904Y-132113316D01*
X125337775Y-132120895D01*
X125407051Y-132228691D01*
X125407053Y-132228694D01*
X125411923Y-132236271D01*
X125418732Y-132242171D01*
X125424634Y-132248982D01*
X125423360Y-132250086D01*
X125456082Y-132301003D01*
X125456082Y-132371999D01*
X125417698Y-132431725D01*
X125353117Y-132461218D01*
X125335186Y-132462500D01*
X108660380Y-132462500D01*
X108592259Y-132442498D01*
X108545766Y-132388842D01*
X108535662Y-132318568D01*
X108565156Y-132253988D01*
X108625659Y-132184164D01*
X108635307Y-132169152D01*
X108688477Y-132052725D01*
X108693502Y-132035612D01*
X108712361Y-131904446D01*
X108713000Y-131895503D01*
X108713000Y-131672115D01*
X108708525Y-131656876D01*
X108707135Y-131655671D01*
X108699452Y-131654000D01*
X106205115Y-131654000D01*
X106189876Y-131658475D01*
X106188671Y-131659865D01*
X106187000Y-131667548D01*
X106187000Y-131897743D01*
X106187161Y-131902250D01*
X106191740Y-131966269D01*
X106194126Y-131979491D01*
X106230819Y-132104458D01*
X106238233Y-132120692D01*
X106307426Y-132228360D01*
X106325014Y-132248658D01*
X106323847Y-132249669D01*
X106356837Y-132301005D01*
X106356835Y-132372001D01*
X106318450Y-132431726D01*
X106253869Y-132461218D01*
X106235940Y-132462500D01*
X104560596Y-132462500D01*
X104492475Y-132442498D01*
X104471501Y-132425596D01*
X103850405Y-131804501D01*
X103816380Y-131742188D01*
X103813500Y-131715405D01*
X103813500Y-130904495D01*
X106187000Y-130904495D01*
X106187000Y-131127885D01*
X106191475Y-131143124D01*
X106192865Y-131144329D01*
X106200548Y-131146000D01*
X107177885Y-131146000D01*
X107193124Y-131141525D01*
X107194329Y-131140135D01*
X107196000Y-131132452D01*
X107196000Y-130405115D01*
X107194659Y-130400548D01*
X107704000Y-130400548D01*
X107704000Y-131127885D01*
X107708475Y-131143124D01*
X107709865Y-131144329D01*
X107717548Y-131146000D01*
X108694885Y-131146000D01*
X108710124Y-131141525D01*
X108711329Y-131140135D01*
X108713000Y-131132452D01*
X108713000Y-130902257D01*
X108712839Y-130897750D01*
X108708260Y-130833731D01*
X108705874Y-130820509D01*
X108669181Y-130695542D01*
X108661767Y-130679308D01*
X108592574Y-130571640D01*
X108580888Y-130558153D01*
X108484160Y-130474338D01*
X108469152Y-130464693D01*
X108352725Y-130411523D01*
X108335612Y-130406498D01*
X108204446Y-130387639D01*
X108195505Y-130387000D01*
X107722115Y-130387000D01*
X107706876Y-130391475D01*
X107705671Y-130392865D01*
X107704000Y-130400548D01*
X107194659Y-130400548D01*
X107191525Y-130389876D01*
X107190135Y-130388671D01*
X107182452Y-130387000D01*
X106702257Y-130387000D01*
X106697750Y-130387161D01*
X106633731Y-130391740D01*
X106620509Y-130394126D01*
X106495542Y-130430819D01*
X106479308Y-130438233D01*
X106371640Y-130507426D01*
X106358153Y-130519112D01*
X106274338Y-130615840D01*
X106264693Y-130630848D01*
X106211523Y-130747275D01*
X106206498Y-130764388D01*
X106187639Y-130895554D01*
X106187000Y-130904495D01*
X103813500Y-130904495D01*
X103813500Y-130900000D01*
X103808273Y-130826921D01*
X103767096Y-130686684D01*
X103721393Y-130615569D01*
X103692949Y-130571309D01*
X103692947Y-130571306D01*
X103688077Y-130563729D01*
X103636587Y-130519112D01*
X103584431Y-130473918D01*
X103584428Y-130473916D01*
X103577619Y-130468016D01*
X103444670Y-130407300D01*
X103435755Y-130406018D01*
X103435754Y-130406018D01*
X103304448Y-130387139D01*
X103304441Y-130387138D01*
X103300000Y-130386500D01*
X101800000Y-130386500D01*
X101726921Y-130391727D01*
X101673884Y-130407300D01*
X101595330Y-130430365D01*
X101595328Y-130430366D01*
X101586684Y-130432904D01*
X101579105Y-130437775D01*
X101471309Y-130507051D01*
X101471306Y-130507053D01*
X101463729Y-130511923D01*
X101457828Y-130518733D01*
X101373918Y-130615569D01*
X101373916Y-130615572D01*
X101368016Y-130622381D01*
X101307300Y-130755330D01*
X101306018Y-130764245D01*
X101306018Y-130764246D01*
X101287139Y-130895552D01*
X101287139Y-130895554D01*
X101286500Y-130900000D01*
X101286500Y-131900000D01*
X101291727Y-131973079D01*
X101332904Y-132113316D01*
X101337775Y-132120895D01*
X101407051Y-132228691D01*
X101407053Y-132228694D01*
X101411923Y-132236271D01*
X101418733Y-132242172D01*
X101515569Y-132326082D01*
X101515572Y-132326084D01*
X101522381Y-132331984D01*
X101530579Y-132335728D01*
X101610006Y-132372001D01*
X101655330Y-132392700D01*
X101664245Y-132393982D01*
X101664246Y-132393982D01*
X101795552Y-132412861D01*
X101795559Y-132412862D01*
X101800000Y-132413500D01*
X102615406Y-132413500D01*
X102683527Y-132433502D01*
X102704501Y-132450405D01*
X103717854Y-133463758D01*
X103751880Y-133526070D01*
X103746815Y-133596885D01*
X103704268Y-133653721D01*
X103637748Y-133678532D01*
X103576417Y-133667467D01*
X103452864Y-133611042D01*
X103452863Y-133611042D01*
X103444670Y-133607300D01*
X103435755Y-133606018D01*
X103435754Y-133606018D01*
X103304448Y-133587139D01*
X103304441Y-133587138D01*
X103300000Y-133586500D01*
X101800000Y-133586500D01*
X101726921Y-133591727D01*
X101673884Y-133607300D01*
X101595330Y-133630365D01*
X101595328Y-133630366D01*
X101586684Y-133632904D01*
X101579105Y-133637775D01*
X101471309Y-133707051D01*
X101471306Y-133707053D01*
X101463729Y-133711923D01*
X101457828Y-133718733D01*
X101373918Y-133815569D01*
X101373916Y-133815572D01*
X101368016Y-133822381D01*
X101364272Y-133830578D01*
X101364270Y-133830582D01*
X101335836Y-133892843D01*
X101289343Y-133946498D01*
X101221223Y-133966500D01*
X100222968Y-133966500D01*
X100154847Y-133946498D01*
X100108354Y-133892842D01*
X100097816Y-133855091D01*
X100093908Y-133821569D01*
X100093908Y-133821568D01*
X100093060Y-133814297D01*
X100086494Y-133796206D01*
X100037691Y-133661758D01*
X100035194Y-133654879D01*
X99942207Y-133513050D01*
X99819085Y-133396415D01*
X99759685Y-133361913D01*
X99678767Y-133314912D01*
X99678764Y-133314911D01*
X99672434Y-133311234D01*
X99655114Y-133305988D01*
X99544999Y-133272637D01*
X99510120Y-133262073D01*
X99503684Y-133261499D01*
X99503681Y-133261498D01*
X99439266Y-133255749D01*
X99439260Y-133255749D01*
X99436473Y-133255500D01*
X98900066Y-133255500D01*
X98809988Y-133266002D01*
X98781769Y-133269292D01*
X98781768Y-133269292D01*
X98774497Y-133270140D01*
X98767620Y-133272636D01*
X98767617Y-133272637D01*
X98665869Y-133309570D01*
X98615079Y-133328006D01*
X98473250Y-133420993D01*
X98468217Y-133426305D01*
X98468212Y-133426310D01*
X98463444Y-133431343D01*
X98402075Y-133467040D01*
X98331148Y-133463892D01*
X98285319Y-133436161D01*
X98249102Y-133401852D01*
X98237455Y-133393139D01*
X98103562Y-133315367D01*
X98090230Y-133309570D01*
X97941219Y-133264439D01*
X97928593Y-133261990D01*
X97864266Y-133256249D01*
X97858796Y-133256006D01*
X97843576Y-133260475D01*
X97842371Y-133261865D01*
X97840700Y-133269548D01*
X97840699Y-133984998D01*
X97840700Y-133985004D01*
X97840699Y-134367000D01*
X97820697Y-134435121D01*
X97767041Y-134481614D01*
X97714699Y-134493000D01*
X96659315Y-134492999D01*
X96644076Y-134497474D01*
X96642871Y-134498864D01*
X96641200Y-134506547D01*
X96641200Y-134534473D01*
X96641625Y-134541777D01*
X96645837Y-134577910D01*
X96633858Y-134647889D01*
X96585947Y-134700282D01*
X96520685Y-134718501D01*
X94972663Y-134718501D01*
X94904542Y-134698499D01*
X94883568Y-134681597D01*
X94131500Y-133929529D01*
X96641200Y-133929529D01*
X96641200Y-133966885D01*
X96645675Y-133982124D01*
X96647065Y-133983329D01*
X96654748Y-133985000D01*
X97314585Y-133985001D01*
X97329824Y-133980526D01*
X97331029Y-133979136D01*
X97332700Y-133971453D01*
X97332701Y-133274115D01*
X97328226Y-133258876D01*
X97326836Y-133257671D01*
X97321216Y-133256449D01*
X97206882Y-133269778D01*
X97192735Y-133273122D01*
X97047179Y-133325957D01*
X97034184Y-133332465D01*
X96904690Y-133417365D01*
X96893538Y-133426689D01*
X96787052Y-133539098D01*
X96778339Y-133550745D01*
X96700567Y-133684638D01*
X96694770Y-133697970D01*
X96649639Y-133846981D01*
X96647190Y-133859607D01*
X96641449Y-133923934D01*
X96641200Y-133929529D01*
X94131500Y-133929529D01*
X94021971Y-133820001D01*
X93734660Y-133532691D01*
X93700635Y-133470378D01*
X93698445Y-133456764D01*
X93694228Y-133416637D01*
X93694228Y-133416636D01*
X93693538Y-133410073D01*
X93634524Y-133228446D01*
X93539037Y-133063058D01*
X93523864Y-133046206D01*
X93415673Y-132926048D01*
X93415672Y-132926047D01*
X93411251Y-132921137D01*
X93405909Y-132917256D01*
X93405907Y-132917254D01*
X93262092Y-132812767D01*
X93262091Y-132812766D01*
X93256750Y-132808886D01*
X93250722Y-132806202D01*
X93250720Y-132806201D01*
X93088318Y-132733895D01*
X93088317Y-132733895D01*
X93082287Y-132731210D01*
X92988887Y-132711357D01*
X92901944Y-132692876D01*
X92901939Y-132692876D01*
X92895487Y-132691504D01*
X92704513Y-132691504D01*
X92698061Y-132692876D01*
X92698056Y-132692876D01*
X92611113Y-132711357D01*
X92517713Y-132731210D01*
X92511683Y-132733895D01*
X92511682Y-132733895D01*
X92349280Y-132806201D01*
X92349278Y-132806202D01*
X92343250Y-132808886D01*
X92337909Y-132812766D01*
X92337908Y-132812767D01*
X92194093Y-132917254D01*
X92194091Y-132917256D01*
X92188749Y-132921137D01*
X92184328Y-132926047D01*
X92184327Y-132926048D01*
X92076137Y-133046206D01*
X92060963Y-133063058D01*
X91965476Y-133228446D01*
X91951992Y-133269947D01*
X91915835Y-133381227D01*
X91906462Y-133410073D01*
X91905772Y-133416636D01*
X91905772Y-133416637D01*
X91894493Y-133523952D01*
X91886500Y-133600000D01*
X91887190Y-133606565D01*
X91898952Y-133718469D01*
X91906462Y-133789927D01*
X91908502Y-133796205D01*
X91908502Y-133796206D01*
X91925000Y-133846981D01*
X91965476Y-133971554D01*
X91968779Y-133977276D01*
X91968780Y-133977277D01*
X91973241Y-133985004D01*
X92060963Y-134136942D01*
X92065381Y-134141849D01*
X92065382Y-134141850D01*
X92094477Y-134174163D01*
X92188749Y-134278863D01*
X92194091Y-134282744D01*
X92194093Y-134282746D01*
X92337908Y-134387233D01*
X92343250Y-134391114D01*
X92349278Y-134393798D01*
X92349280Y-134393799D01*
X92442091Y-134435121D01*
X92517713Y-134468790D01*
X92524169Y-134470162D01*
X92530453Y-134472204D01*
X92529693Y-134474544D01*
X92582369Y-134502982D01*
X92616690Y-134565131D01*
X92611963Y-134635970D01*
X92569688Y-134693008D01*
X92503286Y-134718136D01*
X92493699Y-134718501D01*
X84839500Y-134718501D01*
X84771379Y-134698499D01*
X84724886Y-134644843D01*
X84713500Y-134592501D01*
X84713500Y-134100000D01*
X84708273Y-134026921D01*
X84667096Y-133886684D01*
X84588077Y-133763729D01*
X84581267Y-133757828D01*
X84484431Y-133673918D01*
X84484428Y-133673916D01*
X84477619Y-133668016D01*
X84448853Y-133654879D01*
X84352864Y-133611042D01*
X84352863Y-133611042D01*
X84344670Y-133607300D01*
X84335755Y-133606018D01*
X84335754Y-133606018D01*
X84204448Y-133587139D01*
X84204441Y-133587138D01*
X84200000Y-133586500D01*
X84105763Y-133586500D01*
X84037642Y-133566498D01*
X84003826Y-133534560D01*
X83983531Y-133506626D01*
X83977016Y-133496707D01*
X83957529Y-133463758D01*
X83957527Y-133463755D01*
X83954513Y-133458659D01*
X83954145Y-133458241D01*
X83940062Y-133444158D01*
X83927228Y-133429133D01*
X83915446Y-133412917D01*
X83881664Y-133384970D01*
X83872885Y-133376981D01*
X83120119Y-132624215D01*
X83086093Y-132561903D01*
X83091158Y-132491088D01*
X83133705Y-132434252D01*
X83173716Y-132414224D01*
X83193124Y-132408525D01*
X83194329Y-132407135D01*
X83196000Y-132399452D01*
X83196000Y-131672115D01*
X83194659Y-131667548D01*
X83704000Y-131667548D01*
X83704000Y-132394885D01*
X83708475Y-132410124D01*
X83709865Y-132411329D01*
X83717548Y-132413000D01*
X84197743Y-132413000D01*
X84202250Y-132412839D01*
X84266269Y-132408260D01*
X84279491Y-132405874D01*
X84404458Y-132369181D01*
X84420692Y-132361767D01*
X84528360Y-132292574D01*
X84541847Y-132280888D01*
X84625662Y-132184160D01*
X84635307Y-132169152D01*
X84688477Y-132052725D01*
X84693502Y-132035612D01*
X84712361Y-131904446D01*
X84713000Y-131895503D01*
X84713000Y-131672115D01*
X84708525Y-131656876D01*
X84707135Y-131655671D01*
X84699452Y-131654000D01*
X83722115Y-131654000D01*
X83706876Y-131658475D01*
X83705671Y-131659865D01*
X83704000Y-131667548D01*
X83194659Y-131667548D01*
X83191525Y-131656876D01*
X83190135Y-131655671D01*
X83182452Y-131654000D01*
X82202094Y-131654000D01*
X82133973Y-131633998D01*
X82112999Y-131617095D01*
X81471415Y-130975511D01*
X81437389Y-130913199D01*
X81436454Y-130904495D01*
X82187000Y-130904495D01*
X82187000Y-131127885D01*
X82191475Y-131143124D01*
X82192865Y-131144329D01*
X82200548Y-131146000D01*
X83177885Y-131146000D01*
X83193124Y-131141525D01*
X83194329Y-131140135D01*
X83196000Y-131132452D01*
X83196000Y-130405115D01*
X83194659Y-130400548D01*
X83704000Y-130400548D01*
X83704000Y-131127885D01*
X83708475Y-131143124D01*
X83709865Y-131144329D01*
X83717548Y-131146000D01*
X84694885Y-131146000D01*
X84710124Y-131141525D01*
X84711329Y-131140135D01*
X84713000Y-131132452D01*
X84713000Y-130902257D01*
X84712839Y-130897750D01*
X84708260Y-130833731D01*
X84705874Y-130820509D01*
X84669181Y-130695542D01*
X84661767Y-130679308D01*
X84592574Y-130571640D01*
X84580888Y-130558153D01*
X84484160Y-130474338D01*
X84469152Y-130464693D01*
X84352725Y-130411523D01*
X84335612Y-130406498D01*
X84204446Y-130387639D01*
X84195505Y-130387000D01*
X83722115Y-130387000D01*
X83706876Y-130391475D01*
X83705671Y-130392865D01*
X83704000Y-130400548D01*
X83194659Y-130400548D01*
X83191525Y-130389876D01*
X83190135Y-130388671D01*
X83182452Y-130387000D01*
X82702257Y-130387000D01*
X82697750Y-130387161D01*
X82633731Y-130391740D01*
X82620509Y-130394126D01*
X82495542Y-130430819D01*
X82479308Y-130438233D01*
X82371640Y-130507426D01*
X82358153Y-130519112D01*
X82274338Y-130615840D01*
X82264693Y-130630848D01*
X82211523Y-130747275D01*
X82206498Y-130764388D01*
X82187639Y-130895554D01*
X82187000Y-130904495D01*
X81436454Y-130904495D01*
X81434510Y-130886416D01*
X81434510Y-129502748D01*
X81940500Y-129502748D01*
X81940500Y-130200085D01*
X81944975Y-130215324D01*
X81946365Y-130216529D01*
X81951985Y-130217751D01*
X82066319Y-130204422D01*
X82080466Y-130201078D01*
X82226022Y-130148243D01*
X82239017Y-130141735D01*
X82368511Y-130056835D01*
X82379663Y-130047511D01*
X82486149Y-129935102D01*
X82494862Y-129923455D01*
X82572635Y-129789560D01*
X82578429Y-129776235D01*
X82623562Y-129627216D01*
X82626010Y-129614593D01*
X82631751Y-129550266D01*
X82632000Y-129544671D01*
X82632000Y-129507315D01*
X82627525Y-129492076D01*
X82626135Y-129490871D01*
X82618452Y-129489200D01*
X81958615Y-129489200D01*
X81943376Y-129493675D01*
X81942171Y-129495065D01*
X81940500Y-129502748D01*
X81434510Y-129502748D01*
X81434510Y-128265748D01*
X81940500Y-128265748D01*
X81940500Y-128963085D01*
X81944975Y-128978324D01*
X81946365Y-128979529D01*
X81954048Y-128981200D01*
X82613885Y-128981200D01*
X82629124Y-128976725D01*
X82630329Y-128975335D01*
X82632000Y-128967652D01*
X82632000Y-128939726D01*
X82631575Y-128932422D01*
X82618222Y-128817881D01*
X82614878Y-128803734D01*
X82562043Y-128658178D01*
X82555535Y-128645183D01*
X82470635Y-128515689D01*
X82461311Y-128504537D01*
X82348902Y-128398051D01*
X82337255Y-128389338D01*
X82203360Y-128311565D01*
X82190035Y-128305771D01*
X82041016Y-128260638D01*
X82028393Y-128258190D01*
X81964066Y-128252449D01*
X81958596Y-128252206D01*
X81943376Y-128256675D01*
X81942171Y-128258065D01*
X81940500Y-128265748D01*
X81434510Y-128265748D01*
X81434510Y-118183586D01*
X81454512Y-118115465D01*
X81508168Y-118068972D01*
X81578442Y-118058868D01*
X81641501Y-118087064D01*
X81784770Y-118207281D01*
X81794884Y-118214207D01*
X81957342Y-118303518D01*
X81968606Y-118308346D01*
X82145316Y-118364402D01*
X82157303Y-118366950D01*
X82300461Y-118383007D01*
X82307485Y-118383400D01*
X82639685Y-118383400D01*
X82654924Y-118378925D01*
X82656129Y-118377535D01*
X82657800Y-118369852D01*
X82657801Y-117247400D01*
X82677803Y-117179279D01*
X82731459Y-117132786D01*
X82783801Y-117121400D01*
X83039800Y-117121401D01*
X83107921Y-117141403D01*
X83154414Y-117195059D01*
X83165800Y-117247401D01*
X83165799Y-118365285D01*
X83170274Y-118380524D01*
X83171664Y-118381729D01*
X83179347Y-118383400D01*
X83509712Y-118383400D01*
X83515860Y-118383099D01*
X83652426Y-118369709D01*
X83664461Y-118367326D01*
X83841924Y-118313746D01*
X83853266Y-118309071D01*
X84016944Y-118222043D01*
X84027160Y-118215256D01*
X84145138Y-118119034D01*
X84210569Y-118091480D01*
X84280511Y-118103675D01*
X84326709Y-118142615D01*
X84339458Y-118160162D01*
X84345976Y-118170085D01*
X84365462Y-118203033D01*
X84368478Y-118208132D01*
X84368846Y-118208550D01*
X84382929Y-118222633D01*
X84395769Y-118237666D01*
X84407545Y-118253874D01*
X84437129Y-118278348D01*
X84441326Y-118281820D01*
X84450106Y-118289810D01*
X92292818Y-126132523D01*
X92300169Y-126140601D01*
X92304227Y-126146995D01*
X92310006Y-126152422D01*
X92310007Y-126152423D01*
X92353062Y-126192854D01*
X92355904Y-126195609D01*
X92376233Y-126215938D01*
X92379653Y-126218590D01*
X92388676Y-126226297D01*
X92420899Y-126256557D01*
X92427843Y-126260374D01*
X92427848Y-126260378D01*
X92438650Y-126266316D01*
X92455177Y-126277172D01*
X92471177Y-126289583D01*
X92478448Y-126292730D01*
X92478449Y-126292730D01*
X92511751Y-126307141D01*
X92522407Y-126312362D01*
X92561152Y-126333662D01*
X92568835Y-126335634D01*
X92568836Y-126335635D01*
X92580768Y-126338699D01*
X92599472Y-126345103D01*
X92610785Y-126349999D01*
X92610792Y-126350001D01*
X92618064Y-126353148D01*
X92625888Y-126354387D01*
X92625891Y-126354388D01*
X92661735Y-126360065D01*
X92673356Y-126362472D01*
X92710418Y-126371987D01*
X92716175Y-126373465D01*
X92716731Y-126373500D01*
X92736652Y-126373500D01*
X92756362Y-126375051D01*
X92768314Y-126376944D01*
X92768315Y-126376944D01*
X92776144Y-126378184D01*
X92784036Y-126377438D01*
X92819782Y-126374059D01*
X92831640Y-126373500D01*
X111797157Y-126373500D01*
X111865278Y-126393502D01*
X111913565Y-126451280D01*
X111920465Y-126467937D01*
X111922361Y-126472514D01*
X112054651Y-126688392D01*
X112057862Y-126692152D01*
X112057866Y-126692157D01*
X112203178Y-126862295D01*
X112219083Y-126880917D01*
X112222845Y-126884130D01*
X112407843Y-127042134D01*
X112407848Y-127042138D01*
X112411608Y-127045349D01*
X112627486Y-127177639D01*
X112632056Y-127179532D01*
X112632060Y-127179534D01*
X112856828Y-127272636D01*
X112861401Y-127274530D01*
X112946106Y-127294866D01*
X113102780Y-127332480D01*
X113102786Y-127332481D01*
X113107593Y-127333635D01*
X113196153Y-127340605D01*
X113294012Y-127348307D01*
X113294021Y-127348307D01*
X113296469Y-127348500D01*
X117023531Y-127348500D01*
X117025979Y-127348307D01*
X117025988Y-127348307D01*
X117123847Y-127340605D01*
X117212407Y-127333635D01*
X117217214Y-127332481D01*
X117217220Y-127332480D01*
X117373894Y-127294866D01*
X117458599Y-127274530D01*
X117463172Y-127272636D01*
X117687940Y-127179534D01*
X117687944Y-127179532D01*
X117692514Y-127177639D01*
X117908392Y-127045349D01*
X117912152Y-127042138D01*
X117912157Y-127042134D01*
X118097155Y-126884130D01*
X118100917Y-126880917D01*
X118116822Y-126862295D01*
X118262134Y-126692157D01*
X118262138Y-126692152D01*
X118265349Y-126688392D01*
X118397639Y-126472514D01*
X118406435Y-126451280D01*
X118492636Y-126243172D01*
X118492637Y-126243170D01*
X118494530Y-126238599D01*
X118553635Y-125992407D01*
X118573500Y-125740000D01*
X118553635Y-125487593D01*
X118494530Y-125241401D01*
X118430367Y-125086498D01*
X118399534Y-125012060D01*
X118399532Y-125012056D01*
X118397639Y-125007486D01*
X118265349Y-124791608D01*
X118262138Y-124787848D01*
X118262134Y-124787843D01*
X118104130Y-124602845D01*
X118100917Y-124599083D01*
X118002073Y-124514662D01*
X117912157Y-124437866D01*
X117912152Y-124437862D01*
X117908392Y-124434651D01*
X117692514Y-124302361D01*
X117687944Y-124300468D01*
X117687940Y-124300466D01*
X117463172Y-124207364D01*
X117463170Y-124207363D01*
X117458599Y-124205470D01*
X117373894Y-124185134D01*
X117217220Y-124147520D01*
X117217214Y-124147519D01*
X117212407Y-124146365D01*
X117123847Y-124139395D01*
X117025988Y-124131693D01*
X117025979Y-124131693D01*
X117023531Y-124131500D01*
X113296469Y-124131500D01*
X113294021Y-124131693D01*
X113294012Y-124131693D01*
X113196153Y-124139395D01*
X113107593Y-124146365D01*
X113102786Y-124147519D01*
X113102780Y-124147520D01*
X112946106Y-124185134D01*
X112861401Y-124205470D01*
X112856830Y-124207363D01*
X112856828Y-124207364D01*
X112632060Y-124300466D01*
X112632056Y-124300468D01*
X112627486Y-124302361D01*
X112411608Y-124434651D01*
X112407848Y-124437862D01*
X112407843Y-124437866D01*
X112317927Y-124514662D01*
X112219083Y-124599083D01*
X112215870Y-124602845D01*
X112057866Y-124787843D01*
X112057862Y-124787848D01*
X112054651Y-124791608D01*
X111922361Y-125007486D01*
X111920466Y-125012062D01*
X111920465Y-125012063D01*
X111913565Y-125028720D01*
X111869016Y-125084000D01*
X111797157Y-125106500D01*
X93110794Y-125106500D01*
X93042673Y-125086498D01*
X93021699Y-125069595D01*
X85543396Y-117591292D01*
X85509370Y-117528980D01*
X85506491Y-117502197D01*
X85506491Y-116121710D01*
X86772296Y-116121710D01*
X86785986Y-116222304D01*
X86787928Y-116231440D01*
X86860504Y-116480433D01*
X86863772Y-116489176D01*
X86972357Y-116724714D01*
X86976877Y-116732869D01*
X87119084Y-116949771D01*
X87124767Y-116957176D01*
X87297467Y-117150671D01*
X87304183Y-117157156D01*
X87503591Y-117323001D01*
X87511179Y-117328414D01*
X87732924Y-117462973D01*
X87741224Y-117467202D01*
X87980412Y-117567502D01*
X87989262Y-117570463D01*
X88240637Y-117634303D01*
X88249834Y-117635925D01*
X88465916Y-117657684D01*
X88472208Y-117658000D01*
X89487885Y-117658000D01*
X89503124Y-117653525D01*
X89504329Y-117652135D01*
X89506000Y-117644452D01*
X89506000Y-116122115D01*
X89504659Y-116117548D01*
X90014000Y-116117548D01*
X90014000Y-117639885D01*
X90018475Y-117655124D01*
X90019865Y-117656329D01*
X90027548Y-117658000D01*
X91024940Y-117658000D01*
X91029615Y-117657827D01*
X91223326Y-117643432D01*
X91232532Y-117642055D01*
X91485513Y-117584812D01*
X91494424Y-117582088D01*
X91736163Y-117488080D01*
X91744573Y-117484069D01*
X91969759Y-117355364D01*
X91977485Y-117350153D01*
X92181177Y-117189575D01*
X92188045Y-117183282D01*
X92365767Y-116994359D01*
X92371625Y-116987125D01*
X92519473Y-116774003D01*
X92524201Y-116765976D01*
X92638919Y-116533350D01*
X92642407Y-116524717D01*
X92721482Y-116277686D01*
X92723658Y-116268626D01*
X92747557Y-116121878D01*
X92745861Y-116108285D01*
X92731754Y-116104000D01*
X90032115Y-116104000D01*
X90016876Y-116108475D01*
X90015671Y-116109865D01*
X90014000Y-116117548D01*
X89504659Y-116117548D01*
X89501525Y-116106876D01*
X89500135Y-116105671D01*
X89492452Y-116104000D01*
X86788001Y-116104000D01*
X86774317Y-116108018D01*
X86772296Y-116121710D01*
X85506491Y-116121710D01*
X85506491Y-111122002D01*
X85526493Y-111053881D01*
X85580149Y-111007388D01*
X85650423Y-110997284D01*
X85658689Y-110998756D01*
X85698050Y-111007123D01*
X85698057Y-111007124D01*
X85704513Y-111008496D01*
X85895487Y-111008496D01*
X85901939Y-111007124D01*
X85901944Y-111007124D01*
X85988887Y-110988643D01*
X86082287Y-110968790D01*
X86088318Y-110966105D01*
X86250720Y-110893799D01*
X86250722Y-110893798D01*
X86256750Y-110891114D01*
X86337339Y-110832563D01*
X86411399Y-110808500D01*
X86969501Y-110808500D01*
X87037622Y-110828502D01*
X87084115Y-110882158D01*
X87095501Y-110934500D01*
X87095501Y-111349347D01*
X87095209Y-111357918D01*
X87091478Y-111412641D01*
X87102467Y-111475609D01*
X87103425Y-111482099D01*
X87111097Y-111545494D01*
X87113783Y-111552602D01*
X87114424Y-111555212D01*
X87118881Y-111571505D01*
X87119647Y-111574044D01*
X87120953Y-111581524D01*
X87124005Y-111588476D01*
X87124005Y-111588477D01*
X87146631Y-111640021D01*
X87149124Y-111646130D01*
X87171695Y-111705862D01*
X87175996Y-111712120D01*
X87177245Y-111714509D01*
X87185437Y-111729228D01*
X87186808Y-111731546D01*
X87189861Y-111738501D01*
X87194486Y-111744529D01*
X87198352Y-111751065D01*
X87195961Y-111752479D01*
X87216864Y-111806553D01*
X87217300Y-111817031D01*
X87217300Y-112033735D01*
X87231940Y-112159304D01*
X87234436Y-112166181D01*
X87234437Y-112166184D01*
X87268103Y-112258932D01*
X87289806Y-112318722D01*
X87362425Y-112429485D01*
X87370873Y-112442370D01*
X87391501Y-112511457D01*
X87391500Y-112581263D01*
X87367438Y-112655319D01*
X87365377Y-112658155D01*
X87360963Y-112663058D01*
X87357663Y-112668773D01*
X87357662Y-112668775D01*
X87268780Y-112822723D01*
X87265476Y-112828446D01*
X87206462Y-113010073D01*
X87186500Y-113200000D01*
X87206462Y-113389927D01*
X87265476Y-113571554D01*
X87360963Y-113736942D01*
X87488749Y-113878863D01*
X87494091Y-113882744D01*
X87494093Y-113882746D01*
X87611907Y-113968342D01*
X87643250Y-113991114D01*
X87649276Y-113993797D01*
X87649283Y-113993801D01*
X87711523Y-114021511D01*
X87765619Y-114067491D01*
X87786269Y-114135418D01*
X87766917Y-114203726D01*
X87722798Y-114246011D01*
X87550241Y-114344636D01*
X87542515Y-114349847D01*
X87338823Y-114510425D01*
X87331955Y-114516718D01*
X87154233Y-114705641D01*
X87148375Y-114712875D01*
X87000527Y-114925997D01*
X86995799Y-114934024D01*
X86881081Y-115166650D01*
X86877593Y-115175283D01*
X86798518Y-115422314D01*
X86796342Y-115431374D01*
X86772443Y-115578122D01*
X86774139Y-115591715D01*
X86788246Y-115596000D01*
X89487885Y-115596000D01*
X89503124Y-115591525D01*
X89504329Y-115590135D01*
X89506000Y-115582452D01*
X89506000Y-114060115D01*
X89504659Y-114055548D01*
X90014000Y-114055548D01*
X90014000Y-115577885D01*
X90018475Y-115593124D01*
X90019865Y-115594329D01*
X90027548Y-115596000D01*
X92731999Y-115596000D01*
X92745683Y-115591982D01*
X92747704Y-115578290D01*
X92734014Y-115477696D01*
X92732072Y-115468560D01*
X92659496Y-115219567D01*
X92656228Y-115210824D01*
X92547643Y-114975286D01*
X92543123Y-114967131D01*
X92400916Y-114750229D01*
X92395233Y-114742824D01*
X92222533Y-114549329D01*
X92215817Y-114542844D01*
X92016409Y-114376999D01*
X92008821Y-114371586D01*
X91787076Y-114237027D01*
X91778776Y-114232798D01*
X91539588Y-114132498D01*
X91530738Y-114129537D01*
X91279363Y-114065697D01*
X91270166Y-114064075D01*
X91054084Y-114042316D01*
X91047792Y-114042000D01*
X90032115Y-114042000D01*
X90016876Y-114046475D01*
X90015671Y-114047865D01*
X90014000Y-114055548D01*
X89504659Y-114055548D01*
X89501525Y-114044876D01*
X89500135Y-114043671D01*
X89492452Y-114042000D01*
X88847362Y-114042000D01*
X88779241Y-114021998D01*
X88732748Y-113968342D01*
X88722644Y-113898068D01*
X88753726Y-113831690D01*
X88834618Y-113741850D01*
X88834619Y-113741849D01*
X88839037Y-113736942D01*
X88934524Y-113571554D01*
X88993538Y-113389927D01*
X89013500Y-113200000D01*
X88993538Y-113010073D01*
X88934524Y-112828446D01*
X88869926Y-112716559D01*
X88853188Y-112647565D01*
X88876408Y-112580473D01*
X88932215Y-112536586D01*
X89002890Y-112529837D01*
X89065697Y-112562086D01*
X89075898Y-112571749D01*
X89087545Y-112580462D01*
X89221440Y-112658235D01*
X89234765Y-112664029D01*
X89383784Y-112709162D01*
X89396407Y-112711610D01*
X89460734Y-112717351D01*
X89466204Y-112717594D01*
X89481424Y-112713125D01*
X89482629Y-112711735D01*
X89484300Y-112704052D01*
X89484300Y-112002148D01*
X89992300Y-112002148D01*
X89992300Y-112699485D01*
X89996775Y-112714724D01*
X89998165Y-112715929D01*
X90003785Y-112717151D01*
X90118119Y-112703822D01*
X90132266Y-112700478D01*
X90277822Y-112647643D01*
X90290817Y-112641135D01*
X90420311Y-112556235D01*
X90431463Y-112546911D01*
X90537949Y-112434502D01*
X90546662Y-112422855D01*
X90624435Y-112288960D01*
X90630229Y-112275635D01*
X90675362Y-112126616D01*
X90677810Y-112113993D01*
X90683551Y-112049666D01*
X90683800Y-112044071D01*
X90683800Y-112006715D01*
X90679325Y-111991476D01*
X90677935Y-111990271D01*
X90670252Y-111988600D01*
X90010415Y-111988600D01*
X89995176Y-111993075D01*
X89993971Y-111994465D01*
X89992300Y-112002148D01*
X89484300Y-112002148D01*
X89484300Y-111606600D01*
X89504302Y-111538479D01*
X89557958Y-111491986D01*
X89610300Y-111480600D01*
X90665685Y-111480600D01*
X90680924Y-111476125D01*
X90682129Y-111474735D01*
X90683800Y-111467052D01*
X90683800Y-111439126D01*
X90683375Y-111431822D01*
X90670022Y-111317281D01*
X90666678Y-111303134D01*
X90613843Y-111157578D01*
X90607335Y-111144583D01*
X90522435Y-111015089D01*
X90513111Y-111003937D01*
X90506182Y-110997373D01*
X90470484Y-110936004D01*
X90473632Y-110865077D01*
X90514625Y-110807111D01*
X90580450Y-110780510D01*
X90592835Y-110779900D01*
X91284000Y-110779900D01*
X91357079Y-110774673D01*
X91435165Y-110751745D01*
X91488670Y-110736035D01*
X91488672Y-110736034D01*
X91497316Y-110733496D01*
X91596270Y-110669902D01*
X91664390Y-110649900D01*
X92856657Y-110649900D01*
X92909986Y-110664263D01*
X92910722Y-110662571D01*
X92917434Y-110665489D01*
X92923766Y-110669167D01*
X93086080Y-110718327D01*
X93092520Y-110718902D01*
X93092521Y-110718902D01*
X93156934Y-110724651D01*
X93156940Y-110724651D01*
X93159727Y-110724900D01*
X93771134Y-110724900D01*
X93861212Y-110714398D01*
X93889431Y-110711108D01*
X93889432Y-110711108D01*
X93896703Y-110710260D01*
X93903581Y-110707764D01*
X93903583Y-110707763D01*
X94049243Y-110654891D01*
X94056122Y-110652394D01*
X94197951Y-110559407D01*
X94228890Y-110526747D01*
X94290259Y-110491049D01*
X94320363Y-110487400D01*
X95253700Y-110487400D01*
X95321821Y-110507402D01*
X95368314Y-110561058D01*
X95379700Y-110613400D01*
X95379701Y-119966139D01*
X95359699Y-120034260D01*
X95342796Y-120055234D01*
X92933463Y-122464568D01*
X92870565Y-122498720D01*
X92717713Y-122531210D01*
X92711683Y-122533895D01*
X92711682Y-122533895D01*
X92549280Y-122606201D01*
X92549278Y-122606202D01*
X92543250Y-122608886D01*
X92537909Y-122612766D01*
X92537908Y-122612767D01*
X92394093Y-122717254D01*
X92394091Y-122717256D01*
X92388749Y-122721137D01*
X92384328Y-122726047D01*
X92384327Y-122726048D01*
X92364308Y-122748282D01*
X92260963Y-122863058D01*
X92165476Y-123028446D01*
X92163434Y-123034731D01*
X92123457Y-123157769D01*
X92106462Y-123210073D01*
X92086500Y-123400000D01*
X92087190Y-123406565D01*
X92096891Y-123498860D01*
X92106462Y-123589927D01*
X92165476Y-123771554D01*
X92260963Y-123936942D01*
X92388749Y-124078863D01*
X92394091Y-124082744D01*
X92394093Y-124082746D01*
X92537908Y-124187233D01*
X92543250Y-124191114D01*
X92549278Y-124193798D01*
X92549280Y-124193799D01*
X92669506Y-124247327D01*
X92717713Y-124268790D01*
X92811113Y-124288643D01*
X92898056Y-124307124D01*
X92898061Y-124307124D01*
X92904513Y-124308496D01*
X93095487Y-124308496D01*
X93101939Y-124307124D01*
X93101944Y-124307124D01*
X93188887Y-124288643D01*
X93282287Y-124268790D01*
X93330494Y-124247327D01*
X93450720Y-124193799D01*
X93450722Y-124193798D01*
X93456750Y-124191114D01*
X93462092Y-124187233D01*
X93605907Y-124082746D01*
X93605909Y-124082744D01*
X93611251Y-124078863D01*
X93739037Y-123936942D01*
X93834524Y-123771554D01*
X93893538Y-123589927D01*
X93898446Y-123543233D01*
X93925460Y-123477576D01*
X93934661Y-123467309D01*
X95536992Y-121864978D01*
X95599304Y-121830952D01*
X95670119Y-121836017D01*
X95726955Y-121878564D01*
X95751766Y-121945084D01*
X95750076Y-121976492D01*
X95747747Y-121989377D01*
X95746751Y-121994883D01*
X95746700Y-122000223D01*
X95745297Y-122146410D01*
X95744538Y-122225433D01*
X95781202Y-122453061D01*
X95855694Y-122671256D01*
X95965885Y-122873780D01*
X96108624Y-123054844D01*
X96112589Y-123058420D01*
X96275859Y-123205689D01*
X96275865Y-123205694D01*
X96279829Y-123209269D01*
X96284342Y-123212128D01*
X96284344Y-123212129D01*
X96377217Y-123270954D01*
X96474606Y-123332639D01*
X96687384Y-123421428D01*
X96692587Y-123422625D01*
X96692592Y-123422626D01*
X96906878Y-123471901D01*
X96906883Y-123471902D01*
X96912081Y-123473097D01*
X96917409Y-123473400D01*
X96917412Y-123473400D01*
X97073493Y-123482263D01*
X97142271Y-123486168D01*
X97147578Y-123485568D01*
X97147580Y-123485568D01*
X97268472Y-123471901D01*
X97371373Y-123460268D01*
X97376488Y-123458787D01*
X97376492Y-123458786D01*
X97505498Y-123421428D01*
X97592835Y-123396137D01*
X97800325Y-123295609D01*
X97804663Y-123292509D01*
X97804668Y-123292506D01*
X97983570Y-123164659D01*
X97987911Y-123161557D01*
X98150230Y-122997817D01*
X98237243Y-122873780D01*
X98279575Y-122813436D01*
X98279576Y-122813434D01*
X98282639Y-122809068D01*
X98381353Y-122600708D01*
X98443549Y-122378694D01*
X98467449Y-122149376D01*
X98467700Y-122123200D01*
X99670700Y-122123200D01*
X99690520Y-122438225D01*
X99749666Y-122748282D01*
X99847207Y-123048481D01*
X99848894Y-123052067D01*
X99848896Y-123052071D01*
X99979915Y-123330502D01*
X99979919Y-123330509D01*
X99981603Y-123334088D01*
X100150736Y-123600598D01*
X100351937Y-123843809D01*
X100582035Y-124059885D01*
X100585237Y-124062212D01*
X100585239Y-124062213D01*
X100608156Y-124078863D01*
X100837399Y-124245418D01*
X100840868Y-124247325D01*
X100840871Y-124247327D01*
X100949642Y-124307124D01*
X101114004Y-124397483D01*
X101407486Y-124513681D01*
X101713217Y-124592179D01*
X102026376Y-124631740D01*
X102342024Y-124631740D01*
X102655183Y-124592179D01*
X102960914Y-124513681D01*
X103254396Y-124397483D01*
X103418759Y-124307124D01*
X103527529Y-124247327D01*
X103527532Y-124247325D01*
X103531001Y-124245418D01*
X103760244Y-124078863D01*
X103783161Y-124062213D01*
X103783163Y-124062212D01*
X103786365Y-124059885D01*
X104016463Y-123843809D01*
X104217664Y-123600598D01*
X104386797Y-123334088D01*
X104388481Y-123330509D01*
X104388485Y-123330502D01*
X104519504Y-123052071D01*
X104519506Y-123052067D01*
X104521193Y-123048481D01*
X104618734Y-122748282D01*
X104677880Y-122438225D01*
X104697700Y-122123200D01*
X104677880Y-121808175D01*
X104618734Y-121498118D01*
X104521193Y-121197919D01*
X104474559Y-121098816D01*
X104388485Y-120915898D01*
X104388481Y-120915891D01*
X104386797Y-120912312D01*
X104371756Y-120888611D01*
X105053620Y-120888611D01*
X105059347Y-120896261D01*
X105257693Y-121017808D01*
X105266487Y-121022289D01*
X105491182Y-121115360D01*
X105500568Y-121118409D01*
X105737058Y-121175186D01*
X105746805Y-121176729D01*
X105989270Y-121195812D01*
X105999137Y-121195812D01*
X106002566Y-121195542D01*
X106003852Y-121195812D01*
X106004086Y-121195812D01*
X106004086Y-121195861D01*
X106072047Y-121210135D01*
X106122608Y-121259976D01*
X106138196Y-121329240D01*
X106121958Y-121383485D01*
X106026445Y-121551277D01*
X105947778Y-121768002D01*
X105946829Y-121773251D01*
X105946828Y-121773254D01*
X105925090Y-121893465D01*
X105906751Y-121994883D01*
X105906700Y-122000223D01*
X105905297Y-122146410D01*
X105904538Y-122225433D01*
X105941202Y-122453061D01*
X106015694Y-122671256D01*
X106125885Y-122873780D01*
X106268624Y-123054844D01*
X106272589Y-123058420D01*
X106435859Y-123205689D01*
X106435865Y-123205694D01*
X106439829Y-123209269D01*
X106444342Y-123212128D01*
X106444344Y-123212129D01*
X106537217Y-123270954D01*
X106634606Y-123332639D01*
X106847384Y-123421428D01*
X106852587Y-123422625D01*
X106852592Y-123422626D01*
X107066878Y-123471901D01*
X107066883Y-123471902D01*
X107072081Y-123473097D01*
X107077409Y-123473400D01*
X107077412Y-123473400D01*
X107233493Y-123482263D01*
X107302271Y-123486168D01*
X107307578Y-123485568D01*
X107307580Y-123485568D01*
X107428472Y-123471901D01*
X107531373Y-123460268D01*
X107536488Y-123458787D01*
X107536492Y-123458786D01*
X107665498Y-123421428D01*
X107752835Y-123396137D01*
X107960325Y-123295609D01*
X107964663Y-123292509D01*
X107964668Y-123292506D01*
X108143570Y-123164659D01*
X108147911Y-123161557D01*
X108310230Y-122997817D01*
X108397243Y-122873780D01*
X108439575Y-122813436D01*
X108439576Y-122813434D01*
X108442639Y-122809068D01*
X108541353Y-122600708D01*
X108603549Y-122378694D01*
X108627449Y-122149376D01*
X108627700Y-122123200D01*
X108627364Y-122119242D01*
X108608658Y-121898776D01*
X108608657Y-121898772D01*
X108608207Y-121893465D01*
X108604340Y-121878564D01*
X108551626Y-121675469D01*
X108550284Y-121670298D01*
X108498931Y-121556298D01*
X108457778Y-121464943D01*
X108457777Y-121464941D01*
X108455588Y-121460082D01*
X108326827Y-121268826D01*
X108167682Y-121101999D01*
X107982704Y-120964371D01*
X107977953Y-120961955D01*
X107977949Y-120961953D01*
X107781940Y-120862297D01*
X107781939Y-120862297D01*
X107777182Y-120859878D01*
X107639766Y-120817209D01*
X107562095Y-120793091D01*
X107562089Y-120793090D01*
X107556992Y-120791507D01*
X107355536Y-120764807D01*
X107290635Y-120736028D01*
X107251595Y-120676729D01*
X107250812Y-120605737D01*
X107276280Y-120558070D01*
X107295926Y-120535066D01*
X107301731Y-120527076D01*
X107428806Y-120319710D01*
X107433288Y-120310915D01*
X107526360Y-120086218D01*
X107529409Y-120076832D01*
X107586186Y-119840342D01*
X107587729Y-119830595D01*
X107606812Y-119588130D01*
X107606812Y-119578270D01*
X107587729Y-119335805D01*
X107586186Y-119326058D01*
X107529409Y-119089568D01*
X107526360Y-119080182D01*
X107433289Y-118855487D01*
X107428808Y-118846693D01*
X107309508Y-118652013D01*
X107299052Y-118642553D01*
X107290274Y-118646337D01*
X106353410Y-119583200D01*
X105994200Y-119942410D01*
X105060379Y-120876232D01*
X105053620Y-120888611D01*
X104371756Y-120888611D01*
X104217664Y-120645802D01*
X104016463Y-120402591D01*
X103786365Y-120186515D01*
X103531001Y-120000982D01*
X103254396Y-119848917D01*
X102960914Y-119732719D01*
X102655183Y-119654221D01*
X102342024Y-119614660D01*
X102026376Y-119614660D01*
X101713217Y-119654221D01*
X101407486Y-119732719D01*
X101114004Y-119848917D01*
X100837399Y-120000982D01*
X100582035Y-120186515D01*
X100351937Y-120402591D01*
X100150736Y-120645802D01*
X99981603Y-120912312D01*
X99979919Y-120915891D01*
X99979915Y-120915898D01*
X99893841Y-121098816D01*
X99847207Y-121197919D01*
X99749666Y-121498118D01*
X99690520Y-121808175D01*
X99670700Y-122123200D01*
X98467700Y-122123200D01*
X98467364Y-122119242D01*
X98448658Y-121898776D01*
X98448657Y-121898772D01*
X98448207Y-121893465D01*
X98444340Y-121878564D01*
X98391626Y-121675469D01*
X98390284Y-121670298D01*
X98338931Y-121556298D01*
X98297778Y-121464943D01*
X98297777Y-121464941D01*
X98295588Y-121460082D01*
X98166827Y-121268826D01*
X98007682Y-121101999D01*
X97822704Y-120964371D01*
X97817953Y-120961955D01*
X97817949Y-120961953D01*
X97621940Y-120862297D01*
X97621939Y-120862297D01*
X97617182Y-120859878D01*
X97479766Y-120817209D01*
X97402095Y-120793091D01*
X97402089Y-120793090D01*
X97396992Y-120791507D01*
X97291998Y-120777591D01*
X97173715Y-120761914D01*
X97173710Y-120761914D01*
X97168430Y-120761214D01*
X97163100Y-120761414D01*
X97163099Y-120761414D01*
X97053231Y-120765538D01*
X96938031Y-120769863D01*
X96873811Y-120783338D01*
X96803035Y-120777751D01*
X96746515Y-120734786D01*
X96722195Y-120668085D01*
X96730543Y-120614257D01*
X96740209Y-120589463D01*
X96742766Y-120583378D01*
X96765924Y-120532089D01*
X96769050Y-120525166D01*
X96770434Y-120517700D01*
X96771240Y-120515128D01*
X96775854Y-120498929D01*
X96776524Y-120496321D01*
X96779284Y-120489240D01*
X96787623Y-120425901D01*
X96788655Y-120419387D01*
X96798907Y-120364070D01*
X96798907Y-120364069D01*
X96800291Y-120356602D01*
X96796909Y-120297945D01*
X96796700Y-120290692D01*
X96796700Y-119578270D01*
X104381588Y-119578270D01*
X104381588Y-119588130D01*
X104400671Y-119830595D01*
X104402214Y-119840342D01*
X104458991Y-120076832D01*
X104462040Y-120086218D01*
X104555111Y-120310913D01*
X104559592Y-120319707D01*
X104678892Y-120514387D01*
X104689348Y-120523847D01*
X104698126Y-120520063D01*
X105622179Y-119596011D01*
X105629792Y-119582068D01*
X105629661Y-119580234D01*
X105625410Y-119573620D01*
X104701165Y-118649376D01*
X104688790Y-118642619D01*
X104681139Y-118648346D01*
X104559592Y-118846693D01*
X104555111Y-118855487D01*
X104462040Y-119080182D01*
X104458991Y-119089568D01*
X104402214Y-119326058D01*
X104400671Y-119335805D01*
X104381588Y-119578270D01*
X96796700Y-119578270D01*
X96796700Y-110698665D01*
X96816702Y-110630544D01*
X96870358Y-110584051D01*
X96940632Y-110573947D01*
X96948897Y-110575419D01*
X97098047Y-110607123D01*
X97098060Y-110607124D01*
X97104513Y-110608496D01*
X97295487Y-110608496D01*
X97301939Y-110607124D01*
X97301944Y-110607124D01*
X97410490Y-110584051D01*
X97482287Y-110568790D01*
X97488318Y-110566105D01*
X97650720Y-110493799D01*
X97650722Y-110493798D01*
X97656750Y-110491114D01*
X97662092Y-110487233D01*
X97805907Y-110382746D01*
X97805909Y-110382744D01*
X97811251Y-110378863D01*
X97842295Y-110344385D01*
X97934618Y-110241850D01*
X97934619Y-110241849D01*
X97939037Y-110236942D01*
X98034524Y-110071554D01*
X98070651Y-109960367D01*
X98110725Y-109901762D01*
X98176122Y-109874125D01*
X98246078Y-109886232D01*
X98279579Y-109910209D01*
X98973796Y-110604426D01*
X99007822Y-110666738D01*
X99010701Y-110693521D01*
X99010700Y-115480357D01*
X98990698Y-115548478D01*
X98932920Y-115596765D01*
X98916263Y-115603665D01*
X98911686Y-115605561D01*
X98695808Y-115737851D01*
X98692048Y-115741062D01*
X98692043Y-115741066D01*
X98586481Y-115831225D01*
X98503283Y-115902283D01*
X98500070Y-115906045D01*
X98342066Y-116091043D01*
X98342062Y-116091048D01*
X98338851Y-116094808D01*
X98206561Y-116310686D01*
X98204668Y-116315256D01*
X98204666Y-116315260D01*
X98117906Y-116524717D01*
X98109670Y-116544601D01*
X98089334Y-116629306D01*
X98054565Y-116774132D01*
X98050565Y-116790793D01*
X98030700Y-117043200D01*
X98050565Y-117295607D01*
X98051719Y-117300414D01*
X98051720Y-117300420D01*
X98058441Y-117328414D01*
X98109670Y-117541799D01*
X98111563Y-117546370D01*
X98111564Y-117546372D01*
X98194673Y-117747013D01*
X98206561Y-117775714D01*
X98338851Y-117991592D01*
X98342062Y-117995352D01*
X98342066Y-117995357D01*
X98447697Y-118119034D01*
X98503283Y-118184117D01*
X98507045Y-118187330D01*
X98692043Y-118345334D01*
X98692048Y-118345338D01*
X98695808Y-118348549D01*
X98911686Y-118480839D01*
X98916256Y-118482732D01*
X98916260Y-118482734D01*
X99141028Y-118575836D01*
X99145601Y-118577730D01*
X99230306Y-118598066D01*
X99386980Y-118635680D01*
X99386986Y-118635681D01*
X99391793Y-118636835D01*
X99644200Y-118656700D01*
X99896607Y-118636835D01*
X99901414Y-118635681D01*
X99901420Y-118635680D01*
X100058094Y-118598066D01*
X100142799Y-118577730D01*
X100147372Y-118575836D01*
X100372140Y-118482734D01*
X100372144Y-118482732D01*
X100376714Y-118480839D01*
X100592592Y-118348549D01*
X100596352Y-118345338D01*
X100596357Y-118345334D01*
X100674787Y-118278348D01*
X105053553Y-118278348D01*
X105057337Y-118287126D01*
X105981389Y-119211179D01*
X105995332Y-119218792D01*
X105997166Y-119218661D01*
X106003780Y-119214410D01*
X106928024Y-118290165D01*
X106934781Y-118277790D01*
X106929054Y-118270139D01*
X106730707Y-118148592D01*
X106721913Y-118144111D01*
X106497218Y-118051040D01*
X106487832Y-118047991D01*
X106251342Y-117991214D01*
X106241595Y-117989671D01*
X105999130Y-117970588D01*
X105989270Y-117970588D01*
X105746805Y-117989671D01*
X105737058Y-117991214D01*
X105500568Y-118047991D01*
X105491182Y-118051040D01*
X105266487Y-118144111D01*
X105257693Y-118148592D01*
X105063013Y-118267892D01*
X105053553Y-118278348D01*
X100674787Y-118278348D01*
X100781355Y-118187330D01*
X100785117Y-118184117D01*
X100840703Y-118119034D01*
X100946334Y-117995357D01*
X100946338Y-117995352D01*
X100949549Y-117991592D01*
X101081839Y-117775714D01*
X101093728Y-117747013D01*
X101176836Y-117546372D01*
X101176837Y-117546370D01*
X101178730Y-117541799D01*
X101229959Y-117328414D01*
X101236680Y-117300420D01*
X101236681Y-117300414D01*
X101237835Y-117295607D01*
X101257700Y-117043200D01*
X101237835Y-116790793D01*
X101233836Y-116774132D01*
X101199066Y-116629306D01*
X101178730Y-116544601D01*
X101170494Y-116524717D01*
X101083734Y-116315260D01*
X101083732Y-116315256D01*
X101081839Y-116310686D01*
X100949549Y-116094808D01*
X100946338Y-116091048D01*
X100946334Y-116091043D01*
X100788330Y-115906045D01*
X100785117Y-115902283D01*
X100701919Y-115831225D01*
X100596357Y-115741066D01*
X100596352Y-115741062D01*
X100592592Y-115737851D01*
X100376714Y-115605561D01*
X100372137Y-115603665D01*
X100355480Y-115596765D01*
X100300200Y-115552216D01*
X100277700Y-115480357D01*
X100277700Y-110971319D01*
X100297702Y-110903198D01*
X100351358Y-110856705D01*
X100421632Y-110846601D01*
X100481878Y-110872505D01*
X100530500Y-110910973D01*
X100611110Y-110974749D01*
X100658658Y-111007123D01*
X100924053Y-111187824D01*
X101049522Y-111273253D01*
X101051470Y-111274385D01*
X101051474Y-111274387D01*
X101112607Y-111309896D01*
X101508153Y-111539648D01*
X101510176Y-111540637D01*
X101510180Y-111540639D01*
X101556008Y-111563040D01*
X101984658Y-111772569D01*
X101986753Y-111773413D01*
X101986759Y-111773416D01*
X102474499Y-111969981D01*
X102476596Y-111970826D01*
X102981450Y-112133403D01*
X102983634Y-112133937D01*
X102983636Y-112133938D01*
X103494444Y-112258932D01*
X103494454Y-112258934D01*
X103496636Y-112259468D01*
X104019517Y-112348376D01*
X104021744Y-112348592D01*
X104021756Y-112348594D01*
X104545179Y-112399455D01*
X104545192Y-112399456D01*
X104547417Y-112399672D01*
X104549644Y-112399728D01*
X104549654Y-112399729D01*
X104969674Y-112410361D01*
X105077633Y-112413094D01*
X105079878Y-112412990D01*
X105079888Y-112412990D01*
X105366383Y-112399729D01*
X105607451Y-112388571D01*
X105609678Y-112388307D01*
X105609683Y-112388307D01*
X105870806Y-112357401D01*
X106134160Y-112326231D01*
X106209229Y-112311843D01*
X106652871Y-112226813D01*
X106652884Y-112226810D01*
X106655065Y-112226392D01*
X106657230Y-112225814D01*
X107165320Y-112090147D01*
X107165331Y-112090144D01*
X107167498Y-112089565D01*
X107169627Y-112088830D01*
X107169633Y-112088828D01*
X107369977Y-112019648D01*
X107668836Y-111916451D01*
X107846569Y-111840458D01*
X108154435Y-111708825D01*
X108154450Y-111708818D01*
X108156515Y-111707935D01*
X108160540Y-111705862D01*
X108626032Y-111466119D01*
X108626040Y-111466115D01*
X108628037Y-111465086D01*
X108870656Y-111317281D01*
X109079049Y-111190327D01*
X109079052Y-111190325D01*
X109080989Y-111189145D01*
X109082837Y-111187829D01*
X109082845Y-111187824D01*
X109511207Y-110882840D01*
X109511219Y-110882830D01*
X109513053Y-110881525D01*
X109922017Y-110543801D01*
X109923636Y-110542257D01*
X110304166Y-110179250D01*
X110304176Y-110179240D01*
X110305788Y-110177702D01*
X110480514Y-109985344D01*
X110660879Y-109786778D01*
X110660883Y-109786774D01*
X110662402Y-109785101D01*
X110940920Y-109430531D01*
X110988638Y-109369783D01*
X110988639Y-109369782D01*
X110990033Y-109368007D01*
X111287005Y-108928556D01*
X111290672Y-108922193D01*
X111488002Y-108579716D01*
X111551796Y-108468998D01*
X111783053Y-107991683D01*
X111799723Y-107949901D01*
X111849918Y-107824084D01*
X111979592Y-107499056D01*
X112140406Y-106993637D01*
X112212255Y-106695509D01*
X112264147Y-106480194D01*
X112264149Y-106480184D01*
X112264672Y-106478014D01*
X112325797Y-106110778D01*
X112351381Y-105957068D01*
X112351382Y-105957063D01*
X112351754Y-105954826D01*
X112358846Y-105879101D01*
X112385757Y-105591727D01*
X112401207Y-105426751D01*
X112401314Y-105423044D01*
X112413442Y-105002024D01*
X112413442Y-105002015D01*
X112413500Y-105000000D01*
X112399101Y-104597746D01*
X112394608Y-104472211D01*
X112394608Y-104472205D01*
X112394527Y-104469954D01*
X112388321Y-104412361D01*
X112373435Y-104274204D01*
X122613406Y-104274204D01*
X122617875Y-104289424D01*
X122619265Y-104290629D01*
X122626948Y-104292300D01*
X123324285Y-104292301D01*
X123339524Y-104287826D01*
X123340729Y-104286436D01*
X123342400Y-104278753D01*
X123342400Y-104274185D01*
X123850399Y-104274185D01*
X123854874Y-104289424D01*
X123856264Y-104290629D01*
X123863947Y-104292300D01*
X124561285Y-104292301D01*
X124576524Y-104287826D01*
X124577729Y-104286436D01*
X124578951Y-104280816D01*
X124565622Y-104166484D01*
X124562277Y-104152332D01*
X124509444Y-104006781D01*
X124502934Y-103993782D01*
X124418035Y-103864289D01*
X124408711Y-103853137D01*
X124296302Y-103746651D01*
X124284655Y-103737938D01*
X124150760Y-103660165D01*
X124137435Y-103654371D01*
X123988416Y-103609238D01*
X123975793Y-103606790D01*
X123911466Y-103601049D01*
X123905871Y-103600800D01*
X123868515Y-103600800D01*
X123853276Y-103605275D01*
X123852071Y-103606665D01*
X123850400Y-103614348D01*
X123850399Y-104274185D01*
X123342400Y-104274185D01*
X123342401Y-103618915D01*
X123337926Y-103603676D01*
X123336536Y-103602471D01*
X123328853Y-103600800D01*
X123300927Y-103600800D01*
X123293623Y-103601225D01*
X123179084Y-103614578D01*
X123164932Y-103617923D01*
X123019381Y-103670756D01*
X123006382Y-103677266D01*
X122876889Y-103762165D01*
X122865737Y-103771489D01*
X122759251Y-103883898D01*
X122750538Y-103895545D01*
X122672765Y-104029440D01*
X122666971Y-104042765D01*
X122621838Y-104191784D01*
X122619390Y-104204407D01*
X122613649Y-104268734D01*
X122613406Y-104274204D01*
X112373435Y-104274204D01*
X112337947Y-103944855D01*
X112337946Y-103944850D01*
X112337706Y-103942620D01*
X112283456Y-103642614D01*
X112243727Y-103422909D01*
X112243725Y-103422899D01*
X112243327Y-103420699D01*
X112171907Y-103141525D01*
X112112429Y-102909030D01*
X112112426Y-102909020D01*
X112111874Y-102906862D01*
X112111085Y-102904495D01*
X112041372Y-102695542D01*
X111944019Y-102403738D01*
X111943165Y-102401681D01*
X111943160Y-102401668D01*
X111741486Y-101915983D01*
X111740622Y-101913902D01*
X111716773Y-101866379D01*
X111588088Y-101609961D01*
X111502723Y-101439863D01*
X111435390Y-101326685D01*
X111288050Y-101079029D01*
X111231541Y-100984046D01*
X110957301Y-100590201D01*
X110929753Y-100550639D01*
X110929753Y-100550638D01*
X110928462Y-100548785D01*
X110595039Y-100136306D01*
X110232979Y-99748723D01*
X110224901Y-99741229D01*
X110008932Y-99540889D01*
X109844134Y-99388017D01*
X109430494Y-99056036D01*
X108994177Y-98754479D01*
X108992232Y-98753331D01*
X108992221Y-98753324D01*
X108539363Y-98486038D01*
X108539360Y-98486036D01*
X108537416Y-98484889D01*
X108461881Y-98447311D01*
X108409800Y-98399060D01*
X108392073Y-98330313D01*
X108414327Y-98262894D01*
X108469499Y-98218210D01*
X108518003Y-98208500D01*
X127400978Y-98208500D01*
X127469099Y-98228502D01*
X127490073Y-98245405D01*
X127810905Y-98566237D01*
X127816758Y-98572503D01*
X127852814Y-98613835D01*
X127859032Y-98618205D01*
X127905075Y-98650564D01*
X127910351Y-98654482D01*
X127960626Y-98693903D01*
X127967547Y-98697028D01*
X127969854Y-98698425D01*
X127984482Y-98706768D01*
X127986858Y-98708042D01*
X127993074Y-98712411D01*
X128000153Y-98715171D01*
X128000155Y-98715172D01*
X128052579Y-98735611D01*
X128058650Y-98738162D01*
X128116873Y-98764451D01*
X128124339Y-98765835D01*
X128126911Y-98766641D01*
X128143110Y-98771255D01*
X128145718Y-98771925D01*
X128152799Y-98774685D01*
X128173551Y-98777417D01*
X128216138Y-98783024D01*
X128222652Y-98784056D01*
X128277969Y-98794308D01*
X128277970Y-98794308D01*
X128285437Y-98795692D01*
X128293018Y-98795255D01*
X128293019Y-98795255D01*
X128344094Y-98792310D01*
X128351347Y-98792101D01*
X129144260Y-98792101D01*
X129152831Y-98792393D01*
X129207540Y-98796123D01*
X129270478Y-98785138D01*
X129276990Y-98784178D01*
X129340393Y-98776505D01*
X129347498Y-98773820D01*
X129350105Y-98773180D01*
X129366343Y-98768738D01*
X129368940Y-98767954D01*
X129376423Y-98766648D01*
X129383379Y-98763595D01*
X129383381Y-98763594D01*
X129434904Y-98740977D01*
X129441013Y-98738484D01*
X129493651Y-98718594D01*
X129493653Y-98718593D01*
X129500761Y-98715907D01*
X129507026Y-98711601D01*
X129509417Y-98710351D01*
X129524121Y-98702167D01*
X129526442Y-98700794D01*
X129533400Y-98697740D01*
X129584076Y-98658854D01*
X129589385Y-98654997D01*
X129642045Y-98618805D01*
X129681155Y-98574909D01*
X129686135Y-98569634D01*
X129948764Y-98307005D01*
X130011076Y-98272979D01*
X130037859Y-98270100D01*
X130497200Y-98270100D01*
X130570279Y-98264873D01*
X130677675Y-98233339D01*
X130701870Y-98226235D01*
X130701872Y-98226234D01*
X130710516Y-98223696D01*
X130780059Y-98179003D01*
X130825891Y-98149549D01*
X130825894Y-98149547D01*
X130833471Y-98144677D01*
X130839372Y-98137867D01*
X130923282Y-98041031D01*
X130923284Y-98041028D01*
X130929184Y-98034219D01*
X130989900Y-97901270D01*
X131005006Y-97796206D01*
X131010061Y-97761048D01*
X131010062Y-97761041D01*
X131010700Y-97756600D01*
X131010700Y-96756600D01*
X131005473Y-96683521D01*
X130972597Y-96571554D01*
X130966835Y-96551930D01*
X130966834Y-96551928D01*
X130964296Y-96543284D01*
X130937712Y-96501919D01*
X130917710Y-96433799D01*
X130924152Y-96394026D01*
X130969472Y-96257789D01*
X130969973Y-96243696D01*
X130963785Y-96240600D01*
X130251202Y-96240599D01*
X130251196Y-96240600D01*
X129869200Y-96240599D01*
X129801079Y-96220597D01*
X129754586Y-96166941D01*
X129743200Y-96114599D01*
X129743200Y-95714485D01*
X130251199Y-95714485D01*
X130255674Y-95729724D01*
X130257064Y-95730929D01*
X130264747Y-95732600D01*
X130955511Y-95732601D01*
X130969042Y-95728628D01*
X130970134Y-95721034D01*
X130935546Y-95606476D01*
X130930871Y-95595134D01*
X130843846Y-95431463D01*
X130836468Y-95420358D01*
X130815431Y-95352550D01*
X130831860Y-95288393D01*
X130919577Y-95133985D01*
X130924567Y-95122776D01*
X130969472Y-94987787D01*
X130969973Y-94973696D01*
X130963785Y-94970600D01*
X130269315Y-94970599D01*
X130254076Y-94975074D01*
X130252871Y-94976464D01*
X130251200Y-94984147D01*
X130251200Y-95587537D01*
X130251199Y-95714485D01*
X129743200Y-95714485D01*
X129743200Y-95600385D01*
X129743201Y-94970600D01*
X129743200Y-94970596D01*
X129743201Y-94588600D01*
X129763203Y-94520479D01*
X129816859Y-94473986D01*
X129869201Y-94462600D01*
X130955511Y-94462601D01*
X130969042Y-94458628D01*
X130970134Y-94451034D01*
X130935546Y-94336476D01*
X130930871Y-94325134D01*
X130843845Y-94161462D01*
X130836775Y-94150819D01*
X130815740Y-94083010D01*
X130832169Y-94018857D01*
X130920031Y-93864191D01*
X130923078Y-93858828D01*
X130985514Y-93671139D01*
X131010305Y-93474899D01*
X131010700Y-93446600D01*
X130991398Y-93249743D01*
X130934227Y-93060385D01*
X130841366Y-92885738D01*
X130837468Y-92880958D01*
X130836748Y-92879875D01*
X130815708Y-92812067D01*
X130832137Y-92747906D01*
X130919577Y-92593985D01*
X130924567Y-92582776D01*
X130969472Y-92447787D01*
X130969973Y-92433696D01*
X130963785Y-92430600D01*
X130251202Y-92430599D01*
X130251196Y-92430600D01*
X129869200Y-92430599D01*
X129801079Y-92410597D01*
X129754586Y-92356941D01*
X129743200Y-92304599D01*
X129743200Y-91904485D01*
X130251199Y-91904485D01*
X130255674Y-91919724D01*
X130257064Y-91920929D01*
X130264747Y-91922600D01*
X130955511Y-91922601D01*
X130969042Y-91918628D01*
X130970134Y-91911034D01*
X130935546Y-91796476D01*
X130930871Y-91785134D01*
X130843843Y-91621456D01*
X130837056Y-91611240D01*
X130719890Y-91467581D01*
X130711246Y-91458877D01*
X130568412Y-91340714D01*
X130558241Y-91333854D01*
X130395169Y-91245682D01*
X130383870Y-91240932D01*
X130268507Y-91205220D01*
X130254405Y-91205014D01*
X130251200Y-91211770D01*
X130251199Y-91904485D01*
X129743200Y-91904485D01*
X129743201Y-91218548D01*
X129739228Y-91205017D01*
X129731433Y-91203897D01*
X129623633Y-91235624D01*
X129612265Y-91240217D01*
X129447978Y-91326104D01*
X129432558Y-91336194D01*
X129431127Y-91334008D01*
X129376010Y-91356768D01*
X129306155Y-91344086D01*
X129296300Y-91338321D01*
X129293942Y-91336370D01*
X129288523Y-91333440D01*
X129288520Y-91333438D01*
X129125365Y-91245221D01*
X129125361Y-91245219D01*
X129119947Y-91242292D01*
X129114067Y-91240472D01*
X129114065Y-91240471D01*
X129021347Y-91211770D01*
X128930992Y-91183800D01*
X128924874Y-91183157D01*
X128924869Y-91183156D01*
X128740405Y-91163769D01*
X128740403Y-91163769D01*
X128734276Y-91163125D01*
X128651426Y-91170665D01*
X128543428Y-91180493D01*
X128543425Y-91180494D01*
X128537289Y-91181052D01*
X128531383Y-91182790D01*
X128531379Y-91182791D01*
X128409888Y-91218548D01*
X128347536Y-91236899D01*
X128172245Y-91328539D01*
X128018091Y-91452482D01*
X127890947Y-91604006D01*
X127887983Y-91609398D01*
X127887980Y-91609402D01*
X127810231Y-91750827D01*
X127795656Y-91777340D01*
X127793795Y-91783207D01*
X127793794Y-91783209D01*
X127737709Y-91960012D01*
X127735847Y-91965882D01*
X127713799Y-92162449D01*
X127714315Y-92168593D01*
X127719103Y-92225618D01*
X127704871Y-92295174D01*
X127682640Y-92325256D01*
X126599316Y-93408580D01*
X126537004Y-93442606D01*
X126510221Y-93445485D01*
X101103661Y-93445485D01*
X101035540Y-93425483D01*
X100989047Y-93371827D01*
X100978943Y-93301553D01*
X100983828Y-93280549D01*
X100997600Y-93238164D01*
X100997600Y-93238163D01*
X100999640Y-93231885D01*
X101019602Y-93041958D01*
X100999640Y-92852031D01*
X100986558Y-92811767D01*
X100942668Y-92676689D01*
X100940626Y-92670404D01*
X100845139Y-92505016D01*
X100808196Y-92463986D01*
X100721775Y-92368006D01*
X100721774Y-92368005D01*
X100717353Y-92363095D01*
X100712011Y-92359214D01*
X100712009Y-92359212D01*
X100568194Y-92254725D01*
X100568193Y-92254724D01*
X100562852Y-92250844D01*
X100556824Y-92248160D01*
X100556822Y-92248159D01*
X100419109Y-92186845D01*
X100365013Y-92140864D01*
X100344364Y-92072937D01*
X100363717Y-92004629D01*
X100381263Y-91982643D01*
X105200660Y-87163246D01*
X105262972Y-87129220D01*
X105333787Y-87134285D01*
X105342097Y-87137727D01*
X105424935Y-87175558D01*
X105424938Y-87175559D01*
X105433130Y-87179300D01*
X105442045Y-87180582D01*
X105442046Y-87180582D01*
X105573352Y-87199461D01*
X105573359Y-87199462D01*
X105577800Y-87200100D01*
X106227800Y-87200100D01*
X106300879Y-87194873D01*
X106378965Y-87171945D01*
X106432470Y-87156235D01*
X106432472Y-87156234D01*
X106441116Y-87153696D01*
X106535380Y-87093116D01*
X106556491Y-87079549D01*
X106556494Y-87079547D01*
X106564071Y-87074677D01*
X106603849Y-87028771D01*
X106653882Y-86971031D01*
X106653884Y-86971028D01*
X106659784Y-86964219D01*
X106720500Y-86831270D01*
X106731762Y-86752940D01*
X106740661Y-86691048D01*
X106740662Y-86691041D01*
X106741300Y-86686600D01*
X106741300Y-86016194D01*
X106761302Y-85948073D01*
X106778205Y-85927099D01*
X107842513Y-84862791D01*
X107850601Y-84855431D01*
X107856995Y-84851373D01*
X107862813Y-84845178D01*
X107902869Y-84802522D01*
X107905624Y-84799680D01*
X107925937Y-84779367D01*
X107928581Y-84775959D01*
X107936286Y-84766937D01*
X107961134Y-84740477D01*
X107961137Y-84740473D01*
X107966557Y-84734701D01*
X107970373Y-84727761D01*
X107970376Y-84727756D01*
X107976319Y-84716946D01*
X107987171Y-84700426D01*
X107994721Y-84690692D01*
X107999583Y-84684424D01*
X108017139Y-84643854D01*
X108022362Y-84633192D01*
X108039843Y-84601395D01*
X108039843Y-84601394D01*
X108043662Y-84594448D01*
X108045635Y-84586765D01*
X108048702Y-84574823D01*
X108055103Y-84556125D01*
X108059999Y-84544810D01*
X108063147Y-84537536D01*
X108064417Y-84529519D01*
X108070063Y-84493872D01*
X108072470Y-84482251D01*
X108081987Y-84445182D01*
X108081987Y-84445181D01*
X108083465Y-84439425D01*
X108083500Y-84438869D01*
X108083500Y-84418947D01*
X108085051Y-84399236D01*
X108086944Y-84387284D01*
X108088184Y-84379456D01*
X108084059Y-84335817D01*
X108083500Y-84323960D01*
X108083500Y-83007384D01*
X125560249Y-83007384D01*
X125573578Y-83121718D01*
X125576922Y-83135865D01*
X125629757Y-83281421D01*
X125636265Y-83294416D01*
X125721165Y-83423910D01*
X125730489Y-83435062D01*
X125842898Y-83541548D01*
X125854545Y-83550261D01*
X125988440Y-83628034D01*
X126001765Y-83633828D01*
X126150783Y-83678961D01*
X126163408Y-83681409D01*
X126227737Y-83687151D01*
X126233328Y-83687400D01*
X126270685Y-83687400D01*
X126285924Y-83682925D01*
X126287129Y-83681535D01*
X126288800Y-83673852D01*
X126288800Y-83669285D01*
X126796799Y-83669285D01*
X126801274Y-83684524D01*
X126802664Y-83685729D01*
X126810347Y-83687400D01*
X126838273Y-83687400D01*
X126845577Y-83686975D01*
X126960118Y-83673622D01*
X126974265Y-83670278D01*
X127119821Y-83617443D01*
X127132816Y-83610935D01*
X127262310Y-83526035D01*
X127273462Y-83516711D01*
X127379948Y-83404302D01*
X127388661Y-83392655D01*
X127466434Y-83258760D01*
X127472228Y-83245435D01*
X127517361Y-83096417D01*
X127519809Y-83083792D01*
X127525551Y-83019463D01*
X127525794Y-83013996D01*
X127521325Y-82998776D01*
X127519935Y-82997571D01*
X127512252Y-82995900D01*
X126814915Y-82995899D01*
X126799676Y-83000374D01*
X126798471Y-83001764D01*
X126796800Y-83009447D01*
X126796799Y-83669285D01*
X126288800Y-83669285D01*
X126288801Y-83014015D01*
X126284326Y-82998776D01*
X126282936Y-82997571D01*
X126275253Y-82995900D01*
X125577915Y-82995899D01*
X125562676Y-83000374D01*
X125561471Y-83001764D01*
X125560249Y-83007384D01*
X108083500Y-83007384D01*
X108083500Y-79739142D01*
X108103502Y-79671021D01*
X108157158Y-79624528D01*
X108200510Y-79613464D01*
X108273079Y-79608273D01*
X108351165Y-79585345D01*
X108404670Y-79569635D01*
X108404672Y-79569634D01*
X108413316Y-79567096D01*
X108477135Y-79526082D01*
X108528691Y-79492949D01*
X108528694Y-79492947D01*
X108536271Y-79488077D01*
X108576048Y-79442172D01*
X108626082Y-79384431D01*
X108626084Y-79384428D01*
X108631984Y-79377619D01*
X108692700Y-79244670D01*
X108703962Y-79166340D01*
X108712861Y-79104448D01*
X108712862Y-79104441D01*
X108713500Y-79100000D01*
X108713500Y-78100000D01*
X108708273Y-78026921D01*
X108667096Y-77886684D01*
X108618142Y-77810510D01*
X108592949Y-77771309D01*
X108592947Y-77771306D01*
X108588077Y-77763729D01*
X108581267Y-77757828D01*
X108484431Y-77673918D01*
X108484428Y-77673916D01*
X108477619Y-77668016D01*
X108469421Y-77664272D01*
X108352864Y-77611042D01*
X108352863Y-77611042D01*
X108344670Y-77607300D01*
X108335755Y-77606018D01*
X108335754Y-77606018D01*
X108204448Y-77587139D01*
X108204441Y-77587138D01*
X108200000Y-77586500D01*
X106700000Y-77586500D01*
X106626921Y-77591727D01*
X106573884Y-77607300D01*
X106495330Y-77630365D01*
X106495328Y-77630366D01*
X106486684Y-77632904D01*
X106479105Y-77637775D01*
X106371309Y-77707051D01*
X106371306Y-77707053D01*
X106363729Y-77711923D01*
X106357828Y-77718733D01*
X106273918Y-77815569D01*
X106273916Y-77815572D01*
X106268016Y-77822381D01*
X106264272Y-77830579D01*
X106215735Y-77936861D01*
X106207300Y-77955330D01*
X106206018Y-77964245D01*
X106206018Y-77964246D01*
X106187139Y-78095552D01*
X106187138Y-78095559D01*
X106186500Y-78100000D01*
X106186500Y-79100000D01*
X106191727Y-79173079D01*
X106232904Y-79313316D01*
X106237775Y-79320895D01*
X106307051Y-79428691D01*
X106307053Y-79428693D01*
X106311923Y-79436271D01*
X106318733Y-79442172D01*
X106415569Y-79526082D01*
X106415572Y-79526084D01*
X106422381Y-79531984D01*
X106555330Y-79592700D01*
X106564245Y-79593982D01*
X106564246Y-79593982D01*
X106593375Y-79598170D01*
X106700000Y-79613500D01*
X106700449Y-79613500D01*
X106766009Y-79637953D01*
X106808556Y-79694789D01*
X106816500Y-79738821D01*
X106816501Y-81849230D01*
X106816501Y-81988922D01*
X106796499Y-82057043D01*
X106742843Y-82103536D01*
X106672569Y-82113640D01*
X106607989Y-82084147D01*
X106511960Y-82000939D01*
X106496952Y-81991293D01*
X106380525Y-81938123D01*
X106363412Y-81933098D01*
X106232246Y-81914239D01*
X106223305Y-81913600D01*
X106174915Y-81913600D01*
X106159676Y-81918075D01*
X106158471Y-81919465D01*
X106156800Y-81927148D01*
X106156799Y-83334600D01*
X106136797Y-83402721D01*
X106083141Y-83449214D01*
X106030798Y-83460600D01*
X105917299Y-83460599D01*
X105849178Y-83440596D01*
X105802686Y-83386940D01*
X105791300Y-83334599D01*
X105791300Y-82426600D01*
X105786073Y-82353521D01*
X105763145Y-82275435D01*
X105747435Y-82221930D01*
X105747434Y-82221928D01*
X105744896Y-82213284D01*
X105668803Y-82094882D01*
X105648801Y-82026761D01*
X105648801Y-81931715D01*
X105644326Y-81916476D01*
X105642936Y-81915271D01*
X105635253Y-81913600D01*
X105580057Y-81913600D01*
X105575550Y-81913761D01*
X105511531Y-81918340D01*
X105498312Y-81920725D01*
X105469562Y-81929167D01*
X105416133Y-81932989D01*
X105292900Y-81915271D01*
X105282245Y-81913739D01*
X105282244Y-81913739D01*
X105277800Y-81913100D01*
X104627800Y-81913100D01*
X104554721Y-81918327D01*
X104548239Y-81920230D01*
X104548235Y-81920231D01*
X104518380Y-81928997D01*
X104464952Y-81932819D01*
X104332248Y-81913739D01*
X104332241Y-81913738D01*
X104327800Y-81913100D01*
X103677800Y-81913100D01*
X103604721Y-81918327D01*
X103551684Y-81933900D01*
X103473130Y-81956965D01*
X103473128Y-81956966D01*
X103464484Y-81959504D01*
X103456908Y-81964373D01*
X103456899Y-81964377D01*
X103452621Y-81967127D01*
X103384501Y-81987130D01*
X103316380Y-81967128D01*
X103269887Y-81913473D01*
X103258500Y-81861130D01*
X103258500Y-79733513D01*
X103278502Y-79665392D01*
X103332158Y-79618899D01*
X103362128Y-79609515D01*
X103366341Y-79608755D01*
X103373079Y-79608273D01*
X103379559Y-79606370D01*
X103379561Y-79606370D01*
X103504670Y-79569635D01*
X103504672Y-79569634D01*
X103513316Y-79567096D01*
X103577135Y-79526082D01*
X103628691Y-79492949D01*
X103628694Y-79492947D01*
X103636271Y-79488077D01*
X103676048Y-79442172D01*
X103726082Y-79384431D01*
X103726084Y-79384428D01*
X103731984Y-79377619D01*
X103792700Y-79244670D01*
X103803962Y-79166340D01*
X103812861Y-79104448D01*
X103812862Y-79104441D01*
X103813500Y-79100000D01*
X103813500Y-78100000D01*
X103808273Y-78026921D01*
X103767096Y-77886684D01*
X103718142Y-77810510D01*
X103692949Y-77771309D01*
X103692947Y-77771306D01*
X103688077Y-77763729D01*
X103681267Y-77757828D01*
X103602926Y-77689944D01*
X103564543Y-77630217D01*
X103564543Y-77559221D01*
X103596344Y-77505625D01*
X103707985Y-77393984D01*
X108821649Y-77393984D01*
X108834978Y-77508318D01*
X108838322Y-77522465D01*
X108891155Y-77668016D01*
X108897665Y-77681016D01*
X108982565Y-77810510D01*
X108991889Y-77821662D01*
X109104298Y-77928148D01*
X109115945Y-77936861D01*
X109249840Y-78014634D01*
X109263165Y-78020428D01*
X109412183Y-78065561D01*
X109424808Y-78068009D01*
X109489137Y-78073751D01*
X109494728Y-78074000D01*
X109532085Y-78074000D01*
X109547324Y-78069525D01*
X109548529Y-78068135D01*
X109550200Y-78060452D01*
X109550200Y-78055885D01*
X110058199Y-78055885D01*
X110062674Y-78071124D01*
X110064064Y-78072329D01*
X110071747Y-78074000D01*
X110099673Y-78074000D01*
X110106977Y-78073575D01*
X110221518Y-78060222D01*
X110235665Y-78056878D01*
X110381221Y-78004043D01*
X110394216Y-77997535D01*
X110523710Y-77912635D01*
X110534862Y-77903311D01*
X110641348Y-77790902D01*
X110650061Y-77779255D01*
X110727834Y-77645360D01*
X110733628Y-77632035D01*
X110778761Y-77483017D01*
X110781209Y-77470392D01*
X110786951Y-77406063D01*
X110787194Y-77400596D01*
X110782725Y-77385376D01*
X110781335Y-77384171D01*
X110773652Y-77382500D01*
X110076315Y-77382499D01*
X110061076Y-77386974D01*
X110059871Y-77388364D01*
X110058200Y-77396047D01*
X110058199Y-78055885D01*
X109550200Y-78055885D01*
X109550201Y-77400615D01*
X109545726Y-77385376D01*
X109544336Y-77384171D01*
X109536653Y-77382500D01*
X108839315Y-77382499D01*
X108824076Y-77386974D01*
X108822871Y-77388364D01*
X108821649Y-77393984D01*
X103707985Y-77393984D01*
X105434421Y-75667548D01*
X106187000Y-75667548D01*
X106187000Y-75897743D01*
X106187161Y-75902250D01*
X106191740Y-75966269D01*
X106194126Y-75979491D01*
X106230819Y-76104458D01*
X106238233Y-76120692D01*
X106307426Y-76228360D01*
X106319112Y-76241847D01*
X106415840Y-76325662D01*
X106430848Y-76335307D01*
X106547275Y-76388477D01*
X106564388Y-76393502D01*
X106695554Y-76412361D01*
X106704495Y-76413000D01*
X107177885Y-76413000D01*
X107193124Y-76408525D01*
X107194329Y-76407135D01*
X107196000Y-76399452D01*
X107196000Y-75672115D01*
X107191525Y-75656876D01*
X107190135Y-75655671D01*
X107182452Y-75654000D01*
X106205115Y-75654000D01*
X106189876Y-75658475D01*
X106188671Y-75659865D01*
X106187000Y-75667548D01*
X105434421Y-75667548D01*
X105988511Y-75113459D01*
X106050823Y-75079433D01*
X106121639Y-75084498D01*
X106178474Y-75127045D01*
X106182729Y-75135546D01*
X106192865Y-75144329D01*
X106200548Y-75146000D01*
X107578000Y-75146000D01*
X107646121Y-75166002D01*
X107692614Y-75219658D01*
X107704000Y-75272000D01*
X107704000Y-76394885D01*
X107708475Y-76410124D01*
X107709865Y-76411329D01*
X107717548Y-76413000D01*
X108197743Y-76413000D01*
X108202250Y-76412839D01*
X108266269Y-76408260D01*
X108279491Y-76405874D01*
X108404458Y-76369181D01*
X108420692Y-76361767D01*
X108528360Y-76292574D01*
X108541847Y-76280888D01*
X108625662Y-76184160D01*
X108635309Y-76169148D01*
X108665881Y-76102205D01*
X108712374Y-76048550D01*
X108780494Y-76028548D01*
X108848615Y-76048550D01*
X108892026Y-76096872D01*
X108893206Y-76100121D01*
X108986193Y-76241950D01*
X108991505Y-76246983D01*
X108991510Y-76246988D01*
X108996543Y-76251756D01*
X109032240Y-76313125D01*
X109029092Y-76384052D01*
X109001361Y-76429881D01*
X108967052Y-76466098D01*
X108958339Y-76477745D01*
X108880566Y-76611640D01*
X108874772Y-76624965D01*
X108829639Y-76773983D01*
X108827191Y-76786608D01*
X108821449Y-76850937D01*
X108821206Y-76856404D01*
X108825675Y-76871624D01*
X108827065Y-76872829D01*
X108834748Y-76874500D01*
X109550198Y-76874501D01*
X109550204Y-76874500D01*
X110769085Y-76874501D01*
X110784324Y-76870026D01*
X110785529Y-76868636D01*
X110786751Y-76863016D01*
X110773422Y-76748682D01*
X110770078Y-76734535D01*
X110717243Y-76588979D01*
X110710735Y-76575984D01*
X110625835Y-76446490D01*
X110616507Y-76435333D01*
X110611877Y-76430947D01*
X110576179Y-76369578D01*
X110579327Y-76298651D01*
X110607057Y-76252822D01*
X110646785Y-76210885D01*
X110731966Y-76064234D01*
X110781126Y-75901920D01*
X110787700Y-75828273D01*
X110787700Y-75291866D01*
X110773060Y-75166297D01*
X110769826Y-75157386D01*
X110717691Y-75013758D01*
X110715194Y-75006879D01*
X110711181Y-75000759D01*
X110707903Y-74994212D01*
X110709889Y-74993218D01*
X110692411Y-74935659D01*
X110711786Y-74867357D01*
X110765012Y-74820373D01*
X110818406Y-74808500D01*
X125160500Y-74808500D01*
X125228621Y-74828502D01*
G37*
%TD.AperFunction*%
%TA.AperFunction,Conductor*%
G36*
X131833622Y-107633502D02*
G01*
X131880115Y-107687158D01*
X131891501Y-107739500D01*
X131891500Y-130261000D01*
X131871498Y-130329121D01*
X131817842Y-130375614D01*
X131765500Y-130387000D01*
X131722115Y-130387000D01*
X131706876Y-130391475D01*
X131705671Y-130392865D01*
X131704000Y-130400548D01*
X131704000Y-132394885D01*
X131708475Y-132410124D01*
X131709865Y-132411329D01*
X131717548Y-132413000D01*
X131765500Y-132413000D01*
X131833621Y-132433002D01*
X131880114Y-132486658D01*
X131891500Y-132539000D01*
X131891500Y-133460500D01*
X131871498Y-133528621D01*
X131817842Y-133575114D01*
X131765500Y-133586500D01*
X131384596Y-133586500D01*
X131316475Y-133566498D01*
X131295501Y-133549596D01*
X130449386Y-132703482D01*
X130442030Y-132695398D01*
X130437973Y-132689005D01*
X130389121Y-132643130D01*
X130386280Y-132640376D01*
X130365966Y-132620062D01*
X130362555Y-132617417D01*
X130353533Y-132609711D01*
X130327077Y-132584867D01*
X130321301Y-132579443D01*
X130314357Y-132575626D01*
X130314355Y-132575624D01*
X130303547Y-132569682D01*
X130287023Y-132558828D01*
X130277286Y-132551275D01*
X130277285Y-132551275D01*
X130271023Y-132546417D01*
X130263750Y-132543270D01*
X130263747Y-132543268D01*
X130243335Y-132534435D01*
X130230458Y-132528863D01*
X130219800Y-132523642D01*
X130187994Y-132506156D01*
X130187990Y-132506154D01*
X130181048Y-132502338D01*
X130173373Y-132500368D01*
X130173372Y-132500367D01*
X130161426Y-132497300D01*
X130142719Y-132490895D01*
X130131410Y-132486001D01*
X130131408Y-132486001D01*
X130124135Y-132482853D01*
X130116307Y-132481613D01*
X130116306Y-132481613D01*
X130080473Y-132475938D01*
X130068848Y-132473530D01*
X130031782Y-132464013D01*
X130031780Y-132464013D01*
X130026025Y-132462535D01*
X130025469Y-132462500D01*
X130005546Y-132462500D01*
X129985837Y-132460949D01*
X129966055Y-132457816D01*
X129958163Y-132458562D01*
X129922418Y-132461941D01*
X129910560Y-132462500D01*
X127761034Y-132462500D01*
X127692913Y-132442498D01*
X127646420Y-132388842D01*
X127636316Y-132318568D01*
X127665810Y-132253987D01*
X127669191Y-132250086D01*
X127731984Y-132177619D01*
X127792700Y-132044670D01*
X127803972Y-131966269D01*
X127812861Y-131904448D01*
X127812862Y-131904441D01*
X127813500Y-131900000D01*
X127813500Y-131667548D01*
X130187000Y-131667548D01*
X130187000Y-131897743D01*
X130187161Y-131902250D01*
X130191740Y-131966269D01*
X130194126Y-131979491D01*
X130230819Y-132104458D01*
X130238233Y-132120692D01*
X130307426Y-132228360D01*
X130319112Y-132241847D01*
X130415840Y-132325662D01*
X130430848Y-132335307D01*
X130547275Y-132388477D01*
X130564388Y-132393502D01*
X130695554Y-132412361D01*
X130704495Y-132413000D01*
X131177885Y-132413000D01*
X131193124Y-132408525D01*
X131194329Y-132407135D01*
X131196000Y-132399452D01*
X131196000Y-131672115D01*
X131191525Y-131656876D01*
X131190135Y-131655671D01*
X131182452Y-131654000D01*
X130205115Y-131654000D01*
X130189876Y-131658475D01*
X130188671Y-131659865D01*
X130187000Y-131667548D01*
X127813500Y-131667548D01*
X127813500Y-131084594D01*
X127833502Y-131016473D01*
X127850405Y-130995499D01*
X127941409Y-130904495D01*
X130187000Y-130904495D01*
X130187000Y-131127885D01*
X130191475Y-131143124D01*
X130192865Y-131144329D01*
X130200548Y-131146000D01*
X131177885Y-131146000D01*
X131193124Y-131141525D01*
X131194329Y-131140135D01*
X131196000Y-131132452D01*
X131196000Y-130405115D01*
X131191525Y-130389876D01*
X131190135Y-130388671D01*
X131182452Y-130387000D01*
X130702257Y-130387000D01*
X130697750Y-130387161D01*
X130633731Y-130391740D01*
X130620509Y-130394126D01*
X130495542Y-130430819D01*
X130479308Y-130438233D01*
X130371640Y-130507426D01*
X130358153Y-130519112D01*
X130274338Y-130615840D01*
X130264693Y-130630848D01*
X130211523Y-130747275D01*
X130206498Y-130764388D01*
X130187639Y-130895554D01*
X130187000Y-130904495D01*
X127941409Y-130904495D01*
X130767512Y-128078392D01*
X130775600Y-128071032D01*
X130781994Y-128066974D01*
X130827869Y-128018122D01*
X130830623Y-128015281D01*
X130850936Y-127994968D01*
X130853581Y-127991557D01*
X130861287Y-127982535D01*
X130886130Y-127956080D01*
X130891556Y-127950302D01*
X130895376Y-127943354D01*
X130901316Y-127932549D01*
X130912172Y-127916022D01*
X130919721Y-127906290D01*
X130924581Y-127900025D01*
X130942142Y-127859446D01*
X130947350Y-127848814D01*
X130968661Y-127810049D01*
X130970632Y-127802372D01*
X130970634Y-127802367D01*
X130973697Y-127790435D01*
X130980103Y-127771723D01*
X130985000Y-127760409D01*
X130985001Y-127760405D01*
X130988146Y-127753138D01*
X130995063Y-127709464D01*
X130997467Y-127697856D01*
X131008464Y-127655026D01*
X131008499Y-127654470D01*
X131008499Y-127634548D01*
X131010050Y-127614837D01*
X131011943Y-127602885D01*
X131013183Y-127595057D01*
X131009058Y-127551422D01*
X131008499Y-127539564D01*
X131008499Y-107989595D01*
X131028501Y-107921474D01*
X131045404Y-107900500D01*
X131295499Y-107650405D01*
X131357811Y-107616379D01*
X131384594Y-107613500D01*
X131765501Y-107613500D01*
X131833622Y-107633502D01*
G37*
%TD.AperFunction*%
%TA.AperFunction,Conductor*%
G36*
X78889800Y-108481401D02*
G01*
X78957921Y-108501403D01*
X79004414Y-108555059D01*
X79015800Y-108607401D01*
X79015799Y-109725285D01*
X79020274Y-109740524D01*
X79021664Y-109741729D01*
X79029347Y-109743400D01*
X79209712Y-109743400D01*
X79215860Y-109743099D01*
X79352426Y-109729709D01*
X79364461Y-109727326D01*
X79541924Y-109673746D01*
X79553266Y-109669071D01*
X79716944Y-109582043D01*
X79727160Y-109575256D01*
X79870819Y-109458090D01*
X79879524Y-109449445D01*
X79944427Y-109370991D01*
X80003260Y-109331253D01*
X80074238Y-109329632D01*
X80134826Y-109366641D01*
X80165786Y-109430531D01*
X80167511Y-109451307D01*
X80167510Y-116659518D01*
X80147508Y-116727639D01*
X80093852Y-116774132D01*
X80023578Y-116784235D01*
X79958998Y-116754742D01*
X79943313Y-116738470D01*
X79889420Y-116671441D01*
X79880842Y-116662681D01*
X79738830Y-116543519D01*
X79728716Y-116536593D01*
X79566258Y-116447282D01*
X79554994Y-116442454D01*
X79378284Y-116386398D01*
X79366297Y-116383850D01*
X79223139Y-116367793D01*
X79216115Y-116367400D01*
X79033915Y-116367400D01*
X79018676Y-116371875D01*
X79017471Y-116373265D01*
X79015800Y-116380948D01*
X79015799Y-117121398D01*
X79015800Y-117121404D01*
X79015799Y-118365285D01*
X79020274Y-118380524D01*
X79021664Y-118381729D01*
X79029347Y-118383400D01*
X79209712Y-118383400D01*
X79215860Y-118383099D01*
X79352426Y-118369709D01*
X79364461Y-118367326D01*
X79541924Y-118313746D01*
X79553266Y-118309071D01*
X79716944Y-118222043D01*
X79727160Y-118215256D01*
X79870819Y-118098090D01*
X79879524Y-118089445D01*
X79944426Y-118010992D01*
X80003259Y-117971254D01*
X80074237Y-117969633D01*
X80134825Y-118006642D01*
X80165785Y-118070532D01*
X80167510Y-118091308D01*
X80167510Y-128125700D01*
X80147508Y-128193821D01*
X80093852Y-128240314D01*
X80041510Y-128251700D01*
X79849865Y-128251700D01*
X79773203Y-128260638D01*
X79731568Y-128265492D01*
X79731567Y-128265492D01*
X79724296Y-128266340D01*
X79717419Y-128268836D01*
X79717416Y-128268837D01*
X79571757Y-128321709D01*
X79564878Y-128324206D01*
X79500967Y-128366107D01*
X79493700Y-128370872D01*
X79424615Y-128391500D01*
X78134500Y-128391500D01*
X78066379Y-128371498D01*
X78019886Y-128317842D01*
X78008500Y-128265500D01*
X78008500Y-118490918D01*
X78028502Y-118422797D01*
X78082158Y-118376304D01*
X78151172Y-118366381D01*
X78151185Y-118366264D01*
X78151635Y-118366315D01*
X78152432Y-118366200D01*
X78155528Y-118366751D01*
X78300461Y-118383007D01*
X78307485Y-118383400D01*
X78489685Y-118383400D01*
X78504924Y-118378925D01*
X78506129Y-118377535D01*
X78507800Y-118369852D01*
X78507801Y-117629402D01*
X78507800Y-117629396D01*
X78507801Y-116385515D01*
X78503326Y-116370276D01*
X78501936Y-116369071D01*
X78494253Y-116367400D01*
X78313888Y-116367400D01*
X78307740Y-116367701D01*
X78171171Y-116381091D01*
X78158975Y-116383506D01*
X78088266Y-116377117D01*
X78032237Y-116333514D01*
X78008500Y-116259906D01*
X78008500Y-115918739D01*
X78032562Y-115844681D01*
X78034623Y-115841845D01*
X78039037Y-115836942D01*
X78096248Y-115737851D01*
X78131220Y-115677277D01*
X78131221Y-115677276D01*
X78134524Y-115671554D01*
X78193538Y-115489927D01*
X78213500Y-115300000D01*
X78199728Y-115168966D01*
X78194228Y-115116637D01*
X78194228Y-115116636D01*
X78193538Y-115110073D01*
X78134524Y-114928446D01*
X78039037Y-114763058D01*
X78034623Y-114758155D01*
X78032562Y-114755319D01*
X78008500Y-114681261D01*
X78008500Y-109850918D01*
X78028502Y-109782797D01*
X78082158Y-109736304D01*
X78151172Y-109726381D01*
X78151185Y-109726264D01*
X78151635Y-109726315D01*
X78152432Y-109726200D01*
X78155528Y-109726751D01*
X78300461Y-109743007D01*
X78307485Y-109743400D01*
X78489685Y-109743400D01*
X78504924Y-109738925D01*
X78506129Y-109737535D01*
X78507800Y-109729852D01*
X78507801Y-108607400D01*
X78527803Y-108539279D01*
X78581459Y-108492786D01*
X78633801Y-108481400D01*
X78889800Y-108481401D01*
G37*
%TD.AperFunction*%
%TA.AperFunction,Conductor*%
G36*
X89220110Y-110443524D02*
G01*
X89257987Y-110481401D01*
X89308119Y-110559407D01*
X89335923Y-110602671D01*
X89333980Y-110603919D01*
X89358212Y-110656982D01*
X89348107Y-110727255D01*
X89301613Y-110780910D01*
X89276486Y-110793350D01*
X89198778Y-110821557D01*
X89185783Y-110828065D01*
X89056289Y-110912965D01*
X89045137Y-110922289D01*
X89040748Y-110926922D01*
X88979379Y-110962620D01*
X88908452Y-110959472D01*
X88862620Y-110931740D01*
X88857535Y-110926922D01*
X88842801Y-110912965D01*
X88828246Y-110899176D01*
X88792549Y-110837806D01*
X88795698Y-110766880D01*
X88836693Y-110708915D01*
X88846780Y-110701707D01*
X88851514Y-110698665D01*
X88885214Y-110677007D01*
X88912691Y-110659349D01*
X88912694Y-110659347D01*
X88920271Y-110654477D01*
X88955865Y-110613400D01*
X89010082Y-110550831D01*
X89010084Y-110550828D01*
X89015984Y-110544019D01*
X89019728Y-110535822D01*
X89019730Y-110535818D01*
X89037376Y-110497179D01*
X89083869Y-110443524D01*
X89151990Y-110423522D01*
X89220110Y-110443524D01*
G37*
%TD.AperFunction*%
%TA.AperFunction,Conductor*%
G36*
X89263355Y-108636241D02*
G01*
X89320191Y-108678786D01*
X89325321Y-108686175D01*
X89327819Y-108690061D01*
X89335923Y-108702671D01*
X89342733Y-108708572D01*
X89439569Y-108792482D01*
X89439572Y-108792484D01*
X89446381Y-108798384D01*
X89454579Y-108802128D01*
X89518260Y-108831210D01*
X89579330Y-108859100D01*
X89588245Y-108860382D01*
X89588246Y-108860382D01*
X89623399Y-108865436D01*
X89687980Y-108894929D01*
X89726364Y-108954655D01*
X89726364Y-109025652D01*
X89687981Y-109085378D01*
X89640966Y-109111050D01*
X89519330Y-109146765D01*
X89519328Y-109146766D01*
X89510684Y-109149304D01*
X89503105Y-109154175D01*
X89395309Y-109223451D01*
X89395306Y-109223453D01*
X89387729Y-109228323D01*
X89381828Y-109235133D01*
X89313974Y-109313440D01*
X89254248Y-109351823D01*
X89183251Y-109351823D01*
X89123525Y-109313439D01*
X89097854Y-109266424D01*
X89092525Y-109248276D01*
X89091135Y-109247071D01*
X89083452Y-109245400D01*
X88978994Y-109245400D01*
X88910873Y-109225398D01*
X88896482Y-109214625D01*
X88868430Y-109190318D01*
X88861619Y-109184416D01*
X88728670Y-109123700D01*
X88719755Y-109122418D01*
X88719754Y-109122418D01*
X88684601Y-109117364D01*
X88620020Y-109087871D01*
X88581636Y-109028145D01*
X88581636Y-108957148D01*
X88620019Y-108897422D01*
X88667034Y-108871750D01*
X88788670Y-108836035D01*
X88788672Y-108836034D01*
X88797316Y-108833496D01*
X88903026Y-108765560D01*
X88915720Y-108757402D01*
X88983841Y-108737400D01*
X89078885Y-108737400D01*
X89094124Y-108732925D01*
X89095329Y-108731535D01*
X89096203Y-108727516D01*
X89130227Y-108665203D01*
X89192539Y-108631177D01*
X89263355Y-108636241D01*
G37*
%TD.AperFunction*%
%TA.AperFunction,Conductor*%
G36*
X101810631Y-77149089D02*
G01*
X101866107Y-77193393D01*
X101888825Y-77260657D01*
X101877763Y-77317559D01*
X101869150Y-77336635D01*
X101867765Y-77344108D01*
X101866958Y-77346683D01*
X101862350Y-77362860D01*
X101861677Y-77365480D01*
X101858917Y-77372560D01*
X101857925Y-77380095D01*
X101850581Y-77435881D01*
X101849552Y-77442383D01*
X101842020Y-77483017D01*
X101840878Y-77489181D01*
X101808796Y-77552516D01*
X101747566Y-77588451D01*
X101739362Y-77590216D01*
X101733659Y-77591245D01*
X101726921Y-77591727D01*
X101720436Y-77593631D01*
X101720437Y-77593631D01*
X101595330Y-77630365D01*
X101595328Y-77630366D01*
X101586684Y-77632904D01*
X101579105Y-77637775D01*
X101471309Y-77707051D01*
X101471306Y-77707053D01*
X101463729Y-77711923D01*
X101457828Y-77718733D01*
X101373918Y-77815569D01*
X101373916Y-77815572D01*
X101368016Y-77822381D01*
X101364272Y-77830579D01*
X101315735Y-77936861D01*
X101307300Y-77955330D01*
X101306018Y-77964245D01*
X101306018Y-77964246D01*
X101287139Y-78095552D01*
X101287138Y-78095559D01*
X101286500Y-78100000D01*
X101286500Y-79100000D01*
X101291727Y-79173079D01*
X101332904Y-79313316D01*
X101337775Y-79320895D01*
X101407051Y-79428691D01*
X101407053Y-79428693D01*
X101411923Y-79436271D01*
X101418733Y-79442172D01*
X101515569Y-79526082D01*
X101515572Y-79526084D01*
X101522381Y-79531984D01*
X101655330Y-79592700D01*
X101664245Y-79593982D01*
X101664246Y-79593982D01*
X101733431Y-79603929D01*
X101798012Y-79633422D01*
X101836396Y-79693148D01*
X101841500Y-79728647D01*
X101841501Y-84427846D01*
X101841209Y-84436417D01*
X101837478Y-84491141D01*
X101848467Y-84554109D01*
X101849425Y-84560599D01*
X101857097Y-84623994D01*
X101859783Y-84631102D01*
X101860424Y-84633712D01*
X101864881Y-84650005D01*
X101865647Y-84652544D01*
X101866953Y-84660024D01*
X101870005Y-84666976D01*
X101870005Y-84666977D01*
X101892631Y-84718521D01*
X101895124Y-84724630D01*
X101911111Y-84766937D01*
X101917695Y-84784362D01*
X101921996Y-84790620D01*
X101923245Y-84793009D01*
X101931437Y-84807728D01*
X101932808Y-84810046D01*
X101935861Y-84817001D01*
X101974760Y-84867696D01*
X101978614Y-84873000D01*
X102010492Y-84919383D01*
X102010494Y-84919386D01*
X102014797Y-84925646D01*
X102020471Y-84930701D01*
X102058683Y-84964747D01*
X102063959Y-84969728D01*
X103127395Y-86033165D01*
X103161421Y-86095477D01*
X103164300Y-86122260D01*
X103164300Y-86686600D01*
X103169527Y-86759679D01*
X103210704Y-86899916D01*
X103215575Y-86907495D01*
X103284851Y-87015291D01*
X103284853Y-87015294D01*
X103289723Y-87022871D01*
X103326478Y-87054720D01*
X103364861Y-87114444D01*
X103364861Y-87185441D01*
X103333060Y-87239038D01*
X98192531Y-92379567D01*
X98130219Y-92413593D01*
X98103436Y-92416472D01*
X91461067Y-92416472D01*
X91450163Y-92415958D01*
X91442772Y-92414306D01*
X91434847Y-92414555D01*
X91434846Y-92414555D01*
X91375831Y-92416410D01*
X91371873Y-92416472D01*
X91343106Y-92416472D01*
X91338821Y-92417013D01*
X91326987Y-92417945D01*
X91300970Y-92418763D01*
X91290720Y-92419085D01*
X91290719Y-92419085D01*
X91282800Y-92419334D01*
X91275192Y-92421544D01*
X91275187Y-92421545D01*
X91263345Y-92424985D01*
X91243991Y-92428993D01*
X91231763Y-92430538D01*
X91223896Y-92431532D01*
X91216528Y-92434449D01*
X91216521Y-92434451D01*
X91182783Y-92447809D01*
X91171553Y-92451654D01*
X91136715Y-92461775D01*
X91136714Y-92461776D01*
X91129105Y-92463986D01*
X91111672Y-92474296D01*
X91093925Y-92482990D01*
X91075084Y-92490450D01*
X91068669Y-92495111D01*
X91039313Y-92516439D01*
X91029396Y-92522954D01*
X90991342Y-92545459D01*
X90990924Y-92545827D01*
X90976842Y-92559909D01*
X90961809Y-92572750D01*
X90945601Y-92584526D01*
X90940552Y-92590629D01*
X90940551Y-92590630D01*
X90917654Y-92618308D01*
X90909664Y-92627087D01*
X90057518Y-93479233D01*
X89995206Y-93513259D01*
X89924391Y-93508194D01*
X89867555Y-93465647D01*
X89845177Y-93416339D01*
X89845028Y-93415637D01*
X89844338Y-93409073D01*
X89785324Y-93227446D01*
X89689837Y-93062058D01*
X89683434Y-93054946D01*
X89566473Y-92925048D01*
X89566472Y-92925047D01*
X89562051Y-92920137D01*
X89556709Y-92916256D01*
X89556707Y-92916254D01*
X89412892Y-92811767D01*
X89412891Y-92811766D01*
X89407550Y-92807886D01*
X89401522Y-92805202D01*
X89401520Y-92805201D01*
X89239118Y-92732895D01*
X89239117Y-92732895D01*
X89233087Y-92730210D01*
X89139687Y-92710357D01*
X89052744Y-92691876D01*
X89052739Y-92691876D01*
X89046287Y-92690504D01*
X88855313Y-92690504D01*
X88848861Y-92691876D01*
X88848856Y-92691876D01*
X88761913Y-92710357D01*
X88668513Y-92730210D01*
X88662483Y-92732895D01*
X88662482Y-92732895D01*
X88500080Y-92805201D01*
X88500078Y-92805202D01*
X88494050Y-92807886D01*
X88488709Y-92811766D01*
X88488708Y-92811767D01*
X88344893Y-92916254D01*
X88344891Y-92916256D01*
X88339549Y-92920137D01*
X88335128Y-92925047D01*
X88335127Y-92925048D01*
X88218167Y-93054946D01*
X88211763Y-93062058D01*
X88116276Y-93227446D01*
X88057262Y-93409073D01*
X88056572Y-93415636D01*
X88056572Y-93415637D01*
X88053684Y-93443112D01*
X88037300Y-93599000D01*
X88057262Y-93788927D01*
X88116276Y-93970554D01*
X88211763Y-94135942D01*
X88216181Y-94140849D01*
X88216182Y-94140850D01*
X88284937Y-94217210D01*
X88315655Y-94281217D01*
X88317301Y-94301520D01*
X88317300Y-96965602D01*
X88317300Y-99607143D01*
X88316786Y-99618047D01*
X88315134Y-99625438D01*
X88315383Y-99633363D01*
X88315383Y-99633364D01*
X88317238Y-99692379D01*
X88317300Y-99696337D01*
X88317300Y-99725103D01*
X88317841Y-99729382D01*
X88318773Y-99741222D01*
X88320162Y-99785409D01*
X88322372Y-99793017D01*
X88322373Y-99793022D01*
X88325813Y-99804864D01*
X88329821Y-99824218D01*
X88332360Y-99844313D01*
X88335277Y-99851681D01*
X88335279Y-99851688D01*
X88348637Y-99885426D01*
X88352482Y-99896656D01*
X88364814Y-99939104D01*
X88368849Y-99945926D01*
X88375124Y-99956537D01*
X88383818Y-99974284D01*
X88391278Y-99993125D01*
X88395937Y-99999537D01*
X88395940Y-99999543D01*
X88417268Y-100028898D01*
X88423785Y-100038820D01*
X88435480Y-100058594D01*
X88446287Y-100076867D01*
X88446655Y-100077285D01*
X88460738Y-100091368D01*
X88473578Y-100106401D01*
X88485354Y-100122609D01*
X88519135Y-100150555D01*
X88527915Y-100158545D01*
X95467079Y-107097709D01*
X95501105Y-107160021D01*
X95496040Y-107230836D01*
X95453493Y-107287672D01*
X95447069Y-107292176D01*
X95368689Y-107343565D01*
X95357537Y-107352889D01*
X95251051Y-107465298D01*
X95242338Y-107476945D01*
X95164565Y-107610840D01*
X95158771Y-107624165D01*
X95113638Y-107773184D01*
X95111190Y-107785807D01*
X95105449Y-107850134D01*
X95105206Y-107855604D01*
X95109675Y-107870824D01*
X95111065Y-107872029D01*
X95118748Y-107873700D01*
X96190881Y-107873701D01*
X96259002Y-107893703D01*
X96279976Y-107910606D01*
X96305295Y-107935925D01*
X96339321Y-107998237D01*
X96342200Y-108025021D01*
X96342199Y-108255701D01*
X96322197Y-108323821D01*
X96268541Y-108370314D01*
X96216199Y-108381700D01*
X95123315Y-108381699D01*
X95108076Y-108386174D01*
X95106871Y-108387564D01*
X95105649Y-108393184D01*
X95118978Y-108507516D01*
X95122323Y-108521668D01*
X95175156Y-108667219D01*
X95181666Y-108680218D01*
X95266565Y-108809711D01*
X95275889Y-108820863D01*
X95280522Y-108825252D01*
X95316220Y-108886621D01*
X95313072Y-108957548D01*
X95285341Y-109003378D01*
X95259124Y-109031053D01*
X95197755Y-109066751D01*
X95167652Y-109070400D01*
X94408081Y-109070400D01*
X94339960Y-109050398D01*
X94293467Y-108996742D01*
X94283363Y-108926468D01*
X94307190Y-108868922D01*
X94317859Y-108854661D01*
X94395635Y-108720760D01*
X94401429Y-108707435D01*
X94446562Y-108558416D01*
X94449010Y-108545793D01*
X94454751Y-108481466D01*
X94454994Y-108475996D01*
X94450525Y-108460776D01*
X94449135Y-108459571D01*
X94441452Y-108457900D01*
X93726002Y-108457899D01*
X93725996Y-108457900D01*
X92507115Y-108457899D01*
X92491876Y-108462374D01*
X92490671Y-108463764D01*
X92489449Y-108469384D01*
X92502778Y-108583716D01*
X92506123Y-108597868D01*
X92558956Y-108743419D01*
X92565466Y-108756418D01*
X92650365Y-108885911D01*
X92659689Y-108897063D01*
X92664322Y-108901452D01*
X92700020Y-108962821D01*
X92696872Y-109033748D01*
X92669142Y-109079578D01*
X92629414Y-109121515D01*
X92614748Y-109146765D01*
X92601144Y-109170186D01*
X92549633Y-109219044D01*
X92492190Y-109232900D01*
X91664568Y-109232900D01*
X91596447Y-109212898D01*
X91582055Y-109202124D01*
X91568431Y-109190318D01*
X91568428Y-109190316D01*
X91561619Y-109184416D01*
X91428670Y-109123700D01*
X91419755Y-109122418D01*
X91419754Y-109122418D01*
X91384601Y-109117364D01*
X91320020Y-109087871D01*
X91281636Y-109028145D01*
X91281636Y-108957148D01*
X91320019Y-108897422D01*
X91367034Y-108871750D01*
X91488670Y-108836035D01*
X91488672Y-108836034D01*
X91497316Y-108833496D01*
X91561135Y-108792482D01*
X91612691Y-108759349D01*
X91612694Y-108759347D01*
X91620271Y-108754477D01*
X91629853Y-108743419D01*
X91710082Y-108650831D01*
X91710084Y-108650828D01*
X91715984Y-108644019D01*
X91756611Y-108555059D01*
X91772958Y-108519264D01*
X91772958Y-108519263D01*
X91776700Y-108511070D01*
X91782468Y-108470950D01*
X91796861Y-108370848D01*
X91796862Y-108370841D01*
X91797500Y-108366400D01*
X91797500Y-107931804D01*
X92489006Y-107931804D01*
X92493475Y-107947024D01*
X92494865Y-107948229D01*
X92502548Y-107949900D01*
X93199885Y-107949901D01*
X93215124Y-107945426D01*
X93216329Y-107944036D01*
X93218000Y-107936353D01*
X93218000Y-107931785D01*
X93725999Y-107931785D01*
X93730474Y-107947024D01*
X93731864Y-107948229D01*
X93739547Y-107949900D01*
X94436885Y-107949901D01*
X94452124Y-107945426D01*
X94453329Y-107944036D01*
X94454551Y-107938416D01*
X94441222Y-107824084D01*
X94437877Y-107809932D01*
X94385044Y-107664381D01*
X94378534Y-107651382D01*
X94293635Y-107521889D01*
X94284311Y-107510737D01*
X94171902Y-107404251D01*
X94160255Y-107395538D01*
X94026360Y-107317765D01*
X94013035Y-107311971D01*
X93864016Y-107266838D01*
X93851393Y-107264390D01*
X93787066Y-107258649D01*
X93781471Y-107258400D01*
X93744115Y-107258400D01*
X93728876Y-107262875D01*
X93727671Y-107264265D01*
X93726000Y-107271948D01*
X93725999Y-107931785D01*
X93218000Y-107931785D01*
X93218001Y-107276515D01*
X93213526Y-107261276D01*
X93212136Y-107260071D01*
X93204453Y-107258400D01*
X93176527Y-107258400D01*
X93169223Y-107258825D01*
X93054684Y-107272178D01*
X93040532Y-107275523D01*
X92894981Y-107328356D01*
X92881982Y-107334866D01*
X92752489Y-107419765D01*
X92741337Y-107429089D01*
X92634851Y-107541498D01*
X92626138Y-107553145D01*
X92548365Y-107687040D01*
X92542571Y-107700365D01*
X92497438Y-107849384D01*
X92494990Y-107862007D01*
X92489249Y-107926334D01*
X92489006Y-107931804D01*
X91797500Y-107931804D01*
X91797500Y-107716400D01*
X91792273Y-107643321D01*
X91751096Y-107503084D01*
X91711949Y-107442171D01*
X91676949Y-107387709D01*
X91676947Y-107387706D01*
X91672077Y-107380129D01*
X91665267Y-107374228D01*
X91568431Y-107290318D01*
X91568428Y-107290316D01*
X91561619Y-107284416D01*
X91523129Y-107266838D01*
X91436864Y-107227442D01*
X91436863Y-107227442D01*
X91428670Y-107223700D01*
X91419755Y-107222418D01*
X91419754Y-107222418D01*
X91288448Y-107203539D01*
X91288441Y-107203538D01*
X91284000Y-107202900D01*
X89724000Y-107202900D01*
X89650921Y-107208127D01*
X89602073Y-107222470D01*
X89519330Y-107246765D01*
X89519328Y-107246766D01*
X89510684Y-107249304D01*
X89475450Y-107271948D01*
X89395309Y-107323451D01*
X89395306Y-107323453D01*
X89387729Y-107328323D01*
X89381828Y-107335133D01*
X89297918Y-107431969D01*
X89297916Y-107431972D01*
X89292016Y-107438781D01*
X89288272Y-107446978D01*
X89288270Y-107446982D01*
X89270624Y-107485621D01*
X89224131Y-107539276D01*
X89156010Y-107559278D01*
X89087890Y-107539276D01*
X89050013Y-107501399D01*
X89047547Y-107497561D01*
X89031968Y-107473320D01*
X88976949Y-107387709D01*
X88976947Y-107387706D01*
X88972077Y-107380129D01*
X88965267Y-107374228D01*
X88868431Y-107290318D01*
X88868428Y-107290316D01*
X88861619Y-107284416D01*
X88823129Y-107266838D01*
X88736864Y-107227442D01*
X88736863Y-107227442D01*
X88728670Y-107223700D01*
X88719755Y-107222418D01*
X88719754Y-107222418D01*
X88588448Y-107203539D01*
X88588441Y-107203538D01*
X88584000Y-107202900D01*
X87024000Y-107202900D01*
X86950921Y-107208127D01*
X86902073Y-107222470D01*
X86819330Y-107246765D01*
X86819328Y-107246766D01*
X86810684Y-107249304D01*
X86718321Y-107308663D01*
X86711731Y-107312898D01*
X86643610Y-107332900D01*
X86384538Y-107332900D01*
X86375968Y-107332608D01*
X86328834Y-107329394D01*
X86328830Y-107329394D01*
X86321258Y-107328878D01*
X86258307Y-107339864D01*
X86251817Y-107340822D01*
X86229152Y-107343565D01*
X86195947Y-107347583D01*
X86195944Y-107347584D01*
X86188406Y-107348496D01*
X86181300Y-107351181D01*
X86178727Y-107351813D01*
X86162403Y-107356278D01*
X86159855Y-107357047D01*
X86152375Y-107358353D01*
X86145424Y-107361405D01*
X86145422Y-107361405D01*
X86093894Y-107384025D01*
X86087790Y-107386516D01*
X86028038Y-107409094D01*
X86021774Y-107413399D01*
X86019395Y-107414643D01*
X86004678Y-107422834D01*
X86002357Y-107424207D01*
X85995399Y-107427261D01*
X85944723Y-107466147D01*
X85939404Y-107470010D01*
X85905452Y-107493345D01*
X85837983Y-107515446D01*
X85769276Y-107497561D01*
X85760024Y-107491443D01*
X85735079Y-107473320D01*
X85729740Y-107469441D01*
X85723712Y-107466757D01*
X85561308Y-107394450D01*
X85561307Y-107394450D01*
X85555277Y-107391765D01*
X85450158Y-107369421D01*
X85374934Y-107353431D01*
X85374929Y-107353431D01*
X85368477Y-107352059D01*
X85177503Y-107352059D01*
X85171051Y-107353431D01*
X85171046Y-107353431D01*
X85095822Y-107369421D01*
X84990703Y-107391765D01*
X84984673Y-107394450D01*
X84984672Y-107394450D01*
X84836505Y-107460418D01*
X84766138Y-107469852D01*
X84701841Y-107439745D01*
X84664027Y-107379657D01*
X84664703Y-107308663D01*
X84670643Y-107292968D01*
X84688957Y-107252867D01*
X84688958Y-107252864D01*
X84692700Y-107244670D01*
X84698614Y-107203539D01*
X84712861Y-107104448D01*
X84712862Y-107104441D01*
X84713500Y-107100000D01*
X84713500Y-106100000D01*
X84708273Y-106026921D01*
X84667096Y-105886684D01*
X84641288Y-105846527D01*
X84592949Y-105771309D01*
X84592947Y-105771306D01*
X84588077Y-105763729D01*
X84581267Y-105757828D01*
X84484431Y-105673918D01*
X84484428Y-105673916D01*
X84477619Y-105668016D01*
X84467781Y-105663523D01*
X84352864Y-105611042D01*
X84352863Y-105611042D01*
X84344670Y-105607300D01*
X84335755Y-105606018D01*
X84335754Y-105606018D01*
X84204448Y-105587139D01*
X84204441Y-105587138D01*
X84200000Y-105586500D01*
X82700000Y-105586500D01*
X82626921Y-105591727D01*
X82578250Y-105606018D01*
X82495336Y-105630363D01*
X82495333Y-105630365D01*
X82490823Y-105631689D01*
X82490821Y-105631689D01*
X82486684Y-105632904D01*
X82486509Y-105632309D01*
X82422900Y-105641455D01*
X82358319Y-105611962D01*
X82351736Y-105605832D01*
X82111203Y-105365299D01*
X82077177Y-105302987D01*
X82074298Y-105276204D01*
X82074298Y-104294721D01*
X82094300Y-104226600D01*
X82147956Y-104180107D01*
X82218230Y-104170003D01*
X82282810Y-104199497D01*
X82306298Y-104226603D01*
X82307430Y-104228364D01*
X82319112Y-104241847D01*
X82415840Y-104325662D01*
X82430848Y-104335307D01*
X82547275Y-104388477D01*
X82564388Y-104393502D01*
X82695554Y-104412361D01*
X82704495Y-104413000D01*
X83177885Y-104413000D01*
X83193124Y-104408525D01*
X83194329Y-104407135D01*
X83196000Y-104399452D01*
X83196000Y-103667548D01*
X83704000Y-103667548D01*
X83704000Y-104394885D01*
X83708475Y-104410124D01*
X83709865Y-104411329D01*
X83717548Y-104413000D01*
X84197743Y-104413000D01*
X84202250Y-104412839D01*
X84266269Y-104408260D01*
X84279491Y-104405874D01*
X84404458Y-104369181D01*
X84420692Y-104361767D01*
X84528360Y-104292574D01*
X84541847Y-104280888D01*
X84625662Y-104184160D01*
X84635307Y-104169152D01*
X84688477Y-104052725D01*
X84693502Y-104035612D01*
X84712361Y-103904446D01*
X84713000Y-103895503D01*
X84713000Y-103672115D01*
X84708525Y-103656876D01*
X84707135Y-103655671D01*
X84699452Y-103654000D01*
X83722115Y-103654000D01*
X83706876Y-103658475D01*
X83705671Y-103659865D01*
X83704000Y-103667548D01*
X83196000Y-103667548D01*
X83196000Y-102405115D01*
X83194659Y-102400548D01*
X83704000Y-102400548D01*
X83704000Y-103127885D01*
X83708475Y-103143124D01*
X83709865Y-103144329D01*
X83717548Y-103146000D01*
X84694885Y-103146000D01*
X84710124Y-103141525D01*
X84711329Y-103140135D01*
X84713000Y-103132452D01*
X84713000Y-102902257D01*
X84712839Y-102897750D01*
X84708260Y-102833731D01*
X84705874Y-102820509D01*
X84669181Y-102695542D01*
X84661767Y-102679308D01*
X84592574Y-102571640D01*
X84580888Y-102558153D01*
X84484160Y-102474338D01*
X84469152Y-102464693D01*
X84352725Y-102411523D01*
X84335612Y-102406498D01*
X84204446Y-102387639D01*
X84195505Y-102387000D01*
X83722115Y-102387000D01*
X83706876Y-102391475D01*
X83705671Y-102392865D01*
X83704000Y-102400548D01*
X83194659Y-102400548D01*
X83191525Y-102389876D01*
X83190135Y-102388671D01*
X83182452Y-102387000D01*
X82702257Y-102387000D01*
X82697750Y-102387161D01*
X82633731Y-102391740D01*
X82620509Y-102394126D01*
X82495542Y-102430819D01*
X82479308Y-102438233D01*
X82371640Y-102507426D01*
X82358153Y-102519112D01*
X82295523Y-102591392D01*
X82235797Y-102629776D01*
X82164800Y-102629776D01*
X82105074Y-102591393D01*
X82075581Y-102526812D01*
X82074298Y-102508880D01*
X82074298Y-83779336D01*
X88527993Y-83779336D01*
X88561972Y-84001387D01*
X88563789Y-84006694D01*
X88630587Y-84201796D01*
X88634735Y-84213912D01*
X88743984Y-84410192D01*
X88747535Y-84414530D01*
X88747538Y-84414535D01*
X88863428Y-84556125D01*
X88886264Y-84584025D01*
X88890527Y-84587666D01*
X88890532Y-84587671D01*
X88975247Y-84660024D01*
X89057078Y-84729914D01*
X89136349Y-84776236D01*
X89246181Y-84840417D01*
X89246184Y-84840418D01*
X89251028Y-84843249D01*
X89256298Y-84845178D01*
X89256299Y-84845178D01*
X89456718Y-84918521D01*
X89456722Y-84918522D01*
X89461982Y-84920447D01*
X89467499Y-84921410D01*
X89467503Y-84921411D01*
X89648037Y-84952919D01*
X89683273Y-84959069D01*
X89688879Y-84959040D01*
X89688883Y-84959040D01*
X89791937Y-84958500D01*
X89907906Y-84957893D01*
X90128780Y-84916956D01*
X90338914Y-84837553D01*
X90531667Y-84722193D01*
X90700944Y-84574523D01*
X90841396Y-84399210D01*
X90948583Y-84201796D01*
X91019117Y-83988521D01*
X91048887Y-83779336D01*
X93527993Y-83779336D01*
X93561972Y-84001387D01*
X93563789Y-84006694D01*
X93630587Y-84201796D01*
X93634735Y-84213912D01*
X93743984Y-84410192D01*
X93747535Y-84414530D01*
X93747538Y-84414535D01*
X93863428Y-84556125D01*
X93886264Y-84584025D01*
X93890527Y-84587666D01*
X93890532Y-84587671D01*
X93975247Y-84660024D01*
X94057078Y-84729914D01*
X94136349Y-84776236D01*
X94246181Y-84840417D01*
X94246184Y-84840418D01*
X94251028Y-84843249D01*
X94256298Y-84845178D01*
X94256299Y-84845178D01*
X94456718Y-84918521D01*
X94456722Y-84918522D01*
X94461982Y-84920447D01*
X94467499Y-84921410D01*
X94467503Y-84921411D01*
X94648037Y-84952919D01*
X94683273Y-84959069D01*
X94688879Y-84959040D01*
X94688883Y-84959040D01*
X94791937Y-84958500D01*
X94907906Y-84957893D01*
X95128780Y-84916956D01*
X95338914Y-84837553D01*
X95531667Y-84722193D01*
X95700944Y-84574523D01*
X95841396Y-84399210D01*
X95948583Y-84201796D01*
X96019117Y-83988521D01*
X96050768Y-83766126D01*
X96052500Y-83700000D01*
X96051376Y-83687400D01*
X96033030Y-83481848D01*
X96032531Y-83476253D01*
X95973256Y-83259579D01*
X95907457Y-83121627D01*
X95878965Y-83061893D01*
X95878964Y-83061892D01*
X95876548Y-83056826D01*
X95845785Y-83014015D01*
X95748740Y-82878963D01*
X95748738Y-82878961D01*
X95745463Y-82874403D01*
X95634148Y-82766531D01*
X95588174Y-82721979D01*
X95588171Y-82721977D01*
X95584146Y-82718076D01*
X95397696Y-82592787D01*
X95260894Y-82532735D01*
X95197152Y-82504754D01*
X95197148Y-82504753D01*
X95192005Y-82502495D01*
X95186550Y-82501185D01*
X95186546Y-82501184D01*
X94979030Y-82451363D01*
X94979026Y-82451362D01*
X94973576Y-82450054D01*
X94928144Y-82447434D01*
X94754920Y-82437446D01*
X94754917Y-82437446D01*
X94749313Y-82437123D01*
X94526304Y-82464111D01*
X94520942Y-82465761D01*
X94520940Y-82465761D01*
X94463519Y-82483426D01*
X94311598Y-82530163D01*
X94306618Y-82532733D01*
X94306614Y-82532735D01*
X94190266Y-82592787D01*
X94111983Y-82633192D01*
X93933767Y-82769941D01*
X93782584Y-82936089D01*
X93779602Y-82940843D01*
X93682011Y-83096417D01*
X93663213Y-83126383D01*
X93579427Y-83334808D01*
X93533874Y-83554777D01*
X93527993Y-83779336D01*
X91048887Y-83779336D01*
X91050768Y-83766126D01*
X91052500Y-83700000D01*
X91051376Y-83687400D01*
X91033030Y-83481848D01*
X91032531Y-83476253D01*
X90973256Y-83259579D01*
X90907457Y-83121627D01*
X90878965Y-83061893D01*
X90878964Y-83061892D01*
X90876548Y-83056826D01*
X90845785Y-83014015D01*
X90748740Y-82878963D01*
X90748738Y-82878961D01*
X90745463Y-82874403D01*
X90634148Y-82766531D01*
X90588174Y-82721979D01*
X90588171Y-82721977D01*
X90584146Y-82718076D01*
X90397696Y-82592787D01*
X90260894Y-82532735D01*
X90197152Y-82504754D01*
X90197148Y-82504753D01*
X90192005Y-82502495D01*
X90186550Y-82501185D01*
X90186546Y-82501184D01*
X89979030Y-82451363D01*
X89979026Y-82451362D01*
X89973576Y-82450054D01*
X89928144Y-82447434D01*
X89754920Y-82437446D01*
X89754917Y-82437446D01*
X89749313Y-82437123D01*
X89526304Y-82464111D01*
X89520942Y-82465761D01*
X89520940Y-82465761D01*
X89463519Y-82483426D01*
X89311598Y-82530163D01*
X89306618Y-82532733D01*
X89306614Y-82532735D01*
X89190266Y-82592787D01*
X89111983Y-82633192D01*
X88933767Y-82769941D01*
X88782584Y-82936089D01*
X88779602Y-82940843D01*
X88682011Y-83096417D01*
X88663213Y-83126383D01*
X88579427Y-83334808D01*
X88533874Y-83554777D01*
X88527993Y-83779336D01*
X82074298Y-83779336D01*
X82074298Y-79495636D01*
X82094300Y-79427515D01*
X82147956Y-79381022D01*
X82218230Y-79370918D01*
X82282810Y-79400412D01*
X82306295Y-79427514D01*
X82311923Y-79436271D01*
X82318733Y-79442172D01*
X82415569Y-79526082D01*
X82415572Y-79526084D01*
X82422381Y-79531984D01*
X82555330Y-79592700D01*
X82564245Y-79593982D01*
X82564246Y-79593982D01*
X82695552Y-79612861D01*
X82695559Y-79612862D01*
X82700000Y-79613500D01*
X84200000Y-79613500D01*
X84273079Y-79608273D01*
X84351165Y-79585345D01*
X84404670Y-79569635D01*
X84404672Y-79569634D01*
X84413316Y-79567096D01*
X84477135Y-79526082D01*
X84528691Y-79492949D01*
X84528694Y-79492947D01*
X84536271Y-79488077D01*
X84576048Y-79442172D01*
X84626082Y-79384431D01*
X84626084Y-79384428D01*
X84631984Y-79377619D01*
X84692700Y-79244670D01*
X84703962Y-79166340D01*
X84712861Y-79104448D01*
X84712862Y-79104441D01*
X84713500Y-79100000D01*
X84713500Y-78284595D01*
X84733502Y-78216474D01*
X84750405Y-78195499D01*
X85575501Y-77370404D01*
X85637813Y-77336379D01*
X85664596Y-77333500D01*
X101171617Y-77333500D01*
X101182521Y-77334014D01*
X101189912Y-77335666D01*
X101197837Y-77335417D01*
X101197838Y-77335417D01*
X101256853Y-77333562D01*
X101260811Y-77333500D01*
X101289578Y-77333500D01*
X101293502Y-77333004D01*
X101293504Y-77333004D01*
X101293852Y-77332960D01*
X101305698Y-77332027D01*
X101349883Y-77330638D01*
X101369339Y-77324986D01*
X101388679Y-77320981D01*
X101408788Y-77318440D01*
X101416158Y-77315522D01*
X101416162Y-77315521D01*
X101449900Y-77302163D01*
X101461130Y-77298318D01*
X101495968Y-77288197D01*
X101495969Y-77288197D01*
X101503578Y-77285986D01*
X101521012Y-77275676D01*
X101538764Y-77266980D01*
X101550225Y-77262442D01*
X101550224Y-77262442D01*
X101557600Y-77259522D01*
X101593375Y-77233530D01*
X101603294Y-77227014D01*
X101641341Y-77204513D01*
X101641759Y-77204145D01*
X101644024Y-77201880D01*
X101644027Y-77201878D01*
X101655848Y-77190057D01*
X101670875Y-77177223D01*
X101687082Y-77165447D01*
X101688755Y-77167749D01*
X101740008Y-77141811D01*
X101810631Y-77149089D01*
G37*
%TD.AperFunction*%
%TA.AperFunction,Conductor*%
G36*
X90834533Y-94598193D02*
G01*
X90891369Y-94640740D01*
X90916180Y-94707260D01*
X90916501Y-94716246D01*
X90916500Y-95812575D01*
X90916500Y-96897481D01*
X90896498Y-96965602D01*
X90884136Y-96981791D01*
X90810963Y-97063058D01*
X90757221Y-97156141D01*
X90731174Y-97201257D01*
X90715476Y-97228446D01*
X90656462Y-97410073D01*
X90655772Y-97416636D01*
X90655772Y-97416637D01*
X90640005Y-97566650D01*
X90636500Y-97600000D01*
X90637190Y-97606565D01*
X90653611Y-97762797D01*
X90656462Y-97789927D01*
X90715476Y-97971554D01*
X90810963Y-98136942D01*
X90815381Y-98141849D01*
X90815382Y-98141850D01*
X90933451Y-98272979D01*
X90938749Y-98278863D01*
X90944091Y-98282744D01*
X90944093Y-98282746D01*
X91087594Y-98387005D01*
X91093250Y-98391114D01*
X91099278Y-98393798D01*
X91099280Y-98393799D01*
X91219470Y-98447311D01*
X91267713Y-98468790D01*
X91343452Y-98484889D01*
X91448056Y-98507124D01*
X91448061Y-98507124D01*
X91454513Y-98508496D01*
X91645487Y-98508496D01*
X91651939Y-98507124D01*
X91651944Y-98507124D01*
X91756548Y-98484889D01*
X91832287Y-98468790D01*
X91880530Y-98447311D01*
X92000720Y-98393799D01*
X92000722Y-98393798D01*
X92006750Y-98391114D01*
X92012749Y-98386756D01*
X92081722Y-98336644D01*
X92148590Y-98312785D01*
X92217742Y-98328866D01*
X92267222Y-98379780D01*
X92275614Y-98399640D01*
X92298528Y-98470162D01*
X92309369Y-98503525D01*
X92317214Y-98527671D01*
X92320517Y-98533393D01*
X92320518Y-98533394D01*
X92354427Y-98592125D01*
X92412701Y-98693059D01*
X92417119Y-98697966D01*
X92417120Y-98697967D01*
X92505112Y-98795692D01*
X92540487Y-98834980D01*
X92545829Y-98838861D01*
X92545831Y-98838863D01*
X92689646Y-98943350D01*
X92694988Y-98947231D01*
X92701016Y-98949915D01*
X92701018Y-98949916D01*
X92863420Y-99022222D01*
X92869451Y-99024907D01*
X92962851Y-99044760D01*
X93049794Y-99063241D01*
X93049799Y-99063241D01*
X93056251Y-99064613D01*
X93247225Y-99064613D01*
X93253677Y-99063241D01*
X93253682Y-99063241D01*
X93340625Y-99044760D01*
X93434025Y-99024907D01*
X93440056Y-99022222D01*
X93602458Y-98949916D01*
X93602460Y-98949915D01*
X93608488Y-98947231D01*
X93613830Y-98943350D01*
X93757645Y-98838863D01*
X93757647Y-98838861D01*
X93762989Y-98834980D01*
X93798364Y-98795692D01*
X93886356Y-98697967D01*
X93886357Y-98697966D01*
X93890775Y-98693059D01*
X93949049Y-98592125D01*
X93982958Y-98533394D01*
X93982959Y-98533393D01*
X93986262Y-98527671D01*
X93994108Y-98503525D01*
X94002829Y-98476683D01*
X94042902Y-98418077D01*
X94108298Y-98390439D01*
X94122662Y-98389618D01*
X99500537Y-98389618D01*
X99511441Y-98390132D01*
X99518832Y-98391784D01*
X99526757Y-98391535D01*
X99526758Y-98391535D01*
X99585773Y-98389680D01*
X99589731Y-98389618D01*
X99618498Y-98389618D01*
X99622422Y-98389122D01*
X99622424Y-98389122D01*
X99622772Y-98389078D01*
X99634618Y-98388145D01*
X99678803Y-98386756D01*
X99698259Y-98381104D01*
X99717599Y-98377099D01*
X99737708Y-98374558D01*
X99745078Y-98371640D01*
X99745082Y-98371639D01*
X99778820Y-98358281D01*
X99790050Y-98354436D01*
X99824888Y-98344315D01*
X99824889Y-98344315D01*
X99832498Y-98342104D01*
X99849932Y-98331794D01*
X99867684Y-98323098D01*
X99879145Y-98318560D01*
X99879144Y-98318560D01*
X99886520Y-98315640D01*
X99922295Y-98289648D01*
X99932214Y-98283132D01*
X99932867Y-98282746D01*
X99970261Y-98260631D01*
X99970679Y-98260263D01*
X99984762Y-98246180D01*
X99999787Y-98233346D01*
X100016003Y-98221564D01*
X100043950Y-98187782D01*
X100051939Y-98179003D01*
X101031524Y-97199418D01*
X101093836Y-97165392D01*
X101120619Y-97162513D01*
X104282937Y-97162513D01*
X104351058Y-97182515D01*
X104397551Y-97236171D01*
X104407651Y-97306419D01*
X104406464Y-97310073D01*
X104405774Y-97316634D01*
X104405774Y-97316636D01*
X104395954Y-97410073D01*
X104386502Y-97500000D01*
X104386757Y-97502430D01*
X104367190Y-97569071D01*
X104313534Y-97615564D01*
X104275129Y-97626177D01*
X103917013Y-97666030D01*
X103395425Y-97762230D01*
X103393249Y-97762795D01*
X103393239Y-97762797D01*
X102969796Y-97872701D01*
X102882049Y-97895476D01*
X102879919Y-97896195D01*
X102381646Y-98064366D01*
X102381635Y-98064370D01*
X102379514Y-98065086D01*
X102377439Y-98065956D01*
X102377434Y-98065958D01*
X101907617Y-98262969D01*
X101890392Y-98270192D01*
X101888399Y-98271201D01*
X101888388Y-98271206D01*
X101498086Y-98468790D01*
X101417186Y-98509744D01*
X101415264Y-98510896D01*
X101415265Y-98510896D01*
X100973724Y-98775677D01*
X100962319Y-98782516D01*
X100960491Y-98783798D01*
X100960490Y-98783799D01*
X100572417Y-99056036D01*
X100528118Y-99087112D01*
X100526380Y-99088527D01*
X100526368Y-99088536D01*
X100160257Y-99386597D01*
X100116806Y-99421972D01*
X100115168Y-99423513D01*
X99732121Y-99783846D01*
X99732109Y-99783858D01*
X99730488Y-99785383D01*
X99728969Y-99787032D01*
X99728967Y-99787034D01*
X99419849Y-100122609D01*
X99371142Y-100175485D01*
X99369746Y-100177237D01*
X99042008Y-100588522D01*
X99041999Y-100588534D01*
X99040607Y-100590281D01*
X98986556Y-100669073D01*
X98770486Y-100984046D01*
X98740575Y-101027648D01*
X98472581Y-101485347D01*
X98237998Y-101961036D01*
X98237145Y-101963133D01*
X98237143Y-101963136D01*
X98038878Y-102450182D01*
X98038872Y-102450197D01*
X98038025Y-102452279D01*
X97964039Y-102679308D01*
X97889883Y-102906862D01*
X97873686Y-102956562D01*
X97873143Y-102958748D01*
X97873141Y-102958755D01*
X97827741Y-103141525D01*
X97745824Y-103471305D01*
X97655091Y-103993873D01*
X97654866Y-103996108D01*
X97654865Y-103996115D01*
X97604339Y-104497896D01*
X97601953Y-104521590D01*
X97601889Y-104523826D01*
X97601888Y-104523835D01*
X97596609Y-104707102D01*
X97574653Y-104774619D01*
X97519681Y-104819547D01*
X97449146Y-104827623D01*
X97385441Y-104796283D01*
X97350828Y-104742410D01*
X97305866Y-104604031D01*
X97303824Y-104597746D01*
X97208337Y-104432358D01*
X97189403Y-104411329D01*
X97084973Y-104295348D01*
X97084972Y-104295347D01*
X97080551Y-104290437D01*
X97075209Y-104286556D01*
X97075207Y-104286554D01*
X96931392Y-104182067D01*
X96931391Y-104182066D01*
X96926050Y-104178186D01*
X96920022Y-104175502D01*
X96920020Y-104175501D01*
X96757618Y-104103195D01*
X96757617Y-104103195D01*
X96751587Y-104100510D01*
X96658187Y-104080657D01*
X96571244Y-104062176D01*
X96571239Y-104062176D01*
X96564787Y-104060804D01*
X96373813Y-104060804D01*
X96367361Y-104062176D01*
X96367356Y-104062176D01*
X96280413Y-104080657D01*
X96187013Y-104100510D01*
X96180983Y-104103195D01*
X96180982Y-104103195D01*
X96018580Y-104175501D01*
X96018578Y-104175502D01*
X96012550Y-104178186D01*
X95983218Y-104199497D01*
X95931961Y-104236737D01*
X95857901Y-104260800D01*
X95502333Y-104260800D01*
X95434212Y-104240798D01*
X95413238Y-104223895D01*
X92578338Y-101388997D01*
X92544313Y-101326685D01*
X92542123Y-101313071D01*
X92537906Y-101272943D01*
X92537906Y-101272942D01*
X92537216Y-101266379D01*
X92478202Y-101084752D01*
X92382715Y-100919364D01*
X92254929Y-100777443D01*
X92249587Y-100773562D01*
X92249585Y-100773560D01*
X92105770Y-100669073D01*
X92105769Y-100669072D01*
X92100428Y-100665192D01*
X92094400Y-100662508D01*
X92094398Y-100662507D01*
X91931996Y-100590201D01*
X91931995Y-100590201D01*
X91925965Y-100587516D01*
X91832565Y-100567663D01*
X91745622Y-100549182D01*
X91745617Y-100549182D01*
X91739165Y-100547810D01*
X91548191Y-100547810D01*
X91541739Y-100549182D01*
X91541734Y-100549182D01*
X91454791Y-100567663D01*
X91361391Y-100587516D01*
X91355361Y-100590201D01*
X91355360Y-100590201D01*
X91192958Y-100662507D01*
X91192956Y-100662508D01*
X91186928Y-100665192D01*
X91065155Y-100753665D01*
X90998289Y-100777522D01*
X90929138Y-100761442D01*
X90902001Y-100740823D01*
X89621205Y-99460027D01*
X89587179Y-99397715D01*
X89584300Y-99370932D01*
X89584300Y-96315847D01*
X89604302Y-96247726D01*
X89657958Y-96201233D01*
X89710300Y-96189847D01*
X89812477Y-96189847D01*
X89818929Y-96188475D01*
X89818934Y-96188475D01*
X89920240Y-96166941D01*
X89999277Y-96150141D01*
X90079106Y-96114599D01*
X90167710Y-96075150D01*
X90167712Y-96075149D01*
X90173740Y-96072465D01*
X90250581Y-96016637D01*
X90322897Y-95964097D01*
X90322899Y-95964095D01*
X90328241Y-95960214D01*
X90456027Y-95818293D01*
X90551514Y-95652905D01*
X90610528Y-95471278D01*
X90630490Y-95281351D01*
X90612846Y-95113481D01*
X90611218Y-95097988D01*
X90611218Y-95097987D01*
X90610528Y-95091424D01*
X90608043Y-95083774D01*
X90571269Y-94970596D01*
X90551514Y-94909797D01*
X90548210Y-94904074D01*
X90545526Y-94898046D01*
X90548233Y-94896841D01*
X90534525Y-94840406D01*
X90557727Y-94773308D01*
X90571289Y-94757271D01*
X90701406Y-94627154D01*
X90763718Y-94593128D01*
X90834533Y-94598193D01*
G37*
%TD.AperFunction*%
%TA.AperFunction,Conductor*%
G36*
X79641681Y-76388038D02*
G01*
X79648264Y-76394168D01*
X80770393Y-77516297D01*
X80804419Y-77578609D01*
X80807298Y-77605392D01*
X80807298Y-80599170D01*
X80787296Y-80667291D01*
X80733640Y-80713784D01*
X80663366Y-80723888D01*
X80644774Y-80719760D01*
X80618622Y-80711839D01*
X80605993Y-80709390D01*
X80541666Y-80703649D01*
X80536196Y-80703406D01*
X80520976Y-80707875D01*
X80519771Y-80709265D01*
X80518100Y-80716948D01*
X80518100Y-82651285D01*
X80522575Y-82666524D01*
X80523965Y-82667729D01*
X80529585Y-82668951D01*
X80643917Y-82655622D01*
X80652314Y-82653637D01*
X80723209Y-82657433D01*
X80780798Y-82698955D01*
X80806796Y-82765020D01*
X80807298Y-82776258D01*
X80807299Y-99766156D01*
X80787297Y-99834277D01*
X80733641Y-99880770D01*
X80663367Y-99890874D01*
X80644776Y-99886746D01*
X80567825Y-99863440D01*
X80555193Y-99860990D01*
X80490866Y-99855249D01*
X80485396Y-99855006D01*
X80470176Y-99859475D01*
X80468971Y-99860865D01*
X80467300Y-99868548D01*
X80467300Y-101802885D01*
X80471775Y-101818124D01*
X80473165Y-101819329D01*
X80478785Y-101820551D01*
X80593119Y-101807222D01*
X80607273Y-101803876D01*
X80638307Y-101792611D01*
X80709164Y-101788169D01*
X80771175Y-101822741D01*
X80804650Y-101885350D01*
X80807299Y-101911049D01*
X80807299Y-104457205D01*
X80787297Y-104525326D01*
X80733641Y-104571819D01*
X80663367Y-104581923D01*
X80598787Y-104552429D01*
X80592204Y-104546300D01*
X79850405Y-103804501D01*
X79816379Y-103742189D01*
X79813500Y-103715406D01*
X79813500Y-102900000D01*
X79808273Y-102826921D01*
X79767096Y-102686684D01*
X79705856Y-102591393D01*
X79692949Y-102571309D01*
X79692947Y-102571306D01*
X79688077Y-102563729D01*
X79636587Y-102519112D01*
X79584431Y-102473918D01*
X79584428Y-102473916D01*
X79577619Y-102468016D01*
X79444670Y-102407300D01*
X79435755Y-102406018D01*
X79435754Y-102406018D01*
X79304448Y-102387139D01*
X79304441Y-102387138D01*
X79300000Y-102386500D01*
X78134500Y-102386500D01*
X78066379Y-102366498D01*
X78019886Y-102312842D01*
X78008500Y-102260500D01*
X78008500Y-101934500D01*
X78028502Y-101866379D01*
X78082158Y-101819886D01*
X78134500Y-101808500D01*
X78249998Y-101808500D01*
X78277208Y-101812530D01*
X78277345Y-101811822D01*
X78283694Y-101813053D01*
X78289880Y-101814927D01*
X78296316Y-101815501D01*
X78296319Y-101815502D01*
X78360734Y-101821251D01*
X78360740Y-101821251D01*
X78363527Y-101821500D01*
X78899935Y-101821500D01*
X78990013Y-101810998D01*
X79018232Y-101807708D01*
X79018233Y-101807708D01*
X79025504Y-101806860D01*
X79032381Y-101804364D01*
X79032384Y-101804363D01*
X79178043Y-101751491D01*
X79184922Y-101748994D01*
X79326751Y-101656007D01*
X79331792Y-101650686D01*
X79336556Y-101645658D01*
X79397925Y-101609961D01*
X79468852Y-101613109D01*
X79514681Y-101640840D01*
X79550898Y-101675149D01*
X79562545Y-101683862D01*
X79696440Y-101761635D01*
X79709765Y-101767429D01*
X79858784Y-101812562D01*
X79871407Y-101815010D01*
X79935734Y-101820751D01*
X79941204Y-101820994D01*
X79956424Y-101816525D01*
X79957629Y-101815135D01*
X79959300Y-101807452D01*
X79959300Y-99873115D01*
X79954825Y-99857876D01*
X79953435Y-99856671D01*
X79947815Y-99855449D01*
X79833481Y-99868778D01*
X79819334Y-99872122D01*
X79673778Y-99924957D01*
X79660783Y-99931465D01*
X79531289Y-100016365D01*
X79520137Y-100025689D01*
X79515748Y-100030322D01*
X79454379Y-100066020D01*
X79383452Y-100062872D01*
X79337622Y-100035142D01*
X79295685Y-99995414D01*
X79149034Y-99910233D01*
X78986720Y-99861073D01*
X78980280Y-99860498D01*
X78980279Y-99860498D01*
X78915866Y-99854749D01*
X78915860Y-99854749D01*
X78913073Y-99854500D01*
X78376665Y-99854500D01*
X78304206Y-99862948D01*
X78258368Y-99868292D01*
X78258367Y-99868292D01*
X78251096Y-99869140D01*
X78219056Y-99880770D01*
X78177491Y-99895857D01*
X78106633Y-99900298D01*
X78044623Y-99865725D01*
X78011148Y-99803116D01*
X78008500Y-99777418D01*
X78008500Y-82731564D01*
X78028502Y-82663443D01*
X78082158Y-82616950D01*
X78152432Y-82606846D01*
X78178355Y-82614202D01*
X78178366Y-82614167D01*
X78185382Y-82616292D01*
X78316845Y-82656108D01*
X78340680Y-82663327D01*
X78347120Y-82663902D01*
X78347121Y-82663902D01*
X78411534Y-82669651D01*
X78411540Y-82669651D01*
X78414327Y-82669900D01*
X78950735Y-82669900D01*
X79040813Y-82659398D01*
X79069032Y-82656108D01*
X79069033Y-82656108D01*
X79076304Y-82655260D01*
X79083181Y-82652764D01*
X79083184Y-82652763D01*
X79228843Y-82599891D01*
X79235722Y-82597394D01*
X79377551Y-82504407D01*
X79382592Y-82499086D01*
X79387356Y-82494058D01*
X79448725Y-82458361D01*
X79519652Y-82461509D01*
X79565481Y-82489240D01*
X79601698Y-82523549D01*
X79613345Y-82532262D01*
X79747240Y-82610035D01*
X79760565Y-82615829D01*
X79909584Y-82660962D01*
X79922207Y-82663410D01*
X79986534Y-82669151D01*
X79992004Y-82669394D01*
X80007224Y-82664925D01*
X80008429Y-82663535D01*
X80010100Y-82655852D01*
X80010100Y-80721515D01*
X80005625Y-80706276D01*
X80004235Y-80705071D01*
X79998615Y-80703849D01*
X79884281Y-80717178D01*
X79870134Y-80720522D01*
X79724578Y-80773357D01*
X79711583Y-80779865D01*
X79582089Y-80864765D01*
X79570937Y-80874089D01*
X79566548Y-80878722D01*
X79505179Y-80914420D01*
X79434252Y-80911272D01*
X79388422Y-80883542D01*
X79346485Y-80843814D01*
X79321213Y-80829135D01*
X79272356Y-80777625D01*
X79258500Y-80720182D01*
X79258500Y-79733513D01*
X79278502Y-79665392D01*
X79332158Y-79618899D01*
X79362128Y-79609515D01*
X79366341Y-79608755D01*
X79373079Y-79608273D01*
X79379559Y-79606370D01*
X79379561Y-79606370D01*
X79504670Y-79569635D01*
X79504672Y-79569634D01*
X79513316Y-79567096D01*
X79577135Y-79526082D01*
X79628691Y-79492949D01*
X79628694Y-79492947D01*
X79636271Y-79488077D01*
X79676048Y-79442172D01*
X79726082Y-79384431D01*
X79726084Y-79384428D01*
X79731984Y-79377619D01*
X79792700Y-79244670D01*
X79803962Y-79166340D01*
X79812861Y-79104448D01*
X79812862Y-79104441D01*
X79813500Y-79100000D01*
X79813500Y-78100000D01*
X79808273Y-78026921D01*
X79767096Y-77886684D01*
X79718142Y-77810510D01*
X79692949Y-77771309D01*
X79692947Y-77771306D01*
X79688077Y-77763729D01*
X79681267Y-77757828D01*
X79584431Y-77673918D01*
X79584428Y-77673916D01*
X79577619Y-77668016D01*
X79569421Y-77664272D01*
X79452864Y-77611042D01*
X79452863Y-77611042D01*
X79444670Y-77607300D01*
X79435755Y-77606018D01*
X79435754Y-77606018D01*
X79304448Y-77587139D01*
X79304441Y-77587138D01*
X79300000Y-77586500D01*
X78134500Y-77586500D01*
X78066379Y-77566498D01*
X78019886Y-77512842D01*
X78008500Y-77460500D01*
X78008500Y-76539500D01*
X78028502Y-76471379D01*
X78082158Y-76424886D01*
X78134500Y-76413500D01*
X79300000Y-76413500D01*
X79373079Y-76408273D01*
X79438860Y-76388958D01*
X79504664Y-76369637D01*
X79504667Y-76369635D01*
X79509177Y-76368311D01*
X79509179Y-76368311D01*
X79513316Y-76367096D01*
X79513491Y-76367691D01*
X79577100Y-76358545D01*
X79641681Y-76388038D01*
G37*
%TD.AperFunction*%
%TA.AperFunction,Conductor*%
G36*
X131809532Y-99940538D02*
G01*
X131866368Y-99983085D01*
X131891179Y-100049605D01*
X131891500Y-100058594D01*
X131891500Y-102261000D01*
X131871498Y-102329121D01*
X131817842Y-102375614D01*
X131765500Y-102387000D01*
X131722115Y-102387000D01*
X131706876Y-102391475D01*
X131705671Y-102392865D01*
X131704000Y-102400548D01*
X131704000Y-103528000D01*
X131683998Y-103596121D01*
X131630342Y-103642614D01*
X131578000Y-103654000D01*
X130205115Y-103654000D01*
X130189876Y-103658475D01*
X130188671Y-103659865D01*
X130187000Y-103667548D01*
X130187000Y-103897743D01*
X130187161Y-103902250D01*
X130191740Y-103966269D01*
X130194126Y-103979491D01*
X130208957Y-104030002D01*
X130208957Y-104100998D01*
X130170574Y-104160724D01*
X130105993Y-104190217D01*
X130088061Y-104191500D01*
X128275938Y-104191500D01*
X128267368Y-104191208D01*
X128220234Y-104187994D01*
X128220230Y-104187994D01*
X128212658Y-104187478D01*
X128149707Y-104198464D01*
X128143217Y-104199422D01*
X128117798Y-104202498D01*
X128087347Y-104206183D01*
X128087344Y-104206184D01*
X128079806Y-104207096D01*
X128072700Y-104209781D01*
X128070127Y-104210413D01*
X128053803Y-104214878D01*
X128051255Y-104215647D01*
X128043775Y-104216953D01*
X128036825Y-104220004D01*
X128036821Y-104220005D01*
X128017035Y-104228691D01*
X127987066Y-104241847D01*
X127985291Y-104242626D01*
X127979182Y-104245119D01*
X127929460Y-104263907D01*
X127858667Y-104269275D01*
X127796209Y-104235517D01*
X127761918Y-104173351D01*
X127766680Y-104102514D01*
X127770310Y-104093698D01*
X127788957Y-104052867D01*
X127788958Y-104052864D01*
X127792700Y-104044670D01*
X127799681Y-103996115D01*
X127812861Y-103904448D01*
X127812862Y-103904441D01*
X127813500Y-103900000D01*
X127813500Y-103884594D01*
X127833502Y-103816473D01*
X127850405Y-103795499D01*
X128741409Y-102904495D01*
X130187000Y-102904495D01*
X130187000Y-103127885D01*
X130191475Y-103143124D01*
X130192865Y-103144329D01*
X130200548Y-103146000D01*
X131177885Y-103146000D01*
X131193124Y-103141525D01*
X131194329Y-103140135D01*
X131196000Y-103132452D01*
X131196000Y-102405115D01*
X131191525Y-102389876D01*
X131190135Y-102388671D01*
X131182452Y-102387000D01*
X130702257Y-102387000D01*
X130697750Y-102387161D01*
X130633731Y-102391740D01*
X130620509Y-102394126D01*
X130495542Y-102430819D01*
X130479308Y-102438233D01*
X130371640Y-102507426D01*
X130358153Y-102519112D01*
X130274338Y-102615840D01*
X130264693Y-102630848D01*
X130211523Y-102747275D01*
X130206498Y-102764388D01*
X130187639Y-102895554D01*
X130187000Y-102904495D01*
X128741409Y-102904495D01*
X131676405Y-99969499D01*
X131738717Y-99935473D01*
X131809532Y-99940538D01*
G37*
%TD.AperFunction*%
%TA.AperFunction,Conductor*%
G36*
X98755540Y-94732487D02*
G01*
X98802033Y-94786143D01*
X98812137Y-94856417D01*
X98782643Y-94920997D01*
X98776515Y-94927580D01*
X98449497Y-95254599D01*
X98387184Y-95288624D01*
X98360401Y-95291504D01*
X98304513Y-95291504D01*
X98298061Y-95292876D01*
X98298056Y-95292876D01*
X98211113Y-95311357D01*
X98117713Y-95331210D01*
X98111683Y-95333895D01*
X98111682Y-95333895D01*
X97949280Y-95406201D01*
X97949278Y-95406202D01*
X97943250Y-95408886D01*
X97937909Y-95412766D01*
X97937908Y-95412767D01*
X97794093Y-95517254D01*
X97794091Y-95517256D01*
X97788749Y-95521137D01*
X97784328Y-95526047D01*
X97784327Y-95526048D01*
X97711910Y-95606476D01*
X97660963Y-95663058D01*
X97565476Y-95828446D01*
X97506462Y-96010073D01*
X97486500Y-96200000D01*
X97506462Y-96389927D01*
X97565476Y-96571554D01*
X97660963Y-96736942D01*
X97788749Y-96878863D01*
X97794091Y-96882744D01*
X97794093Y-96882746D01*
X97810522Y-96894682D01*
X97853876Y-96950904D01*
X97859951Y-97021640D01*
X97826820Y-97084432D01*
X97765000Y-97119343D01*
X97736461Y-97122618D01*
X93630120Y-97122618D01*
X93619216Y-97122104D01*
X93611825Y-97120452D01*
X93603900Y-97120701D01*
X93603899Y-97120701D01*
X93544884Y-97122556D01*
X93540926Y-97122618D01*
X93512159Y-97122618D01*
X93507874Y-97123159D01*
X93496040Y-97124091D01*
X93470023Y-97124909D01*
X93459773Y-97125231D01*
X93459772Y-97125231D01*
X93451853Y-97125480D01*
X93444245Y-97127690D01*
X93444240Y-97127691D01*
X93432398Y-97131131D01*
X93413044Y-97135139D01*
X93400816Y-97136684D01*
X93392949Y-97137678D01*
X93385581Y-97140595D01*
X93385574Y-97140597D01*
X93351836Y-97153955D01*
X93340606Y-97157800D01*
X93305768Y-97167921D01*
X93305767Y-97167922D01*
X93298158Y-97170132D01*
X93280725Y-97180442D01*
X93262978Y-97189136D01*
X93244137Y-97196596D01*
X93237722Y-97201257D01*
X93208366Y-97222585D01*
X93198481Y-97229080D01*
X93196837Y-97230053D01*
X93132662Y-97247621D01*
X93056251Y-97247621D01*
X93049799Y-97248993D01*
X93049794Y-97248993D01*
X92962851Y-97267474D01*
X92869451Y-97287327D01*
X92863421Y-97290012D01*
X92863420Y-97290012D01*
X92701018Y-97362318D01*
X92701016Y-97362319D01*
X92694988Y-97365003D01*
X92689647Y-97368883D01*
X92689646Y-97368884D01*
X92620016Y-97419473D01*
X92553148Y-97443332D01*
X92483996Y-97427251D01*
X92434516Y-97376337D01*
X92426122Y-97356473D01*
X92413179Y-97316636D01*
X92384524Y-97228446D01*
X92368827Y-97201257D01*
X92342779Y-97156141D01*
X92289037Y-97063058D01*
X92215864Y-96981791D01*
X92185146Y-96917784D01*
X92183500Y-96897481D01*
X92183500Y-95113481D01*
X92203502Y-95045360D01*
X92257158Y-94998867D01*
X92309500Y-94987481D01*
X92385635Y-94987481D01*
X92392087Y-94986109D01*
X92392092Y-94986109D01*
X92479035Y-94967628D01*
X92572435Y-94947775D01*
X92617794Y-94927580D01*
X92740868Y-94872784D01*
X92740870Y-94872783D01*
X92746898Y-94870099D01*
X92787767Y-94840406D01*
X92896055Y-94761731D01*
X92896057Y-94761729D01*
X92901399Y-94757848D01*
X92905820Y-94752938D01*
X92910723Y-94748523D01*
X92911849Y-94749774D01*
X92965148Y-94716936D01*
X92998342Y-94712485D01*
X98687419Y-94712485D01*
X98755540Y-94732487D01*
G37*
%TD.AperFunction*%
%TA.AperFunction,Conductor*%
G36*
X82129121Y-74828502D02*
G01*
X82175614Y-74882158D01*
X82187000Y-74934500D01*
X82187000Y-75127885D01*
X82191475Y-75143124D01*
X82192865Y-75144329D01*
X82200548Y-75146000D01*
X84694885Y-75146000D01*
X84710124Y-75141525D01*
X84711329Y-75140135D01*
X84713000Y-75132452D01*
X84713000Y-74934500D01*
X84733002Y-74866379D01*
X84786658Y-74819886D01*
X84839000Y-74808500D01*
X101160500Y-74808500D01*
X101228621Y-74828502D01*
X101275114Y-74882158D01*
X101286500Y-74934500D01*
X101286500Y-75715406D01*
X101266498Y-75783527D01*
X101249595Y-75804501D01*
X101024501Y-76029595D01*
X100962189Y-76063621D01*
X100935406Y-76066500D01*
X85428383Y-76066500D01*
X85417479Y-76065986D01*
X85410088Y-76064334D01*
X85402162Y-76064583D01*
X85402161Y-76064583D01*
X85343134Y-76066438D01*
X85339176Y-76066500D01*
X85310422Y-76066500D01*
X85306155Y-76067039D01*
X85294313Y-76067972D01*
X85262665Y-76068967D01*
X85258040Y-76069112D01*
X85250117Y-76069361D01*
X85230667Y-76075012D01*
X85211305Y-76079022D01*
X85191212Y-76081560D01*
X85157349Y-76094967D01*
X85150108Y-76097834D01*
X85138878Y-76101679D01*
X85104034Y-76111802D01*
X85104032Y-76111803D01*
X85096421Y-76114014D01*
X85084786Y-76120895D01*
X85078988Y-76124324D01*
X85061241Y-76133018D01*
X85042400Y-76140478D01*
X85035985Y-76145139D01*
X85006629Y-76166467D01*
X84996712Y-76172982D01*
X84958658Y-76195487D01*
X84958241Y-76195855D01*
X84944158Y-76209938D01*
X84929133Y-76222772D01*
X84912917Y-76234554D01*
X84884971Y-76268335D01*
X84876981Y-76277115D01*
X84835204Y-76318892D01*
X84772892Y-76352918D01*
X84702077Y-76347853D01*
X84645241Y-76305306D01*
X84620430Y-76238786D01*
X84633593Y-76178276D01*
X84631563Y-76177349D01*
X84688477Y-76052725D01*
X84693502Y-76035612D01*
X84712361Y-75904446D01*
X84713000Y-75895503D01*
X84713000Y-75672115D01*
X84708525Y-75656876D01*
X84707135Y-75655671D01*
X84699452Y-75654000D01*
X83722115Y-75654000D01*
X83706876Y-75658475D01*
X83705671Y-75659865D01*
X83704000Y-75667548D01*
X83704000Y-76394885D01*
X83708475Y-76410124D01*
X83709865Y-76411329D01*
X83717548Y-76413000D01*
X84197743Y-76413000D01*
X84202250Y-76412839D01*
X84266269Y-76408260D01*
X84279491Y-76405874D01*
X84404458Y-76369181D01*
X84420692Y-76361767D01*
X84474782Y-76327006D01*
X84542903Y-76307004D01*
X84611023Y-76327006D01*
X84657516Y-76380662D01*
X84667619Y-76450936D01*
X84638126Y-76515517D01*
X84631997Y-76522099D01*
X83604501Y-77549595D01*
X83542189Y-77583621D01*
X83515406Y-77586500D01*
X82700000Y-77586500D01*
X82626921Y-77591727D01*
X82573884Y-77607300D01*
X82495330Y-77630365D01*
X82495328Y-77630366D01*
X82486684Y-77632904D01*
X82479105Y-77637775D01*
X82371309Y-77707051D01*
X82371306Y-77707053D01*
X82363729Y-77711923D01*
X82357828Y-77718733D01*
X82357825Y-77718736D01*
X82295522Y-77790637D01*
X82235796Y-77829021D01*
X82164800Y-77829021D01*
X82105074Y-77790637D01*
X82075580Y-77726057D01*
X82074298Y-77708125D01*
X82074298Y-77369181D01*
X82074812Y-77358277D01*
X82076464Y-77350886D01*
X82075920Y-77333562D01*
X82074360Y-77283945D01*
X82074298Y-77279987D01*
X82074298Y-77251220D01*
X82073757Y-77246935D01*
X82072824Y-77235094D01*
X82071685Y-77198834D01*
X82071685Y-77198833D01*
X82071436Y-77190914D01*
X82069226Y-77183306D01*
X82069225Y-77183301D01*
X82065785Y-77171459D01*
X82061777Y-77152105D01*
X82060232Y-77139877D01*
X82059238Y-77132010D01*
X82056321Y-77124642D01*
X82056319Y-77124635D01*
X82042961Y-77090897D01*
X82039116Y-77079667D01*
X82028995Y-77044829D01*
X82028994Y-77044828D01*
X82026784Y-77037219D01*
X82016474Y-77019786D01*
X82007780Y-77002039D01*
X82000320Y-76983198D01*
X81974331Y-76947427D01*
X81967815Y-76937508D01*
X81945311Y-76899456D01*
X81944943Y-76899038D01*
X81930861Y-76884956D01*
X81918020Y-76869923D01*
X81910901Y-76860125D01*
X81906244Y-76853715D01*
X81872469Y-76825774D01*
X81863689Y-76817784D01*
X80713453Y-75667548D01*
X82187000Y-75667548D01*
X82187000Y-75897743D01*
X82187161Y-75902250D01*
X82191740Y-75966269D01*
X82194126Y-75979491D01*
X82230819Y-76104458D01*
X82238233Y-76120692D01*
X82307426Y-76228360D01*
X82319112Y-76241847D01*
X82415840Y-76325662D01*
X82430848Y-76335307D01*
X82547275Y-76388477D01*
X82564388Y-76393502D01*
X82695554Y-76412361D01*
X82704495Y-76413000D01*
X83177885Y-76413000D01*
X83193124Y-76408525D01*
X83194329Y-76407135D01*
X83196000Y-76399452D01*
X83196000Y-75672115D01*
X83191525Y-75656876D01*
X83190135Y-75655671D01*
X83182452Y-75654000D01*
X82205115Y-75654000D01*
X82189876Y-75658475D01*
X82188671Y-75659865D01*
X82187000Y-75667548D01*
X80713453Y-75667548D01*
X80069499Y-75023595D01*
X80035474Y-74961283D01*
X80040538Y-74890468D01*
X80083085Y-74833632D01*
X80149605Y-74808821D01*
X80158594Y-74808500D01*
X82061000Y-74808500D01*
X82129121Y-74828502D01*
G37*
%TD.AperFunction*%
%TD*%
M02*
